<svg width="417" height="64" viewBox="0 0 417 64" fill="none" xmlns="http://www.w3.org/2000/svg">
<g clip-path="url(#clip0_8463_635)">
<path d="M393.246 47.3525C390.007 47.3525 387.174 46.8212 384.745 45.7585C382.316 44.6959 380.418 43.2537 379.052 41.432C377.685 39.6103 376.85 37.6114 376.547 35.4355L383.302 33.0825H383.606C384.011 35.6126 385.048 37.5861 386.718 39.003C388.439 40.3693 390.615 41.0525 393.246 41.0525C395.422 41.0525 397.168 40.5464 398.483 39.5344C399.799 38.4717 400.457 37.0801 400.457 35.3596C400.457 32.7282 398.711 30.9571 395.219 30.0463L387.705 28.3005C384.77 27.592 382.392 26.4788 380.57 24.9607C378.748 23.4426 377.837 21.0895 377.837 17.9015C377.837 15.7762 378.445 13.8533 379.659 12.1328C380.873 10.3617 382.569 8.9701 384.745 7.95804C386.921 6.94597 389.375 6.43994 392.107 6.43994C396.156 6.43994 399.495 7.4014 402.127 9.32432C404.809 11.1966 406.504 13.6762 407.212 16.763L400.381 18.8124H400.077C399.723 16.7883 398.812 15.2196 397.345 14.1063C395.928 12.9424 394.182 12.3605 392.107 12.3605C390.134 12.3605 388.515 12.8665 387.249 13.8786C386.035 14.8401 385.428 16.0039 385.428 17.3702C385.428 18.5847 385.858 19.5714 386.718 20.3305C387.578 21.0389 388.793 21.5956 390.362 22.0004L397.117 23.6703C400.659 24.5305 403.367 25.7703 405.239 27.3896C407.162 29.0089 408.123 31.6403 408.123 35.2837C408.123 37.5608 407.491 39.6103 406.226 41.432C404.961 43.2537 403.189 44.6959 400.912 45.7585C398.686 46.8212 396.13 47.3525 393.246 47.3525Z" fill="#010101"/>
<path d="M335.664 7.19899H342.951V12.8918C344.115 11.0195 345.861 9.47613 348.188 8.26166C350.567 7.04718 353.097 6.43994 355.779 6.43994C359.22 6.43994 362.332 7.3255 365.115 9.09661C367.898 10.8677 370.074 13.322 371.643 16.4594C373.262 19.5461 374.072 23.0378 374.072 26.9342C374.072 30.8306 373.262 34.3475 371.643 37.4849C370.074 40.5717 367.873 43.0007 365.039 44.7718C362.256 46.4923 359.093 47.3525 355.551 47.3525C352.97 47.3525 350.516 46.7453 348.188 45.5308C345.861 44.3164 344.115 42.773 342.951 40.9007V60.7877H335.664V7.19899ZM354.488 40.9007C358.031 40.9007 360.915 39.6356 363.142 37.1054C365.368 34.5247 366.481 31.1596 366.481 27.0101C366.481 24.2269 365.975 21.7727 364.963 19.6474C363.951 17.522 362.56 15.8774 360.789 14.7135C359.017 13.4991 356.993 12.8918 354.716 12.8918C351.478 12.8918 348.77 13.9798 346.594 16.1557C344.418 18.2811 343.204 21.0389 342.951 24.4293V29.515C343.204 32.8548 344.393 35.5873 346.518 37.7127C348.694 39.838 351.351 40.9007 354.488 40.9007Z" fill="#010101"/>
<path d="M310.833 47.3525C307.089 47.3525 303.724 46.467 300.738 44.6959C297.753 42.9248 295.425 40.4958 293.755 37.409C292.085 34.2716 291.25 30.7547 291.25 26.8583C291.25 23.0125 292.085 19.5461 293.755 16.4594C295.425 13.322 297.753 10.8677 300.738 9.09661C303.724 7.3255 307.089 6.43994 310.833 6.43994C314.527 6.43994 317.867 7.3255 320.853 9.09661C323.889 10.8677 326.242 13.322 327.912 16.4594C329.632 19.5461 330.493 23.0125 330.493 26.8583C330.493 30.7041 329.632 34.1957 327.912 37.3331C326.242 40.4705 323.889 42.9248 320.853 44.6959C317.867 46.467 314.527 47.3525 310.833 47.3525ZM310.833 40.9006C313.161 40.9006 315.236 40.2934 317.058 39.0789C318.879 37.8645 320.296 36.1946 321.308 34.0692C322.371 31.9439 322.902 29.5403 322.902 26.8583C322.902 24.1763 322.371 21.7727 321.308 19.6474C320.296 17.522 318.854 15.8774 316.982 14.7135C315.16 13.4991 313.111 12.8918 310.833 12.8918C308.506 12.8918 306.431 13.4991 304.609 14.7135C302.788 15.8774 301.371 17.522 300.359 19.6474C299.347 21.7727 298.84 24.1763 298.84 26.8583C298.84 29.5403 299.347 31.9439 300.359 34.0692C301.371 36.1946 302.788 37.8645 304.609 39.0789C306.431 40.2934 308.506 40.9006 310.833 40.9006Z" fill="#010101"/>
<path d="M249.742 7.19899H257.029V12.8918C258.193 11.0195 259.939 9.47613 262.266 8.26166C264.645 7.04718 267.175 6.43994 269.857 6.43994C273.298 6.43994 276.41 7.3255 279.193 9.09661C281.976 10.8677 284.152 13.322 285.721 16.4594C287.34 19.5461 288.15 23.0378 288.15 26.9342C288.15 30.8306 287.34 34.3475 285.721 37.4849C284.152 40.5717 281.951 43.0007 279.117 44.7718C276.334 46.4923 273.171 47.3525 269.629 47.3525C267.048 47.3525 264.594 46.7453 262.266 45.5308C259.939 44.3164 258.193 42.773 257.029 40.9007V60.7877H249.742V7.19899ZM268.567 40.9007C272.109 40.9007 274.993 39.6356 277.22 37.1054C279.446 34.5247 280.559 31.1596 280.559 27.0101C280.559 24.2269 280.053 21.7727 279.041 19.6474C278.029 17.522 276.638 15.8774 274.867 14.7135C273.096 13.4991 271.071 12.8918 268.794 12.8918C265.556 12.8918 262.848 13.9798 260.672 16.1557C258.497 18.2811 257.282 21.0389 257.029 24.4293V29.515C257.282 32.8548 258.471 35.5873 260.597 37.7127C262.772 39.838 265.429 40.9007 268.567 40.9007Z" fill="#010101"/>
<path d="M207.328 26.8583C207.328 22.9112 208.138 19.3943 209.757 16.3075C211.376 13.2208 213.628 10.8171 216.513 9.09661C219.397 7.3255 222.686 6.43994 226.38 6.43994C230.783 6.43994 234.325 7.3761 237.007 9.24842C239.739 11.1207 241.662 13.4991 242.776 16.3834C243.939 19.2172 244.521 22.1775 244.521 25.2643C244.521 25.8715 244.471 26.7824 244.37 27.9969H214.691C214.893 32.0451 216.082 35.2331 218.258 37.5608C220.485 39.838 223.344 40.9766 226.836 40.9766C229.568 40.9766 231.769 40.3946 233.439 39.2307C235.16 38.0163 236.374 36.144 237.083 33.6138L244.37 35.7391C243.307 39.332 241.232 42.1657 238.145 44.2405C235.109 46.3152 231.289 47.3525 226.684 47.3525C222.939 47.3525 219.599 46.4923 216.664 44.7718C213.729 43.0007 211.427 40.5717 209.757 37.4849C208.138 34.3475 207.328 30.8053 207.328 26.8583ZM236.703 22.4558C236.501 19.369 235.463 16.9148 233.591 15.0931C231.769 13.2208 229.366 12.2846 226.38 12.2846C223.293 12.2846 220.763 13.1955 218.79 15.0172C216.867 16.7883 215.627 19.2678 215.07 22.4558H236.703Z" fill="#010101"/>
<path d="M189.668 47.3525C186.429 47.3525 183.595 46.8212 181.166 45.7585C178.737 44.6959 176.84 43.2537 175.474 41.432C174.107 39.6103 173.272 37.6114 172.969 35.4355L179.724 33.0825H180.028C180.433 35.6126 181.47 37.5861 183.14 39.003C184.86 40.3693 187.036 41.0525 189.668 41.0525C191.844 41.0525 193.59 40.5464 194.905 39.5344C196.221 38.4717 196.879 37.0801 196.879 35.3596C196.879 32.7282 195.133 30.9571 191.641 30.0463L184.127 28.3005C181.192 27.592 178.813 26.4788 176.992 24.9607C175.17 23.4426 174.259 21.0895 174.259 17.9015C174.259 15.7762 174.866 13.8533 176.081 12.1328C177.295 10.3617 178.991 8.9701 181.166 7.95804C183.342 6.94597 185.797 6.43994 188.529 6.43994C192.577 6.43994 195.917 7.4014 198.549 9.32432C201.231 11.1966 202.926 13.6762 203.634 16.763L196.803 18.8124H196.499C196.145 16.7883 195.234 15.2196 193.767 14.1063C192.35 12.9424 190.604 12.3605 188.529 12.3605C186.556 12.3605 184.936 12.8665 183.671 13.8786C182.457 14.8401 181.85 16.0039 181.85 17.3702C181.85 18.5847 182.28 19.5714 183.14 20.3305C184 21.0389 185.215 21.5956 186.783 22.0004L193.539 23.6703C197.081 24.5305 199.788 25.7703 201.661 27.3896C203.584 29.0089 204.545 31.6403 204.545 35.2837C204.545 37.5608 203.913 39.6103 202.647 41.432C201.382 43.2537 199.611 44.6959 197.334 45.7585C195.108 46.8212 192.552 47.3525 189.668 47.3525Z" fill="#010101"/>
<path d="M161.125 46.5945V7.19995H168.412V46.5945H161.125Z" fill="#010101"/>
<path d="M102.919 12.0579L101.477 7.50357V7.19995H108.915L108.991 7.50357L110.206 12.0579L117.113 36.2714L124.248 12.8928L124.476 12.0579L125.842 7.50357L125.994 7.19995H132.977L133.129 7.57948L134.495 12.0579L141.934 36.2714L148.689 12.0579L149.904 7.50357L149.98 7.19995H157.57V7.50357L156.204 12.0579L145.501 46.5945H138.442L129.485 17.6748L120.453 46.5945H113.621L102.919 12.0579Z" fill="#010101"/>
<path d="M49.1213 14.1106C49.2825 13.5711 48.8784 13.0287 48.3154 13.0287H30.4255C30.0537 13.0287 29.726 13.2729 29.6196 13.6292L20.431 44.3945C20.2699 44.934 20.6739 45.4764 21.237 45.4764H39.1268C39.4986 45.4764 39.8263 45.2322 39.9328 44.876L49.1213 14.1106Z" fill="#010101" stroke="#010101" stroke-width="2.31769"/>
<path d="M2.24566 30.4229C2.01053 29.8682 2.41765 29.2534 3.02011 29.2534H20.9455C21.2832 29.2534 21.5882 29.4554 21.72 29.7663L27.8843 44.3078C28.1195 44.8625 27.7123 45.4773 27.1099 45.4773H9.18445C8.84676 45.4773 8.54181 45.2753 8.41001 44.9644L2.24566 30.4229Z" fill="#010101" stroke="#010101" stroke-width="2.31769"/>
<path d="M79.256 4.83641C79.4134 4.29795 79.0097 3.75919 78.4486 3.75919H60.7268C60.3532 3.75919 60.0243 4.00565 59.9195 4.36427L48.213 44.4004C48.0556 44.9389 48.4594 45.4776 49.0204 45.4776H66.7422C67.1158 45.4776 67.4447 45.2312 67.5495 44.8725L79.256 4.83641Z" fill="#010101" stroke="#010101" stroke-width="2.31769"/>
</g>
<defs>
<clipPath id="clip0_8463_635">
<rect width="416.022" height="63.3744" fill="white" transform="translate(0 0.535156)"/>
</clipPath>
</defs>
</svg>
