<?xml version="1.0" encoding="UTF-8"?>
<svg width="360px" height="139px" viewBox="0 0 360 139" version="1.1" xmlns="http://www.w3.org/2000/svg" xmlns:xlink="http://www.w3.org/1999/xlink">
    <!-- Generator: Sketch 58 (84663) - https://sketch.com -->
    <title>poof-09</title>
    <desc>Created with Sketch.</desc>
    <defs>
        <linearGradient x1="31.6214582%" y1="47.8686021%" x2="66.8273815%" y2="54.7653279%" id="linearGradient-1">
            <stop stop-color="#21428D" offset="0%"></stop>
            <stop stop-color="#21408A" offset="35%"></stop>
            <stop stop-color="#203A82" offset="57%"></stop>
            <stop stop-color="#1E2F73" offset="75%"></stop>
            <stop stop-color="#1C215E" offset="92%"></stop>
            <stop stop-color="#1A1751" offset="100%"></stop>
        </linearGradient>
        <linearGradient x1="26.9832211%" y1="61.9854427%" x2="68.0079153%" y2="0.894839796%" id="linearGradient-2">
            <stop stop-color="#5F5BA8" offset="0%"></stop>
            <stop stop-color="#5C5AA7" offset="37%"></stop>
            <stop stop-color="#5455A5" offset="61%"></stop>
            <stop stop-color="#454EA1" offset="81%"></stop>
            <stop stop-color="#30439B" offset="99%"></stop>
            <stop stop-color="#2F429B" offset="100%"></stop>
        </linearGradient>
        <linearGradient x1="24.9263454%" y1="30.3173567%" x2="70.8623832%" y2="105.529629%" id="linearGradient-3">
            <stop stop-color="#009FD0" offset="0%"></stop>
            <stop stop-color="#03A0D1" offset="29%"></stop>
            <stop stop-color="#0BA4D2" offset="47%"></stop>
            <stop stop-color="#1AAAD5" offset="63%"></stop>
            <stop stop-color="#2FB3DA" offset="77%"></stop>
            <stop stop-color="#49BFDF" offset="89%"></stop>
            <stop stop-color="#66CBE5" offset="100%"></stop>
        </linearGradient>
        <linearGradient x1="1.27981381%" y1="47.1916175%" x2="100.625501%" y2="50.6997285%" id="linearGradient-4">
            <stop stop-color="#0085C8" offset="0%"></stop>
            <stop stop-color="#2D429B" offset="100%"></stop>
        </linearGradient>
        <linearGradient x1="25.5122951%" y1="30.1056409%" x2="71.5985624%" y2="105.475272%" id="linearGradient-5">
            <stop stop-color="#92C83E" offset="0%"></stop>
            <stop stop-color="#91C843" offset="13%"></stop>
            <stop stop-color="#8DC852" offset="29%"></stop>
            <stop stop-color="#86C96A" offset="46%"></stop>
            <stop stop-color="#7DC98C" offset="64%"></stop>
            <stop stop-color="#72CAB7" offset="83%"></stop>
            <stop stop-color="#66CBE5" offset="100%"></stop>
        </linearGradient>
    </defs>
    <g id="Page-1" stroke="none" stroke-width="1" fill="none" fill-rule="evenodd">
        <g id="poof-09" fill-rule="nonzero">
            <path d="M218.86,41 C201.186888,41 186.86,55.326888 186.86,73 C186.86,90.673112 201.186888,105 218.86,105 C236.533112,105 250.86,90.673112 250.86,73 C250.86,55.326888 236.533112,41 218.86,41 Z M219.22,91.19 C211.852923,91.19 205.211635,86.7511044 202.394249,79.944038 C199.576863,73.1369717 201.138502,65.3029592 206.350673,60.0965125 C211.562845,54.8900658 219.398568,53.337036 226.202535,56.1619007 C233.006501,58.9867654 237.438091,65.6329279 237.430011,73 C237.413451,83.0453876 229.265401,91.1800136 219.22,91.18 L219.22,91.19 Z" id="Shape" fill="#32325D"></path>
            <path d="M148.69,41 C131.016888,41 116.69,55.326888 116.69,73 C116.69,90.673112 131.016888,105 148.69,105 C166.363112,105 180.69,90.673112 180.69,73 C180.69,55.326888 166.363112,41 148.69,41 Z M149.05,91.19 C141.682923,91.19 135.041635,86.7511044 132.224249,79.944038 C129.406863,73.1369717 130.968502,65.3029592 136.180673,60.0965125 C141.392845,54.8900658 149.228568,53.337036 156.032535,56.1619007 C162.836501,58.9867654 167.268091,65.6329279 167.260011,73 C167.243451,83.0453876 159.095401,91.1800136 149.05,91.18 L149.05,91.19 Z" id="Shape" fill="#32325D"></path>
            <path d="M289,41 C271.326888,41 257,55.326888 257,73 C257,90.673112 271.326888,105 289,105 C306.673112,105 321,90.673112 321,73 C321,55.326888 306.673112,41 289,41 Z M289.36,91.19 C279.30553,91.1679083 271.171641,83.0011959 271.19001,72.946718 C271.208442,62.8922401 279.372168,54.7553538 289.426652,54.7700435 C299.481136,54.784773 307.621019,62.9455113 307.610011,73 C307.593446,83.0492928 299.439305,91.1855322 289.39,91.18 L289.36,91.19 Z" id="Shape" fill="#32325D"></path>
            <path d="M130,122.64 L118.6,127.5 C118.180409,127.677556 117.699783,127.633209 117.319766,127.381874 C116.939748,127.13054 116.71083,126.705612 116.71,126.25 L116.71,44.8 C116.711405,44.375712 116.909317,43.9760178 117.245911,43.7177019 C117.582504,43.459386 118.01979,43.3716023 118.43,43.48 L129.84,46.63 C130.430082,46.7919756 130.839331,47.328091 130.84,47.94 L130.84,121.39 C130.84,121.938646 130.507989,122.432734 130,122.64 L130,122.64 Z" id="Path" fill="#32325D"></path>
            <path d="M76.47,92.86 C76.4906682,91.5037639 76.3902701,90.1483888 76.17,88.81 L75.38,88.68 L76.01,88.74 C76.25,87.5 75.49,85.66 75.09,84.43 C71.46,75 63.64,68.1 56.8,60.74 C46.68,50 36.73,39 26.39,28.44 C22.3033333,24.2533333 18.1733333,20.1066667 14,16 C10.25,12.3 5.25,8.66 2.26,4.39 C2,5.39 1.88,6.53 1.72,7.6 C-1.51,30.31 -0.39,56.6 17.88,73.65 C27.5725308,82.6493542 39.3213457,89.1383256 52.1,92.55 C46.6763714,95.6963105 42.3748819,100.46292 39.8,106.18 C35.19,115.83 36.3,128.59 39.14,138.68 C40.0339489,137.110669 41.0575124,135.618809 42.2,134.22 C46.735911,129.186448 51.7123498,124.568098 57.07,120.42 C61.85,116.61 67.5,113.48 71.07,108.5 C73.7818933,104.796372 75.5651802,100.495907 76.27,95.96 C76.3983929,94.9315764 76.4651787,93.8963959 76.47,92.86 Z" id="Path" fill="url(#linearGradient-1)"></path>
            <path d="M95,93.26 C94.2985642,97.7981961 92.5187731,102.10193 89.81,105.81 C86.29,110.81 80.64,113.92 75.81,117.72 C70.4726968,121.874015 65.5164067,126.495647 61,131.53 C59.8741193,132.931547 58.8704457,134.42702 58,136 C55.15,125.92 54,113.16 58.66,103.5 C61.2367911,97.7873354 65.533507,93.0221411 70.95,89.87 C78.7933601,92.0012796 86.8731131,93.1401721 95,93.26 L95,93.26 Z" id="Path" fill="url(#linearGradient-2)"></path>
            <path d="M94.81,86.05 C92.75,85.86 90.75,85.51 88.68,85.52 C82.479857,85.4127357 76.3565641,86.9039539 70.9,89.85 C58.1282261,86.4551341 46.3825673,79.9831765 36.69,71 C18.41,53.86 17.3,27.61 20.53,4.9 C20.68,3.83 20.81,2.74 21.06,1.7 C24.06,5.97 29.06,9.6 32.8,13.3 C36.9733333,17.4133333 41.1033333,21.56 45.19,25.74 C55.53,36.33 65.48,47.26 75.59,58.04 C82.44,65.41 90.25,72.3 93.89,81.74 C94.29,83 95.05,84.81 94.81,86.05 Z" id="Path" fill="url(#linearGradient-3)"></path>
            <path d="M95,93.26 C86.8487981,93.1395041 78.7451489,91.9938389 70.88,89.85 C76.3365641,86.9039539 82.459857,85.4127357 88.66,85.52 C90.7715318,85.5074553 92.8789198,85.708478 94.95,86.12 C95.1579726,87.4430305 95.2583014,88.7807489 95.25,90.12 C95.2359513,91.1710321 95.1524359,92.219986 95,93.26 Z" id="Path" fill="url(#linearGradient-4)"></path>
            <path d="M333,55.92 L327.25,55.92 C326.537553,55.92 325.96,55.3424473 325.96,54.63 L325.96,44.37 C325.96,43.6575527 326.537553,43.08 327.25,43.08 L333,43.08 L333,40 C333,25.19 341.17,18.13 357.74,18.1994846 C358.419655,18.2202109 358.968918,18.7607558 359,19.44 L359,30.05 C359.00019,30.7508942 358.440705,31.3237002 357.74,31.34 C351.12,31.42 348.84,33.98 348.84,40.51 L348.84,43.08 L358.38,43.08 C359.092447,43.08 359.67,43.6575527 359.67,44.37 L359.67,54.63 C359.67,54.9721293 359.53409,55.3002458 359.292168,55.5421677 C359.050246,55.7840897 358.722129,55.92 358.38,55.92 L348.84,55.92 L348.84,103.66 C348.84,104.372447 348.262447,104.950039 347.55,104.950039 L334.28,104.950039 C333.937053,104.95269 333.607371,104.817644 333.364864,104.575136 C333.122356,104.332629 332.98731,104.002947 332.99,103.66 L333,55.92 Z" id="Path" fill="#32325D"></path>
            <path d="M94.85,86.13 C92.78,85.94 90.75,85.59 88.65,85.59 C82.3714796,85.4735426 76.1699226,86.9860334 70.65,89.98 C57.7362418,86.530187 45.8659935,79.9649817 36.08,70.86 C17.65,53.57 16.53,27 19.79,4.05 C19.95,2.96 20.07,1.86 20.33,0.81 C23.33,5.13 28.41,8.81 32.2,12.54 C36.4066667,16.7 40.5766667,20.8966667 44.71,25.13 C55.16,35.84 65.21,46.89 75.44,57.8 C82.35,65.25 90.25,72.22 93.92,81.8 C94.33,83 95.1,84.87 94.85,86.13 Z" id="Path" fill="url(#linearGradient-5)"></path>
        </g>
    </g>
</svg>