<svg width="2483" height="2484" viewBox="-750 -750 3983 3984" fill="none" xmlns="http://www.w3.org/2000/svg">
<rect x="-750" y="-750" width="3983" height="3984" rx="450" fill="#18181B"/>
<path d="M636.628 2.74463C778.383 -6.9501 921.849 20.2604 1043.81 93.8262C1129.27 145.396 1205.52 257.659 1312.65 209.593C1374.41 181.893 1442.02 126.332 1505.41 93.4189C1677.06 4.37403 1866.31 -17.378 2050.02 49.5075C2437.24 190.529 2656.39 756 2309.17 1053.6C1970.35 1344.04 1599.34 851.644 1374.57 642.76C1327.23 598.848 1275.26 535.71 1204.38 566.587C1157.37 587.035 1043.64 716.896 999.162 760.237C860.992 895.311 721.925 1030.47 584.488 1166.76C537.155 1218.98 544.976 1267.95 590.272 1317.48C771.051 1515.12 989.549 1695.17 1173.02 1892.24C1239.17 1945.44 1283.08 1924.17 1339.37 1874.72C1489.28 1742.91 1623.21 1553.66 1785.82 1441.31C2320.01 1072.1 2707.06 1780.79 2332.64 2226.67C2086.11 2520.2 1755.76 2527.45 1432.49 2356.36C1390.05 2333.88 1341 2295.26 1300.92 2276.77C1222.96 2240.92 1174.64 2303.65 1119.57 2343.25C818.465 2559.79 414.871 2524.02 169.978 2242.39C-24.5687 2018.68 -57.482 1650.28 106.921 1401.07C153.847 1329.86 251.201 1271.69 192.381 1179.72C156.617 1123.75 108.062 1081.79 73.5191 1017.02C-150.6 597.382 166.393 34.9246 636.465 2.74463H636.628ZM683.554 186.537C328.189 196.395 93.3973 549.804 216.007 882.521C246.639 965.781 338.698 1127.09 441.919 1036.01C613.247 865.983 792.64 703.209 964.049 533.592C1021 477.216 1124.05 406.501 1053.58 322.671C973.01 226.864 803.882 183.278 683.554 186.619V186.537ZM1751.11 190.448C1664.68 198.106 1529.85 261.325 1462.88 316.723C1400.39 368.374 1410.58 413.508 1458.56 468.988C1535.39 557.869 1643.66 664.185 1730.34 744.676C1812.7 821.175 1963.83 948.184 2078.54 955.679C2214.91 964.641 2302.41 812.05 2311.29 691.966C2333.37 394.526 2032.59 165.6 1751.2 190.529L1751.11 190.448ZM378.292 1418.17C300.164 1430.56 220.814 1574.43 202.239 1644.9C98.6113 2037.33 492.755 2393.92 874.108 2265.93C929.832 2247.28 1072.73 2171.43 1079.41 2107.48C1086.09 2043.52 1018.31 2010.04 981.483 1974.52C875.33 1872.12 779.279 1759.53 676.629 1653.7C616.098 1591.38 538.133 1504.12 473.203 1450.44C445.748 1427.71 415.441 1412.31 378.292 1418.17ZM2052.14 1531.66C1914.13 1548.28 1760.65 1720.18 1665.98 1814.19C1601.54 1878.14 1511.19 1955.05 1454.57 2021.2C1412.61 2070.33 1403.57 2106.74 1452.53 2156.44C1518.6 2223.41 1719.42 2288.01 1812.54 2293.06C2066.72 2306.91 2287.91 2070.98 2303.23 1825.76C2312.59 1676.51 2220.05 1511.37 2052.14 1531.66Z" fill="white"/>
</svg>
