<svg width="32" height="32" viewBox="0 0 32 32" fill="none" xmlns="http://www.w3.org/2000/svg">
<path d="M31.2044 15.9901C31.6547 15.9901 32.0219 16.3554 31.999 16.8052C31.8522 19.6855 30.9295 22.4783 29.3216 24.8847C27.5624 27.5175 25.062 29.5696 22.1366 30.7813C19.2112 31.9931 15.9921 32.3101 12.8865 31.6924C9.78089 31.0746 6.92821 29.5498 4.68919 27.3108C2.45017 25.0718 0.925375 22.2191 0.307631 19.1135C-0.310112 16.0079 0.00693786 12.7888 1.21869 9.86341C2.43044 6.93799 4.48246 4.43759 7.11527 2.67841C9.52168 1.0705 12.3145 0.147813 15.1948 0.00101781C15.6446 -0.021902 16.0099 0.345307 16.0099 0.795611L16.0099 2.68709C16.0099 3.13739 15.6444 3.49966 15.1951 3.52904C13.0118 3.67178 10.8992 4.38617 9.07209 5.60699C7.01849 6.97915 5.41791 8.92946 4.47275 11.2113C3.52758 13.4931 3.28029 16.004 3.76213 18.4264C4.24397 20.8487 5.4333 23.0738 7.17974 24.8203C8.92617 26.5667 11.1513 27.756 13.5736 28.2379C15.996 28.7197 18.5069 28.4724 20.7887 27.5273C23.0705 26.5821 25.0208 24.9815 26.393 22.9279C27.6138 21.1008 28.3282 18.9882 28.471 16.8049C28.5003 16.3556 28.8626 15.9901 29.3129 15.9901H31.2044Z" fill="black"/>
<path d="M14.0086 13.798C14.0086 15.5664 12.5751 17 10.8067 17C9.03826 17 7.60469 15.5664 7.60469 13.798C7.60469 12.0296 9.03826 10.5961 10.8067 10.5961C12.5751 10.5961 14.0086 12.0296 14.0086 13.798Z" fill="black"/>
<path d="M19.6121 13.0124C19.6121 12.5621 19.9771 12.197 20.4274 12.197H25.6009C26.0512 12.197 26.4163 12.5621 26.4163 13.0124V14.5837C26.4163 15.034 26.0512 15.399 25.6009 15.399H20.4274C19.9771 15.399 19.6121 15.034 19.6121 14.5837V13.0124Z" fill="black"/>
</svg>
