<svg width="157" height="50" viewBox="0 0 157 50" fill="none" xmlns="http://www.w3.org/2000/svg">
<path d="M29.5801 35.4564C29.1343 34.5313 28.7895 33.5388 28.5596 32.524C28.5288 32.3754 28.5007 32.238 28.4783 32.1147L28.4363 31.9128L28.4307 31.8932V31.8736C28.3662 31.5204 28.3241 31.1895 28.2933 30.8671C28.2036 30.0569 28.1924 29.2383 28.2596 28.4309C28.3073 27.7721 28.4054 27.1189 28.5512 26.4685C27.2111 25.0107 25.288 24.1865 23.4293 23.979C20.166 23.6118 16.2804 25.078 14.96 29.1682C14.7161 29.9252 14.6488 30.626 14.5787 31.3017C14.4554 32.5408 14.3517 33.6117 13.1546 34.6266C11.921 35.6751 10.1128 36.0507 8.44195 35.6078C6.96732 35.2153 5.84594 34.2341 5.36654 32.9109C4.55354 30.6709 5.60204 26.8778 6.50475 24.8789C10.6371 15.7228 20.5641 13.4688 28.2344 15.9779C30.0146 16.5583 31.8116 17.4638 33.4432 18.7029C33.5834 18.5908 33.7236 18.4842 33.8666 18.3805C34.0684 18.2375 34.2506 18.1086 34.4273 17.9964C35.0468 17.5927 35.6944 17.2451 36.3589 16.9535C32.9498 13.937 28.5176 12.1316 23.6199 11.8568C18.5568 11.5709 13.2975 13.281 9.19047 16.5442C4.87313 19.9757 2.32198 24.6715 2.00519 29.7626C1.65195 35.406 5.14227 38.4085 8.75593 38.8794C12.4593 39.3644 16.7206 37.2759 17.7074 32.3446C17.7971 31.9044 17.8055 31.5316 17.8139 31.2036C17.8308 30.6317 17.8448 30.1354 18.2541 29.3785C19.3951 27.2787 21.7416 26.7292 23.561 27.1161C25.2487 27.4721 27.1186 28.7309 27.3149 31.1923C27.8307 37.6431 22.7228 43.4351 17.4102 45.8236C17.1243 45.9526 16.7458 46.0563 16.3477 46.1685C15.4338 46.4208 14.3993 46.7095 13.99 47.4552C13.7882 47.8281 13.7629 48.2711 13.9199 48.7729C14.0264 49.1177 14.2507 49.3756 14.5647 49.5242C14.7946 49.6335 15.0581 49.6784 15.3469 49.6784C16.1543 49.6784 17.1355 49.3195 18.0354 48.9551L18.2625 48.8626C24.0685 46.5862 28.3746 41.5764 29.8156 35.9414C29.7315 35.7816 29.6502 35.619 29.5717 35.4564H29.5801Z" fill="#FF4D00"/>
<path d="M21.7085 17.9123C16.623 18.145 12.2159 20.7775 9.91989 24.9546C9.37602 25.9415 7.60703 30.2364 8.35836 32.0811C8.53498 32.5128 8.84617 32.81 9.25828 32.9333C9.82458 33.1071 10.29 33.0707 10.6376 32.824C11.2628 32.3838 11.3104 31.4166 11.3497 30.6401C11.3637 30.3653 11.3749 30.1018 11.4113 29.9196C12.771 23.1772 18.8041 20.3934 24.0606 21.1279C26.0426 21.4055 27.991 22.1904 29.6002 23.4828C29.746 23.1857 29.9002 22.8913 30.0684 22.6025C30.4328 21.9746 30.8506 21.369 31.3131 20.8027C28.6807 18.7898 25.3053 17.7441 21.7085 17.9095V17.9123Z" fill="#FF4D00"/>
<path d="M23.4325 35.605C24.2427 33.0847 24.3689 31.4222 23.8138 30.5251C23.5755 30.1382 23.2195 29.9055 22.7597 29.8355C22.2803 29.7626 21.8878 29.8495 21.5906 30.0934C21.0019 30.5812 20.9683 31.554 20.9402 32.3361C20.929 32.6277 20.9206 32.9024 20.8842 33.0875C19.6955 39.1374 14.1615 42.5099 7.42754 41.2932L7.28456 41.268L7.16682 41.3521C6.25008 42.0137 5.87162 42.6613 6.03982 43.2753C6.23887 43.993 7.17242 44.478 8.60219 44.6041C9.13485 44.6518 9.6619 44.6742 10.1805 44.6742C16.5136 44.6742 21.6243 41.2315 23.4325 35.605Z" fill="#FF4D00"/>
<path d="M4.04102 17.5451C4.46715 16.9536 4.91009 16.3396 5.22688 16.02C9.56104 11.6634 15.8352 9.16274 22.443 9.16274H22.4514C29.0395 9.16274 35.2884 11.655 39.6058 15.9976C40.3291 15.8798 41.0636 15.821 41.7953 15.821C42.4317 15.821 43.0624 15.863 43.6848 15.9527C43.3092 15.4537 42.8942 14.9715 42.5186 14.5566L42.4933 14.5286C37.691 9.21601 30.5113 6.12098 22.799 6.03968C14.9437 5.96118 7.57899 8.96089 2.56079 14.2819C2.44865 14.3996 -0.15016 17.1694 0.00683415 18.1703C0.096545 18.7562 0.475013 19.2328 1.01608 19.443C1.58518 19.6645 2.244 19.558 2.73461 19.1683C3.06261 18.9048 3.51397 18.274 4.03822 17.5451H4.04102Z" fill="#FF4D00"/>
<path d="M7.33175 6.51623C8.341 7.03487 10.0371 6.17701 11.3968 5.48736C11.8229 5.27149 12.1902 5.08366 12.4509 4.98834C19.2437 2.4456 26.2327 2.54372 33.2246 5.2799C33.4993 5.38644 33.8665 5.58828 34.2562 5.79854C35.1085 6.26112 36.0561 6.77695 36.799 6.77695C36.9279 6.77695 37.0541 6.76013 37.169 6.72649L37.2251 6.70967L37.2728 6.67603C37.954 6.18542 38.268 5.65557 38.2035 5.10329C38.0605 3.87817 36.0981 3.06797 34.7973 2.53251L34.5562 2.43439C31.164 1.01583 26.9027 0.107511 23.1573 0.00939017C18.8232 -0.105552 14.0208 0.839216 9.98103 2.59699C9.88851 2.63624 9.78198 2.68109 9.66424 2.73155C8.44753 3.24178 6.41222 4.09124 6.61687 5.41167C6.70097 5.94713 6.93927 6.31999 7.33175 6.51904V6.51623Z" fill="#FF4D00"/>
<path d="M51.8091 22.8071L51.7419 22.7146C51.2513 21.9885 50.6765 21.3129 50.0374 20.7101C49.4626 20.1663 48.8347 19.6785 48.1674 19.258C48.0889 19.2103 48.0105 19.1626 47.9291 19.1122C47.4498 18.8262 46.9563 18.5711 46.4433 18.358C46.0004 18.1702 45.5462 18.0104 45.0836 17.8786C44.9631 17.845 44.8397 17.8114 44.7164 17.7805C43.766 17.5366 42.782 17.4161 41.798 17.4161C41.4531 17.4161 41.1083 17.4301 40.7691 17.4609C40.3514 17.4946 39.9337 17.5534 39.5216 17.6347C38.8655 17.7637 38.232 17.9403 37.6208 18.1702C37.5872 18.1814 37.5507 18.1954 37.5171 18.2095C36.7433 18.5066 36.006 18.8823 35.3051 19.3364C35.1369 19.4458 34.9715 19.5607 34.8089 19.6785C34.7725 19.7037 34.7388 19.7317 34.7024 19.757C33.9791 20.2924 33.3315 20.898 32.768 21.5624C32.6895 21.6549 32.6082 21.7502 32.5297 21.8484C32.1344 22.3362 31.7756 22.8576 31.4616 23.4015C31.2289 23.8024 31.0186 24.2173 30.8336 24.6406C30.7804 24.7583 30.7299 24.8789 30.6822 24.9994C30.2309 26.1377 29.9477 27.3347 29.858 28.5514C29.7991 29.2691 29.8104 29.9952 29.8889 30.7073C29.9141 30.9933 29.9533 31.2848 30.0066 31.6016L30.0486 31.8063C30.0711 31.924 30.0935 32.0446 30.1215 32.1623C30.1776 32.4174 30.2449 32.6669 30.3178 32.9164C30.5028 33.5556 30.7383 34.1724 31.0243 34.7639C31.4672 35.6835 32.0251 36.5441 32.6895 37.3291C32.9446 37.6347 33.2194 37.9262 33.5053 38.2066L33.6623 38.358C33.8894 38.571 34.1249 38.7785 34.3828 38.9859L33.4521 40.4269L32.4568 40.9091L32.1092 41.4614L26.5555 48.5121L25.6416 49.6755H29.1684L34.8706 42.5716L34.8538 41.4642L35.9191 40.0316C36.3116 40.2559 36.7125 40.455 37.1274 40.6288C37.2788 40.696 37.4302 40.7577 37.5844 40.8166C38.4534 41.153 39.3702 41.3885 40.3037 41.5091C40.3822 41.5175 40.4579 41.5287 40.5336 41.5399C40.7943 41.5679 41.0522 41.5904 41.313 41.6016C41.5064 41.61 41.6998 41.6156 41.8961 41.6156C42.6446 41.6156 43.3988 41.5427 44.1445 41.3997C44.4332 41.3436 44.7108 41.2764 44.9883 41.2007C45.1902 41.1418 45.3976 41.0801 45.5967 41.01L45.6387 40.9988L45.6808 40.9904C46.8414 40.6063 47.9432 40.0372 48.9384 39.2971C49.4318 38.9355 49.8972 38.529 50.3345 38.0888C50.5616 37.8561 50.7831 37.6122 50.9933 37.3627C51.2176 37.0964 51.4307 36.8217 51.6325 36.5357C51.6942 36.4488 51.7531 36.3619 51.8119 36.2722C53.18 34.2257 54.0463 32.067 54.0155 29.5943C53.9902 27.2983 53.1688 24.6883 51.8148 22.8071H51.8091ZM51.1587 29.8831C51.1391 30.5503 51.0438 31.2119 50.884 31.8567C50.5616 33.1379 49.9701 34.3434 49.1346 35.3975C47.7609 37.1272 45.8041 38.3159 43.6202 38.742C43.0679 38.8486 42.5185 38.9074 41.969 38.9158C41.156 38.9327 40.3486 38.8374 39.5608 38.6411C39.2777 38.571 38.9973 38.4841 38.7226 38.386C38.3833 38.2654 38.0469 38.1225 37.7189 37.9599C37.1218 37.6627 36.5583 37.3067 36.0425 36.8945C35.3864 36.3731 34.8005 35.7648 34.3099 35.0835C34.2595 35.0162 34.2118 34.9489 34.1669 34.8817C33.895 34.4864 33.6539 34.0715 33.4464 33.6425C33.0876 32.9052 32.8297 32.1231 32.6671 31.2988C32.5886 30.8867 32.5353 30.4718 32.5129 30.0681C32.4596 29.314 32.5073 28.5318 32.6503 27.7525C32.6559 27.7104 32.6671 27.6683 32.6755 27.6235C32.768 27.1329 32.9054 26.6535 33.0792 26.1881C33.2082 25.8321 33.3651 25.4816 33.539 25.1424C33.6371 24.9518 33.7408 24.7668 33.8501 24.5845C33.9791 24.3687 34.1221 24.1584 34.2707 23.9566C34.2707 23.951 34.2763 23.951 34.2791 23.9453C34.9014 23.0847 35.6612 22.3474 36.519 21.7586C37.3012 21.2204 38.1675 20.8027 39.0898 20.5223C39.0898 20.5223 39.0898 20.5223 39.0954 20.5223C39.2104 20.4859 39.3281 20.4522 39.4459 20.4214C39.6365 20.3709 39.8299 20.3289 40.029 20.2896C41.6914 19.9672 43.4072 20.0962 44.9855 20.6737C45.3752 20.8139 45.7565 20.9849 46.1265 21.1755H46.1321C46.4517 21.3409 46.7601 21.5288 47.0573 21.7306C49.1122 23.1267 50.5055 25.263 50.9877 27.7356L50.9989 27.8029C51.1279 28.4954 51.1812 29.1934 51.1559 29.8831H51.1587Z" fill="#E4E4E4"/>
<path d="M43.993 23.0259L43.951 23.009C43.7996 22.9474 43.6314 22.8913 43.4352 22.8408C42.9249 22.7119 42.3839 22.653 41.7811 22.6614C41.4531 22.667 41.1419 22.6894 40.8476 22.7315C40.3682 22.7988 39.9364 22.9137 39.5552 23.0791C39.1711 23.2501 38.8291 23.4744 38.5403 23.7519C38.3637 23.9286 38.2235 24.1108 38.1198 24.307C37.974 24.5734 37.8983 24.8621 37.8955 25.1677C37.9376 25.9527 38.3272 26.4152 39.0029 26.4825C39.0589 26.4909 39.1178 26.4937 39.1767 26.4937C39.8075 26.4853 40.2084 26.1545 40.3345 25.5462C40.3626 25.4312 40.385 25.2714 40.4186 24.9967C40.4887 24.2341 40.6737 23.9482 40.8139 23.8445C40.9429 23.7519 41.1027 23.6903 41.2961 23.6594C41.3886 23.6398 41.4924 23.6342 41.6045 23.6314C42.6418 23.6174 43.1688 24.0183 43.2557 24.893C43.2697 25.0023 43.2754 25.1088 43.2782 25.221C43.2838 25.6275 43.2165 26.0452 43.0847 26.4797C43.0847 26.4909 43.0791 26.505 43.0735 26.5162C43.0539 26.5891 43.0287 26.6591 43.0006 26.7348C43.0006 26.7432 42.995 26.7517 42.9894 26.7657C42.9586 26.847 42.9249 26.9311 42.8885 27.0152C42.8689 27.0713 42.8436 27.1245 42.8184 27.1778C42.7539 27.318 42.6838 27.4581 42.6053 27.5983C42.5521 27.6936 42.4988 27.7917 42.4399 27.8871C41.8007 28.9131 41.4447 29.5579 41.3045 29.9224C41.2933 29.9532 41.2793 29.9869 41.2681 30.0205C41.2541 30.0513 41.2428 30.085 41.2344 30.1186C40.9793 30.8307 40.856 31.6129 40.8644 32.4483L40.87 32.653L41.7222 32.6445L41.9269 32.6333V32.4287C41.9101 31.4278 42.2521 30.4971 42.9474 29.6476C43.0539 29.5187 43.1688 29.3869 43.295 29.2608C43.4464 29.101 43.6875 28.8767 44.0099 28.5907C44.6126 28.0384 45.0443 27.5703 45.3107 27.175L45.3163 27.1694C45.4088 27.0376 45.4761 26.9171 45.5293 26.7965C45.6947 26.4237 45.7789 26.0312 45.7732 25.6247C45.7676 25.2266 45.7032 24.8621 45.5742 24.5369C45.3135 23.8557 44.7864 23.3483 43.9987 23.0259H43.993Z" fill="#E4E4E4"/>
<path d="M42.1903 33.993L42.2099 33.9734L41.9492 33.8501C41.7726 33.7688 41.5904 33.7267 41.4025 33.7295C40.8446 33.7351 40.4493 34.0014 40.2307 34.5145C40.1494 34.7051 40.1101 34.8873 40.1129 35.0752C40.1185 35.6134 40.3821 36.0171 40.8755 36.247C41.0661 36.3283 41.2511 36.3704 41.4362 36.3676C41.9772 36.362 42.3809 36.0984 42.6052 35.6078C42.6865 35.42 42.7258 35.235 42.723 35.0415C42.7174 34.5846 42.5379 34.2313 42.1903 33.993Z" fill="#E4E4E4"/>
<path d="M79.0206 24.1471L74.9238 7.66166H74.4799L71.0464 21.3768H65.284L60.834 2.29538H64.4083L67.9946 18.5302L68.4384 18.5374L72.6618 2.29538H76.7348L80.9605 19.6469L81.4067 19.6398L84.9644 2.29538H88.5363L83.4755 24.1471H79.0206Z" fill="#E4E4E4"/>
<path d="M102.275 24.1471V14.5861C102.275 12.0497 100.724 10.4748 98.2286 10.4748C95.938 10.5083 94.1198 12.1427 94.084 14.1971V24.1471H90.4644V2.29538H94.084V9.6254L94.4753 9.22216C95.6803 7.98378 97.4341 7.30137 99.4145 7.30137C103.371 7.30137 105.926 9.85685 105.926 13.813V24.1447H102.273L102.275 24.1471Z" fill="#E4E4E4"/>
<path d="M130.291 8.21999C128.804 8.21999 127.726 7.18205 127.726 5.75279C127.726 4.32353 128.828 3.22116 130.291 3.22116C131.753 3.22116 132.856 4.30921 132.856 5.75279C132.856 7.19636 131.777 8.21999 130.291 8.21999Z" fill="#E4E4E4"/>
<path d="M141.266 24.5312C137.699 24.5312 135.237 23.1234 134.301 20.5607L137.437 19.3462C138.019 20.9162 139.427 21.7776 141.428 21.7776C143.24 21.7776 144.32 20.9974 144.32 19.6874C144.32 18.0792 142.452 17.5042 140.474 16.8933C137.93 16.1083 135.046 15.2183 135.046 12.0806C135.046 9.13381 137.468 7.3013 141.366 7.3013C144.442 7.3013 146.69 8.53013 147.437 10.5989L144.289 11.8181C143.784 10.6227 142.758 9.99279 141.302 9.99279C139.713 9.99279 138.763 10.7015 138.763 11.8897C138.763 13.3357 140.438 13.8057 142.378 14.3522C145.031 15.0966 148.04 15.9413 148.04 19.4011C148.04 22.5674 145.447 24.5335 141.271 24.5335L141.266 24.5312Z" fill="#E4E4E4"/>
<path d="M64.5562 46.9608V25.1115H76.6798L77.5579 28.2182H68.2068V33.3291H77.4505V36.4668H68.2068V46.9608H64.5562Z" fill="#E4E4E4"/>
<path d="M80.5073 46.9608V30.504H83.9027V32.7851L84.3036 32.3174C85.4537 30.9764 87.1335 30.1843 88.9421 30.1222V33.4842C86.0526 33.5653 84.127 35.1831 84.127 37.562V46.9631H80.5073V46.9608Z" fill="#E4E4E4"/>
<path d="M98.0923 47.3807C92.9742 47.3807 89.3975 43.8326 89.3975 38.7503C89.3975 33.6679 93.103 30.1198 97.8322 30.1198C103.251 30.1198 106.176 34.3838 106.176 38.3948C106.176 38.9507 106.152 39.4661 106.112 39.8049H92.8978L92.9575 40.0817C93.523 42.7088 95.5416 44.3409 98.2212 44.3409C100.357 44.3409 101.719 43.6346 102.607 42.0598L105.415 43.8589C103.893 46.1972 101.43 47.3831 98.0923 47.3831V47.3807ZM97.9325 32.8734C95.3841 32.8734 93.4753 34.5054 92.9551 37.1301L92.9002 37.4021H102.759L102.712 37.1349C102.244 34.5054 100.412 32.8734 97.9301 32.8734H97.9325Z" fill="#E4E4E4"/>
<path d="M115.907 47.3496C111.183 47.3496 107.756 43.7323 107.756 38.7502C107.756 33.7681 111.109 30.3751 115.907 30.3751C118.215 30.3751 120.083 31.2221 121.309 32.8232L121.717 33.3577V30.5039H125.048V46.9631H121.717V44.2334L121.307 44.7774C120.037 46.462 118.172 47.352 115.905 47.352L115.907 47.3496ZM116.449 33.2885C113.509 33.2885 111.376 35.5839 111.376 38.7478C111.376 41.9118 113.509 44.2072 116.449 44.2072C119.388 44.2072 121.591 41.9619 121.591 38.7478C121.591 35.5338 119.477 33.2885 116.449 33.2885Z" fill="#E4E4E4"/>
<path d="M132.094 24.5336H128.474L128.465 9.15054C128.997 9.43762 129.615 9.59538 130.29 9.59538C130.965 9.59538 131.557 9.44279 132.082 9.16865L132.094 24.5336Z" fill="#E4E4E4"/>
<path d="M139.276 46.9607L132.111 38.6118V46.9607H128.489L128.475 27.8363L132.101 27.8411L132.111 37.6789L138.983 30.5015H142.982L135.95 38.063L143.156 46.9607H139.276Z" fill="#E4E4E4"/>
<path d="M150.052 47.0729C146.544 47.0729 144.12 45.689 143.199 43.1693L146.279 41.9763C146.854 43.5224 148.24 44.3695 150.211 44.3695C151.996 44.3695 153.063 43.5988 153.063 42.3079C153.063 40.7236 151.221 40.1533 149.274 39.552C146.771 38.7789 143.931 37.9032 143.931 34.818C143.931 31.9189 146.315 30.1175 150.149 30.1175C153.175 30.1175 155.387 31.3248 156.122 33.3578L153.029 34.5556C152.531 33.3792 151.519 32.7588 150.087 32.7588C148.52 32.7588 147.584 33.458 147.584 34.6295C147.584 36.0564 149.235 36.5193 151.144 37.0562C153.755 37.7887 156.716 38.6214 156.716 42.024C156.716 45.1378 154.163 47.0729 150.056 47.0729H150.052Z" fill="#E4E4E4"/>
<path d="M117.097 24.5312C112.003 24.5312 108.307 20.9139 108.307 15.9317C108.307 10.9496 112.003 7.3013 117.097 7.3013C122.192 7.3013 125.888 10.9305 125.888 15.9317C125.888 16.3159 125.864 16.6953 125.821 17.058C125.73 17.8549 125.532 18.6256 125.234 19.3534C123.931 22.5459 120.815 24.5312 117.097 24.5312ZM117.128 10.5058C114.067 10.5058 111.927 12.7392 111.927 15.9341C111.927 19.1291 114.065 21.3624 117.128 21.3624C120.192 21.3624 122.237 19.1171 122.237 15.9007C122.237 12.6843 120.137 10.5034 117.128 10.5034V10.5058Z" fill="#E4E4E4"/>
</svg>
