<svg xmlns="http://www.w3.org/2000/svg" xmlns:xlink="http://www.w3.org/1999/xlink" id="Layer_1" x="0px" y="0px" viewBox="0 0 1200 162" style="enable-background:new 0 0 1200 162;" xml:space="preserve"><style type="text/css">	.st0{fill:#606060;}	.st1{fill:#0088CC;}	.st2{fill-rule:evenodd;clip-rule:evenodd;fill:#0088CC;}	.st3{fill-rule:evenodd;clip-rule:evenodd;fill:#606060;}</style><path class="st0" d="M772.3,17c0.3,4.5,0.2,8.9,0.2,13.4c0,29.4,0,58.9,0,88.3c0,4.9,0.5,9.5,3,13.7c1.7,2.7,4.4,4.2,6.8,5.9 c-2.3,3.9-5.2,7.2-9.6,8.5c-5.4,1.8-13,1.8-17.3-2.6c-3.9-4.4-4.7-11.6-4.6-17.3c0.1-35,0-69.9,0-105 C757.9,20.3,765.1,18.3,772.3,17z"></path><path class="st1" d="M1114.3,16c0.5,6.5,0.2,13.2,0.3,19.7c0,17.5-0.1,34.9,0.1,52.3c9.7-11.2,19.6-22.4,29.1-33.9 c8.7,0.1,17.4-0.1,26,0.1c-2.7,3.9-5.9,7.3-9.1,10.8c-6.9,8.1-14.2,15.9-21.1,24c11.7,18.1,23.6,36.4,35.3,54.6v1.4 c-8.4,0-16.7,0-25.1,0c-8.5-13.4-17.1-26.7-25.7-40.1c-2.6,3.1-5.5,5.8-8.1,8.9c-1.6,1.6-1.3,3.9-1.5,6c0,8.4,0,16.7,0,25.1 c-7.3,0.1-14.5,0.1-21.8,0.1c0-37.1,0-74.3,0-111.4c0.1-4.1-0.3-8.3,0.3-12.3C1099.9,18.8,1107.4,17.7,1114.3,16z"></path><path class="st0" d="M387,19.4c8.8-1.2,17.4-0.2,25.9,2.4c-1.6,5.9-3.9,11.4-6.3,17c-5.7-2-13.4-4.3-18.1,0.6c-4.8,4.4-6.2,9.6-6,16 c6.2,0,12.3,0,18.5,0c0.1,6,0.1,12.2,0,18.2c-6.1,0.1-12.1,0-18.1,0.1c0,24,0,48,0,72c-7.3,0-14.4,0-21.7,0c0-24,0-48.1,0-72.1 c-4.1,0-8.4,0-12.5,0c0-6.1,0-12.2,0-18.3c4.1,0,8.3,0,12.4,0c1.1-8.5,2.5-16.4,7.6-23.5C372.7,25.5,379.6,21,387,19.4z"></path><path class="st2" d="M888.2,50.2c-1-8.9-5.5-17.7-13.4-22.4c-11.6-7.4-24.7-7.8-38.2-7.6c-3.7,0.2-7.3,0.3-11,0.4 c-6.1,0.2-12.2,0.4-18.3,0.9c-0.1,27.4,0,54.9,0,82.3c0,13.7,0,27.4,0,41.2h23.3c0-5.7,0-11.4,0-17c0-11.3,0-22.6,0-34 c2.9,0.1,5.7,0.2,8.6,0.4c1.5,0.1,2.9,0.2,4.4,0.2c4.7,7.4,9.5,14.8,14.2,22.2c6.1,9.4,12.1,18.8,18,28.2c2.2,0,4.4,0,6.6,0 c6.6,0,13.1,0,19.6-0.1c-7.5-11.9-15.2-23.7-23-35.4c-4.3-6.5-8.6-13.1-12.8-19.6c8.5-3.5,14.9-9.8,18.9-18.1 C888.8,65.1,889,57.6,888.2,50.2z M847,41.3c-5.1-0.3-10.9-0.3-16-0.1c-0.1,6.4-0.1,12.8-0.1,19.2c0,4.8,0,9.5,0,14.3 c0.7,0,1.3,0.1,2,0.1c7.5,0.3,15.4,0.6,22.6-1.7c4.4-1.5,8-4.9,9-9.5c1.3-5.5,1.3-12.8-3-17.1C857.8,43,851.8,41.9,847,41.3z"></path><path class="st3" d="M221.6,27.6c-12.5-7.1-29.3-6.9-43.2-6.2c-5.4,0.6-10.9,0.7-16.3,0.8c-1.8,0-3.6,0.1-5.4,0.1v123.5h22.8v-51 c2.7,0.1,5.3,0.4,7.9,0.6c1.8,0.2,3.6,0.3,5.4,0.4c10.8,16.6,21.5,33.3,32,50h26.3c-6.3-9.8-12.6-19.5-19-29.2 c-5.6-8.6-11.2-17.1-16.8-25.7c8.7-3.8,15-10,19.1-18.6c4.3-8.9,3.8-19,1-28.3C233,36.8,228.2,31.2,221.6,27.6z M184.8,41.9 c-1.8,0-3.6,0-5.4,0c0,11.2,0,22.4-0.1,33.7c8.3,1.2,16.7,0.9,24.7-1.5c5.4-1.6,9.4-6.9,9.7-12.4c0.3-5,0.5-9.9-3-13.8 c-3.9-3.8-9.2-4.7-14.4-5.6c-0.2,0-0.4-0.1-0.6-0.1C192.2,41.8,188.5,41.8,184.8,41.9z"></path><path class="st0" d="M578.1,56.8c-2.4,6.8-5.7,12.8-9,19.2c-4.6-2.2-9.6-5-14.8-3.7c-5.1,0.9-8.6,4.3-11.5,8.3 c-3.3,4.8-4.5,10.5-4.5,16.3c0,16.3,0,32.5,0,48.8c-7.2,0-14.3,0-21.5,0c0-30.1,0-60.3,0-90.4c7.2,0,14.3,0,21.5,0 c0,2.5,0,5.1,0,7.6C548.4,52.3,565,51.7,578.1,56.8z"></path><path class="st0" d="M650.6,56.8c-2.4,6.8-5.7,12.8-9,19.2c-4.6-2.2-9.6-5-14.8-3.7c-5.1,0.9-8.6,4.3-11.5,8.3 c-3.3,4.8-4.5,10.5-4.5,16.3c0,16.3,0,32.5,0,48.8c-7.2,0-14.3,0-21.5,0c0-30.1,0-60.3,0-90.4c7.2,0,14.3,0,21.5,0 c0,2.5,0,5.1,0,7.6C621,52.3,637.6,51.7,650.6,56.8z"></path><path class="st1" d="M1053.7,52.9c8.6,0.5,16.5,3.8,23.5,8.7c-2.8,5.7-6,11-9.2,16.6c-3-2-5.7-3.9-9-5.2c-9.3-3.4-20.2-2.5-27.8,4.5 c-6.2,5.8-8.3,15.5-8.3,23.6c0.2,6.5,1.7,14.5,6,19.5c5.5,6.7,15.7,8.4,23.7,7.5c6.5-0.6,11.8-3.6,17-7.5c2.9,5.7,5.9,11.3,8,17.5 c-6.3,3.6-12.4,7.1-19.8,7.9c-13.3,2.1-28.8,1.1-40.1-6.9c-10.2-6.9-15.5-18.2-16.9-30c-0.9-10.7-0.6-21.1,4-31 c3.1-7,8.5-13,14.7-17.5C1029.5,54,1041.9,52.2,1053.7,52.9z"></path><path class="st2" d="M79.4,24c-3.2-3.1-6-5.9-10.9-5.8c-5.1-0.2-8.1,2.7-11.4,6c-4.4,4.5-8.9,8.7-13.5,13.1 c-1.6,1.5-3.3,3.1-4.9,4.7c-1.5-1.1-2.9-2.4-4.4-3.6l0,0l4.9-4.9c-1-1-2.1-2.1-3.2-3.1c-1.1-1-2.1-2.1-3.2-3.1 c-5.1,4.5-10,9.3-14.8,14.1c-1.9,1.9-3.9,3.8-5.8,5.7c1.1,1,2.2,2.1,3.3,3.1c1.1,1,2.2,2,3.3,3.1c1.8-1.6,3.5-3.1,5.2-4.7 c0.7,0.6,1.4,1.2,2.1,1.9c0.7,0.6,1.4,1.2,2.1,1.9c-6.4,6.4-13,12.8-19.6,19.1C8.2,71.6,8,71.8,7.7,72c-1.5,1.5-3.2,3.2-4,5.1 c-1.3,4.4-0.9,9.1,2.6,12.4c4.8,4.8,9.8,9.6,14.7,14.3c2.5,2.4,4.9,4.8,7.4,7.2c-1.3,1.4-2.6,2.6-3.9,3.8c-0.8-0.7-1.7-1.5-2.5-2.2 c-0.9-0.8-1.7-1.5-2.5-2.2c-1.1,1-2.3,2-3.4,3c-1.1,1-2.2,2-3.4,3c6.7,6.8,13.6,13.4,20.5,20c2.2-2,4.4-3.9,6.4-6 c-1.5-1.7-3-3.3-4.6-5l0,0c1.3-1.4,2.7-2.7,4-3.9c2.2,2.2,4.5,4.3,6.7,6.5c3.7,3.6,7.4,7.2,11,10.9c0.2,0.2,0.4,0.4,0.6,0.5 c2.9,2.8,5.4,5.3,9.8,5.5c4.4,0.4,7.8-1.6,10.8-4.6c6.7-6.6,13.6-13.3,20.4-19.9l0,0c0.7,0.6,1.4,1.2,2.1,1.9 c0.7,0.6,1.4,1.2,2.1,1.9c-0.5,0.6-1.1,1.1-1.6,1.7c-1.1,1.1-2.1,2.2-3.2,3.4l0.2,0.1c2,1.9,4.2,4,6.3,5.8 c6.8-6.7,13.7-13.3,20.5-19.8c-2.2-2.1-4.4-4.1-6.6-6l-5.3,4.7c-0.6-0.6-1.3-1.2-1.9-1.9c-0.6-0.6-1.3-1.2-1.9-1.9 c3.4-3.5,6.9-6.9,10.5-10.3c3.5-3.4,7.1-6.8,10.5-10.3c3.2-3,3.8-7.2,2.8-11.3c-0.8-2.5-3-4.7-4.9-6.5c-0.2-0.2-0.4-0.4-0.5-0.5 c-1.6-1.5-3.1-3-4.7-4.6c-4.8-4.6-9.6-9.2-14.3-13.9c0.5-0.3,0.9-0.7,1.4-1.1c0.9-0.8,1.8-1.6,2.9-1.9c1.4,0.7,2.6,1.8,3.9,2.8 c0.4,0.4,0.8,0.7,1.2,1c2.2-2.1,4.4-4.1,6.5-6l0,0c-3.3-3.1-6.5-6.2-9.7-9.3c-3.7-3.6-7.3-7.1-11.1-10.6c-2.1,2-4.1,4.1-6.2,6.1 c1.7,1.7,3.3,3.3,4.9,5c-1.5,1.2-2.9,2.4-4.5,3.5c-3-3-6-5.9-9-8.9s-6.1-5.9-9-8.9C79.6,24.2,79.5,24.1,79.4,24z M93.2,72.1 c-5-12.3-18.8-18.9-31.5-15.7c-7.9,2-14.4,7.4-17.8,14.8c-2.4,4.7-2.4,10.1-1.7,15.2c2.2,10.6,11.3,19,22.1,20.5 c9.5,1.6,19.7-2.5,25.5-10.3C95.2,89.7,96.5,80.1,93.2,72.1z"></path><path class="st2" d="M972.9,59.4c-9.5-6.5-22.9-7.7-34-6c-9.1,1.5-16.9,5.7-22.7,12.7c-6.7,7.1-10.1,16.2-11.3,25.8 c-1.3,8.3-0.4,16.6,1.7,24.8c3,11,10.2,21.3,20.7,26.1c9.2,4.3,20.1,5.3,30.1,3.3c8.4-1.4,16.7-5.6,22.4-12.2 c7.4-8.6,10.7-19.5,11-30.8c0-0.7,0-1.4,0-2.1c0-4.9,0-9.7-1-14.5C987.8,76.1,982.1,65.3,972.9,59.4z M952.7,71.4 c-3.5-0.5-7.1-0.6-10.6,0.2c-6.4,1.7-11.1,7.6-13.1,13.6c-2.6,7.6-2.7,16.2-1.5,24.1c0.9,5.4,2.8,10.8,6.8,14.7 c7.4,7,20.1,6.4,26.9-1.1c5.1-5.7,6.7-14.1,7.1-21.6c0.1-5.8-0.6-11.7-2.4-17.3C964.2,78,959,72.5,952.7,71.4z"></path><path class="st3" d="M330.1,66.5c-6.5-7.4-16.6-11.6-26.3-12.4c-10.5-1.4-21.9,0.8-30.5,6.9c-7.2,4.7-12.5,11.4-16.1,19.1 c-5,12-5.2,25.4-2.2,37.8c2.4,8.9,7.9,17.7,15.8,22.7c8,5.4,18.5,7.6,28,7.3c11.4,0,22.8-2.2,32.1-9.1c-2.8-5.6-5.6-11.2-8.5-16.8 c-4.3,3.2-8.4,6-13.8,6.9c-8.8,1.2-19.2,1.2-25.9-5.4c-4.7-4.2-6.7-9.9-7.2-16h63.6c0-0.2,0.1-0.4,0.1-0.6 c1.2-5.8,2.3-11.2,1.3-17.3C339.5,80.8,336.3,72.7,330.1,66.5z M319,90.5c-1.2-5.1-2.4-10-6.6-13.6c-8.3-6.7-21.1-6.4-29,0.6 c-3.6,3.7-5.6,8.3-7.1,13.3c9.5,0.1,19,0,28.5,0c4.7,0,9.5,0,14.2,0C319.1,90.7,319,90.6,319,90.5z"></path><path class="st3" d="M498.1,78c-4.2-10.4-13.1-18.5-23.7-21.8c-7.5-2.3-15.6-3.1-23.2-2c-9.1,1.2-17.6,5.6-24.1,12.3 c-8.2,7.7-12.9,19.1-13.3,30.3c0,1.1,0,2.2,0,3.2c-0.1,5.5-0.1,10.8,1.4,16.4c2.4,10.5,8.5,20.1,18,25.4c10.7,6.2,23,6.8,35.1,5.4 c8.5-1.1,16.5-3.1,23.1-8.8c-1-2-2-3.9-2.9-5.9c-1.8-3.7-3.6-7.3-5.7-10.9c-3.4,2.7-6.7,5.1-11,6.3c-4.6,1.5-9.6,1.4-14.4,1.1 c-7.1-0.4-14-4.1-17.8-10.2c-2.4-3.4-2.9-7.2-3.4-11.2c0-0.1,0-0.3-0.1-0.4c14.2-0.1,28.3,0,42.4,0c7.1,0,14.2,0,21.2,0 C501.8,97.9,502.1,87.1,498.1,78z M479.4,90.7c-0.6-5-2.3-9.7-5.8-13.3c-8-7-20.7-7.3-29.1-0.6c-4.4,3.7-6.1,8.6-7.7,13.9 C451,90.8,465.2,90.8,479.4,90.7z"></path><path class="st3" d="M721,69.6c-3.7-8.2-12.1-12.9-20.6-14.5c-13.3-2.5-27.5-1.6-40.2,3.8c0.1,0.3,0.2,0.6,0.2,0.9 c1.4,5.4,2.8,10.9,4.5,16.2c8.3-3.4,17.9-5.5,26.8-3.3c3.6,0.7,7.1,2.3,9.5,5.1c1.8,2.3,2.6,5.8,3.2,8.7c0,0.1,0,0.1,0,0.2 c-8.3-1.4-16.8-0.8-25.1,0.8c-9.3,2.1-18.5,6.4-23.8,14.8c-4.8,7.1-4.9,15.4-4.1,23.6c1.2,6.8,4.8,13.4,10.9,16.9 c6.6,4.2,14.3,5.3,22.1,5c8.4-0.5,16.5-3.3,22.3-9.6c2.6,4.2,5.1,8,10.1,9.4c3.8,0.6,8.1,0.3,11.7-1.4c1.6-0.9,2.9-2.5,4.1-4 c0.3-0.4,0.6-0.8,0.9-1.2c-0.3-0.3-0.6-0.7-0.9-1c-2.1-2.3-4-4.4-4.9-7.6c-1.9-7.1-1.8-14.8-1.8-22.5c0-2.6,0.1-5.2,0-7.8 C726.1,91.6,725.5,79.4,721,69.6z M701.1,103.2c-4.5-0.3-9-0.3-13.4,0.3c-6.2,1.2-12.1,4.2-14.5,10.5c-1,4.6-0.8,9.9,2.6,13.4 c4,3.3,10.2,3.3,15,2.7c3.9-0.8,8.7-2.8,10.7-6.7c3.2-5.2,2.9-11.4,2.7-17.3c0-0.3,0-0.6,0-0.9C704.4,103.5,702.5,103.2,701.1,103.2 z"></path></svg>