<?xml version="1.0" encoding="UTF-8"?>
<svg width="328px" height="91px" viewBox="0 0 328 91" version="1.1" xmlns="http://www.w3.org/2000/svg" xmlns:xlink="http://www.w3.org/1999/xlink">
    <!-- Generator: Sketch 61.2 (89653) - https://sketch.com -->
    <title>Group</title>
    <desc>Created with Sketch.</desc>
    <g id="Design" stroke="none" stroke-width="1" fill="none" fill-rule="evenodd">
        <g id="MOBILE-Home" transform="translate(-25.000000, -6128.000000)" fill="#020F14">
            <g id="Final-CTA" transform="translate(21.000000, 6128.000000)">
                <g id="Group" transform="translate(4.000000, 0.000000)">
                    <g id="Group-8">
                        <path d="M126.985708,35.036821 C127.15017,35.0280385 127.315094,35.0192561 127.479556,35.0109358 C128.11061,30.7990453 128.792018,26.593626 129.357472,22.372953 C129.836074,18.7994098 130.279567,15.2156974 130.546587,11.622278 C130.702734,9.5154083 129.481742,8.20728163 127.80617,8.20263863 C125.910238,8.19757468 125.073607,9.13129054 125.194181,11.5534049 C125.504626,17.8083767 125.893145,24.0601129 126.312153,30.3086133 C126.417945,31.8926947 126.754722,33.46106 126.985708,35.036821 M119.400593,33.2137639 C117.370688,32.803761 115.6443,32.9350359 114.216345,34.2329934 C110.327928,37.7667843 108.31835,42.15756 108.525314,47.4446105 C108.638959,50.3488366 111.259725,52.6895976 114.321212,52.8125522 C116.990948,52.9197909 119.6459,50.6677792 119.687477,47.7917494 C119.757235,42.9410493 119.512852,38.0861891 119.400593,33.2137639 M56.1340124,32.8546069 C54.3512631,33.0783289 52.8456969,33.0233229 51.5142941,33.4781627 C46.7887842,35.0946005 42.5312518,44.7520883 44.742249,49.4183564 C45.6791279,51.3948757 48.2938885,53.0251806 50.3963223,52.8046942 C52.7329758,52.5601716 55.0696293,50.7648486 55.2354772,48.6626013 C55.6360068,43.5710764 55.829573,38.4633733 56.1340124,32.8546069 M0.415127887,2.28604394 C2.38081803,1.93844278 4.33911662,1.45355767 6.31728,1.35047913 C9.08356732,1.20626164 10.4112744,2.61192001 10.3336631,5.39319146 C10.1271617,12.7848005 9.95115042,20.1801075 9.55986028,27.5633963 C9.2216969,33.9459451 8.62390535,40.315089 8.10233915,46.6874687 C7.87874479,49.4197431 7.55767437,52.1446218 7.28095324,54.8727362 C7.55444056,54.942996 7.48283493,54.9249688 7.75678423,54.9956909 C9.03829408,51.9953197 10.2842321,48.9792326 11.6077814,45.9978132 C14.1162885,40.3479078 16.6289532,34.6993891 19.2210772,29.0878492 C20.4032631,26.5302998 22.9505758,25.1195568 25.4373701,25.4019827 C28.1006377,25.7042848 30.2464969,27.5892815 30.6636575,30.5850302 C31.1371786,33.9847729 31.1524237,37.4455306 31.4804237,40.8688473 C31.7668462,43.8544268 32.1207166,46.8404686 32.6372011,49.792305 C32.8090546,50.7754801 33.5754659,51.6537277 34.1270603,52.6863619 C36.8878039,50.9848728 37.7082659,48.4448883 38.6021814,46.0005866 C39.3551955,43.9422516 39.6734941,41.6953245 40.6237701,39.746077 C42.5266321,35.8415732 44.9815504,32.2167218 49.4104744,30.9002749 C51.3313532,30.3289517 53.500311,30.5577583 55.5588575,30.4972055 C57.0126828,30.4546798 58.4752856,30.6270937 59.9240293,30.5411178 C62.061111,30.4144653 62.5484913,31.6490965 62.5503392,33.4111385 C62.5544969,37.3637149 62.4357701,41.3223004 62.6233307,45.2660943 C62.7411335,47.7552328 63.160142,50.2610119 63.7431504,52.6877486 C64.2462377,54.7798268 65.2838265,55.2207996 67.1561983,54.8842921 C67.8191279,50.3308094 68.5444237,45.873934 69.0937082,41.3953336 C69.4443448,38.5350198 69.5940237,35.6455853 69.7219899,32.7640087 C69.8203899,30.5503625 70.8228687,29.5944594 73.4482546,29.4946165 C75.1464631,29.4299035 76.7652124,30.9187643 76.6053701,32.8222504 C76.3097082,36.3477211 75.8121645,39.8607115 75.2730434,43.3593725 C74.9884687,45.2073903 74.4387223,47.0151937 74.3888293,49.0199094 C75.558542,47.0725109 76.7347223,45.1288103 77.8961194,43.1763272 C80.2461701,39.2274487 82.5805138,35.2693255 84.9365701,31.3241449 C86.3035448,29.0342299 88.6790039,27.8837255 91.1570208,28.398656 C93.6997138,28.9260667 95.056987,30.7736223 95.4764575,33.1319482 C95.8603561,35.293824 95.7379335,37.5412134 95.9217983,39.7442281 C96.2530321,43.7152939 96.6369307,47.6821996 97.0268349,51.6486431 C97.0734941,52.123359 97.2578208,52.5966882 97.4453814,53.0422833 C97.9798828,54.3115822 98.9176856,54.4987876 99.6642321,53.4199298 C100.695353,51.9296823 101.640548,50.3224892 102.28546,48.6367161 C103.042632,46.6569611 103.341528,44.5071035 104.009539,42.4875962 C106.560548,34.7724223 109.999928,30.3206315 119.357167,30.4773293 C119.234283,29.0309942 119.100773,27.6063842 118.994519,26.1799252 C118.744131,22.814388 118.307105,19.4460774 118.332052,16.0814646 C118.349145,13.7231387 118.818046,11.3209005 119.418148,9.02590083 C120.290812,5.6899467 123.961641,3.68569325 127.579804,4.2944575 C131.381832,4.9337293 133.97719,7.55691618 133.622395,11.1887011 C133.094362,16.5862259 132.263736,21.9698836 131.255252,27.3013087 C130.030103,33.7753801 128.240886,40.1500709 127.214846,46.6495653 C126.862824,48.8775408 127.774756,51.4748425 128.665438,53.6778572 C129.442474,55.600295 131.618362,55.2355911 133.275455,54.942996 C136.927804,54.2981774 139.790181,52.1954677 142.190587,49.4599576 C142.543534,49.0573504 142.685359,48.3473566 142.688131,47.7778824 C142.721393,40.9298623 142.709843,34.0809179 142.709381,27.2324356 C142.709381,26.9920731 142.696908,26.5991729 142.678429,26.3592726 C142.462226,23.5220707 142.744953,23.246116 145.760243,22.8435088 C146.670328,22.7214786 147.615522,22.7358079 148.532536,22.8213215 C150.247838,22.9807928 151.515488,24.1557956 151.436491,25.8138346 C151.181021,31.2118217 150.871962,36.6102709 150.419691,41.9948531 C150.041336,46.4988765 149.432457,50.9830238 149.163128,55.5998327 C149.360852,55.2360533 149.588142,54.8842921 149.75168,54.5057211 C153.079263,46.8159701 156.489539,39.1604246 159.677145,31.4128941 C160.9739,28.2609098 163.791004,27.3544658 165.910993,27.6364295 C168.263353,27.9489007 170.038711,29.9582388 170.336221,33.0478214 C170.720119,37.024434 170.818519,41.0273941 171.119263,45.0132514 C171.27079,47.0202783 171.488379,49.0370121 171.897686,51.0029 C172.060762,51.7854648 172.455748,53.0450567 173.314553,53.1569177 C174.138249,53.2650809 174.834441,52.1963922 175.158283,51.5104346 C176.302125,49.0864713 177.350339,46.605653 178.25719,44.0832334 C180.527781,37.7658598 182.733697,31.4253745 184.888334,25.0677864 C185.381257,23.6135933 186.168457,22.6211735 187.978463,21.982364 C187.319691,24.696149 186.723286,27.1552423 186.0987,29.7303566 C190.317426,29.8676406 192.746012,32.5578516 194.592052,36.0075157 C196.410373,34.9573165 198.104886,33.651501 200.020683,32.9664679 C201.806204,32.3281206 203.824559,32.2088638 205.747748,32.1584801 C206.39266,32.1413774 207.698655,32.7034558 207.720635,33.5174527 C207.740232,34.2524073 206.649979,34.6845975 206.000446,34.8708785 C200.616165,36.416132 197.236379,39.6175756 196.982756,45.4828827 C196.841393,48.7421058 196.785956,52.0054889 196.646903,55.2651742 C196.608097,56.177165 196.512931,57.1136542 196.258846,57.9849683 C195.729426,59.7969318 194.1347,60.4778048 192.533043,59.5135813 C190.890272,58.5248595 189.775072,57.1270591 189.741348,55.0451501 C189.644795,49.0615106 189.494193,43.0783333 189.384243,37.095156 C189.331117,34.1923166 188.382688,32.8767942 185.339218,31.8908457 C184.543703,34.0730599 183.77221,36.2830081 182.934655,38.4679957 C180.477888,44.8782786 178.057618,51.3112111 174.079117,56.9906996 C172.985167,58.5521314 171.853336,60.4130918 169.674215,60.1551643 C167.438272,59.8903033 166.461663,57.8541556 165.973359,55.96731 C164.967646,52.0780599 164.262677,48.110692 163.456998,44.1710582 C163.054621,42.2019346 162.767274,40.2069259 162.287748,38.2576785 C162.147308,37.6872798 161.588322,36.9130352 161.108795,36.8215126 C160.646824,36.7332256 159.79079,37.2791258 159.539015,37.7686333 C158.255657,40.2605452 157.007872,42.7815781 155.941179,45.3724084 C153.826272,50.5069212 151.870283,55.7061469 149.775703,60.8489799 C149.22226,62.2065658 148.255353,63.2355022 146.568232,63.1657046 C144.936548,63.0986805 143.690148,62.3073332 143.063714,60.8799497 C142.692288,60.0331341 142.750497,58.9723035 142.723241,58.0043822 C142.675657,56.3056665 142.710305,54.6037151 142.710305,52.8939057 C140.43186,54.6060263 138.377472,56.3227692 136.150767,57.7746511 C133.987815,59.1853941 131.480694,59.6259046 128.913979,59.3370074 C126.851736,59.1049651 125.440412,57.8837387 124.581607,56.0176937 C124.260998,55.3211047 123.974576,54.6083374 123.641032,53.8276216 C122.024593,55.1010806 120.561066,56.3241559 119.026395,57.4501617 C113.552491,61.4688378 106.593348,59.3799953 104.1643,53.0177848 C103.994756,52.5749632 103.800266,52.1423107 103.584987,51.6273802 C102.282688,53.4088361 101.053381,55.1459174 99.7589363,56.8321528 C99.2807955,57.4557086 98.6890096,58.0094668 98.0801307,58.5114546 C95.1082659,60.9636143 91.9525363,60.4593153 90.5028687,56.8705183 C89.3539448,54.0268451 88.8633307,50.891039 88.2955673,47.8444443 C87.7698434,45.0197227 87.5818208,42.1330615 87.1230828,39.2930862 C87.020987,38.6602857 86.4656969,37.681733 86.02128,37.624878 C85.39808,37.5449112 84.4186997,37.9992888 84.05328,38.5382555 C82.4770321,40.8633004 81.0222828,43.2752456 79.6118828,45.707067 C77.7381251,48.9371692 76.4446039,52.6771172 73.9767504,55.3400564 C71.6271617,57.8749562 68.0782941,59.4118895 64.389449,59.5676629 C62.5572687,59.6453185 61.1889082,58.4273277 60.4723899,56.663899 C60.1102039,55.7722466 59.7734265,54.8708872 59.3525701,53.7878693 C57.6691448,55.1126365 56.1515673,56.4041226 54.5369758,57.5587871 C49.1337532,61.4230765 42.3912744,59.3513367 39.9691561,53.1231745 C39.8374941,52.7852803 39.6998265,52.4501595 39.4443561,51.8122745 C38.6848744,53.0945159 38.0953983,54.2584251 37.3479279,55.310011 C36.4623279,56.5571226 35.5799617,57.8638626 34.4499786,58.8669138 C32.0504969,60.9968953 29.1363786,60.4375903 27.4543392,57.6623279 C25.4470715,54.3494855 24.8035448,50.6146221 24.177573,46.8746741 C23.5830152,43.3219314 23.0138659,39.763642 22.2973476,36.2353979 C22.1467448,35.4925853 21.4011223,34.8713407 20.929911,34.1937033 C20.2817645,34.6924555 19.3425758,35.0539237 19.0335166,35.711685 C17.1653025,39.6859864 15.3941025,43.7074359 13.681573,47.7519972 C11.8960518,51.9694346 10.2994772,56.2691499 8.4525138,60.4588531 C7.3308462,63.0034599 5.88395042,63.6251668 3.6128969,63.0302696 C1.63796732,62.5125657 0.466406761,60.8004452 0.479341972,58.3894244 C0.541246197,46.9037949 0.64796169,35.4186276 0.665978592,23.9329981 C0.676141972,17.5735611 0.555105352,11.2136618 0.458091268,4.85468702 C0.447927887,4.20154815 0.127319437,3.55303164 0.000277183098,2.90174172 C0.163815211,2.65906804 0.251589859,2.52917985 0.415127887,2.28604394" id="Fill-1"></path>
                        <path d="M227.807642,65.4974057 C227.599754,65.3947894 227.391405,65.2926354 227.183056,65.1900191 C225.952825,66.0567108 224.673625,66.8619252 223.502064,67.8016501 C220.869749,69.9136044 218.16629,71.9603835 215.732622,74.2868152 C213.934628,76.005407 213.845467,78.858325 215.064149,80.7368504 C216.232937,82.5381824 218.531709,83.4769828 220.715912,82.7979588 C223.162053,82.0366568 224.559056,79.9750861 225.177174,77.7452617 C226.290526,73.7284346 226.955304,69.5872661 227.807642,65.4974057 L227.807642,65.4974057 Z M258.951473,0.12666423 C259.274391,0.2718062 259.585298,0.463633963 259.923461,0.5537699 C261.302909,0.923096123 262.162639,1.66036186 262.24025,3.21670904 C262.358977,5.60692919 262.588115,7.99160251 262.779833,10.498306 C268.281456,9.35750863 273.791394,8.21578677 279.29163,7.07545161 C279.744825,9.0556688 279.118391,10.1927683 276.985467,10.9485235 C273.423664,12.2113511 269.818898,13.359082 266.20905,14.479541 C262.233783,15.71371 262.376994,15.6836647 262.188047,19.7726006 C261.812002,27.8922307 261.25163,36.002616 260.75963,44.1166993 C260.514323,48.1686563 260.172926,52.2169155 260.043574,56.2721082 C260.001073,57.6162892 259.734977,58.6387543 258.653501,59.45044 C257.621456,60.2251468 256.690583,61.1431466 255.619732,61.8545272 C254.336374,62.7068896 253.825895,62.4309349 253.842526,60.9291316 C253.901659,55.4955524 254.052723,50.0628977 254.091529,44.6293185 C254.153433,35.9231115 254.155281,27.2164422 254.175146,18.5102352 C254.175608,18.3350479 254.083214,18.1598607 253.980656,17.7942323 C252.570718,18.1774256 251.133985,18.4538425 249.80443,18.9937336 C249.360475,19.1744677 248.972881,20.0143498 248.932228,20.5796639 C248.725264,23.4057722 248.678143,26.2429741 248.509985,29.0718558 C248.038774,36.9945736 247.533839,44.9154424 247.050616,52.8376979 C247.013197,53.4529334 246.949906,54.0871206 247.048768,54.6875646 C247.677974,58.4880655 244.404904,61.0784337 240.899461,62.3602129 L240.899461,54.1421266 C237.959473,56.5965975 235.262019,58.7954522 232.649106,61.0918385 C232.28923,61.4080076 232.242571,62.2049017 232.236566,62.7813095 C232.200532,66.2342092 232.391788,69.6977404 232.179743,73.1376975 C231.821253,78.9581679 230.45474,84.5452093 225.783743,88.4843808 C224.001456,89.9880331 217.833208,92.3010599 213.543337,89.1869789 C207.950706,84.2840462 206.693681,77.0842649 214.501929,71.3604018 C218.366323,68.5268977 222.31803,65.8103392 226.286368,63.1238261 C227.432521,62.348657 227.903732,61.4593158 227.928678,60.0910985 C227.985039,56.9825642 228.184149,53.8768034 228.345377,50.33423 C227.065253,52.3911783 226.099732,54.0579998 225.02149,55.6476279 C223.255833,58.2490897 220.830481,59.9325517 217.613771,59.6200804 C213.778481,59.2479808 211.65803,56.5711746 210.690199,53.1358398 C209.967214,50.5695079 209.499236,47.8534117 209.446109,45.1932459 C209.346785,40.2038752 209.621659,35.2066464 209.769952,30.2135777 C209.781039,29.8419403 209.915473,29.339028 210.177411,29.131022 C211.977715,27.7017896 215.833332,29.0344148 216.378459,31.2785685 C216.578492,32.1045834 216.64594,32.9809821 216.649636,33.8351934 C216.673659,38.9609237 216.601591,44.0880407 216.699067,49.2123842 C216.727709,50.7137254 217.056633,52.2543566 217.513985,53.6919092 C218.090064,55.5024859 219.99847,56.1907547 221.274436,54.8229996 C222.896881,53.0845316 224.45927,51.0248099 225.235383,48.8180973 C226.787608,44.4009742 227.764216,39.7827786 229.034177,35.2635013 C229.322909,34.234565 229.705422,33.17697 230.305985,32.3149006 C230.581783,31.9196892 231.50203,31.8286288 232.102594,31.8854838 C232.307247,31.9048977 232.566875,32.7997857 232.567799,33.29484 C232.586278,41.0095518 232.566414,48.7242635 232.555326,56.438513 C232.554402,56.9908845 232.555326,57.5427938 232.555326,58.4612558 C235.732768,56.1468423 238.548025,53.8731055 240.619506,50.7950789 C240.808453,50.5154263 240.849568,50.094792 240.85465,49.7374839 C240.982154,40.4155791 241.096261,31.0927498 241.207135,21.7703827 C241.208521,21.6543616 241.148002,21.537416 241.032971,21.1130837 C239.372183,21.3885761 237.672588,21.6617574 235.977152,21.9538902 C234.477591,22.2122799 232.98265,22.5034883 231.482628,22.7600291 C229.915157,23.0281257 228.619326,21.825851 228.299642,19.8109661 C228.043709,18.197764 229.071597,17.5811417 230.378053,17.2927067 C233.354537,16.63587 236.321321,15.8819638 239.333377,15.4687251 C240.998323,15.2399185 241.338797,14.5461029 241.25518,13.078505 C241.070391,9.81373514 241.11474,6.53186257 240.819078,3.27911084 C240.642143,1.33448578 241.61829,0.826951124 243.162199,0.569948145 C243.741974,0.47334091 244.30558,0.277353027 244.876115,0.12666423 L245.987619,0.12666423 C248.807495,0.887041748 249.506921,2.83351575 249.298109,5.5473008 C249.105467,8.04244843 249.256994,10.5644057 249.256994,13.3147074 C251.047597,12.9458434 252.572104,12.6319854 254.026391,12.3324568 C254.106774,12.0602 254.169602,11.9441789 254.170526,11.8276955 C254.185309,9.79478349 254.225963,7.7614092 254.188081,5.72942162 C254.162673,4.32931006 253.455856,2.50856414 254.093377,1.64741927 C254.787721,0.710005524 256.685039,0.665168673 258.057095,0.228356056 C258.113456,0.210328869 258.159653,0.161331898 258.210932,0.12666423 L258.951473,0.12666423 Z" id="Fill-3"></path>
                        <path d="M281.330081,31.9250511 C279.90536,32.4233411 278.521292,32.6789574 277.382994,33.3515101 C274.767309,34.8958392 273.51167,37.4940653 272.687974,40.2947507 C272.408943,41.2423336 272.79238,42.071122 273.917743,41.4887052 C275.953653,40.4352703 278.061168,39.3994004 279.819895,37.9655456 C281.430791,36.6532588 282.125597,34.6799752 281.330081,31.9250511 M287.683118,53.1014495 C286.69034,54.3212891 285.858791,55.5346575 284.841067,56.561745 C278.266284,63.19991 267.287985,60.5004543 264.689856,51.5039633 C262.892323,45.2794991 263.505822,39.2329956 267.18127,33.7097427 C269.884267,29.6480787 273.948233,28.0496681 278.58643,27.6350428 C280.60109,27.4552331 282.616211,27.3632483 284.259445,29.0356166 C286.459816,31.2746857 287.004943,34.4257456 285.595005,37.7228719 C283.419118,42.8125478 279.069191,45.8933479 273.126847,46.5067345 C272.594656,48.6330182 273.129619,50.626178 274.109461,52.490374 C275.104549,54.381842 277.162171,55.0825911 279.329281,54.5482468 C282.350577,53.8035853 284.190149,51.6213712 285.995535,49.3208247 C286.736075,48.3764774 287.917337,47.7459881 288.539614,46.748946 C289.08243,45.8790186 289.270915,44.7072515 289.35638,43.6478075 C289.67283,39.7317477 289.894115,35.8069055 290.124177,31.8843744 C290.20687,30.4833384 292.740785,29.150251 294.583129,29.5907615 C296.132583,29.9610122 296.942881,30.8591359 297.068537,32.544909 C297.431647,37.4113252 296.075298,42.0031734 295.009529,46.6467919 C294.825664,47.4473839 294.638566,48.2470515 294.797022,49.1756827 C296.549281,46.2488071 298.311704,43.3274783 300.050566,40.3927446 C301.708583,37.5948327 303.338881,34.7802803 304.988121,31.9772838 C306.670622,29.1192812 309.201304,27.7982119 311.803129,28.4074384 C314.299625,28.9921664 316.130419,31.552027 316.295805,34.7146428 C316.549428,39.5732009 316.742532,44.4354569 317.075152,49.2889305 C317.165236,50.6067641 317.570847,51.9278333 318.000481,53.1897365 C318.397315,54.3578058 319.349439,54.5648873 320.04563,53.5530536 C321.07398,52.0558726 322.01363,50.4569998 322.71398,48.7855559 C323.606509,46.6541877 324.108673,44.3587258 325.00305,42.2287443 C325.480267,41.0925693 326.429157,40.1546933 327.16554,39.1276058 C327.400684,39.2408536 327.635828,39.353639 327.870971,39.4668868 C327.676019,40.6821041 327.628898,41.9440072 327.260245,43.1037563 C325.731118,47.9151663 323.788064,52.5463045 320.593067,56.5256906 C319.833123,57.4723491 318.917495,58.3621525 317.908549,59.028234 C315.262374,60.7759467 312.503478,60.1510042 311.208571,57.2495515 C310.180684,54.9462316 309.515906,52.4238121 309.072875,49.9309757 C308.484785,46.6236801 308.346194,43.2396535 307.843106,39.9143308 C307.713754,39.0647418 307.364042,37.728881 306.459501,37.5167149 C305.550802,37.3040865 304.580661,38.3404187 304.15149,39.0578083 C301.697957,43.1619979 299.401957,47.3600214 297.05283,51.5266129 C296.542814,52.4321324 296.043422,53.3441231 295.523704,54.2440958 C294.587287,55.8646937 293.467467,57.152482 291.305439,56.7739111 C289.258904,56.4156785 288.190363,55.1024673 287.683118,53.1014495" id="Fill-6"></path>
                    </g>
                </g>
            </g>
        </g>
    </g>
</svg>