<svg width="197" height="40" viewBox="0 0 197 40" fill="none" xmlns="http://www.w3.org/2000/svg">
<path d="M179.35 13.59C176.77 11.8 173.56 11.16 170.33 11.85C165.91 12.8 162.39 16.43 161.57 20.9C160.94 24.31 161.84 27.78 164.03 30.41C166.22 33.04 169.44 34.55 172.85 34.55C175.12 34.55 177.32 33.88 179.17 32.65C179.46 33.49 180.25 34.1 181.19 34.1H184.43V12.02H181.88C180.77 12.01 179.81 12.66 179.35 13.59ZM167.57 26.13C166.96 25.16 166.68 24.12 166.72 22.95C166.77 21.3 167.52 19.69 168.77 18.55C169.95 17.48 171.33 16.96 172.98 16.96C174.12 16.96 175.13 17.23 176.08 17.78C178.09 18.96 179.07 20.73 179.07 23.17C179.07 24.78 178.48 26.15 177.27 27.37C175.94 28.7 174.4 29.29 172.54 29.15C171.76 29.09 170.98 28.88 170.27 28.53C169.11 27.97 168.22 27.18 167.57 26.13Z" fill="#292A2D"/>
<path d="M74.67 13.06C72.86 12.08 70.9 11.59 68.83 11.59C67.08 11.59 65.45 11.97 63.96 12.73C63.62 12.9 63.3 13.09 62.99 13.29V7.41003C62.99 6.23003 62.03 5.28003 60.86 5.28003H57.55V34.1H60.7599C61.6799 34.1 62.4599 33.52 62.7599 32.7C63.1999 32.99 63.67 33.25 64.18 33.48C65.74 34.2 67.4 34.56 69.1 34.56C72.53 34.56 75.54 33.13 78.04 30.32C79.8 28.35 80.69 25.88 80.69 22.97C80.69 20.88 80.14 18.93 79.05 17.17C77.96 15.42 76.49 14.04 74.67 13.06ZM74.5 25.94C73.93 26.98 73.17 27.76 72.18 28.35C71.24 28.9 70.24 29.17 69.14 29.17C67.99 29.17 66.94 28.91 65.97 28.4C63.87 27.24 62.89 25.59 62.89 23.2C62.89 21.39 63.45 19.93 64.61 18.72C65.75 17.53 67.17 16.95 68.96 16.95C70.75 16.95 72.21 17.52 73.44 18.68C74.65 19.82 75.23 21.24 75.24 23.01C75.24 24.05 74.98 25.06 74.5 25.94Z" fill="#292A2D"/>
<path d="M97.88 11.59C95.8 11.59 93.85 12.12 92.08 13.16C90.31 14.2 88.9 15.62 87.89 17.39C86.88 19.16 86.37 21.11 86.37 23.18C86.37 25.22 86.91 27.14 87.96 28.89C89.16 30.88 90.84 32.41 92.95 33.44C94.15 34.03 95.4299 34.39 96.7599 34.51C97.1399 34.54 97.51 34.56 97.88 34.56C99.94 34.56 101.88 34.03 103.63 32.97C105.61 31.78 107.13 30.09 108.17 27.96C108.79 26.68 109.16 25.31 109.26 23.88C109.51 20.43 108.39 17.44 105.91 14.97C103.65 12.72 100.95 11.59 97.88 11.59ZM103.84 22.93C103.84 24.06 103.58 25.09 103.06 26.07C101.92 28.19 100.27 29.17 97.88 29.17C96.36 29.17 94.92 28.63 93.83 27.64C92.43 26.37 91.77 24.85 91.81 22.98C91.83 22.16 92.01 21.33 92.34 20.6C92.89 19.35 93.7 18.43 94.82 17.78C95.77 17.23 96.77 16.96 97.88 16.96C99.46 16.96 100.83 17.53 102.06 18.69C103.26 19.83 103.84 21.22 103.84 22.93Z" fill="#292A2D"/>
<path d="M125.57 11.59C123.75 11.59 122.14 12.08 120.74 13.05C120.37 12.43 119.69 12.01 118.91 12.01H115.7V34.09H121.15V22.54C121.15 21.58 121.2 20.72 121.3 20.01C121.45 19.17 121.92 18.48 122.78 17.87C123.62 17.25 124.49 16.96 125.46 16.96C127.15 16.96 128.36 17.55 129.27 18.81C129.84 19.61 130.13 20.86 130.13 22.53V31.95C130.13 33.13 131.09 34.08 132.26 34.08H135.57V22.53C135.57 19.45 134.87 17.02 133.49 15.3C131.49 12.84 128.82 11.59 125.57 11.59Z" fill="#292A2D"/>
<path d="M191.56 14.14V34.09H194.87C196.05 34.09 197 33.13 197 31.96V12.01H193.69C192.52 12.01 191.56 12.96 191.56 14.14Z" fill="#292A2D"/>
<path d="M194.93 5.45001H192.25C191.87 5.45001 191.56 5.14001 191.56 4.76001V2.08002C191.56 0.930017 192.49 0 193.64 0H197.01V3.37C197 4.52 196.08 5.45001 194.93 5.45001Z" fill="#292A2D"/>
<path d="M154.66 22.66C153.29 21.82 151.74 21.14 150.01 20.63C149.86 20.58 149.68 20.53 149.49 20.47C149.3 20.42 149.1 20.37 148.89 20.32C148.45 20.16 148.04 19.95 147.65 19.68C147.26 19.41 147.08 19.03 147.11 18.54V18.5C147.11 17.91 147.3 17.46 147.69 17.16C148.08 16.86 148.55 16.71 149.12 16.71C149.61 16.71 150.04 16.84 150.42 17.1C150.52 17.17 150.6 17.24 150.68 17.33C150.98 17.68 151.46 17.82 151.88 17.63L155.68 15.9C155.33 15.05 154.78 14.28 154.01 13.6C152.59 12.32 150.99 11.68 149.21 11.68C147.32 11.68 145.65 12.29 144.18 13.5C142.71 14.71 141.97 16.31 141.97 18.3C141.97 19.2 142.14 20.03 142.49 20.78C142.84 21.53 143.36 22.2 144.06 22.79C144.29 23 144.52 23.17 144.74 23.31C144.96 23.45 145.17 23.57 145.38 23.68C145.64 23.81 145.9 23.93 146.15 24.03C146.41 24.13 146.68 24.24 146.96 24.34L147.42 24.5C147.58 24.55 147.74 24.6 147.92 24.65C148.13 24.73 148.34 24.8 148.56 24.86C148.78 24.92 149.01 25.01 149.24 25.11C149.83 25.32 150.37 25.59 150.85 25.94C151.33 26.29 151.57 26.79 151.57 27.43C151.57 28.1 151.32 28.61 150.83 28.96C150.34 29.31 149.78 29.48 149.16 29.48C148.41 29.48 147.81 29.25 147.34 28.78C147.29 28.73 147.23 28.67 147.19 28.61C146.66 28 145.57 27.64 144.78 27.81L141.36 28.56C141.67 30.08 142.38 31.37 143.49 32.41C144.95 33.78 146.78 34.46 148.97 34.46C149.18 34.46 149.38 34.45 149.59 34.42L150.21 34.34C151.01 34.18 151.79 33.93 152.55 33.57C153.31 33.21 153.98 32.77 154.54 32.25C155.26 31.55 155.8 30.77 156.17 29.91C156.53 29.05 156.71 28.11 156.71 27.1C156.72 24.98 156.03 23.49 154.66 22.66Z" fill="#292A2D"/>
<path d="M29.63 5.62H16.27V10.62V13.67V16.24V18.48V23.53H23.56V16.25H18.05V10.63H26.23C27.05 10.63 27.79 10.96 28.32 11.5C28.86 12.03 29.19 12.78 29.19 13.59V26.34V29.15H26.38H13.6C12.78 29.15 12.0399 28.82 11.5099 28.28C10.9699 27.74 10.64 27 10.64 26.19V13.68V13.44V10.63V3.20001V0H29.63C32.44 0 34.98 1.13999 36.83 2.98999C38.67 4.82999 39.82 7.37999 39.82 10.18V31.29V35.27V37.03C39.82 38.54 38.59 39.77 37.08 39.77H36.61H35.17H10.19C7.38 39.77 4.83999 38.63 2.98999 36.78C1.13999 34.94 0 32.39 0 29.59V10.62H2.94H5.62H8.84998V16.24H5.62V29.59C5.62 30.84 6.12996 31.98 6.95996 32.81C7.78996 33.64 8.92999 34.15 10.18 34.15H34.18V10.18C34.18 8.92999 33.67 7.79002 32.84 6.96002C32.02 6.14002 30.89 5.62 29.63 5.62Z" fill="#1FA304"/>
</svg>
