<?xml version="1.0" encoding="UTF-8"?>
<svg id="a" xmlns="http://www.w3.org/2000/svg" xmlns:xlink="http://www.w3.org/1999/xlink"
  viewBox="0 0 146.1734 51.375">
  <defs>
    <style>.c{fill:#003cff;}.d{clip-path:url(#b);}.e{fill:none;}</style>
    <clipPath id="b">
      <rect class="e" x=".00005" width="146.17335" height="51.375" />
    </clipPath>
  </defs>
  <g class="d">
    <path class="c"
      d="M144.61748,28.88139c0,.74807-.60652,1.35459-1.35429,1.35459h-44.04091v5.3661c0,.74807-.60623,1.35459-1.3543,1.35459H55.62989v5.3661c0,.74807-.60622,1.35459-1.35429,1.35459H10.27918c-.74807,0-1.35429-.60652-1.35429-1.35459V16.35172c0-.74777,.60622-1.35429,1.35429-1.35429H47.00811v-5.3664c0-.74807,.60652-1.35429,1.35429-1.35429h44.67939V2.91034c0-.74807,.60652-1.35459,1.3543-1.35459h48.86709c.74777,0,1.35429,.60652,1.35429,1.35459V28.88139Zm1.55587-.34223V2.52421C146.17335,1.1302,145.04333,.00018,143.64932,.00018h-50.25423c-.90994,0-1.78254,.36134-2.42548,1.00459l-5.7164,5.7161H47.3611c-.90963,0-1.78223,.36134-2.42548,1.00459l-5.71609,5.7161-30.42573-.0006c-.90963,0-1.78223,.36134-2.42548,1.00459l-2.92808,2.92808-1.86554,1.86555c-1.00818,1.00818-1.57468,2.37561-1.57468,3.80127v25.16116c0,1.75266,1.42089,3.17325,3.17355,3.17325H121.87553c1.24618,0,2.441-.49513,3.32167-1.37639l19.61439-18.17081c.872-.8723,1.36176-2.05518,1.36176-3.28853" />
  </g>
  <g>
    <path class="c"
      d="M131.23274,11.28133v4.00554h1.69802c1.58931,0,2.35142-.69671,2.35142-1.76342v-.45691c0-1.08851-.76211-1.78522-2.35142-1.78522h-1.69802Zm0,6.96617v5.31175h-3.39604V8.3207h5.35536c3.46143,0,5.57275,1.65441,5.57275,4.59324v.76181c0,2.93883-2.30722,4.57174-5.50735,4.57174h-2.02472Z" />
    <path class="c"
      d="M115.2319,14.15485v3.59193c0,1.85062,.89261,3.06933,2.76473,3.06933,1.89422,0,2.78653-1.21871,2.78653-3.06933v-3.59193c0-1.87212-.89231-3.09143-2.78653-3.09143-1.87211,0-2.76473,1.21931-2.76473,3.09143m-3.48293,3.74424v-3.89684c0-3.78784,2.45982-5.89916,6.24766-5.89916,3.80964,0,6.26947,2.11132,6.26947,5.89916v3.89684c0,3.78813-2.45982,5.87796-6.26947,5.87796-3.78783,0-6.24766-2.08982-6.24766-5.87796" />
    <path class="c"
      d="M101.40833,11.28133v4.00554h1.69802c1.58901,0,2.35083-.69671,2.35083-1.76342v-.45691c0-1.08851-.76182-1.78522-2.35083-1.78522h-1.69802Zm0,6.96617v5.31175h-3.39633V8.3207h5.35565c3.46113,0,5.57275,1.65441,5.57275,4.59324v.76181c0,2.93883-2.30752,4.57174-5.50765,4.57174h-2.02442Z" />
    <path class="c"
      d="M90.2291,24.59762h-3.8598l1.19542-6.63618h1.44628l1.21811,6.63618Zm4.73599,5.63815l-3.33183-15.23825h-6.54002l-3.33182,15.23825h3.59193l.48169-2.67394h4.93846l.49065,2.67394h3.70094Z" />
    <path class="c"
      d="M79.07306,14.99734v10.014c0,3.50473-2.28572,5.44225-5.83406,5.44225-3.52654,0-5.81256-1.93752-5.81256-5.44225V14.99734h3.48293v9.8614c0,1.58931,.76211,2.63392,2.32962,2.63392,1.58902,0,2.35082-1.04461,2.35082-2.63392V14.99734h3.48323Z" />
    <path class="c"
      d="M51.97865,24.5757v-3.89684c0-3.78784,2.45982-5.89916,6.24766-5.89916,3.28733,0,5.24635,1.85032,5.39895,4.54964h-3.35273c-.1956-1.04491-.84871-1.58931-2.28542-1.58931-1.63292,0-2.52522,1.21931-2.52522,3.09143v3.59193c0,1.85062,.89231,3.06933,2.67753,3.06933,1.50211,0,2.26392-.89231,2.26392-2.22032v-.4136h-2.67753v-2.91733h5.89946v2.87373c0,3.96224-1.80702,5.63845-5.68205,5.63845-3.50474,0-5.96456-2.08982-5.96456-5.87796" />
    <polygon class="c"
      points="39.5274 26.85557 39.5274 36.95676 36.24037 36.95676 36.24037 21.71822 40.28951 21.71822 44.70865 31.81911 44.70865 21.71822 47.99568 21.71822 47.99568 36.95676 43.94655 36.95676 39.5274 26.85557" />
    <rect class="c" x="28.44437" y="21.71825" width="3.39603" height="15.23855" />
    <polygon class="c"
      points="15.41718 21.71819 18.81351 21.71819 18.81351 33.9961 25.10477 33.9961 25.10477 36.95673 15.41718 36.95673 15.41718 21.71819" />
  </g>
</svg>