<svg xmlns="http://www.w3.org/2000/svg" xmlns:xlink="http://www.w3.org/1999/xlink" viewBox="0 0 1360 290.22"><defs><style>.cls-1{fill:#4a4a49;}.cls-2{fill:url(#linear-gradient);}.cls-3{fill:url(#linear-gradient-2);}.cls-4{fill:url(#linear-gradient-3);}</style><linearGradient id="linear-gradient" x1="305.96" y1="-20.02" x2="144.8" y2="151.47" gradientUnits="userSpaceOnUse"><stop offset="0" stop-color="#f869d5"/><stop offset="1" stop-color="#a472ff"/></linearGradient><linearGradient id="linear-gradient-2" x1="207.38" y1="-14.11" x2="66.89" y2="124.33" gradientUnits="userSpaceOnUse"><stop offset="0" stop-color="#ff7676"/><stop offset="1" stop-color="#f966be"/></linearGradient><linearGradient id="linear-gradient-3" x1="333.36" y1="63.87" x2="177.62" y2="225.84" gradientUnits="userSpaceOnUse"><stop offset="0" stop-color="#4affb1"/><stop offset="1" stop-color="#2bd2ff"/></linearGradient></defs><title>Logo</title><g id="Type"><path class="cls-1" d="M413.69,253.39V36.79h30.44v77h.59a59.2,59.2,0,0,1,24.44-20.49,75.93,75.93,0,0,1,31.17-6.44,81.36,81.36,0,0,1,31.32,6.29,84.52,84.52,0,0,1,26.93,17.71,87.31,87.31,0,0,1,18.73,27.08,83,83,0,0,1,7,34.39,85.47,85.47,0,0,1-6.44,33.08,86.52,86.52,0,0,1-17.56,27.07A82.43,82.43,0,0,1,534,250.76a81,81,0,0,1-33.07,6.73,79.92,79.92,0,0,1-12.73-1.17,70.32,70.32,0,0,1-14.79-4.24,78.94,78.94,0,0,1-15.22-8.35A57.17,57.17,0,0,1,444.43,230h-.59v23.42Zm29.56-81.66a57.54,57.54,0,0,0,17.42,42.59,55.24,55.24,0,0,0,37.91,15.36,52,52,0,0,0,20.93-4.39,55.5,55.5,0,0,0,17.7-12.15,59.28,59.28,0,0,0,12.15-18.29,56.42,56.42,0,0,0,4.54-22.54,59.14,59.14,0,0,0-15.66-40.25,55.66,55.66,0,0,0-17.57-12.73,51.9,51.9,0,0,0-22.09-4.68,52.89,52.89,0,0,0-22.84,4.83,53.58,53.58,0,0,0-17.41,12.88,59.33,59.33,0,0,0-11.12,18.29A58,58,0,0,0,443.25,171.73Z" transform="translate(0 -0.89)"/><path class="cls-1" d="M615.07,253.39V91.23h28.39v14.64h.59a37.74,37.74,0,0,1,10.68-10.54,53.26,53.26,0,0,1,11.86-5.71,49.58,49.58,0,0,1,10.83-2.34c3.31-.29,6-.44,7.9-.44v31.32a56.06,56.06,0,0,0-22,5.86q-7.32,4.1-12.59,13.61t-5.27,27.07v88.69Z" transform="translate(0 -0.89)"/><path class="cls-1" d="M729.81,185.48a61.5,61.5,0,0,0,8.64,20.05,55.16,55.16,0,0,0,13.17,13.76,52.11,52.11,0,0,0,15.65,7.9,54.27,54.27,0,0,0,15.81,2.49q17,0,28.83-8.34t17.42-18.88h30.44q-5.87,15.81-15.22,26.34a84,84,0,0,1-20,16.83,81.39,81.39,0,0,1-22,9.08,86.87,86.87,0,0,1-20.63,2.78,77,77,0,0,1-32.34-6.88A83.43,83.43,0,0,1,723.37,232a87.91,87.91,0,0,1-17.56-27.22A84.52,84.52,0,0,1,699.37,172,86.33,86.33,0,0,1,706,138.21a85,85,0,0,1,17.86-27.07,81.69,81.69,0,0,1,58.69-24.3,80,80,0,0,1,31.32,6.29,83.47,83.47,0,0,1,44.49,43.76A81,81,0,0,1,865,170c0,2.74-.1,5.76-.29,9.08a63.22,63.22,0,0,1-.59,6.43ZM834.6,162.07a47.87,47.87,0,0,0-4.69-17.42,50.11,50.11,0,0,0-11.12-15.22,57.29,57.29,0,0,0-16.39-10.68,52.16,52.16,0,0,0-40.54,0,57.78,57.78,0,0,0-16.24,10.68,50.14,50.14,0,0,0-11.13,15.22,47.85,47.85,0,0,0-4.68,17.42Z" transform="translate(0 -0.89)"/><path class="cls-1" d="M917.72,185.48a61.5,61.5,0,0,0,8.64,20.05,55.16,55.16,0,0,0,13.17,13.76,52.27,52.27,0,0,0,15.66,7.9A54.27,54.27,0,0,0,971,229.68q17,0,28.83-8.34t17.41-18.88h30.45q-5.87,15.81-15.22,26.34a83.8,83.8,0,0,1-20.06,16.83,81.46,81.46,0,0,1-21.95,9.08,86.87,86.87,0,0,1-20.63,2.78,77.08,77.08,0,0,1-32.35-6.88A83.39,83.39,0,0,1,911.29,232a87.94,87.94,0,0,1-17.57-27.22A84.7,84.7,0,0,1,887.28,172a86.33,86.33,0,0,1,6.59-33.81,85,85,0,0,1,17.85-27.07,81.73,81.73,0,0,1,58.69-24.3,79.9,79.9,0,0,1,31.32,6.29,83.47,83.47,0,0,1,44.49,43.76A80.86,80.86,0,0,1,1053,170c0,2.74-.1,5.76-.29,9.08a64.33,64.33,0,0,1-.58,6.43Zm104.79-23.41a47.85,47.85,0,0,0-4.68-17.42,50.44,50.44,0,0,0-11.12-15.22,57.21,57.21,0,0,0-16.4-10.68,52.13,52.13,0,0,0-40.53,0,58,58,0,0,0-16.25,10.68,50.27,50.27,0,0,0-11.12,15.22,47.67,47.67,0,0,0-4.69,17.42Z" transform="translate(0 -0.89)"/><path class="cls-1" d="M1175.89,91.23v29.56l-73.47,104.79H1182v27.81H1064.66V229.68L1142.52,119h-70.25V91.23Z" transform="translate(0 -0.89)"/><path class="cls-1" d="M1224.77,185.48a61.5,61.5,0,0,0,8.64,20.05,55.16,55.16,0,0,0,13.17,13.76,52,52,0,0,0,15.66,7.9,54.25,54.25,0,0,0,15.8,2.49q17,0,28.83-8.34t17.42-18.88h30.44q-5.87,15.81-15.22,26.34a84,84,0,0,1-20,16.83,81.46,81.46,0,0,1-22,9.08,87,87,0,0,1-20.64,2.78,77,77,0,0,1-32.34-6.88,83.43,83.43,0,0,1-26.2-18.59,87.91,87.91,0,0,1-17.56-27.22,84.52,84.52,0,0,1-6.44-32.78,86.33,86.33,0,0,1,6.58-33.81,85,85,0,0,1,17.86-27.07,81.69,81.69,0,0,1,58.69-24.3,80,80,0,0,1,31.32,6.29,83.47,83.47,0,0,1,44.49,43.76A81,81,0,0,1,1360,170c0,2.74-.1,5.76-.29,9.08a60.28,60.28,0,0,1-.59,6.43Zm104.79-23.41a48.05,48.05,0,0,0-4.68-17.42,50.31,50.31,0,0,0-11.13-15.22,57.29,57.29,0,0,0-16.39-10.68,52.16,52.16,0,0,0-40.54,0,57.78,57.78,0,0,0-16.24,10.68,50.14,50.14,0,0,0-11.13,15.22,47.85,47.85,0,0,0-4.68,17.42Z" transform="translate(0 -0.89)"/></g><g id="Icon"><g id="Icon-2" data-name="Icon"><polygon class="cls-2" points="0.46 228.12 130.05 98.53 172.46 140.93 278.16 35.22 303 60.06 172.88 190.19 130.01 147.33 24.85 252.5 0.46 228.12"/><path class="cls-3" d="M117.5,5.39,0,121.21,26.5,148.1,128.3,47.82,170.83,91,197.7,64.48,139.62,5.55A15.65,15.65,0,0,0,117.5,5.39Z" transform="translate(0 -0.89)"/><path class="cls-4" d="M303.05,169.28l-26.83-26.83L174.65,244l-43.06-43.05-26.82,26.81,58.79,58.79a15.72,15.72,0,0,0,22.22,0Z" transform="translate(0 -0.89)"/></g></g></svg>