<svg width="92" height="32" viewBox="0 0 92 32" fill="none" xmlns="http://www.w3.org/2000/svg">
<path d="M48.3978 15.5263C48.3978 14.9811 48.364 14.504 48.2963 14.0951C48.2287 13.6692 48.1018 13.3199 47.9157 13.0473C47.7466 12.7747 47.5014 12.5702 47.18 12.4339C46.8586 12.2976 46.4527 12.2294 45.9622 12.2294C45.5562 12.2294 45.1757 12.272 44.8205 12.3572C44.4822 12.4424 44.1862 12.6043 43.9325 12.8428C43.6957 13.0643 43.5012 13.388 43.349 13.814C43.2137 14.2229 43.146 14.7511 43.146 15.3986V22.6313C43.146 22.9209 42.9938 23.168 42.6893 23.3724C42.4018 23.5939 42.0297 23.7047 41.573 23.7047C41.1163 23.7047 40.7358 23.5939 40.4313 23.3724C40.1438 23.1509 40 22.9039 40 22.6313V5.07341C40 4.76672 40.1522 4.51115 40.4567 4.30669C40.778 4.10223 41.1586 4 41.5984 4C42.0381 4 42.4018 4.10223 42.6893 4.30669C42.9938 4.51115 43.146 4.76672 43.146 5.07341V11.7183C43.2982 11.4116 43.4758 11.122 43.6788 10.8494C43.8987 10.5767 44.1524 10.3297 44.4399 10.1082C44.7444 9.8867 45.0827 9.71631 45.4548 9.59705C45.8438 9.46074 46.2835 9.39259 46.7741 9.39259C47.4337 9.39259 48.0511 9.49482 48.6261 9.69928C49.2012 9.90373 49.7002 10.2104 50.123 10.6193C50.5628 11.0112 50.9095 11.5138 51.1632 12.1272C51.4169 12.7406 51.5438 13.4562 51.5438 14.274V22.6313C51.5438 22.938 51.4 23.1935 51.1125 23.398C50.8419 23.6024 50.4698 23.7047 49.9962 23.7047C49.5226 23.7047 49.1336 23.6024 48.8291 23.398C48.5416 23.1935 48.3978 22.938 48.3978 22.6313V15.5263Z" fill="#FE3265"/>
<path d="M61.6093 15.5008C61.6093 15.0748 61.5755 14.6659 61.5079 14.274C61.4402 13.8651 61.3133 13.5158 61.1273 13.2262C60.9581 12.9195 60.7213 12.681 60.4169 12.5106C60.1294 12.3232 59.7488 12.2294 59.2752 12.2294C58.6663 12.2294 58.1758 12.3402 57.8037 12.5617C57.4316 12.7662 57.144 13.0388 56.9411 13.3795C56.7381 13.7033 56.6028 14.0611 56.5351 14.4529C56.4675 14.8278 56.4337 15.1771 56.4337 15.5008H61.6093ZM59.3513 23.9602C58.3196 23.9602 57.4231 23.7899 56.662 23.4491C55.9009 23.1083 55.2666 22.6313 54.7592 22.0179C54.2518 21.3875 53.8712 20.6293 53.6175 19.7433C53.3638 18.8573 53.2369 17.8691 53.2369 16.7786C53.2369 15.7223 53.3638 14.7426 53.6175 13.8396C53.8712 12.9365 54.2518 12.1613 54.7592 11.5138C55.2835 10.8494 55.9262 10.3297 56.6874 9.95485C57.4485 9.58001 58.3365 9.39259 59.3513 9.39259C60.3154 9.39259 61.1357 9.56297 61.8123 9.90373C62.4889 10.2445 63.0386 10.7045 63.4614 11.2838C63.9012 11.8631 64.2225 12.5361 64.4255 13.3029C64.6285 14.0696 64.73 14.8789 64.73 15.7308C64.73 16.4464 64.6369 16.9916 64.4509 17.3665C64.2648 17.7413 63.9181 17.9287 63.4107 17.9287H56.4337C56.4337 18.3206 56.4759 18.704 56.5605 19.0788C56.6451 19.4536 56.7973 19.7944 57.0172 20.1011C57.254 20.4078 57.5584 20.6548 57.9305 20.8423C58.3196 21.0297 58.8101 21.1234 59.4021 21.1234C60.1632 21.1234 60.7552 21.0126 61.178 20.7911C61.6178 20.5526 61.9645 20.2885 62.2182 19.9989C62.4043 19.7774 62.5903 19.6411 62.7764 19.5899C62.9625 19.5388 63.1316 19.5388 63.2838 19.5899C63.453 19.624 63.5967 19.6837 63.7151 19.7688C63.8504 19.854 63.9604 19.9222 64.0449 19.9733C64.3663 20.2289 64.4932 20.5867 64.4255 21.0467C64.3579 21.4897 64.1126 21.9327 63.6898 22.3757C63.2838 22.8016 62.7087 23.168 61.9645 23.4747C61.2372 23.7984 60.3662 23.9602 59.3513 23.9602Z" fill="#FE3265"/>
<path d="M74.9792 20.8423C74.8439 21.1319 74.6663 21.4216 74.4465 21.7112C74.2266 21.9838 73.9644 22.2309 73.66 22.4524C73.3724 22.6739 73.0341 22.8528 72.6451 22.9891C72.2561 23.1083 71.8248 23.168 71.3512 23.168C70.6916 23.168 70.0742 23.0657 69.4991 22.8613C68.924 22.6568 68.4166 22.3587 67.9769 21.9668C67.554 21.5579 67.2157 21.0467 66.962 20.4333C66.7083 19.82 66.5815 19.1044 66.5815 18.2865V10.7216C66.5815 10.4149 66.7168 10.1593 66.9874 9.95485C67.2749 9.75039 67.6555 9.64816 68.1291 9.64816C68.6027 9.64816 68.9832 9.75039 69.2708 9.95485C69.5752 10.1593 69.7275 10.4149 69.7275 10.7216V17.0342C69.7275 17.5794 69.7613 18.0565 69.8289 18.4654C69.8966 18.8743 70.015 19.2151 70.1841 19.4877C70.3702 19.7603 70.6239 19.9648 70.9453 20.1011C71.2666 20.2374 71.6726 20.3056 72.1631 20.3056C72.569 20.3056 72.9411 20.263 73.2794 20.1778C73.6346 20.0926 73.9306 19.9392 74.1674 19.7177C74.4211 19.4792 74.6156 19.1555 74.7509 18.7466C74.9031 18.3376 74.9792 17.8095 74.9792 17.162V10.7216C74.9792 10.4319 75.123 10.1849 75.4106 9.98041C75.715 9.75891 76.0956 9.64816 76.5522 9.64816C77.0089 9.64816 77.381 9.75891 77.6686 9.98041C77.973 10.2019 78.1252 10.449 78.1252 10.7216V22.8357C78.1252 23.6195 77.9646 24.3266 77.6432 24.957C77.3218 25.6044 76.8736 26.1582 76.2985 26.6182C75.7235 27.0782 75.0469 27.4275 74.2689 27.6661C73.5077 27.9046 72.6874 28.0153 71.8079 27.9983C71.3174 27.9983 70.8691 27.9727 70.4632 27.9216C70.0742 27.8875 69.6936 27.8109 69.3215 27.6916C68.9663 27.5723 68.6111 27.4105 68.2559 27.206C67.9177 27.0186 67.5625 26.7801 67.1904 26.4904C66.7844 26.1667 66.5392 25.8344 66.4546 25.4937C66.3869 25.17 66.4039 24.8462 66.5053 24.5225C66.6576 24.0454 66.8774 23.7558 67.165 23.6536C67.4694 23.5684 67.7654 23.6536 68.053 23.9091C68.4589 24.2669 68.9579 24.5481 69.5499 24.7525C70.1588 24.974 70.903 25.0762 71.7825 25.0592C72.3068 25.0422 72.7635 24.9655 73.1525 24.8292C73.5585 24.6929 73.8968 24.5225 74.1674 24.318C74.438 24.1136 74.641 23.8836 74.7763 23.628C74.9116 23.3724 74.9792 23.1169 74.9792 22.8613V20.8423Z" fill="#FE3265"/>
<path d="M88.854 20.8423C88.7187 21.1319 88.5411 21.4216 88.3212 21.7112C88.1013 21.9838 87.8392 22.2309 87.5347 22.4524C87.2472 22.6739 86.9089 22.8528 86.5199 22.9891C86.1308 23.1083 85.6995 23.168 85.2259 23.168C84.5663 23.168 83.9489 23.0657 83.3739 22.8613C82.7988 22.6568 82.2914 22.3587 81.8516 21.9668C81.4288 21.5579 81.0905 21.0467 80.8368 20.4333C80.5831 19.82 80.4562 19.1044 80.4562 18.2865V10.7216C80.4562 10.4149 80.5915 10.1593 80.8621 9.95485C81.1497 9.75039 81.5302 9.64816 82.0038 9.64816C82.4774 9.64816 82.858 9.75039 83.1455 9.95485C83.45 10.1593 83.6022 10.4149 83.6022 10.7216V17.0342C83.6022 17.5794 83.636 18.0565 83.7037 18.4654C83.7714 18.8743 83.8897 19.2151 84.0589 19.4877C84.2449 19.7603 84.4986 19.9648 84.82 20.1011C85.1414 20.2374 85.5473 20.3056 86.0378 20.3056C86.4438 20.3056 86.8159 20.263 87.1541 20.1778C87.5093 20.0926 87.8053 19.9392 88.0421 19.7177C88.2958 19.4792 88.4903 19.1555 88.6257 18.7466C88.7779 18.3376 88.854 17.8095 88.854 17.162V10.7216C88.854 10.4319 88.9978 10.1849 89.2853 9.98041C89.5898 9.75891 89.9703 9.64816 90.427 9.64816C90.8837 9.64816 91.2558 9.75891 91.5433 9.98041C91.8478 10.2019 92 10.449 92 10.7216V22.8357C92 23.6195 91.8393 24.3266 91.518 24.957C91.1966 25.6044 90.7484 26.1582 90.1733 26.6182C89.5982 27.0782 88.9217 27.4275 88.1436 27.6661C87.3825 27.9046 86.5622 28.0153 85.6826 27.9983C85.1921 27.9983 84.7439 27.9727 84.338 27.9216C83.9489 27.8875 83.5684 27.8109 83.1963 27.6916C82.8411 27.5723 82.4859 27.4105 82.1307 27.206C81.7924 27.0186 81.4372 26.7801 81.0651 26.4904C80.6592 26.1667 80.4139 25.8344 80.3294 25.4937C80.2617 25.17 80.2786 24.8462 80.3801 24.5225C80.5323 24.0454 80.7522 23.7558 81.0397 23.6536C81.3442 23.5684 81.6402 23.6536 81.9277 23.9091C82.3337 24.2669 82.8326 24.5481 83.4246 24.7525C84.0335 24.974 84.7777 25.0762 85.6573 25.0592C86.1816 25.0422 86.6383 24.9655 87.0273 24.8292C87.4332 24.6929 87.7715 24.5225 88.0421 24.318C88.3128 24.1136 88.5157 23.8836 88.651 23.628C88.7863 23.3724 88.854 23.1169 88.854 22.8613V20.8423Z" fill="#FE3265"/>
<path fill-rule="evenodd" clip-rule="evenodd" d="M21.0984 0H10.9016C7.49292 0 5.94466 0.00797252 4.28052 0.530779C2.54061 1.16964 1.16964 2.54061 0.530779 4.28052C0.00797285 5.94466 0 7.4932 0 10.9016V21.0984C0 24.507 0.00796837 26.0551 0.530784 27.7195C1.16967 29.4594 2.54065 30.8304 4.28052 31.4689C5.94464 31.992 7.49282 32 10.9016 32H21.0984C24.5071 32 26.0551 31.992 27.7195 31.4689C29.4593 30.8304 30.8303 29.4595 31.4692 27.7195C31.992 26.0551 32 24.5071 32 21.0984V10.9016C32 7.49317 31.992 5.94464 31.4692 4.28049C30.8303 2.54059 29.4594 1.16965 27.7195 0.530784C26.0551 0.00796837 24.507 0 21.0984 0Z" fill="#FE3265"/>
<path fill-rule="evenodd" clip-rule="evenodd" d="M11.0769 7.25C10.0573 7.25 9.23077 8.08947 9.23077 9.125V15.375C9.23077 17.4461 10.8839 19.125 12.9231 19.125H16.6154C17.9749 19.125 19.0769 20.2443 19.0769 21.625V22.875C19.0769 23.9105 19.9035 24.75 20.9231 24.75C21.9427 24.75 22.7692 23.9105 22.7692 22.875V19.75C22.7692 17.6789 21.1161 16 19.0769 16H15.413C14.0379 16 12.9231 14.8678 12.9231 13.4712V9.125C12.9231 8.08947 12.0965 7.25 11.0769 7.25ZM22.7692 16.4427C21.8671 15.4047 20.5473 14.75 19.0769 14.75H15.413C14.7176 14.75 14.1538 14.1775 14.1538 13.4712V9.125C14.1538 7.39911 12.7763 6 11.0769 6C9.37759 6 8 7.39911 8 9.125V22.875C8 24.6009 9.37759 26 11.0769 26C12.7763 26 14.1538 24.6009 14.1538 22.875V22.25C14.1538 21.9048 13.8783 21.625 13.5385 21.625C13.1986 21.625 12.9231 21.9048 12.9231 22.25V22.875C12.9231 23.9105 12.0965 24.75 11.0769 24.75C10.0573 24.75 9.23077 23.9105 9.23077 22.875V18.6823C10.1329 19.7203 11.4527 20.375 12.9231 20.375H16.6154C17.2951 20.375 17.8462 20.9346 17.8462 21.625V22.875C17.8462 24.6009 19.2237 26 20.9231 26C22.6224 26 24 24.6009 24 22.875V9.125C24 7.39911 22.6224 6 20.9231 6C19.2237 6 17.8462 7.39911 17.8462 9.125V12.875C17.8462 13.2202 18.1217 13.5 18.4615 13.5C18.8014 13.5 19.0769 13.2202 19.0769 12.875V9.125C19.0769 8.08947 19.9035 7.25 20.9231 7.25C21.9427 7.25 22.7692 8.08947 22.7692 9.125V16.4427Z" fill="white"/>
</svg>
