<svg width="104" height="31" viewBox="0 0 104 31" fill="none" xmlns="http://www.w3.org/2000/svg">
<path d="M83.7136 13.0533C82.4903 11.9249 81.0804 11.3555 79.5254 11.3555C77.6801 11.3555 76.0733 12.0491 74.7359 13.4156C73.3986 14.7822 72.7144 16.4593 72.7351 18.3849C72.704 20.1863 73.3779 21.9255 74.6219 23.2196C75.8866 24.5758 77.4935 25.2694 79.3699 25.2694C80.3133 25.2694 81.2359 25.0727 82.0964 24.6897C82.6769 24.4412 83.2056 24.0996 83.6825 23.6855C83.6307 24.5137 83.5063 25.1555 83.2886 25.6007C83.0294 26.1597 82.5525 26.6049 81.8994 26.9465C81.1737 27.3089 80.3651 27.4952 79.5565 27.4849C77.649 27.4849 76.3221 26.7395 75.5134 25.2073L75.4098 25.0002H72.6211L72.8284 25.5386C73.9584 28.5512 76.2495 30.0834 79.6187 30.0834C80.5517 30.0937 81.4847 29.9385 82.3659 29.6175C83.1849 29.3173 83.9313 28.8514 84.543 28.2303C85.165 27.5988 85.6315 26.8223 85.9114 25.9734C86.212 25.0934 86.3468 23.7993 86.3468 22.029V11.6868H83.7033V13.0533H83.7136ZM82.8324 15.2791C83.6307 16.097 84.0246 17.1115 84.0246 18.3849C84.0246 19.6376 83.641 20.6314 82.8635 21.4286C82.086 22.2257 81.0804 22.6191 79.8261 22.6191C78.5717 22.6191 77.5764 22.2257 76.7782 21.4079C75.9799 20.59 75.5964 19.6272 75.5964 18.4574C75.5964 17.2875 76.0007 16.2833 76.8404 15.3826C77.6801 14.482 78.6753 14.0575 79.9194 14.0575C81.0182 14.0368 82.0757 14.482 82.8324 15.2791Z" fill="#231815"/>
<path d="M99.0584 11.6764V13.0015C97.9181 11.9042 96.5496 11.3555 94.9946 11.3555C93.1389 11.3555 91.5424 12.0491 90.257 13.4053C88.9715 14.7615 88.3184 16.4179 88.3184 18.3228C88.3184 20.2277 88.9715 21.8945 90.2466 23.261C91.5217 24.6276 93.0975 25.3419 94.9013 25.3419C96.4356 25.3419 97.8351 24.7621 99.0584 23.6337V25.3108C99.0584 25.3315 99.0688 25.3419 99.0895 25.3419H101.557C101.578 25.3419 101.588 25.3315 101.588 25.3108V11.6764H99.0584ZM95.2641 22.8158C94.1238 22.8158 93.17 22.3914 92.3511 21.5011C90.7235 19.7411 90.7235 17.0391 92.3303 15.2688C93.1389 14.3888 94.0927 13.954 95.2538 13.954C96.3734 13.9333 97.4412 14.3991 98.1772 15.2274C98.9858 16.0866 99.3798 17.1219 99.3798 18.3953C99.3798 19.6686 98.9858 20.7039 98.1565 21.5528C97.3271 22.4017 96.3941 22.8158 95.2641 22.8158Z" fill="#231815"/>
<path d="M63.3227 17.5335C63.3227 15.5872 62.8147 14.0653 61.8195 12.9886C60.8243 11.912 59.3833 11.3633 57.5484 11.3633C55.5787 11.3633 53.9718 12.0259 52.7693 13.3303C51.5564 14.6347 50.9551 16.3843 50.9551 18.5687C50.9551 20.7842 51.5978 22.5131 52.8522 23.7347C54.117 24.9459 55.869 25.5567 58.0875 25.5567C58.9272 25.5567 59.7669 25.4532 60.5755 25.2358C61.353 25.0288 62.1098 24.7596 62.8459 24.449L63.2709 24.2523V21.3018C63.2709 21.3018 61.4049 22.13 60.5651 22.4613C59.7669 22.7822 58.9168 22.9479 58.0667 22.9582C57.4966 22.9686 56.916 22.8754 56.3769 22.6994C55.3714 22.3785 54.5731 21.6227 54.1999 20.6392C54.0029 20.1423 53.8993 19.6143 53.8785 19.076H63.3227V17.5335ZM57.4344 13.8583C58.471 13.8583 59.2486 14.1274 59.7358 14.6658C60.1712 15.1523 60.4304 15.8253 60.4822 16.6845H53.92C54.0444 15.9599 54.3969 15.2869 54.9256 14.7693C55.5476 14.1585 56.3666 13.8583 57.4344 13.8583Z" fill="#231815"/>
<path d="M68.081 25.3931C67.2309 25.3931 66.5364 24.7306 66.5364 23.9024L66.5156 12.8975C66.526 12.0589 67.2206 11.3964 68.0603 11.4067C68.9 11.386 69.5946 12.0486 69.6153 12.8872C69.6153 12.8872 69.6153 12.8871 69.6153 12.8975L69.636 23.9024C69.6257 24.7202 68.9311 25.3828 68.081 25.3931Z" fill="#231815"/>
<path d="M68.0707 7.23438C68.9311 7.23438 69.6257 7.928 69.6257 8.78727C69.6257 9.64654 68.9311 10.3402 68.0707 10.3402C67.2102 10.3402 66.5156 9.64654 66.5156 8.78727C66.5156 7.93835 67.2102 7.23438 68.0707 7.23438Z" fill="#231815"/>
<path d="M41.5103 22.4203V8.71344C41.5103 8.67203 41.5103 8.63061 41.4999 8.59956V7.22266H38.5143V8.55815C38.5039 8.60991 38.5039 8.67203 38.5039 8.72379C38.5039 8.74449 38.5039 8.77555 38.5039 8.79626V25.1638H50.0526V22.4203H41.5103Z" fill="#231815"/>
<path d="M14.775 21.9665C14.3188 21.5006 13.645 21.3246 13.0126 21.5006L13.1267 21.4799C14.0908 21.2832 15.0238 21.894 15.2311 22.8568C15.4281 23.8196 14.8061 24.7617 13.8523 24.9584L12.9297 25.1447L18.1546 30.466C18.8388 31.17 19.9688 31.1803 20.6737 30.4867C21.3787 29.8034 21.389 28.675 20.6945 27.971L14.775 21.9665Z" fill="#0EAD58"/>
<path d="M12.2553 21.9465C12.4626 21.7395 12.7218 21.5842 13.0121 21.5117L8.55432 22.4331C7.5902 22.6298 6.97856 23.5719 7.17553 24.5347C7.3725 25.4975 8.31588 26.1083 9.28 25.9116L12.9291 25.1558L12.2449 24.4622C11.54 23.7582 11.5503 22.6298 12.2553 21.9465Z" fill="#20A149"/>
<path d="M15.2215 22.8668C15.0245 21.904 14.0811 21.2932 13.117 21.4899L13.003 21.5106C12.7231 21.5935 12.4639 21.7384 12.2462 21.9454C11.5412 22.6287 11.5309 23.7572 12.2255 24.4611L12.9097 25.1548L13.8323 24.9684C14.7964 24.7614 15.4184 23.8296 15.2215 22.8668Z" fill="#20A149"/>
<path d="M15.2215 22.8668C15.0245 21.904 14.0811 21.2932 13.117 21.4899L13.003 21.5106C12.7231 21.5935 12.4639 21.7384 12.2462 21.9454C11.5412 22.6287 11.5309 23.7572 12.2255 24.4611L12.9097 25.1548L13.8323 24.9684C14.7964 24.7614 15.4184 23.8296 15.2215 22.8668Z" fill="#007C00"/>
<path d="M8.05627 16.2734L8.11847 16.377C8.59535 17.2259 8.30507 18.3026 7.45499 18.7891C6.60491 19.2757 5.51639 18.9755 5.02915 18.1266L4.56264 17.3087L1.11048 23.9137C0.654342 24.7833 0.996448 25.86 1.86726 26.3051C2.73808 26.7607 3.81623 26.419 4.262 25.5494L8.15994 18.0851C8.46058 17.5158 8.41911 16.8118 8.05627 16.2734Z" fill="#FFCA17"/>
<path d="M7.41414 15.6901C7.67331 15.8247 7.90138 16.0214 8.06725 16.2699L5.80728 12.3255C5.32004 11.4766 4.23152 11.1764 3.38144 11.663C2.53136 12.1495 2.23072 13.2366 2.71796 14.0855L4.56326 17.3155L5.0194 16.4459C5.46518 15.5763 6.53296 15.2346 7.41414 15.6901C7.40378 15.6901 7.40378 15.6901 7.41414 15.6901Z" fill="#FF9F23"/>
<path d="M7.44569 18.7861C8.29577 18.2995 8.5964 17.2125 8.10916 16.3636L8.04696 16.2601C7.49752 15.4525 6.38827 15.2351 5.57965 15.7838C5.33085 15.9495 5.13388 16.1772 4.99911 16.436L4.54297 17.3057L5.00948 18.1235C5.50709 18.9724 6.5956 19.2727 7.44569 18.7861Z" fill="#FF9F23"/>
<path d="M7.44569 18.7861C8.29577 18.2995 8.5964 17.2125 8.10916 16.3636L8.04696 16.2601C7.49752 15.4525 6.38827 15.2351 5.57965 15.7838C5.33085 15.9495 5.13388 16.1772 4.99911 16.436L4.54297 17.3057L5.00948 18.1235C5.50709 18.9724 6.5956 19.2727 7.44569 18.7861Z" fill="#FF8400"/>
<path d="M9.80919 10.61C10.4519 10.7135 11.105 10.4651 11.5094 9.94743L11.4264 10.0303C10.7526 10.7446 9.63296 10.786 8.90728 10.1234C8.20233 9.46086 8.1505 8.36348 8.79324 7.63879L9.42562 6.94517L2.07553 5.7132C1.11141 5.54756 0.188761 6.19978 0.0228915 7.17292C-0.132611 8.13572 0.5205 9.0571 1.48462 9.21239L9.80919 10.61Z" fill="#FF8400"/>
<path d="M11.8614 9.15917C11.8096 9.44905 11.6955 9.72857 11.5089 9.95633L14.5775 6.59172C15.2306 5.85668 15.1684 4.7386 14.4324 4.08638C13.7067 3.44452 12.6078 3.49628 11.9443 4.20026L9.43555 6.94371L10.3997 7.10935C11.3638 7.27499 12.0169 8.18603 11.8614 9.15917Z" fill="#FF6400"/>
<path d="M8.9177 10.1546C9.64338 10.8172 10.7734 10.7654 11.4265 10.0408L11.5094 9.95793C12.1107 9.18148 11.9759 8.0634 11.1984 7.46294C10.9703 7.28695 10.6904 7.16272 10.4002 7.11095L9.43604 6.94531L8.80366 7.63894C8.14018 8.37398 8.19202 9.49206 8.9177 10.1546Z" fill="#FF6400"/>
<path d="M8.9177 10.1546C9.64338 10.8172 10.7734 10.7654 11.4265 10.0408L11.5094 9.95793C12.1107 9.18148 11.9759 8.0634 11.1984 7.46294C10.9703 7.28695 10.6904 7.16272 10.4002 7.11095L9.43604 6.94531L8.80366 7.63894C8.14018 8.37398 8.19202 9.49206 8.9177 10.1546Z" fill="#FF2000"/>
<path d="M17.7819 10.6809L17.7715 10.6602L17.7819 10.6809Z" fill="#6360E6"/>
<path d="M18.3613 11.1797C18.4443 11.2211 18.5272 11.2625 18.6101 11.2936L18.5168 11.2625C18.465 11.2315 18.4132 11.2004 18.3613 11.1797Z" fill="#6360E6"/>
<path d="M18.0303 10.9502C18.0096 10.9398 17.9992 10.9191 17.9785 10.8984L18.0303 10.9502Z" fill="#6360E6"/>
<path d="M17.9061 10.8162C17.8957 10.8059 17.8854 10.7955 17.875 10.7852C17.8854 10.8059 17.8957 10.8162 17.9061 10.8162Z" fill="#6360E6"/>
<path d="M18.1962 11.066C18.1651 11.0453 18.134 11.0246 18.1133 11.0039C18.1236 11.0246 18.1547 11.0453 18.1962 11.066Z" fill="#6360E6"/>
<path d="M18.3613 11.1766C18.3199 11.1559 18.268 11.1248 18.2266 11.0938C18.268 11.1248 18.3095 11.1455 18.3613 11.1766Z" fill="#6360E6"/>
<path d="M17.4177 9.74985C17.397 9.47032 17.4384 9.1908 17.5421 8.93199C17.9153 8.02096 18.952 7.58614 19.8539 7.94849L20.7973 8.33153L19.771 1.45738C19.6155 0.504939 18.6928 -0.147278 17.7287 0.028717C16.7957 0.194359 16.1633 1.05363 16.267 1.98537L17.4177 9.74985Z" fill="#8B5DFC"/>
<path d="M17.9892 10.9109C17.9581 10.8902 17.9374 10.8592 17.9062 10.8281C17.927 10.8488 17.9581 10.8799 17.9892 10.9109Z" fill="#8B5DFC"/>
<path d="M18.1032 11.001C18.0825 10.9803 18.0617 10.9699 18.041 10.9492L18.1032 11.001Z" fill="#8B5DFC"/>
<path d="M19.4614 11.3667C19.1815 11.4081 18.8809 11.3771 18.6113 11.2839L22.5715 12.8886C23.4837 13.2613 24.5204 12.8161 24.8833 11.9051C25.2565 10.994 24.8107 9.95876 23.9088 9.59642L20.8091 8.34375L20.9646 9.34796C21.0994 10.3211 20.4359 11.2218 19.4614 11.3667Z" fill="#6360E6"/>
<path d="M17.418 9.75C17.4387 10.0295 17.532 10.2987 17.6771 10.5368C17.5527 10.3297 17.4698 10.1123 17.4387 9.87423L17.418 9.75Z" fill="#8B5DFC"/>
<path d="M17.771 10.6697C17.7399 10.6283 17.7088 10.5869 17.6777 10.5352C17.7088 10.5766 17.7399 10.6283 17.771 10.6697Z" fill="#8B5DFC"/>
<path d="M18.227 11.0975L18.1855 11.0664L18.227 11.0975Z" fill="#8B5DFC"/>
<path d="M17.8739 10.7949C17.8428 10.7639 17.8117 10.7225 17.791 10.6914C17.8117 10.7225 17.8428 10.7535 17.8739 10.7949Z" fill="#8B5DFC"/>
<path d="M17.5417 8.94193C17.438 9.20074 17.3966 9.48026 17.4173 9.75978L17.438 9.88402C17.4691 10.1221 17.5521 10.3395 17.6765 10.5466C17.7076 10.588 17.7387 10.6398 17.7698 10.6812L17.7801 10.7019C17.8112 10.7433 17.832 10.7743 17.8631 10.8054C17.8734 10.8158 17.8838 10.8261 17.8942 10.8365C17.9149 10.8675 17.946 10.8882 17.9771 10.9193C18.0082 10.9503 18.0082 10.9503 18.0289 10.971C18.0497 10.9917 18.0704 11.0125 18.0911 11.0228C18.1119 11.0332 18.143 11.0642 18.1741 11.0849L18.2155 11.116C18.257 11.147 18.2985 11.1677 18.3503 11.1988C18.4021 11.2299 18.454 11.2506 18.5162 11.2713L18.6095 11.3023C18.879 11.3955 19.1693 11.4266 19.4596 11.3851C20.434 11.2402 21.1079 10.3395 20.9628 9.37674L20.8073 8.37253L19.8639 7.98948C18.9516 7.58573 17.9149 8.03089 17.5417 8.94193Z" fill="#6360E6"/>
<path d="M17.5417 8.94193C17.438 9.20074 17.3966 9.48026 17.4173 9.75978L17.438 9.88402C17.4691 10.1221 17.5521 10.3395 17.6765 10.5466C17.7076 10.588 17.7387 10.6398 17.7698 10.6812L17.7801 10.7019C17.8112 10.7433 17.832 10.7743 17.8631 10.8054C17.8734 10.8158 17.8838 10.8261 17.8942 10.8365C17.9149 10.8675 17.946 10.8882 17.9771 10.9193C18.0082 10.9503 18.0082 10.9503 18.0289 10.971C18.0497 10.9917 18.0704 11.0125 18.0911 11.0228C18.1119 11.0332 18.143 11.0642 18.1741 11.0849L18.2155 11.116C18.257 11.147 18.2985 11.1677 18.3503 11.1988C18.4021 11.2299 18.454 11.2506 18.5162 11.2713L18.6095 11.3023C18.879 11.3955 19.1693 11.4266 19.4596 11.3851C20.434 11.2402 21.1079 10.3395 20.9628 9.37674L20.8073 8.37253L19.8639 7.98948C18.9516 7.58573 17.9149 8.03089 17.5417 8.94193Z" fill="#4D04F1"/>
<path d="M30.4384 13.9325C30.003 13.0525 28.9352 12.7005 28.054 13.1353L20.4966 16.883C19.916 17.1728 19.5325 17.7629 19.5117 18.4152L19.5221 18.3013C19.6258 17.3281 20.5069 16.6241 21.4814 16.7277C22.4559 16.8416 23.1608 17.7112 23.0468 18.6843L22.9431 19.6264L29.6194 16.3032C30.5213 15.8788 30.8738 14.8124 30.4384 13.9325Z" fill="#359DFF"/>
<path d="M19.7101 19.2747C19.5753 19.0159 19.5131 18.7157 19.5235 18.4258L19.0259 22.9395C18.9222 23.9127 19.6168 24.7927 20.5913 24.9065C21.5657 25.0204 22.4469 24.3164 22.5506 23.3433L22.9653 19.6474L22.0945 20.0822C21.2133 20.5067 20.1455 20.1547 19.7101 19.2747Z" fill="#2F72ED"/>
<path d="M21.4923 16.7386C20.5178 16.6248 19.6366 17.3287 19.533 18.3019L19.5226 18.4158C19.5122 18.7056 19.5744 19.0059 19.7092 19.2647C20.1446 20.1447 21.2124 20.4967 22.0936 20.0618L22.9644 19.627L23.0681 18.6849C23.1717 17.7221 22.4668 16.8422 21.4923 16.7386Z" fill="#2F72ED"/>
<path d="M21.4923 16.7386C20.5178 16.6248 19.6366 17.3287 19.533 18.3019L19.5226 18.4158C19.5122 18.7056 19.5744 19.0059 19.7092 19.2647C20.1446 20.1447 21.2124 20.4967 22.0936 20.0618L22.9644 19.627L23.0681 18.6849C23.1717 17.7221 22.4668 16.8422 21.4923 16.7386Z" fill="#1C48FA"/>
</svg>
