<svg width="113" height="32" viewBox="0 0 113 32" fill="none" xmlns="http://www.w3.org/2000/svg">
<path d="M12.6865 11.6238V12.1076C12.6826 12.0247 12.6786 11.9476 12.6786 11.8667C12.6786 11.7857 12.6826 11.7067 12.6865 11.6257V11.6238Z" fill="url(#paint0_linear_2088_80571)"/>
<path d="M21.8433 16.7603H12.6885V25.1414H21.8433L31 16.7603H21.8433Z" fill="url(#paint1_linear_2088_80571)"/>
<path d="M30.998 0H21.8433L21.8433 16.7603L30.998 16.7603V0Z" fill="url(#paint2_linear_2088_80571)"/>
<path d="M4.96517 19.7857L10.1548 19.296V27.1459C10.1548 29.407 8.4374 31.2969 6.18961 31.5102L1 32V24.1501C1 21.8889 2.71738 19.999 4.96517 19.7857Z" fill="url(#paint3_linear_2088_80571)"/>
<path d="M16.1587 8.37915C14.3191 8.37915 12.8087 9.8109 12.6885 11.6238C12.6845 11.7067 12.6806 11.7837 12.6806 11.8647C12.6806 11.9457 12.6845 12.0247 12.6885 12.1056L12.6885 16.7603L3.53171 16.7603V8.37915H16.1587Z" fill="url(#paint4_linear_2088_80571)"/>
<path d="M30.998 0L30.998 8.38114H3.52974L12.6845 0H30.998Z" fill="url(#paint5_linear_2088_80571)"/>
<path d="M40.4876 22.2008V4.94678H47.7224C49.0335 4.94678 50.1661 5.19955 51.1183 5.70511C52.0766 6.20474 52.8143 6.90382 53.3335 7.80237C53.8527 8.69499 54.1113 9.73374 54.1113 10.9186C54.1113 12.1035 53.8467 13.1502 53.3155 14.0448C52.7902 14.9315 52.0405 15.6207 51.0662 16.1085C50.092 16.5962 48.9333 16.8411 47.5941 16.8411H43.1298V13.555H46.8063C47.4458 13.555 47.977 13.4464 48.406 13.2272C48.839 13.008 49.1678 12.7019 49.3903 12.3089C49.6128 11.91 49.7231 11.4459 49.7231 10.9186C49.7231 10.3914 49.6128 9.9253 49.3903 9.53626C49.1678 9.14327 48.841 8.83915 48.406 8.62587C47.973 8.41259 47.4398 8.30595 46.8063 8.30595H44.7195V22.2008H40.4856H40.4876ZM60.3799 4.94678V22.2008H56.1982V4.94678H60.3799ZM66.7447 22.42C65.9068 22.42 65.163 22.2818 64.5135 22.0073C63.87 21.7268 63.3588 21.3062 62.982 20.7434C62.6111 20.1766 62.4267 19.4657 62.4267 18.6125C62.4267 17.8937 62.555 17.2874 62.8116 16.7937C63.0682 16.3 63.421 15.8972 63.872 15.5891C64.3231 15.281 64.8403 15.048 65.4276 14.89C66.015 14.7281 66.6425 14.6175 67.31 14.5622C68.0578 14.495 68.6592 14.4239 69.1142 14.3509C69.5713 14.2719 69.9001 14.1633 70.1065 14.0231C70.317 13.8769 70.4233 13.6715 70.4233 13.4089V13.3674C70.4233 12.9349 70.2729 12.6012 69.9702 12.3642C69.6675 12.1292 69.2606 12.0107 68.7474 12.0107C68.1941 12.0107 67.749 12.1292 67.4123 12.3642C67.0755 12.5992 66.863 12.9251 66.7708 13.3417L62.9138 13.2075C63.0281 12.4215 63.3207 11.7184 63.7938 11.1023C64.273 10.4783 64.9285 9.99047 65.7604 9.63698C66.5984 9.27756 67.6047 9.09785 68.7794 9.09785C69.6174 9.09785 70.3892 9.19659 71.0968 9.3921C71.8045 9.58366 72.4199 9.86408 72.9431 10.2353C73.4684 10.6007 73.8733 11.049 74.158 11.5842C74.4486 12.1174 74.595 12.7276 74.595 13.4128V22.2087H70.6618V20.4057H70.5596C70.325 20.8441 70.0263 21.2154 69.6615 21.5175C69.3027 21.8216 68.8777 22.0487 68.3865 22.2008C67.9014 22.3528 67.3541 22.4279 66.7447 22.4279V22.42ZM68.0357 19.7244C68.4868 19.7244 68.8917 19.6355 69.2505 19.4538C69.6154 19.2741 69.9061 19.0273 70.1226 18.7133C70.3391 18.3933 70.4473 18.0221 70.4473 17.6014V16.3711C70.327 16.4323 70.1827 16.4896 70.0103 16.539C69.8459 16.5903 69.6635 16.6377 69.463 16.6831C69.2626 16.7286 69.0581 16.7681 68.8476 16.8016C68.6371 16.8352 68.4346 16.8668 68.2402 16.8944C67.8473 16.9557 67.5105 17.0524 67.2318 17.1808C66.9572 17.3092 66.7467 17.479 66.5984 17.6863C66.456 17.8878 66.3839 18.1307 66.3839 18.4111C66.3839 18.8377 66.5382 19.1635 66.8449 19.3886C67.1577 19.6138 67.5546 19.7263 68.0337 19.7263L68.0357 19.7244ZM81.3347 14.8209V22.2008H77.1529V9.25979H81.1302V11.6355H81.2765C81.5672 10.8436 82.0624 10.2235 82.764 9.77324C83.4656 9.31903 84.2996 9.08995 85.2698 9.08995C86.2401 9.08995 86.9938 9.29533 87.6734 9.70412C88.357 10.109 88.8882 10.6757 89.2651 11.4064C89.646 12.1312 89.8344 12.9784 89.8304 13.95V22.1968H85.6487V14.7577C85.6547 14.0389 85.4683 13.478 85.0934 13.0732C84.7225 12.6683 84.2074 12.4669 83.5458 12.4669C83.1068 12.4669 82.7199 12.5617 82.3831 12.7532C82.0523 12.9389 81.7957 13.2055 81.6133 13.553C81.4369 13.9006 81.3447 14.3232 81.3387 14.8169L81.3347 14.8209ZM96.5982 4.94678V22.2008H92.4165V4.94678H96.5982ZM101.816 27.0529C101.315 27.0529 100.842 27.0134 100.397 26.9344C99.952 26.8614 99.5711 26.7626 99.2504 26.6402L100.175 23.6503C100.585 23.7846 100.956 23.8636 101.287 23.8853C101.624 23.907 101.911 23.8537 102.151 23.7253C102.396 23.6009 102.584 23.3798 102.716 23.0598L102.879 22.6728L98.2099 9.26176H102.588L105.008 18.496H105.144L107.598 9.26176H112.002L107.051 23.441C106.812 24.148 106.471 24.772 106.032 25.3111C105.599 25.8562 105.038 26.2827 104.348 26.5908C103.665 26.8989 102.821 27.0549 101.816 27.0549V27.0529Z" fill="#6F1877"/>
<defs>
<linearGradient id="paint0_linear_2088_80571" x1="16" y1="34.7428" x2="16" y2="3.26531" gradientUnits="userSpaceOnUse">
<stop stop-color="#9A5DA0"/>
<stop offset="1" stop-color="#7D2F85"/>
</linearGradient>
<linearGradient id="paint1_linear_2088_80571" x1="1" y1="16" x2="31" y2="16" gradientUnits="userSpaceOnUse">
<stop stop-color="#9A5DA0"/>
<stop offset="1" stop-color="#6F1877"/>
</linearGradient>
<linearGradient id="paint2_linear_2088_80571" x1="23.5032" y1="-1.57348" x2="23.5032" y2="18.2031" gradientUnits="userSpaceOnUse">
<stop stop-color="#9A5DA0"/>
<stop offset="1" stop-color="#6F1877"/>
</linearGradient>
<linearGradient id="paint3_linear_2088_80571" x1="1" y1="16.0025" x2="31" y2="16.0025" gradientUnits="userSpaceOnUse">
<stop stop-color="#9A5DA0"/>
<stop offset="1" stop-color="#6F1877"/>
</linearGradient>
<linearGradient id="paint4_linear_2088_80571" x1="16" y1="34.3374" x2="16" y2="4.13949" gradientUnits="userSpaceOnUse">
<stop stop-color="#9A5DA0"/>
<stop offset="1" stop-color="#6F1877"/>
</linearGradient>
<linearGradient id="paint5_linear_2088_80571" x1="3.52974" y1="4.19057" x2="30.998" y2="4.19057" gradientUnits="userSpaceOnUse">
<stop stop-color="#9A5DA0"/>
<stop offset="1" stop-color="#6F1877"/>
</linearGradient>
</defs>
</svg>
