<svg width="144" height="29" viewBox="0 0 144 29" fill="none" xmlns="http://www.w3.org/2000/svg">
<path d="M51.1111 21.2232V8.13077C51.1111 7.82549 51.2595 7.67285 51.5564 7.67285H56.7948C57.8991 7.67285 58.758 7.98072 59.3717 8.59646C59.9853 9.2122 60.2929 10.0872 60.2945 11.2215V18.1301C60.2945 19.2627 59.9869 20.1377 59.3717 20.7551C58.7565 21.3724 57.8975 21.6803 56.7948 21.6787H51.5564C51.2595 21.68 51.1111 21.5282 51.1111 21.2232ZM54.0377 19.2846H56.3495C56.8019 19.2846 57.1236 19.1866 57.3145 18.9905C57.5053 18.7944 57.6008 18.464 57.6008 17.9993V11.3547C57.6008 10.8899 57.5053 10.5595 57.3145 10.3635C57.1236 10.1674 56.8019 10.0687 56.3495 10.0674H54.0377C53.882 10.0674 53.8044 10.1476 53.8044 10.3071V19.0449C53.8044 19.205 53.8821 19.2849 54.0377 19.2846Z" fill="#001D43"/>
<path d="M70.0713 21.681H65.3862C64.2693 21.681 63.4069 21.376 62.7989 20.7661C62.1909 20.1562 61.8869 19.2777 61.8869 18.1304V14.122C61.8869 12.9748 62.1909 12.096 62.7989 11.4858C63.4069 10.8756 64.2693 10.5706 65.3862 10.5709H67.0596C68.1764 10.5709 69.039 10.8759 69.6473 11.4858C70.2556 12.0957 70.5604 12.9744 70.5616 14.122V16.8884C70.5616 17.1937 70.4132 17.3462 70.1163 17.3459H64.7903C64.6209 17.3459 64.5357 17.4261 64.5357 17.5855V18.0648C64.5357 18.5153 64.6313 18.8384 64.8225 19.0341C65.0137 19.2299 65.3354 19.3271 65.7875 19.3258H70.0713C70.3685 19.3258 70.5167 19.4862 70.5167 19.8051V21.243C70.5167 21.4029 70.485 21.5152 70.422 21.5809C70.3591 21.6465 70.2412 21.681 70.0713 21.681ZM64.7903 15.4943H67.6772C67.8324 15.4943 67.9105 15.4145 67.9105 15.2546V14.209C67.9105 13.7443 67.8185 13.4174 67.6346 13.2285C67.4506 13.0396 67.1326 12.9453 66.6805 12.9456H65.7898C65.3368 12.9456 65.0186 13.0399 64.8353 13.2285C64.652 13.4171 64.56 13.7439 64.5594 14.209V15.2546C64.5578 15.4147 64.6348 15.4946 64.7903 15.4943Z" fill="#001D43"/>
<path d="M80.0184 21.681H75.3332C74.216 21.681 73.3534 21.376 72.7455 20.7661C72.1375 20.1562 71.8335 19.2777 71.8335 18.1304V14.122C71.8335 12.9748 72.1375 12.096 72.7455 11.4858C73.3534 10.8756 74.216 10.5706 75.3332 10.5709H77.0085C78.1254 10.5709 78.988 10.8759 79.5962 11.4858C80.2045 12.0957 80.5085 12.9744 80.5082 14.122V16.8884C80.5082 17.1937 80.3596 17.3462 80.0624 17.3459H74.7374C74.5675 17.3459 74.4828 17.4261 74.4828 17.5855V18.0648C74.4828 18.5153 74.5782 18.8384 74.7691 19.0341C74.96 19.2299 75.2816 19.3271 75.734 19.3258H80.0184C80.3151 19.3258 80.4637 19.4862 80.4637 19.8051V21.243C80.4637 21.4029 80.432 21.5152 80.3691 21.5809C80.3061 21.6465 80.1878 21.681 80.0184 21.681ZM74.7374 15.4943H77.6218C77.7771 15.4943 77.8552 15.4145 77.8552 15.2546V14.209C77.8552 13.7443 77.7632 13.4174 77.5793 13.2285C77.3953 13.0396 77.0771 12.9453 76.6247 12.9456H75.734C75.2816 12.9456 74.9634 13.0399 74.7795 13.2285C74.5956 13.4171 74.5038 13.7439 74.5041 14.209V15.2546C74.5041 15.4147 74.5818 15.4946 74.7374 15.4943Z" fill="#001D43"/>
<path d="M84.2388 24.6438H82.4358C82.1389 24.6438 81.9904 24.498 81.9904 24.2063V11.0284C81.9904 10.7237 82.1389 10.5713 82.4358 10.5709H84.2388C84.536 10.5709 84.6845 10.7234 84.6842 11.0284V11.7473H84.7694C84.9246 11.3552 85.2002 11.0611 85.5961 10.865C85.9863 10.6713 86.4145 10.5715 86.8479 10.5734H87.7172C88.8057 10.5734 89.6293 10.8783 90.1881 11.4882C90.7468 12.0981 91.0261 12.9769 91.0257 14.1244V18.1329C91.0257 19.2801 90.7465 20.1587 90.1881 20.7686C89.6296 21.3785 88.806 21.6834 87.7172 21.6834H86.8479C86.4144 21.6855 85.9863 21.5857 85.5961 21.3918C85.2005 21.1973 84.9249 20.9032 84.7694 20.5095H84.6842V24.2132C84.6839 24.5003 84.5354 24.6438 84.2388 24.6438ZM86.1479 19.285H87.0812C87.533 19.285 87.8546 19.1869 88.0462 18.9909C88.2377 18.7948 88.3323 18.4644 88.3301 17.9997V14.2527C88.3301 13.788 88.2355 13.4575 88.0462 13.2611C87.8568 13.0647 87.5352 12.9675 87.0812 12.9694H86.1479C85.1721 12.9694 84.6842 13.5211 84.6842 14.6246V17.6312C84.6839 18.734 85.1721 19.2853 86.1479 19.285Z" fill="#001D43"/>
<path d="M95.627 8.13087V21.2233C95.627 21.5286 95.4786 21.6811 95.1817 21.6807H93.3791C93.0822 21.6807 92.9338 21.5283 92.9338 21.2233V8.13087C92.9338 7.8256 93.0822 7.67296 93.3791 7.67296H95.1817C95.4789 7.67296 95.6274 7.8256 95.627 8.13087Z" fill="#001D43"/>
<path d="M99.998 21.681H98.1954C97.8982 21.681 97.7498 21.5285 97.7501 21.2236V11.0284C97.7501 10.7237 97.8985 10.5713 98.1954 10.5709H99.998C100.295 10.5709 100.443 10.7234 100.443 11.0284V11.7473H100.528C100.698 11.3989 100.984 11.1157 101.387 10.8976C101.79 10.6795 102.253 10.5706 102.776 10.5709H103.37C104.601 10.5709 105.484 11.0357 106.021 11.9651C106.501 11.0357 107.328 10.5709 108.502 10.5709H109.117C110.206 10.5709 111.029 10.8759 111.587 11.4858C112.146 12.0957 112.425 12.9744 112.426 14.122V21.2236C112.426 21.5288 112.277 21.6813 111.98 21.681H110.177C109.88 21.681 109.732 21.5285 109.732 21.2236V14.2527C109.732 13.788 109.64 13.4575 109.456 13.2611C109.272 13.0647 108.954 12.9675 108.502 12.9694H107.972C106.996 12.9694 106.508 13.5284 106.508 14.6465V21.2236C106.508 21.5288 106.353 21.6813 106.041 21.681H104.257C103.96 21.681 103.812 21.5285 103.812 21.2236V14.2527C103.812 13.788 103.717 13.4575 103.526 13.2611C103.335 13.0647 103.013 12.9675 102.561 12.9694H101.903C100.928 12.9694 100.44 13.5211 100.44 14.6246V21.2236C100.441 21.5288 100.294 21.6813 99.998 21.681Z" fill="#001D43"/>
<path d="M117.938 21.681H117.429C116.312 21.681 115.45 21.376 114.842 20.7661C114.234 20.1562 113.93 19.2777 113.93 18.1304V14.122C113.93 12.9748 114.234 12.096 114.842 11.4858C115.45 10.8756 116.312 10.5706 117.429 10.5709H122.329C122.639 10.5709 122.795 10.7234 122.795 11.0284V21.2236C122.795 21.5288 122.64 21.6813 122.329 21.681H120.547C120.25 21.681 120.102 21.5285 120.102 21.2236V20.5046H120.016C119.86 20.8967 119.585 21.1908 119.189 21.3869C118.799 21.5816 118.372 21.6822 117.938 21.681ZM120.102 17.6293V13.2057C120.102 13.0462 120.017 12.9665 119.847 12.9665H117.854C117.401 12.9665 117.082 13.0637 116.899 13.2582C116.716 13.4526 116.624 13.7832 116.623 14.2498V17.9968C116.623 18.4615 116.715 18.7919 116.899 18.9879C117.083 19.184 117.401 19.282 117.854 19.282H118.638C119.613 19.284 120.101 18.7331 120.102 17.6293Z" fill="#001D43"/>
<path d="M128.415 21.1803H127.715C126.627 21.1803 125.803 20.8752 125.245 20.265C124.686 19.6547 124.407 18.7762 124.407 17.6293V14.122C124.407 12.9748 124.711 12.096 125.319 11.4858C125.927 10.8756 126.789 10.5706 127.907 10.5709H132.806C133.117 10.5709 133.272 10.7234 133.272 11.0284V21.7685C133.272 22.9011 132.965 23.7724 132.35 24.3823C131.734 24.9922 130.875 25.2973 129.773 25.2977H125.703C125.533 25.2977 125.416 25.2646 125.353 25.2004C125.289 25.1363 125.258 25.0225 125.258 24.8626V23.3586C125.258 23.0539 125.406 22.9015 125.703 22.9011H129.33C129.782 22.9011 130.104 22.8039 130.295 22.6095C130.486 22.415 130.58 22.0919 130.579 21.6402V19.9845H130.494C130.338 20.3766 130.063 20.6743 129.667 20.8775C129.279 21.0782 128.85 21.182 128.415 21.1803ZM130.579 17.1281V13.2066C130.579 13.0472 130.494 12.9675 130.324 12.9675H128.331C127.878 12.9675 127.56 13.0647 127.376 13.2591C127.193 13.4536 127.101 13.7841 127.101 14.2508V17.4966C127.101 17.9613 127.193 18.2881 127.376 18.477C127.56 18.666 127.878 18.7603 128.331 18.76H129.115C130.091 18.7613 130.579 18.2173 130.579 17.1281Z" fill="#001D43"/>
<path d="M143.049 21.681H138.364C137.247 21.681 136.385 21.376 135.777 20.7661C135.169 20.1562 134.865 19.2777 134.865 18.1304V14.122C134.865 12.9748 135.169 12.096 135.777 11.4858C136.385 10.8756 137.247 10.5706 138.364 10.5709H140.04C141.156 10.5709 142.019 10.8759 142.627 11.4858C143.235 12.0957 143.539 12.9744 143.537 14.122V16.8884C143.537 17.1937 143.389 17.3462 143.092 17.3459H137.768C137.599 17.3459 137.514 17.4261 137.514 17.5855V18.0648C137.514 18.5153 137.609 18.8384 137.8 19.0341C137.991 19.2299 138.313 19.3271 138.765 19.3258H143.049C143.346 19.3258 143.495 19.4862 143.495 19.8051V21.243C143.495 21.4029 143.463 21.5152 143.4 21.5809C143.337 21.6465 143.219 21.681 143.049 21.681ZM137.768 15.4943H140.655C140.811 15.4943 140.888 15.4144 140.888 15.2546V14.209C140.888 13.7443 140.796 13.4174 140.612 13.2285C140.428 13.0396 140.11 12.9453 139.656 12.9456H138.766C138.313 12.9456 137.995 13.0399 137.811 13.2285C137.628 13.4171 137.536 13.7439 137.535 14.209V15.2546C137.535 15.4147 137.613 15.4946 137.768 15.4943Z" fill="#001D43"/>
<path d="M40.8892 4.17188V7.67188H37.4818V4.17188H34.0744V0.671875H37.4818C38.3855 0.671875 39.2522 1.04062 39.8912 1.697C40.5302 2.35338 40.8892 3.24362 40.8892 4.17188Z" fill="#71D6FF"/>
<path d="M40.8892 21.6728V25.1728C40.8892 26.101 40.5302 26.9913 39.8912 27.6476C39.2522 28.304 38.3855 28.6728 37.4818 28.6728H34.0744V25.1728H37.4818V21.6728H40.8892Z" fill="#71D6FF"/>
<path d="M6.81481 25.174V28.674H3.40741C2.50371 28.674 1.63702 28.3053 0.998007 27.6489C0.358994 26.9925 0 26.1023 0 25.174V21.674H3.40741V25.174H6.81481Z" fill="#71D6FF"/>
<path d="M6.81481 0.672749V4.17275H3.40741V7.67275H0V4.17275C0 3.24449 0.358994 2.35425 0.998007 1.69788C1.63702 1.0415 2.50371 0.672749 3.40741 0.672749H6.81481Z" fill="#71D6FF"/>
<path d="M20.4449 14.6725L22.8542 17.1473C22.2152 17.8033 21.3488 18.1719 20.4454 18.1719C19.5419 18.1719 18.6755 17.8033 18.0365 17.1473L15.6272 14.6725L18.037 12.1977C18.676 11.5417 19.5424 11.1732 20.4458 11.1732C21.3493 11.1732 22.2157 11.5417 22.8547 12.1977L20.4449 14.6725Z" fill="#001D43"/>
<path d="M34.9014 14.6728L27.708 22.0612L27.6885 22.0816L27.6573 22.1137L27.6374 22.1337C25.7187 24.0897 23.1231 25.1844 20.4197 25.1777C17.7164 25.1709 15.126 24.0633 13.2165 22.0977L10.8072 19.6229L13.217 17.1476L15.6263 19.6224C16.2589 20.2728 17.01 20.7888 17.8369 21.1409C18.6637 21.4929 19.5499 21.6741 20.445 21.6741C21.34 21.6741 22.2263 21.4929 23.0531 21.1409C23.8799 20.7888 24.6311 20.2728 25.2636 19.6224L32.4911 12.1985L34.9014 14.6728Z" fill="#71D6FF"/>
<path d="M30.0824 9.72286L29.6731 10.1453L27.6745 12.1981L25.3272 9.78751L25.2652 9.72335L25.2027 9.65967C23.9305 8.38513 22.2237 7.67176 20.4466 7.67176C18.6694 7.67176 16.9626 8.38513 15.6904 9.65967L15.6279 9.72335L15.5659 9.78751L8.3976 17.1482L5.98828 14.6734L13.2167 7.24807C14.1653 6.27184 15.2919 5.49734 16.5323 4.9689C17.7726 4.44046 19.1021 4.16846 20.4449 4.16846C21.7877 4.16846 23.1173 4.44046 24.3576 4.9689C25.5979 5.49734 26.7246 6.27184 27.6731 7.24807L30.0824 9.72286Z" fill="#71D6FF"/>
</svg>
