<?xml version="1.0" encoding="UTF-8"?>
<svg id="Layer_1" xmlns="http://www.w3.org/2000/svg" version="1.1" viewBox="0 0 9290 1432">
  <!-- Generator: Adobe Illustrator 29.5.1, SVG Export Plug-In . SVG Version: 2.1.0 Build 141)  -->
  <defs>
    <style>
      .st0 {
        fill: #14343b;
      }
    </style>
  </defs>
  <path class="st0" d="M1691.17,452.11c-107.93-107.48-250.13-166.09-401.3-163.79h-739.51l-148.18,237.98h892.96c86.83,0,168.39,33.64,230.09,95.09,63.28,63.04,98.26,147.32,98.26,237.45,0,185.03-149.41,335.36-332.92,335.36H385.66c-82.44,0-149.59-67.64-149.59-150.68s67.32-151.75,149.41-154.23h810.17l152.93-237.98H381.44C171.21,656.62,0,832.45,0,1043.52s172.97,388.48,385.66,388.48h904.91c313.76,0,569.17-257.28,569.17-573.34,0-154.22-59.76-298.53-168.4-406.72l-.17.18Z"/>
  <path class="st0" d="M3265.12,353.81c-21.8-16.16-44.47-30.56-68.02-42.85-75.76-39.69-161-59.89-253.45-59.89-159.6,0-297.92,58.13-411.29,172.82-113.02,114.33-170.49,253.96-170.49,415.01s56.77,304.89,168.73,419.58c112.49,115.21,250.29,173.52,409.35,173.52,89.47,0,173.31-18.97,249.06-56.38,26.19-12.99,51.68-28.1,76.11-45.49v89.05h268.39V276.36h-268.39v77.45ZM3232.07,1013.47c-27.24,48.65-65.38,86.24-116.35,114.87-51.85,29.15-105.11,43.38-162.58,43.38s-107.92-14.05-157.31-43.21c-49.57-28.98-87.88-68.85-117.59-121.53-29.88-53.04-44.29-106.79-44.29-164.39s14.41-111.88,43.94-164.21c29.18-51.99,67.32-91.15,116.36-119.6,49.21-28.63,101.41-42.5,159.94-42.5,90.87,0,165.04,30.56,226.73,93.61,62.23,63.4,92.46,140.68,92.46,236.22,0,63.05-13.54,117.67-41.13,167.02l-.18.35Z"/>
  <path class="st0" d="M5569.92,278.96h-269.66v1143.74h269.66V278.96Z"/>
  <path class="st0" d="M6504.78,328.74c-68.7-45.4-148.11-68.37-235.78-68.37s-163.57,19.96-235.61,59.36c-21.61,11.84-42.69,25.44-63.07,40.81v-89.22h-270.22v1151.2h270.22v-436.03c0-154.94,8.78-223.14,15.81-252.11,15.64-61.13,47.44-110.95,96.81-152.65,47.96-40.28,100.49-59.89,160.58-59.89,51.13,0,89.96,11.13,118.95,34.28,28.81,22.79,48.14,58.13,59.56,109.18,4.56,18.37,12.12,70.14,12.12,211.83v545.57h270.21v-583.02c0-146.29-15.28-253.17-46.56-326.67-32.67-76.85-84.33-138.69-153.2-184.27h.18Z"/>
  <path class="st0" d="M7728.49,355.19c-21.79-16.14-44.46-30.52-68.02-42.8-75.75-39.64-161-59.81-253.45-59.81-159.59,0-297.92,58.06-411.28,172.6-113.02,114.19-170.49,253.63-170.49,414.48s56.77,304.68,168.73,419.04c112.49,115.07,250.29,173.3,409.35,173.3,89.47,0,173.3-18.94,249.06-56.3,26.19-12.98,51.67-28.07,76.1-45.43v90.68h268.39V0h-268.39v355.37-.17ZM7695.45,1014.01c-27.24,48.59-65.38,86.13-116.36,114.72-51.85,29.11-104.93,43.32-162.58,43.32s-107.92-14.03-157.31-43.15c-49.56-28.94-87.88-68.76-117.58-121.38-29.88-52.97-44.29-106.64-44.29-164.18s14.41-111.73,43.94-164c29.17-51.92,67.32-91.03,116.35-119.45,49.22-28.59,101.42-42.45,159.95-42.45,90.87,0,165.04,30.52,226.73,93.49,62.22,63.32,92.45,140.5,92.45,235.92,0,62.97-13.53,117.52-41.12,166.81l-.18.35Z"/>
  <path class="st0" d="M9021.01,277.76v76.05c-21.79-16.16-44.47-30.56-68.02-42.85-75.75-39.69-161-59.89-253.45-59.89-159.59,0-297.92,58.13-411.29,172.82-113.01,114.33-170.48,253.96-170.48,415.01s56.77,304.89,168.73,419.58c112.49,115.21,250.28,173.52,409.35,173.52,89.46,0,173.3-18.97,249.06-56.38,26.19-12.99,51.67-28.1,76.1-45.49v89.05h268.39V277.76h-268.39ZM8987.97,1013.47c-27.25,48.65-65.39,86.24-116.36,114.87-51.85,29.15-105.1,43.38-162.58,43.38s-107.92-14.05-157.3-43.21c-49.57-28.98-87.89-68.85-117.59-121.53-29.88-53.04-44.29-106.79-44.29-164.39s14.41-111.88,43.94-164.21c29.17-51.99,67.31-91.15,116.35-119.6,49.22-28.63,101.42-42.5,159.95-42.5,90.87,0,165.04,30.56,226.73,93.61,62.22,63.4,92.45,140.68,92.45,236.22,0,63.05-13.53,117.67-41.13,167.02l-.17.35Z"/>
  <path class="st0" d="M3927.32,519.82c0-140.11,112.99-241.01,251.96-241.01h302.69V0h-302.69c-284.39,0-515.59,233.28-515.59,519.82v902.88h263.81v-445.28h431.9v-265.98h-431.9v-191.62h-.18Z"/>
  <path class="st0" d="M4745.61,519.82c0-140.11,112.99-241.01,251.95-241.01h302.7V0h-302.7c-284.38,0-515.59,233.28-515.59,519.82v902.88h263.82v-445.28h431.89v-265.98h-431.89v-191.62h-.18Z"/>
</svg>