<?xml version="1.0" encoding="UTF-8"?>
<!-- Generated by Pixelmator Pro 3.6.18 -->
<svg width="126" height="126" viewBox="0 0 126 126" xmlns="http://www.w3.org/2000/svg">
    <path id="Path" fill="#ffffff" stroke="none" d="M 125.346344 63.5 C 125.346344 97.845207 97.531212 125.687508 63.219513 125.687508 C 28.907814 125.687508 1.092683 97.845207 1.092683 63.5 C 1.092683 29.154793 28.907814 1.312492 63.219513 1.312492 C 97.531212 1.312492 125.346344 29.154793 125.346344 63.5 Z"/>
    <path id="path1" fill="#000000" stroke="none" d="M 58.37487 1.127327 C 40.692135 2.54998 24.445034 11.448502 13.590197 25.647095 C 12.475472 27.111473 9.81401 31.058594 9.81401 31.253906 C 9.81401 31.323723 13.213971 31.37944 17.728687 31.37944 C 22.173721 31.37944 26.172878 31.449219 26.883528 31.519035 C 30.548292 31.9375 33.474186 33.31813 35.815338 35.731255 C 37.933582 37.907181 39.187359 40.264061 40.051514 43.653442 C 40.762066 46.414993 40.789856 46.945 40.873524 56.624374 L 40.957188 65.760315 L 43.799728 53.695625 C 45.36039 47.056564 46.82365 41.017189 47.046555 40.278122 C 48.481403 35.438438 50.78072 32.16069 53.525856 31.086723 C 54.16679 30.835686 54.612919 30.765907 55.727455 30.765907 C 56.981541 30.751846 57.204449 30.793755 57.901264 31.142471 C 59.364525 31.853653 60.479065 33.415939 61.092213 35.59156 C 61.872391 38.339378 61.844608 37.446556 61.928268 61.366562 C 61.99789 81.883438 62.025993 83.529373 62.248898 84.198746 C 62.764332 85.733124 63.865131 86.249062 64.659355 85.328751 C 65.161057 84.728745 65.969009 82.971252 66.512543 81.311874 C 66.749496 80.586563 69.04882 71.283432 71.612564 60.655624 C 74.176628 50.013435 76.461891 40.696251 76.684799 39.943123 C 78.537994 33.722816 81.784821 30.445061 85.825562 30.710159 C 88.668098 30.90522 90.312431 33.136879 91.148483 37.934998 C 91.357346 39.10656 91.399185 41.449692 91.469116 58.646873 L 91.552467 78.034058 L 91.859039 79.205307 C 92.681053 82.330002 94.534554 84.226883 97.181969 84.659065 C 97.781075 84.756874 102.072823 84.798439 110.071251 84.77063 L 122.054863 84.729065 L 122.51442 83.404068 C 123.155357 81.548752 124.005463 78.382813 124.493118 76.081245 C 125.900482 69.274994 126.137444 61.910622 125.189926 54.909065 C 122.765114 37.209694 112.788292 21.323349 97.808853 11.336914 C 89.086128 5.520782 78.677231 1.950241 68.003593 1.11338 C 65.941231 0.959961 60.437233 0.959961 58.37487 1.127327 Z"/>
    <path id="path2" fill="#000000" stroke="none" d="M 55.016899 36.775932 C 54.125267 37.166557 53.177444 38.770309 52.258026 41.462181 C 51.979237 42.271248 49.248158 53.485001 46.1824 66.386566 C 43.116955 79.30188 40.497326 90.097191 40.34404 90.375938 C 40.191063 90.66906 39.842655 91.129379 39.563862 91.394379 C 39.089951 91.854691 38.992546 91.8825 38.170536 91.8825 C 37.320427 91.8825 37.250809 91.854691 36.721016 91.33844 C 35.578381 90.222809 35.676098 92.11969 35.592426 68.380936 C 35.509071 47.599373 35.509071 47.222496 35.216232 45.994995 C 34.36644 42.313126 32.596916 39.788437 29.976976 38.54718 C 27.691708 37.473122 27.148489 37.417496 15.973089 37.417496 L 6.539613 37.403442 L 5.759282 39.258751 C 1.439657 49.495934 -0.065243 60.919067 1.453593 72.049377 C 3.878182 89.748436 13.855095 105.634689 28.834341 115.621246 C 33.363045 118.633751 39.048428 121.367813 44.301426 123.041252 C 53.149658 125.872505 62.611359 126.681564 71.863258 125.426247 C 90.702675 122.832191 107.395744 111.701874 117.149971 95.202187 C 117.665405 94.337189 118.390007 92.998123 118.779938 92.231247 L 119.476768 90.836563 L 108.636101 90.836563 C 101.86396 90.836563 97.363358 90.780624 96.624702 90.683128 C 91.775375 90.083435 88.473289 87.056877 87.023766 81.882187 C 86.243591 79.120621 86.271378 79.678436 86.173973 58.338753 C 86.118088 44.697807 86.034737 38.435623 85.937012 38.072815 C 85.533035 36.664375 85.32386 36.469063 84.599258 36.775932 C 83.554344 37.20813 82.397972 39.119064 81.5616 41.741249 C 81.338692 42.46656 79.053429 51.685623 76.489677 62.23 C 73.925621 72.760315 71.571045 82.147186 71.264153 83.06781 C 70.177406 86.317497 68.867744 88.660622 67.334869 90.083435 C 65.92749 91.366562 64.617523 91.812813 62.875786 91.547813 C 60.158752 91.129379 58.402962 89.316254 57.41362 85.940941 C 56.703064 83.486252 56.73085 84.085938 56.633133 60.500626 C 56.549774 37.138435 56.563824 37.766251 55.922577 36.943123 C 55.602264 36.524689 55.588211 36.524689 55.016899 36.775932 Z"/>
</svg>
