<?xml version="1.0" encoding="utf-8"?>
<!-- Generator: Adobe Illustrator 27.7.0, SVG Export Plug-In . SVG Version: 6.00 Build 0)  -->
<svg version="1.1" id="Laag_1" xmlns="http://www.w3.org/2000/svg" xmlns:xlink="http://www.w3.org/1999/xlink" x="0px" y="0px"
	 viewBox="0 0 281 79.9" height="48" style="enable-background:new 0 0 281 79.9;" xml:space="preserve">
<style type="text/css">
	.st0{fill:#E42219;}
	.st1{fill:#1D1A14;}
	.st2{fill:#FFFFFF;}
</style>
<g>
	<path class="st0" d="M2.9,33C-1,36.8-1,43.1,2.9,47L33,77c3.9,3.9,10.1,3.9,14,0L77,47c3.9-3.9,3.9-10.1,0-14L47,2.9
		C43.1-1,36.8-1,33,2.9L2.9,33z"/>
	<g>
		<path class="st1" d="M104.8,52.9H119l-0.8,6.1h-21v-36h7.6V52.9z"/>
		<path class="st1" d="M145.9,54.9l-1.6,4.9c-3.1-0.3-5.2-1.3-6.3-4c-2,3-5,4.1-8.3,4.1c-5.5,0-8.9-3.5-8.9-8.5
			c0-6,4.6-9.3,12.7-9.3h3.2v-1.4c0-3.4-1.5-4.5-4.9-4.5c-1.8,0-4.5,0.5-7.3,1.5l-1.7-4.9c3.4-1.4,7.1-2,10.2-2c7.6,0,11,3.4,11,9.6
			v11.1C143.9,53.6,144.6,54.4,145.9,54.9z M136.7,51.5v-5.2h-2.4c-4.1,0-6,1.5-6,4.5c0,2.4,1.2,3.8,3.6,3.8
			C133.9,54.6,135.6,53.5,136.7,51.5z"/>
		<path class="st1" d="M176.4,45.2c0,8.4-4.1,14.7-10.9,14.7c-2.8,0-5.1-1-6.9-3v12.7l-7.4,0.8v-39h6.5l0.4,3.2c2.2-2.8,5.1-4,8-4
			C173.2,30.7,176.4,36.3,176.4,45.2z M168.7,45.3c0-6.9-1.8-9.1-4.8-9.1c-2.2,0-4,1.5-5.2,3.6v12c1.2,1.8,2.8,2.7,4.7,2.7
			C166.6,54.4,168.7,51.7,168.7,45.3z"/>
		<path class="st1" d="M206.7,45.3c0,8.7-4.9,14.6-13.2,14.6c-8.2,0-13.2-5.5-13.2-14.6c0-8.8,4.9-14.6,13.3-14.6
			C201.8,30.7,206.7,36.1,206.7,45.3z M188,45.3c0,6.3,1.9,9.1,5.5,9.1s5.5-2.8,5.5-9.1c0-6.3-1.9-9.1-5.5-9.1
			C189.9,36.2,188,39,188,45.3z"/>
		<path class="st1" d="M231.5,34l-2.8,4.2c-2.2-1.4-4.5-2.2-6.9-2.2c-2.4,0-3.8,1-3.8,2.5c0,1.6,0.9,2.3,5.8,3.7
			c5.5,1.5,8.6,3.8,8.6,8.7c0,5.7-5.4,8.9-11.9,8.9c-4.8,0-8.6-1.6-11.2-4l3.6-4.1c2.1,1.6,4.6,2.7,7.4,2.7c2.8,0,4.5-1.1,4.5-3
			c0-2.1-1-2.8-6.1-4.2c-5.6-1.6-8.2-4.3-8.2-8.5c0-4.7,4.3-8.2,10.9-8.2C225.5,30.7,228.9,31.9,231.5,34z"/>
		<path class="st1" d="M253.6,57.8c-2,1.4-4.7,2.1-7.2,2.1c-5.7-0.1-8.6-3.3-8.6-9.5V36.7h-4.1v-5.2h4.1v-6l7.4-0.9v6.9h6.3
			l-0.7,5.2h-5.6v13.6c0,2.7,0.9,3.7,2.8,3.7c1,0,2-0.3,3.1-0.9L253.6,57.8z"/>
		<path class="st1" d="M279.3,54.9l-1.6,4.9c-3.1-0.3-5.2-1.3-6.3-4c-2,3-5,4.1-8.3,4.1c-5.5,0-8.9-3.5-8.9-8.5
			c0-6,4.6-9.3,12.7-9.3h3.2v-1.4c0-3.4-1.5-4.5-4.9-4.5c-1.8,0-4.5,0.5-7.3,1.5l-1.7-4.9c3.4-1.4,7.1-2,10.2-2c7.6,0,11,3.4,11,9.6
			v11.1C277.3,53.6,278,54.4,279.3,54.9z M270,51.5v-5.2h-2.4c-4.1,0-6,1.5-6,4.5c0,2.4,1.2,3.8,3.6,3.8
			C267.3,54.6,268.9,53.5,270,51.5z"/>
	</g>
	<path class="st2" d="M34.8,50.4c-0.2,0-0.5,0-0.7,0c-0.1,0-0.3,0-0.4,0c-5-0.3-9-4.4-9-9.5c0-5.3,4.3-9.5,9.5-9.5
		c5.3,0,9.5,4.3,9.5,9.5C43.6,46,39.7,50,34.8,50.4 M67.7,32c0-0.3-0.3-0.6-0.6-0.6H53.8c-0.4,0-0.8,0.3-0.8,0.8
		c-0.2,6.3-3.6,11.8-8.5,15.1c1.1-1.8,1.8-4,1.8-6.3c0-6.7-5.5-12.2-12.2-12.2c-6.7,0-12.2,5.5-12.2,12.2c0,2.4,0.7,4.6,1.9,6.5
		c-5.1-3.2-8.5-8.8-8.8-15.2c0-0.4-0.4-0.8-0.8-0.8h-1.2c-0.4,0-0.8,0.4-0.8,0.8C12.7,47.2,24.9,59.1,40,59.1
		C55.1,59.1,67.4,47,67.7,32"/>
</g>
</svg>
