<svg width="676" height="128" viewBox="0 0 676 128" fill="none" xmlns="http://www.w3.org/2000/svg">
<g clip-path="url(#clip0_1_15)">
<mask id="mask0_1_15" style="mask-type:luminance" maskUnits="userSpaceOnUse" x="0" y="0" width="676" height="128">
<path d="M675.588 0H0.412201V128H675.588V0Z" fill="white"/>
</mask>
<g mask="url(#mask0_1_15)">
<path d="M167.933 71.3053C167.933 79.9477 167.544 89.9151 167.092 94.5817C166.422 101.56 160.193 107.76 153.588 108.132C151.835 108.228 149.613 108.329 147.016 108.424V124.109C147.008 125.071 146.618 125.991 145.932 126.666C145.246 127.341 144.319 127.717 143.355 127.71C142.507 127.711 141.685 127.421 141.025 126.887L117.733 108.908C102.271 108.908 88.613 108.507 81.8779 108.132C75.2727 107.759 69.0432 101.559 68.3739 94.5812C68.3074 93.8841 68.24 93.0687 68.1775 92.1585C82.3713 92.0383 94.6954 91.6524 101.468 91.2728C113.315 90.6123 123.908 80.1373 125.084 67.9255C125.699 61.5035 126.1 51.3466 126.1 42.058C126.1 39.3212 126.067 36.5093 126 33.7389C137.958 33.8475 148.084 34.1692 153.589 34.4783C160.194 34.8504 166.423 41.0509 167.093 48.0285C167.544 52.6959 167.933 62.6609 167.933 71.3053Z" fill="#00AAFF"/>
<path d="M117.733 42.0587C117.733 52.1416 117.277 61.6791 116.754 67.1274C115.973 75.2666 108.702 82.4986 101 82.9334C100.176 82.9793 99.2639 83.0257 98.2726 83.0712C97.6409 83.1005 96.976 83.1313 96.2813 83.1591C95.6081 83.1884 94.9094 83.2133 94.1815 83.2431C93.881 83.2514 93.5874 83.2632 93.2801 83.2759C92.9733 83.2886 92.6655 83.2969 92.3475 83.3096C92.047 83.3179 91.7466 83.3262 91.4461 83.3389H91.386C91.0641 83.3516 90.7333 83.3599 90.403 83.3721C90.3571 83.376 90.3151 83.376 90.2736 83.376L89.0649 83.4141C83.7519 83.5729 77.4726 83.7063 70.6368 83.7776L67.7524 83.802C66.2716 83.8191 64.7654 83.8274 63.2426 83.8318C62.6153 83.8358 61.9807 83.8357 61.3441 83.8357C60.623 83.8401 59.8921 83.8401 59.1603 83.8401L32.5396 103.82C31.7803 104.413 30.8433 104.734 29.8793 104.731C28.7934 104.753 27.7428 104.345 26.9584 103.594C26.174 102.844 25.7199 101.813 25.6958 100.728V83.3018C22.3619 83.1845 19.5298 83.0619 17.3292 82.9339C9.62787 82.4991 2.35741 75.2671 1.57502 67.1283C1.05222 61.6795 0.59613 52.1455 0.59613 42.0593C0.59613 31.9733 1.05222 22.4383 1.57502 16.9899C2.35621 8.85087 9.62728 1.61875 17.3292 1.18422C25.1856 0.745493 41.1255 0.277351 59.1627 0.277351C77.1995 0.277351 93.1389 0.745493 100.995 1.18422C108.697 1.61875 115.967 8.85087 116.75 16.9899C116.817 17.6711 116.88 18.4147 116.942 19.2172C116.954 19.3972 116.967 19.5809 116.984 19.7645C117.03 20.4079 117.08 21.0807 117.122 21.7865C117.143 22.0866 117.16 22.3927 117.182 22.7018C117.274 24.2725 117.362 25.9776 117.437 27.7865C117.45 28.1124 117.463 28.4383 117.476 28.7726C117.58 31.4734 117.659 34.3752 117.697 37.3839C117.701 37.6762 117.705 37.9685 117.709 38.2656C117.713 38.813 117.722 39.3681 117.722 39.9239C117.726 40.2792 117.726 40.6345 117.726 40.9898C117.726 41.3451 117.733 41.6992 117.733 42.0587Z" fill="#00AAFF"/>
<path d="M211.368 22.2569C209.947 22.2847 208.535 22.0115 207.227 21.4551C206.085 20.9647 205.104 20.1639 204.394 19.1439C203.681 18.0569 203.308 16.7822 203.324 15.4828H207.433C207.451 16.4263 207.841 17.3245 208.518 17.9825C208.896 18.3323 209.34 18.6029 209.824 18.7782C210.308 18.9535 210.822 19.0298 211.337 19.0028C212.217 19.0501 213.085 18.7887 213.792 18.264C214.087 18.0264 214.322 17.724 214.48 17.3804C214.639 17.0368 214.715 16.6614 214.705 16.2834C214.721 15.908 214.658 15.5335 214.52 15.1841C214.382 14.8347 214.171 14.5183 213.903 14.2554C213.279 13.7172 212.55 13.3155 211.762 13.076C210.864 12.776 209.92 12.4471 208.912 12.1013C207.507 11.6798 206.224 10.9308 205.166 9.91609C204.725 9.43902 204.384 8.87909 204.162 8.26899C203.941 7.65884 203.843 7.01073 203.875 6.36243C203.829 5.21512 204.142 4.08207 204.772 3.12148C205.403 2.20004 206.281 1.47521 207.306 1.03046C208.475 0.512684 209.744 0.260152 211.022 0.29105C212.311 0.265524 213.59 0.523276 214.768 1.04607C215.799 1.50304 216.682 2.23794 217.318 3.1683C217.95 4.1378 218.294 5.26631 218.31 6.42305H214.138C214.12 5.67523 213.81 4.9642 213.273 4.44248C212.966 4.14391 212.601 3.91275 212.199 3.76389C211.798 3.61504 211.37 3.55179 210.943 3.57822C210.179 3.54263 209.425 3.76388 208.802 4.20661C208.513 4.4289 208.283 4.71857 208.132 5.05023C207.981 5.38196 207.914 5.74553 207.936 6.10916C207.92 6.42012 207.971 6.73079 208.085 7.0206C208.199 7.31036 208.374 7.57251 208.597 7.78967C209.131 8.25687 209.751 8.61474 210.423 8.84299C211.194 9.12625 212.076 9.42514 213.067 9.75526C214.065 10.091 215.029 10.5173 215.948 11.0288C216.794 11.4926 217.513 12.1566 218.042 12.9626C218.599 13.8913 218.873 14.9622 218.829 16.0439C218.834 17.1347 218.54 18.206 217.978 19.1414C217.372 20.1277 216.499 20.9233 215.46 21.4371C214.181 22.0516 212.771 22.3481 211.352 22.3014V22.2546L211.368 22.2569Z" fill="#081217"/>
<path d="M226.81 21.895V0.638535H230.699V21.895H226.81Z" fill="#081217"/>
<path d="M239.389 21.895V0.638535H243.277L253.273 15.6064V0.638535H257.16V21.895H253.273L243.277 6.95899V21.895H239.389Z" fill="#081217"/>
<path d="M275.501 22.2569C273.566 22.3159 271.652 21.8381 269.972 20.8766C268.439 19.9617 267.204 18.6238 266.415 17.024C265.595 15.2242 265.17 13.2697 265.17 11.2923C265.17 9.31488 265.595 7.36044 266.415 5.56057C267.198 3.9489 268.434 2.59969 269.972 1.67744C271.651 0.711178 273.564 0.226824 275.501 0.277823C277.75 0.181479 279.965 0.852447 281.782 2.18038C283.449 3.49801 284.543 5.40731 284.836 7.51057H280.554C280.337 6.43204 279.74 5.46701 278.871 4.79056C277.875 4.08934 276.673 3.74059 275.455 3.79967C274.583 3.7558 273.711 3.91307 272.909 4.25932C272.107 4.60556 271.395 5.13153 270.828 5.79644C269.711 7.13306 269.16 8.95702 269.16 11.2839C269.16 13.6108 269.711 15.4347 270.828 16.7551C271.853 17.8094 273.205 18.487 274.664 18.678C276.123 18.869 277.604 18.5621 278.866 17.8072C279.725 17.1904 280.324 16.2772 280.549 15.2445H284.831C284.516 17.2837 283.421 19.1212 281.776 20.37C279.947 21.6689 277.737 22.3217 275.495 22.2251L275.501 22.2569Z" fill="#081217"/>
<path d="M292.816 21.895V0.638535H296.704V9.47434H306.243V0.638535H310.131V21.895H306.243V12.6349H296.704V21.895H292.816Z" fill="#081217"/>
<path d="M236.084 96.2399C247.248 96.2399 253.379 90.5727 255.301 83.7188L268.021 86.826C264.359 101.998 251.64 109.033 236.084 109.31H235.443C217.782 109.31 203.324 98.9816 203.324 76.6803C203.324 54.379 217.782 44.0524 235.443 44.0524H236.084C251.64 44.3266 264.359 51.3637 268.021 66.5356L255.301 69.5524C253.287 62.8798 246.699 57.1217 236.084 57.1217C222.998 57.1217 216.409 64.9839 216.409 76.6803C216.409 88.6532 224.002 96.2399 236.084 96.2399Z" fill="#081217"/>
<path d="M274.779 41.9494H287.865V108.67H274.779V41.9494Z" fill="#081217"/>
<path d="M296.953 55.1113V41.9494H310.131V55.1113H296.953ZM309.947 61.3257V108.67H297.136V61.3257H309.947Z" fill="#081217"/>
<path d="M345.041 62.4234C356.389 62.4234 369.292 68.4556 370.755 80.702L358.677 81.5243C357.213 76.3149 352.363 72.5682 345.042 72.5682C336.257 72.5682 330.401 77.5944 330.401 85.8206C330.401 93.9549 336.257 98.9821 344.583 98.9821H345.131C352.361 98.7071 356.662 95.9653 358.583 90.4823L370.754 91.2127C369.29 103.186 356.387 109.218 345.04 109.218C330.124 109.218 317.313 101.632 317.313 85.8206C317.313 70.0096 330.124 62.4234 345.041 62.4234Z" fill="#081217"/>
<path d="M449.121 87.9228C449.578 94.229 455.618 97.0621 464.769 97.1539C475.842 97.1539 482.521 94.5944 482.521 88.3796C482.521 76.7721 437.042 87.4655 437.042 63.7938C437.042 49.2619 450.859 43.7781 464.952 43.7781H465.867C481.058 44.0524 492.494 49.7197 493.227 62.9711L480.874 63.6111C480.417 58.1271 475.749 55.7489 465.867 55.7489C455.891 55.7489 450.127 58.582 450.127 63.7C450.127 74.1193 495.606 63.5197 495.606 87.7376C495.606 96.9688 489.748 109.124 465.043 109.124C442.809 109.124 436.767 99.0705 436.493 88.5604L449.121 87.9228Z" fill="#081217"/>
<path d="M538.545 97.8858C536.253 98.9841 533.327 99.3505 529.756 99.3505H529.028C525.369 99.3505 521.343 98.4384 518.783 96.5174C517.435 95.574 516.291 94.3668 515.427 92.9685C514.562 91.5703 513.99 90.0109 513.746 88.385H555.839C555.952 87.5354 556.015 86.6794 556.025 85.8225C556.025 70.1039 544.402 62.4274 529.394 62.4274C514.381 62.4274 501.576 70.0136 501.576 85.8225C501.576 101.631 514.391 109.224 529.394 109.224C535.711 109.224 541.383 108.401 546.142 105.838C550.9 103.372 554.838 99.2606 556.025 92.5865L544.036 91.9441C543.054 94.5671 541.08 96.7006 538.545 97.8858ZM518.324 75.4032C521.25 72.8467 525.823 71.7484 529.209 71.7484H529.756C533.415 71.7484 536.986 72.5706 539.278 74.1252C541.564 75.6793 542.937 77.78 543.938 81.0689H514.699C515.397 78.8993 516.643 76.9471 518.324 75.4003V75.4032Z" fill="#081217"/>
<path d="M432.224 108.578H426.912V108.668L426.822 108.578H415.657L398.82 88.5623L390.857 95.0503V108.668H377.685V44.6952H390.857L390.617 73.5336V80.3816L411.997 62.9706H430.848L408.704 80.8857L432.224 108.578Z" fill="#081217"/>
<path d="M612.526 87.83V108.668H599.53V87.743C599.53 79.7005 595.412 75.3133 589.74 75.3133C584.337 75.3133 576.104 78.422 576.104 91.584V108.671H563.016V62.9736H576.104V77.42C576.339 76.2812 576.705 75.1746 577.204 74.1247C580.863 65.8067 588.372 62.2412 594.591 62.2412C607.22 62.2383 612.526 72.2912 612.526 87.83Z" fill="#081217"/>
<path d="M662.407 44.6952V73.0176C661.913 71.7772 661.2 70.6345 660.306 69.6447C656.188 65.257 649.05 62.4244 642.914 62.4244C627.817 62.5143 619.4 70.0106 619.4 85.8196C619.4 101.628 627.817 109.22 642.914 109.22C648.957 109.22 656.188 106.658 660.306 102.366C661.2 101.373 661.913 100.229 662.407 98.9875V108.668H675.397V44.6952H662.407ZM645.992 97.5829H645.522C637.476 97.5829 632.073 92.7394 632.073 85.7952C632.073 79.1514 636.504 74.6738 644.057 74.0079H644.516C652.562 74.0079 657.961 78.8514 657.961 85.7952C657.961 92.4453 653.549 96.9165 645.992 97.5858V97.5829Z" fill="#081217"/>
</g>
</g>
<defs>
<clipPath id="clip0_1_15">
<rect width="675.176" height="128" fill="white" transform="translate(0.412201)"/>
</clipPath>
</defs>
</svg>
