<svg width="230" height="59" viewBox="0 0 230 59" fill="none" xmlns="http://www.w3.org/2000/svg">
<path d="M29.5164 8.31326H11.3717C10.5606 8.31326 9.78263 8.64833 9.20905 9.24476C8.63547 9.84119 8.31323 10.6501 8.31323 11.4936V46.654C8.31323 47.4975 8.63547 48.3064 9.20905 48.9028C9.78263 49.4993 10.5606 49.8343 11.3717 49.8343H38.4734C38.8745 49.8343 39.2716 49.752 39.642 49.592C40.0124 49.432 40.3488 49.1976 40.6318 48.9021C40.9149 48.6066 41.139 48.2559 41.2914 47.8701C41.4438 47.4843 41.5214 47.071 41.5198 46.654V20.8074L29.5164 8.31326Z" fill="#009BFF"/>
<path d="M16.2038 27.3614H15.3542C15.0484 27.3603 14.7536 27.4794 14.5286 27.6946C14.3036 27.9099 14.165 28.2055 14.1405 28.5224V28.6234C14.165 28.9403 14.3036 29.236 14.5286 29.4512C14.7536 29.6665 15.0484 29.7855 15.3542 29.7845H16.2038C16.5257 29.7845 16.8344 29.6515 17.062 29.4148C17.2896 29.1782 17.4175 28.8572 17.4175 28.5224C17.393 28.2055 17.2544 27.9099 17.0294 27.6946C16.8044 27.4794 16.5095 27.3603 16.2038 27.3614Z" fill="#FFDD5E"/>
<path d="M35.271 42.0643V42.1526C35.2465 42.4695 35.1079 42.7652 34.8829 42.9804C34.6579 43.1957 34.363 43.3147 34.0573 43.3137H31.9819C31.66 43.3137 31.3513 43.1807 31.1237 42.9441C30.8961 42.7074 30.7682 42.3864 30.7682 42.0517C30.7698 41.8911 30.8042 41.7327 30.8691 41.5869C30.934 41.4412 31.0278 41.3114 31.1444 41.2061C31.385 40.9741 31.7024 40.8475 32.0304 40.8527H34.118C34.421 40.8683 34.7075 41.0013 34.9209 41.2255C35.1343 41.4498 35.2592 41.749 35.271 42.0643Z" fill="#FFDD5E"/>
<path d="M14.1541 21.8427C14.1541 21.1585 14.6883 20.6039 15.3473 20.6039H27.0282C27.6872 20.6039 28.2214 21.1585 28.2214 21.8427C28.2214 22.5269 27.6872 23.0816 27.0282 23.0816H15.3473C14.6883 23.0816 14.1541 22.5269 14.1541 21.8427Z" fill="white"/>
<path d="M20.0887 28.5585C20.0887 27.8743 20.6229 27.3197 21.2819 27.3197H34.0933C34.7523 27.3197 35.2865 27.8743 35.2865 28.5585C35.2865 29.2427 34.7523 29.7974 34.0933 29.7974H21.2819C20.6229 29.7974 20.0887 29.2427 20.0887 28.5585Z" fill="white"/>
<path d="M14.1541 42.1205C14.1541 41.4363 14.6883 40.8817 15.3473 40.8817H26.9026C27.5616 40.8817 28.0958 41.4363 28.0958 42.1205C28.0958 42.8047 27.5616 43.3594 26.9026 43.3594H15.3473C14.6883 43.3594 14.1541 42.8047 14.1541 42.1205Z" fill="white"/>
<path d="M14.1541 35.3721C14.1541 34.6879 14.6883 34.1333 15.3473 34.1333H34.0933C34.7523 34.1333 35.2865 34.6879 35.2865 35.3721C35.2865 36.0563 34.7523 36.611 34.0933 36.611H15.3473C14.6883 36.611 14.1541 36.0563 14.1541 35.3721Z" fill="white"/>
<path d="M41.535 20.6755V30.2537L30.6077 19.9518L41.535 20.6755Z" fill="url(#paint0_linear_2944_545)"/>
<path d="M29.5399 17.6271C29.5399 18.4706 29.8622 19.2795 30.4357 19.8759C31.0093 20.4724 31.7873 20.8074 32.5984 20.8074H41.5555L29.5399 8.31326V17.6271Z" fill="#33AFFF"/>
<path d="M68.7918 15.171V25.5499C67.3605 23.7066 65.2534 22.6246 62.3512 22.6246C57.0238 22.6246 52.6506 27.233 52.6506 33.2039C52.6506 39.1747 57.0238 43.7831 62.3512 43.7831C65.2534 43.7831 67.3605 42.7012 68.7918 40.8578V43.2221H73.9203V15.171H68.7918ZM63.3054 38.8542C60.1249 38.8542 57.7792 36.57 57.7792 33.2039C57.7792 29.8377 60.1249 27.5536 63.3054 27.5536C66.4461 27.5536 68.7918 29.8377 68.7918 33.2039C68.7918 36.57 66.4461 38.8542 63.3054 38.8542Z" fill="#009BFF"/>
<path d="M87.6752 43.7831C93.5194 43.7831 98.2106 39.1747 98.2106 33.2039C98.2106 27.233 93.5194 22.6246 87.6752 22.6246C81.831 22.6246 77.1794 27.233 77.1794 33.2039C77.1794 39.1747 81.831 43.7831 87.6752 43.7831ZM87.6752 38.7339C84.6537 38.7339 82.308 36.4498 82.308 33.2039C82.308 29.958 84.6537 27.6738 87.6752 27.6738C90.7364 27.6738 93.082 29.958 93.082 33.2039C93.082 36.4498 90.7364 38.7339 87.6752 38.7339Z" fill="#009BFF"/>
<path d="M110.883 43.7831C114.779 43.7831 118.158 41.6993 119.868 38.5736L115.415 36.009C114.62 37.652 112.911 38.6538 110.843 38.6538C107.782 38.6538 105.516 36.3696 105.516 33.2039C105.516 29.998 107.782 27.7139 110.843 27.7139C112.871 27.7139 114.58 28.7558 115.375 30.3988L119.788 27.794C118.158 24.7084 114.779 22.6246 110.883 22.6246C104.84 22.6246 100.387 27.233 100.387 33.2039C100.387 39.1747 104.84 43.7831 110.883 43.7831Z" fill="#009BFF"/>
<path d="M135.458 23.1856V34.0053C135.458 37.4917 133.589 38.9744 131.085 38.9744C128.779 38.9744 127.149 37.5718 127.149 34.8469V23.1856H122.02V35.488C122.02 40.8177 125.32 43.7831 129.534 43.7831C132.198 43.7831 134.265 42.7813 135.458 40.978V43.2221H140.586V23.1856H135.458Z" fill="#009BFF"/>
<path d="M166.871 22.6246C164.168 22.6246 162.18 23.7066 160.948 25.5099C159.834 23.6665 158.006 22.6246 155.541 22.6246C152.996 22.6246 151.128 23.6264 150.015 25.3095V23.1856H144.886V43.2221H150.015V31.9616C150.015 28.9561 151.565 27.4334 153.752 27.4334C155.899 27.4334 157.091 28.876 157.091 31.2403V43.2221H162.22V31.9616C162.22 28.9561 163.651 27.4334 165.917 27.4334C168.064 27.4334 169.257 28.876 169.257 31.2403V43.2221H174.385V30.8796C174.385 25.8705 171.404 22.6246 166.871 22.6246Z" fill="#009BFF"/>
<path d="M180.888 20.7812C182.637 20.7812 184.068 19.3386 184.068 17.6155C184.068 15.8923 182.637 14.4096 180.888 14.4096C179.178 14.4096 177.747 15.8923 177.747 17.6155C177.747 19.3386 179.178 20.7812 180.888 20.7812ZM178.344 43.2221H183.472V23.1856H178.344V43.2221Z" fill="#009BFF"/>
<path d="M198.821 22.6246C196.157 22.6246 194.09 23.6264 192.897 25.4297V23.1856H187.769V43.2221H192.897V32.4024C192.897 28.9161 194.766 27.4334 197.27 27.4334C199.576 27.4334 201.206 28.8359 201.206 31.5609V43.2221H206.335V30.9197C206.335 25.59 203.035 22.6246 198.821 22.6246Z" fill="#009BFF"/>
<path d="M221.687 28.1547V23.1856H217.194V17.5754L212.066 19.1382V23.1856H208.607V28.1547H212.066V36.4898C212.066 41.8997 214.491 44.0236 221.687 43.2221V38.5336C218.745 38.6939 217.194 38.6538 217.194 36.4898V28.1547H221.687Z" fill="#009BFF"/>
<defs>
<linearGradient id="paint0_linear_2944_545" x1="33.6535" y1="17.9795" x2="40.9924" y2="28.1688" gradientUnits="userSpaceOnUse">
<stop stop-color="#0077C4"/>
<stop offset="1" stop-color="#009BFF"/>
</linearGradient>
</defs>
</svg>
