<svg width="157" height="53" viewBox="0 0 157 53" fill="none" xmlns="http://www.w3.org/2000/svg">
<g clip-path="url(#clip0_30_122)">
<path d="M37.9497 20.6522C37.6042 19.4085 36.8057 18.9632 35.562 19.301C34.7098 19.5313 33.9958 20.015 33.2971 20.5217C34.1493 18.372 34.894 16.1763 35.0629 13.85C35.1934 12.0919 35.1397 10.326 34.2722 8.71377C33.2357 6.77905 31.4776 6.39518 29.7117 7.68499C29.0131 8.19938 28.4603 8.85964 27.9382 9.55062C26.6715 11.2473 25.9268 13.2051 25.0438 15.1014C25.0438 14.6638 25.0669 14.2415 25.136 13.8193C25.4584 11.708 25.4891 9.589 25.1974 7.47003C24.8749 5.10537 24.1533 2.89426 22.3337 1.2129C20.2531 -0.706467 17.7503 -0.345627 16.3837 2.12651C15.4163 3.87697 14.8328 5.80402 14.5257 7.76945C14.5257 7.7848 14.5257 7.80783 14.5181 7.82319C14.2186 9.827 14.3031 11.8539 14.3338 13.8653C14.3492 14.8481 14.2877 15.8385 14.3492 16.8212C14.4106 17.8653 14.495 18.9094 14.6025 19.9536C14.7253 21.1589 14.9173 22.3413 15.0785 23.5313C15.2167 24.5984 15.1783 25.681 15.2704 26.7558C15.2858 26.917 15.3012 27.0782 15.3472 27.2241C15.6927 26.9324 16.0382 26.656 16.4067 26.4103C17.0439 25.9881 17.7196 25.6886 18.4182 25.512C19.6696 25.1896 20.9748 25.2587 22.1725 25.6656C22.6024 25.8115 23.017 25.9957 23.4085 26.2261C24.4987 26.8633 25.4354 27.7999 26.0496 29.0053C26.0726 29.059 26.0957 29.1128 26.1187 29.1665C26.5717 30.1032 26.8941 31.0629 27.1014 32.0532C28.6446 31.2471 30.157 30.3796 31.6004 29.3892C33.6887 27.9612 35.7155 26.4564 37.1282 24.2913C37.8575 23.1781 38.3258 21.9958 37.9497 20.6292V20.6522Z" fill="#FF1E00"/>
<path d="M15.401 40.9592C15.3396 40.9439 15.2858 40.9208 15.2321 40.8978C15.1093 40.8517 14.9864 40.8134 14.8713 40.7596C14.7561 40.7059 14.6333 40.6521 14.5181 40.5907C14.0344 40.345 13.5891 40.0456 13.1822 39.6848C13.1822 39.6848 13.1669 39.6694 13.1592 39.6694C13.0671 39.5926 12.9826 39.5159 12.8981 39.4314C12.806 39.3393 12.7216 39.2472 12.6371 39.1473C12.0076 38.441 11.5316 37.5888 11.2705 36.6445C11.2705 36.6291 11.2628 36.6138 11.2628 36.6061C11.1016 36.5754 10.9481 36.5447 10.7868 36.514L10.1419 36.3988C9.77342 36.3374 9.41258 36.2683 9.05942 36.1992C9.03639 36.1992 9.00568 36.1915 8.98265 36.1838C8.79071 36.1455 8.61413 36.0994 8.42987 36.061C7.47786 35.8537 6.5796 35.6387 5.73508 35.4007C4.90592 35.1704 4.11514 34.9247 3.33971 34.6253C3.33971 34.6253 3.33204 34.6253 3.32436 34.6253C3.2092 34.5793 3.08636 34.5332 2.95584 34.4795C2.93281 34.4718 2.90978 34.4641 2.88674 34.4487C2.79461 34.4104 2.69481 34.372 2.58732 34.3259C2.119 34.134 1.60461 33.9497 1.23609 33.9497C1.03648 33.9497 0.882928 34.0034 0.806153 34.1416C0.698669 34.3182 0.606539 35.0015 2.81765 37.0284C3.00958 37.2049 3.2092 37.3815 3.43952 37.5811C3.66217 37.7731 3.90017 37.9727 4.1612 38.1877C4.19959 38.2184 4.2303 38.2491 4.26869 38.2798C4.76772 38.6867 5.33585 39.1473 5.95005 39.6003C6.33392 39.8844 6.74083 40.1608 7.15541 40.4295C7.5009 40.6444 7.85406 40.8517 8.2149 41.036C8.36077 41.1128 8.50664 41.1819 8.66019 41.2586C8.79839 41.3277 8.94426 41.3892 9.09013 41.4506C9.18994 41.489 9.28207 41.5274 9.38187 41.5657C9.25136 41.6502 9.12852 41.7423 8.998 41.8345C8.87516 41.9189 8.75232 42.0034 8.62948 42.0955C8.29935 42.3335 7.98458 42.5638 7.6698 42.7941C7.25522 43.1012 6.85599 43.393 6.47212 43.6617C5.35889 44.4448 2.28023 46.2336 2.51823 47.1626C2.67945 47.8152 4.06907 47.3699 5.02875 47.0551C5.10553 47.0321 5.1823 47.0091 5.2514 46.986C6.99418 46.4256 8.72161 45.9265 10.4721 45.3123C10.9941 45.1281 11.5316 44.9515 12.0613 44.7519C13.0747 44.368 14.0344 43.892 14.7023 43.1089C15.3549 42.3412 15.4778 41.6041 15.3856 40.9823L15.401 40.9592ZM5.70437 45.9112C4.09978 46.5561 3.6161 46.487 6.68709 44.3219C7.41644 43.8076 8.35309 43.1703 9.52007 42.4026C9.65058 42.3105 9.79646 42.226 9.93465 42.1339C10.0652 42.0494 10.1957 41.965 10.3339 41.8728L11.5776 42.4333L12.2763 42.7481C12.2763 42.7481 12.2225 42.7788 12.1304 42.8248C11.355 43.2241 7.68515 45.1127 5.71205 45.9112H5.70437Z" fill="#FEC802"/>
<path d="M12.2302 30.7715C11.2935 30.0421 10.1189 29.6045 8.84442 29.6045C8.80603 29.6045 8.76765 29.6045 8.72926 29.6045C6.16499 29.6582 4.03833 31.4548 3.46252 33.8424C3.51627 33.8655 3.57001 33.8885 3.61607 33.9039C4.41453 34.211 5.22834 34.4643 6.08821 34.7023C6.84828 34.9096 7.66209 35.1016 8.52197 35.2935C8.46823 35.1169 8.42984 34.9326 8.42984 34.7407C8.42216 34.2801 8.56803 33.8501 8.81371 33.5046C9.18223 32.9749 9.78875 32.6217 10.4874 32.6064C10.6256 32.6064 10.7638 32.6141 10.902 32.6371C11.0862 32.6678 11.2628 32.7369 11.4317 32.8137C11.6774 32.1381 12.0306 31.5239 12.4835 30.9788C12.4068 30.9097 12.3223 30.8406 12.2379 30.7715H12.2302Z" fill="white"/>
<path d="M21.1744 30.9787C20.2071 30.0497 18.9557 29.52 17.6275 29.4509C17.5353 29.4509 17.4355 29.4355 17.3357 29.4355C17.2973 29.4355 17.2589 29.4355 17.2206 29.4355C15.7925 29.4663 14.5027 30.0421 13.5354 30.9557C13.4432 31.0401 13.3511 31.1323 13.2667 31.2244C13.1822 31.3165 13.0901 31.4163 13.0133 31.5161C12.5987 32.0382 12.2763 32.637 12.069 33.2896C11.8924 33.8501 11.7926 34.4566 11.8079 35.0785C11.8079 35.1476 11.8156 35.209 11.8233 35.2781C11.8387 35.5161 11.8617 35.7464 11.9078 35.9691C11.9231 36.0535 11.9385 36.1456 11.9538 36.2301C11.9692 36.2838 11.9845 36.3376 11.9999 36.3913C12.0383 36.5372 12.0843 36.6831 12.1304 36.8289C12.3607 37.4815 12.7139 38.0804 13.1592 38.5948C13.2436 38.6946 13.3358 38.7867 13.4202 38.8788C13.5123 38.9709 13.6045 39.0554 13.7043 39.1399C13.9423 39.3471 14.1956 39.5391 14.472 39.7003C14.5334 39.7387 14.5949 39.7694 14.6563 39.8078C14.7331 39.8539 14.8175 39.8922 14.902 39.9383C14.948 39.9613 14.9941 39.9767 15.0325 39.9997C15.1553 40.0535 15.2782 40.1072 15.401 40.1533C16.0382 40.3913 16.7292 40.5218 17.4509 40.5064C20.4988 40.445 22.9326 37.9115 22.8712 34.8635C22.8404 33.3894 22.2416 32.0075 21.1744 30.9864V30.9787ZM19.0631 36.6293C17.9038 36.6524 16.9442 35.7311 16.9211 34.5718C16.8981 33.4125 17.8194 32.4528 18.9787 32.4298C20.138 32.4067 21.0977 33.328 21.1207 34.4873C21.1437 35.6466 20.2224 36.6063 19.0631 36.6293Z" fill="white"/>
<path d="M51.6309 30.395C52.0762 31.6618 52.7288 34.6407 52.7288 37.6579C52.7288 41.3968 51.6693 43.5158 49.5427 43.5158C47.7922 43.5158 47.2087 42.5254 47.2087 40.7058V30.395H42.4103V38.2414C42.4103 42.011 41.3815 43.5158 39.2241 43.5158C37.6503 43.5158 36.9593 42.5254 36.9593 40.7058V30.395H35.6234C34.9017 30.9555 34.1724 31.4699 33.4737 31.9459C33.0515 32.2299 32.6139 32.514 32.1609 32.7981V41.2202C32.1609 45.6041 34.0803 47.8305 38.372 47.8305C41.1128 47.8305 42.9324 46.8017 44.0993 45.0897C44.9899 46.9399 46.702 47.8305 49.343 47.8305C55.7537 47.8305 57.5426 43.4467 57.5426 37.3815C57.5426 34.9478 57.1664 32.4142 56.4754 30.395H51.6386H51.6309Z" fill="#111111"/>
<path d="M154.194 42.2185C152.958 43.1475 151.722 43.6542 149.772 43.6542C147.822 43.6542 146.24 43.1091 145.618 41.0516C152.167 40.8136 156.006 39.0631 155.975 35.0555C155.945 32.0075 153.749 29.8809 149.495 29.8809C143.937 29.8809 140.474 33.7887 140.474 39.4393C140.474 45.0899 143.906 47.8308 148.874 47.8308C152.543 47.8308 154.839 46.7713 156.244 45.4968L154.186 42.2109L154.194 42.2185ZM149.219 33.7887C150.524 33.7887 151.307 34.4029 151.307 35.401C151.307 37.113 148.973 37.5967 145.373 37.7963C145.649 35.1246 147.192 33.7887 149.211 33.7887H149.219Z" fill="#111111"/>
<path d="M139.377 42.4869C138.724 43.0704 138.11 43.3775 137.219 43.3775C135.707 43.3775 134.785 42.6558 134.785 40.8747V34.4333H140.375V30.3873H134.785V25.8652H130.839C130.67 29.5351 129.88 30.4871 126.755 30.5945V30.6636C127.776 31.7385 128.29 33.082 128.421 34.4333H130.01V41.7652C130.01 45.9111 132.306 47.8304 136.39 47.8304C138.356 47.8304 140.006 47.2239 141.196 46.1337C140.367 45.1433 139.76 43.9456 139.415 42.5407L139.377 42.4793V42.4869Z" fill="#111111"/>
<path d="M120.82 43.6542C118.793 43.6542 117.288 43.1091 116.667 41.0516C123.215 40.8136 127.054 39.0631 127.023 35.0555C127.023 34.8405 126.985 34.6409 126.962 34.4413C126.924 34.0958 126.855 33.7733 126.755 33.4586C126.071 31.3012 123.999 29.8809 120.544 29.8809C114.985 29.8809 111.523 33.7887 111.523 39.4393C111.523 45.0899 114.955 47.8308 119.922 47.8308C123.592 47.8308 125.887 46.7713 127.292 45.4968L125.235 42.2109C123.999 43.1398 122.763 43.6465 120.812 43.6465L120.82 43.6542ZM120.267 33.7887C121.572 33.7887 122.356 34.4029 122.356 35.401C122.356 37.113 120.022 37.5967 116.421 37.7963C116.697 35.1246 118.24 33.7887 120.26 33.7887H120.267Z" fill="#111111"/>
<path d="M104.045 29.8808C101.573 29.8808 99.9604 30.8404 98.97 32.1763V22.3799H94.1716V47.3623H98.97V36.9824C99.4153 35.3701 100.72 34.2723 102.502 34.2723C104.49 34.2723 105.45 35.5774 105.45 37.5582V47.3546H110.218V36.8365C110.218 32.66 108.329 29.8808 104.045 29.8808Z" fill="#111111"/>
<path d="M86.548 43.5544C83.6305 43.5544 82.2639 41.9114 82.2639 38.6562C82.2639 35.8079 83.7073 34.0958 85.8647 34.0958C87.5767 34.0958 88.4673 34.9557 88.7821 36.3606L93.2043 35.708C92.5901 31.9691 90.0796 29.8809 85.8647 29.8809C80.621 29.8809 77.3964 33.543 77.3964 38.9249C77.3964 40.4681 77.6037 41.7963 78.0029 42.9172C78.4098 44.0688 79.0087 45.0131 79.7841 45.7502C81.2659 47.1628 83.3772 47.8308 85.9721 47.8308C89.642 47.8308 91.9068 46.7022 93.2427 45.4354L90.9778 41.9729C89.9107 42.9018 88.6439 43.5467 86.5556 43.5467L86.548 43.5544Z" fill="#111111"/>
<path d="M75.9147 43.2627C75.7458 43.1936 75.5999 43.0784 75.5078 42.9249C75.408 42.7636 75.3696 42.5717 75.3696 42.3874V30.3953H71.1854L70.9781 32.1073C69.9186 30.6716 68.2373 29.8809 65.934 29.8809C61.888 29.8809 58.4946 33.1668 58.4946 38.994C58.4946 44.8212 61.4811 47.8384 65.696 47.8384C68.1298 47.8384 69.9493 46.7406 71.0088 45.0285C70.9474 45.1283 71.1854 45.612 71.2238 45.7195C71.3082 45.9344 71.4234 46.134 71.5462 46.326C71.7842 46.6638 72.1144 47.0016 72.4752 47.1935C74.4714 48.2223 76.5827 47.6388 78.4099 46.5717C78.4252 46.5717 78.4329 46.5563 78.4483 46.5486C77.6191 45.6964 76.9819 44.5832 76.5519 43.3394C76.3293 43.3625 76.1067 43.3548 75.8994 43.2703L75.9147 43.2627ZM70.5635 41.0823V41.1514C70.0184 42.6561 68.8131 43.6158 67.1317 43.6158C64.9743 43.6158 63.3237 42.1418 63.3621 38.8558C63.3928 35.7388 64.8054 34.0958 67.2392 34.0958C68.7056 34.0958 69.8265 34.8405 70.41 36.0075C70.4407 36.0612 70.4637 36.1226 70.4868 36.1841C70.5098 36.2455 70.5635 36.376 70.5635 36.376C70.7708 36.9672 70.909 37.7963 70.909 38.7253C70.909 39.6543 70.7785 40.4911 70.5635 41.0746V41.0823Z" fill="#111111"/>
<path d="M26.111 29.1897C26.088 29.1359 26.065 29.0822 26.0419 29.0284C25.4277 27.8154 24.4911 26.8787 23.4009 26.2492C23.0093 26.0189 22.5948 25.8346 22.1648 25.6887C20.9671 25.2895 19.6697 25.2127 18.4105 25.5352C17.7196 25.7118 17.0363 26.0112 16.3991 26.4334C16.0305 26.6791 15.6774 26.9478 15.3396 27.2473C14.3799 28.0764 13.5047 29.0898 12.6832 30.157C11.5853 29.3048 10.1957 28.8058 8.70624 28.8365C5.81952 28.8902 3.43183 30.894 2.74086 33.5581C1.78118 33.1819 0.667946 32.8748 0.145879 33.7501C-0.606512 35.0322 1.63531 37.1128 3.67751 38.7788C3.68519 38.7865 3.70054 38.7942 3.70822 38.8018C3.93086 39.1166 4.18422 39.4083 4.46829 39.6847C4.76003 39.9611 5.07481 40.2145 5.40494 40.4294C4.47596 41.8344 3.57002 43.2624 2.71015 44.7058C2.56428 44.9438 2.42608 45.1971 2.28021 45.4352C1.1593 47.2931 1.93473 49.0896 3.55467 50.318C6.98649 52.9207 11.7158 53.1203 15.8232 52.7518C17.4585 52.6059 19.1015 52.3449 20.614 51.6846C23.3011 50.5176 24.7368 48.176 25.5122 45.4352C26.7099 41.1972 27.9997 36.4295 27.1014 32.0764C26.8941 31.086 26.5794 30.1263 26.1187 29.1897H26.111ZM8.83676 29.6042C10.1112 29.6042 11.2859 30.0419 12.2225 30.7712C12.307 30.8403 12.3914 30.9094 12.4682 30.9785C12.0229 31.5236 11.6621 32.1455 11.4164 32.8134C11.2475 32.7366 11.0709 32.6675 10.8866 32.6368C10.7561 32.6138 10.6179 32.5984 10.4721 32.6061C9.77341 32.6215 9.16689 32.9746 8.79837 33.5044C8.55269 33.8575 8.40682 34.2798 8.4145 34.7405C8.4145 34.9324 8.45289 35.1166 8.50663 35.2932C7.64675 35.1013 6.84062 34.9094 6.07288 34.7021C5.213 34.4641 4.39919 34.2107 3.60073 33.9036C3.55467 33.8883 3.50093 33.8652 3.44718 33.8422C4.02299 31.4545 6.14197 29.6503 8.71392 29.6042C8.75231 29.6042 8.7907 29.6042 8.82908 29.6042H8.83676ZM15.0325 39.9918C14.9864 39.9688 14.9403 39.9534 14.9019 39.9304C14.8175 39.892 14.7407 39.846 14.6563 39.7999C14.5949 39.7692 14.5334 39.7308 14.472 39.6924C14.2033 39.5235 13.9423 39.3392 13.7043 39.132C13.6045 39.0475 13.5123 38.9631 13.4202 38.8709C13.3281 38.7788 13.2359 38.6867 13.1592 38.5869C12.7139 38.0725 12.3607 37.4736 12.1304 36.821C12.0766 36.6752 12.0383 36.5293 11.9999 36.3834C11.9845 36.3297 11.9692 36.2759 11.9538 36.2222C11.9308 36.1378 11.9231 36.0533 11.9077 35.9612C11.8694 35.7385 11.8386 35.5005 11.8233 35.2702C11.8233 35.2011 11.8079 35.1397 11.8079 35.0706C11.7926 34.4487 11.8924 33.8422 12.069 33.2817C12.2763 32.6292 12.5987 32.0303 13.0133 31.5082C13.0977 31.4084 13.1822 31.3086 13.2667 31.2165C13.3511 31.1244 13.4432 31.0322 13.5354 30.9478C14.5027 30.0342 15.7925 29.4584 17.2205 29.4277C17.2589 29.4277 17.2973 29.4277 17.3357 29.4277C17.4355 29.4277 17.5276 29.4353 17.6274 29.443C18.9556 29.5121 20.1994 30.0418 21.1744 30.9708C22.2416 31.9919 22.8404 33.3739 22.8712 34.8479C22.9326 37.8959 20.4988 40.4294 17.4509 40.4909C16.7292 40.5062 16.0382 40.3757 15.401 40.1377C15.2781 40.0916 15.1553 40.0379 15.0325 39.9842V39.9918ZM2.52589 47.1395C2.29557 46.2029 5.36655 44.4217 6.47978 43.6386C6.86365 43.3699 7.26288 43.0705 7.67746 42.7711C7.99224 42.5407 8.30702 42.3027 8.63715 42.0724C8.75998 41.988 8.88282 41.9035 9.00566 41.8114C9.13618 41.7193 9.25902 41.6348 9.38954 41.5427C9.28973 41.5043 9.1976 41.4736 9.09779 41.4275C8.95192 41.3661 8.81373 41.3047 8.66786 41.2356C8.51431 41.1665 8.36843 41.0897 8.22256 41.0129C7.86172 40.821 7.50088 40.6214 7.16307 40.4064C6.74081 40.1377 6.34159 39.8613 5.95771 39.5772C5.34352 39.1243 4.77538 38.6636 4.27635 38.2567C4.23796 38.226 4.19958 38.1953 4.16887 38.1646C3.90783 37.9496 3.66983 37.75 3.44718 37.5581C3.22454 37.3661 3.01725 37.1819 2.82531 37.0053C0.614203 34.9785 0.706333 34.2952 0.813817 34.1186C0.890592 33.9804 1.05182 33.9266 1.24375 33.9266C1.61227 33.9266 2.12666 34.1109 2.59499 34.3028C2.69479 34.3412 2.7946 34.3873 2.89441 34.4257C2.91744 34.4334 2.94047 34.441 2.96351 34.4564C3.09402 34.5101 3.21686 34.5639 3.33202 34.6023C3.33202 34.6023 3.3397 34.6023 3.34738 34.6023C4.1228 34.9017 4.92126 35.1474 5.74274 35.3777C6.58726 35.6157 7.47785 35.823 8.43753 36.0379C8.62179 36.0763 8.79837 36.1224 8.99031 36.1608C9.01334 36.1608 9.04405 36.1685 9.06708 36.1761C9.42025 36.2529 9.78109 36.3143 10.1496 36.3758L10.7945 36.4909C10.9481 36.5216 11.1093 36.5523 11.2705 36.583C11.2705 36.5984 11.2705 36.6138 11.2782 36.6214C11.5392 37.5658 12.0152 38.418 12.6448 39.1243C12.7292 39.2164 12.8137 39.3162 12.9058 39.4083C12.9903 39.4928 13.0824 39.5696 13.1668 39.6463C13.1668 39.6463 13.1822 39.6617 13.1899 39.6617C13.5968 40.0149 14.0421 40.322 14.5258 40.5676C14.6409 40.6291 14.7561 40.6828 14.8789 40.7365C14.9941 40.7903 15.1169 40.8287 15.2398 40.8747C15.2935 40.8978 15.3549 40.9208 15.4087 40.9362C15.4931 41.558 15.3703 42.2951 14.7254 43.0628C14.0574 43.8459 13.0977 44.3219 12.0843 44.7058C11.5546 44.9054 11.0172 45.082 10.4951 45.2662C8.74463 45.8804 7.0172 46.3795 5.27442 46.9399C5.20532 46.963 5.12855 46.986 5.05177 47.009C4.09209 47.3238 2.70247 47.7691 2.54124 47.1165L2.52589 47.1395Z" fill="#111111"/>
<path d="M12.1227 42.825C12.2149 42.779 12.2686 42.7483 12.2686 42.7483L11.57 42.4335L10.3262 41.873C10.188 41.9652 10.0575 42.0496 9.92699 42.1341C9.78879 42.2262 9.6506 42.3183 9.51241 42.4028C8.34543 43.1705 7.40878 43.8078 6.67942 44.3222C3.60844 46.4872 4.09212 46.5563 5.69671 45.9114C7.66982 45.1129 11.3396 43.232 12.1151 42.825H12.1227Z" fill="#111111"/>
<path d="M19.0247 36.6216C20.1823 36.6216 21.1207 35.6832 21.1207 34.5256C21.1207 33.3681 20.1823 32.4297 19.0247 32.4297C17.8672 32.4297 16.9288 33.3681 16.9288 34.5256C16.9288 35.6832 17.8672 36.6216 19.0247 36.6216Z" fill="#111111"/>
</g>
<defs>
<clipPath id="clip0_30_122">
<rect width="156.252" height="52.89" fill="white"/>
</clipPath>
</defs>
</svg>
