<svg width="218" height="111" viewBox="0 0 218 111" fill="none" xmlns="http://www.w3.org/2000/svg">
<g clip-path="url(#clip0_1_173)">
<path d="M0 13.2055H9.96205V70.0842H0V13.2055Z" fill="#202339"/>
<path d="M33.8286 70.8773C30.6932 70.8773 27.862 70.3618 25.3086 69.3307C22.7553 68.2997 20.5724 66.8721 18.7731 65.0347C16.9739 63.2106 15.5847 61.0692 14.6189 58.6106C13.6532 56.152 13.1768 53.5083 13.1768 50.6663C13.1768 47.8244 13.6929 45.1675 14.7248 42.6957C15.7567 40.2238 17.1855 38.0692 19.0245 36.2319C20.8502 34.4077 23.0199 32.9669 25.5203 31.8962C28.0207 30.8388 30.7196 30.31 33.6037 30.31C36.4878 30.31 39.2396 30.8123 41.6871 31.8301C44.1479 32.8347 46.2647 34.2227 48.0375 35.9807C49.8235 37.7388 51.2126 39.8405 52.2313 42.2991C53.2368 44.7577 53.7527 47.4278 53.7527 50.3095V54.0635H22.7685C23.4432 56.6146 24.753 58.6238 26.711 60.0911C28.6558 61.5583 31.0768 62.2985 33.9742 62.2985C36.2894 62.2985 38.2342 61.8359 39.8217 60.8974C41.4093 59.9589 42.6926 58.6899 43.6452 57.1037L51.808 61.8623C49.8367 64.5985 47.4289 66.7928 44.5845 68.4319C41.7401 70.0709 38.1548 70.8905 33.8286 70.8905V70.8773ZM33.617 38.7698C31.0636 38.7698 28.8675 39.4439 27.0417 40.7922C25.216 42.1405 23.893 43.9646 23.0728 46.2778H43.8701C43.1953 43.8192 41.965 41.9554 40.1922 40.6865C38.4062 39.4175 36.2232 38.7698 33.617 38.7698Z" fill="#202339"/>
<path d="M51.4111 31.1026H61.9552L71.5601 57.3675L81.2443 31.1026H91.5768L76.2699 70.0704H66.374L51.4243 31.1026H51.4111Z" fill="#202339"/>
<path d="M109.807 70.8773C106.672 70.8773 103.841 70.3618 101.287 69.3307C98.7341 68.2997 96.5512 66.8721 94.7519 65.0347C92.9527 63.2106 91.5635 61.0692 90.5978 58.6106C89.632 56.152 89.1557 53.5083 89.1557 50.6663C89.1557 47.8244 89.6717 45.1675 90.7036 42.6957C91.7355 40.2238 93.1643 38.0692 95.0033 36.2319C96.829 34.4077 98.9987 32.9669 101.499 31.8962C104 30.8388 106.698 30.31 109.583 30.31C112.467 30.31 115.218 30.8123 117.666 31.8301C120.127 32.8347 122.243 34.2227 124.016 35.9807C125.802 37.7388 127.191 39.8405 128.21 42.2991C129.216 44.7577 129.732 47.4278 129.732 50.3095V54.0635H98.7473C99.4221 56.6146 100.732 58.6238 102.69 60.0911C104.635 61.5583 107.056 62.2985 109.953 62.2985C112.268 62.2985 114.213 61.8359 115.801 60.8974C117.388 59.9589 118.658 58.6899 119.624 57.1037L127.787 61.8623C125.816 64.5985 123.408 66.7928 120.563 68.4319C117.719 70.0709 114.134 70.8905 109.807 70.8905V70.8773ZM109.596 38.7698C107.042 38.7698 104.846 39.4439 103.021 40.7922C101.195 42.1405 99.8719 43.9646 99.0516 46.2778H119.849C119.174 43.8192 117.944 41.9554 116.171 40.6865C114.385 39.4175 112.202 38.7698 109.596 38.7698Z" fill="#202339"/>
<path d="M132.88 31.1029H142.697V37.0908C143.663 34.7776 145.065 33.0856 146.917 32.0017C148.769 30.9178 150.952 30.3759 153.453 30.3759C154.749 30.3759 155.966 30.5213 157.104 30.8121C158.229 31.1029 159.208 31.4598 160.028 31.896L156.416 41.704C155.887 41.3207 155.159 40.9902 154.246 40.7259C153.334 40.4615 152.315 40.3293 151.217 40.3293C148.663 40.3293 146.613 41.0431 145.078 42.4575C143.53 43.8718 142.763 46.2247 142.763 49.4896V70.0575H132.867V31.1029H132.88Z" fill="#202339"/>
<path d="M161.086 0H171.048V56.8655H161.086V0Z" fill="#38B778"/>
<path d="M192.798 56.2175L202.403 31.1026H212.802L195.973 72.1589C194.968 74.6572 193.923 76.7589 192.864 78.4773C191.806 80.1825 190.628 81.5572 189.319 82.5882C188.022 83.6193 186.58 84.3727 184.979 84.8221C183.392 85.2848 181.566 85.5095 179.489 85.5095C177.412 85.5095 175.414 85.1658 173.456 84.5049C171.511 83.8308 169.805 82.9583 168.363 81.9009L174.144 73.8244C174.819 74.5515 175.586 75.1198 176.459 75.5561C177.332 75.9923 178.311 76.2037 179.423 76.2037C181.209 76.2037 182.69 75.7411 183.868 74.829C185.045 73.917 186.117 72.3043 187.083 69.9911L187.731 68.4049L192.785 56.2043L192.798 56.2175Z" fill="#202339"/>
<path d="M187.744 68.4181L172.067 31.1026H182.69L192.798 56.2175" fill="#38B778"/>
<path d="M202.218 85.4568C205.87 85.4568 208.833 82.4977 208.833 78.8476C208.833 75.1974 205.87 72.2384 202.218 72.2384C198.565 72.2384 195.603 75.1974 195.603 78.8476C195.603 82.4977 198.565 85.4568 202.218 85.4568Z" fill="#38B778"/>
<path d="M77.2097 100.456C76.6672 99.9246 76.0275 99.5036 75.3111 99.1979C73.873 98.5864 72.1074 98.5814 70.654 99.1979C69.9324 99.5036 69.2927 99.9296 68.7554 100.456C68.2129 100.987 67.783 101.614 67.4708 102.315C67.1586 103.022 67 103.794 67 104.601C67 105.408 67.1535 106.18 67.4555 106.886C67.7574 107.593 68.1822 108.22 68.7093 108.746C69.2415 109.277 69.8761 109.703 70.6028 110.009C71.3295 110.315 72.1279 110.47 72.9774 110.47C73.8269 110.47 74.5741 110.31 75.3008 109.999C76.0224 109.688 76.657 109.262 77.1995 108.731C77.7419 108.199 78.1718 107.578 78.484 106.871C78.7962 106.165 78.9548 105.398 78.9548 104.596C78.9548 103.794 78.7962 103.017 78.4891 102.31C78.1821 101.604 77.7522 100.977 77.2097 100.451V100.456ZM77.1688 104.606C77.1688 105.177 77.0613 105.724 76.8464 106.225C76.6314 106.726 76.3295 107.172 75.9559 107.548C75.5823 107.924 75.1371 108.22 74.6202 108.435C73.5915 108.871 72.3121 108.861 71.3091 108.435C70.8024 108.22 70.3572 107.919 69.9836 107.548C69.61 107.172 69.3132 106.726 69.0931 106.225C68.8782 105.724 68.7707 105.177 68.7707 104.606C68.7707 104.034 68.8782 103.488 69.0931 102.987C69.3081 102.486 69.61 102.04 69.9887 101.664C70.3674 101.288 70.8178 100.987 71.3244 100.767C71.8311 100.546 72.3838 100.436 72.9672 100.436C73.5506 100.436 74.1033 100.546 74.6151 100.767C75.1268 100.987 75.5772 101.288 75.9508 101.664C76.3244 102.04 76.6212 102.486 76.8412 102.987C77.0562 103.488 77.1636 104.034 77.1636 104.606H77.1688Z" fill="#202339"/>
<path d="M89.6507 107.603L87.3836 101.734H85.8636L83.5402 107.643L81.6211 101.734H79.7685L82.6446 110.325H84.226L86.5904 104.355L88.9598 110.325H90.4491L93.4838 101.734H91.6415L89.6507 107.603Z" fill="#202339"/>
<path d="M101.59 102.611C101.258 102.27 100.853 102.01 100.388 101.829C99.9269 101.654 99.4049 101.564 98.8318 101.564C98.146 101.564 97.5319 101.714 96.9996 102.015C96.7028 102.18 96.4418 102.381 96.2115 102.606V101.729H94.4766V110.325H96.2422V105.578C96.2422 105.222 96.3036 104.892 96.4214 104.601C96.5391 104.31 96.7079 104.055 96.9178 103.844C97.1276 103.634 97.3784 103.468 97.6598 103.353C97.9413 103.238 98.2535 103.177 98.5861 103.177C99.3231 103.177 99.8655 103.383 100.249 103.799C100.633 104.22 100.828 104.796 100.828 105.518V110.325H102.609V105.458C102.609 104.861 102.522 104.32 102.348 103.844C102.174 103.363 101.918 102.947 101.59 102.611Z" fill="#202339"/>
<path d="M115.275 98.8871L112.209 103.889L109.185 98.8871H107.148L111.309 105.648V110.325H113.09V105.633L117.301 98.8871H115.275Z" fill="#202339"/>
<path d="M123.744 102.857C123.335 102.456 122.849 102.135 122.291 101.909C121.181 101.458 119.819 101.458 118.719 101.909C118.171 102.135 117.685 102.456 117.276 102.857C116.866 103.258 116.539 103.734 116.309 104.28C116.078 104.821 115.961 105.413 115.961 106.034C115.961 106.656 116.078 107.257 116.309 107.793C116.539 108.33 116.861 108.806 117.266 109.207C117.67 109.608 118.151 109.929 118.704 110.154C119.256 110.38 119.86 110.495 120.5 110.495C121.14 110.495 121.749 110.375 122.301 110.144C122.849 109.914 123.335 109.593 123.744 109.192C124.154 108.791 124.476 108.315 124.712 107.778C124.942 107.242 125.06 106.651 125.06 106.034C125.06 105.418 124.942 104.826 124.712 104.28C124.481 103.739 124.154 103.258 123.744 102.857ZM123.274 106.029C123.274 106.425 123.202 106.796 123.064 107.137C122.926 107.473 122.726 107.773 122.48 108.024C122.235 108.275 121.938 108.47 121.6 108.61C120.925 108.891 120.075 108.891 119.405 108.61C119.072 108.47 118.775 108.275 118.53 108.029C118.284 107.783 118.089 107.488 117.951 107.152C117.813 106.816 117.741 106.435 117.741 106.034C117.741 105.633 117.813 105.262 117.951 104.922C118.089 104.581 118.289 104.28 118.535 104.029C118.78 103.779 119.072 103.583 119.41 103.443C119.742 103.303 120.111 103.233 120.5 103.233C120.889 103.233 121.257 103.303 121.59 103.443C121.923 103.583 122.219 103.784 122.47 104.034C122.721 104.285 122.921 104.586 123.059 104.927C123.197 105.267 123.269 105.643 123.269 106.039L123.274 106.029Z" fill="#202339"/>
<path d="M132.578 106.465C132.578 106.821 132.521 107.152 132.404 107.448C132.291 107.738 132.127 107.994 131.922 108.205C131.718 108.415 131.477 108.58 131.201 108.696C130.93 108.811 130.623 108.871 130.295 108.871C129.573 108.871 129.046 108.671 128.683 108.255C128.32 107.834 128.13 107.252 128.13 106.53V101.739H126.349V106.591C126.349 107.799 126.672 108.761 127.301 109.447C127.941 110.144 128.872 110.495 130.08 110.495C130.756 110.495 131.36 110.345 131.871 110.049C132.148 109.889 132.393 109.698 132.608 109.483V110.33H134.343V101.734H132.578V106.465Z" fill="#202339"/>
<path d="M139.875 101.614C139.23 101.614 138.683 101.769 138.238 102.08C138.064 102.2 137.91 102.34 137.777 102.501V101.734H136.058V110.33H137.808V105.643C137.808 104.811 137.977 104.21 138.309 103.854C138.637 103.498 139.103 103.328 139.727 103.328C139.926 103.328 140.1 103.348 140.249 103.388C140.387 103.423 140.5 103.473 140.587 103.538L140.843 103.719L141.579 102.065L141.39 101.949C141.022 101.724 140.515 101.614 139.875 101.614Z" fill="#202339"/>
<path d="M148.376 98.8871H146.595V110.33H148.376V98.8871Z" fill="#202339"/>
<path d="M157.424 102.611C157.096 102.27 156.692 102.01 156.221 101.829C155.76 101.654 155.238 101.564 154.665 101.564C153.98 101.564 153.365 101.714 152.833 102.015C152.536 102.18 152.275 102.381 152.045 102.606V101.729H150.31V110.325H152.076V105.578C152.076 105.222 152.137 104.892 152.255 104.601C152.373 104.31 152.541 104.055 152.751 103.844C152.961 103.634 153.212 103.468 153.493 103.353C153.775 103.238 154.087 103.177 154.42 103.177C155.157 103.177 155.699 103.383 156.083 103.799C156.467 104.22 156.661 104.796 156.661 105.518V110.325H158.442V105.458C158.442 104.861 158.355 104.32 158.181 103.844C158.007 103.363 157.751 102.947 157.424 102.606V102.611Z" fill="#202339"/>
<path d="M167.864 102.817C167.459 102.421 166.978 102.11 166.441 101.894C165.32 101.443 163.995 101.443 162.838 102.015C162.47 102.195 162.147 102.426 161.871 102.696V98H160.121V110.325H161.856V109.357C162.132 109.633 162.459 109.863 162.833 110.044C163.437 110.34 164.066 110.49 164.706 110.49C165.346 110.49 165.904 110.38 166.446 110.164C166.994 109.949 167.47 109.638 167.869 109.237C168.268 108.841 168.585 108.365 168.821 107.824C169.051 107.282 169.169 106.676 169.169 106.024C169.169 105.373 169.051 104.771 168.821 104.225C168.59 103.684 168.268 103.207 167.864 102.812V102.817ZM167.372 106.014C167.372 106.42 167.301 106.801 167.163 107.142C167.024 107.483 166.825 107.783 166.574 108.034C166.323 108.285 166.026 108.48 165.694 108.626C165.018 108.911 164.153 108.906 163.478 108.615C163.135 108.47 162.833 108.27 162.582 108.019C162.332 107.768 162.132 107.468 161.984 107.127C161.84 106.786 161.769 106.41 161.769 106.014C161.769 105.618 161.84 105.262 161.984 104.917C162.127 104.576 162.332 104.275 162.582 104.024C162.833 103.774 163.135 103.568 163.483 103.418C163.826 103.268 164.199 103.192 164.604 103.192C165.008 103.192 165.361 103.268 165.694 103.413C166.032 103.558 166.328 103.759 166.579 104.009C166.83 104.26 167.03 104.561 167.168 104.902C167.306 105.242 167.378 105.618 167.378 106.014H167.372Z" fill="#202339"/>
<path d="M178.002 102.857C177.592 102.456 177.106 102.135 176.548 101.909C175.438 101.458 174.077 101.458 172.976 101.909C172.429 102.135 171.942 102.456 171.533 102.857C171.124 103.258 170.796 103.739 170.566 104.28C170.336 104.821 170.218 105.413 170.218 106.034C170.218 106.656 170.336 107.257 170.566 107.793C170.796 108.33 171.119 108.806 171.523 109.207C171.927 109.608 172.413 109.929 172.961 110.154C173.514 110.38 174.117 110.495 174.757 110.495C175.397 110.495 176.006 110.375 176.559 110.144C177.106 109.914 177.592 109.593 178.002 109.192C178.411 108.791 178.734 108.315 178.969 107.778C179.199 107.242 179.317 106.651 179.317 106.034C179.317 105.418 179.199 104.826 178.969 104.28C178.739 103.739 178.411 103.258 178.002 102.857ZM177.536 106.029C177.536 106.425 177.464 106.796 177.326 107.132C177.183 107.473 176.988 107.768 176.743 108.019C176.497 108.27 176.2 108.465 175.863 108.605C175.187 108.886 174.338 108.886 173.667 108.605C173.334 108.465 173.038 108.27 172.792 108.024C172.546 107.778 172.352 107.483 172.214 107.147C172.076 106.811 172.004 106.43 172.004 106.029C172.004 105.628 172.076 105.257 172.214 104.917C172.352 104.576 172.551 104.275 172.797 104.024C173.043 103.774 173.334 103.578 173.672 103.438C174.005 103.298 174.373 103.228 174.762 103.228C175.151 103.228 175.52 103.298 175.852 103.438C176.185 103.578 176.482 103.779 176.733 104.029C176.983 104.28 177.183 104.581 177.321 104.922C177.459 105.267 177.531 105.638 177.531 106.034L177.536 106.029Z" fill="#202339"/>
<path d="M186.84 106.465C186.84 106.821 186.784 107.152 186.666 107.448C186.553 107.738 186.39 107.994 186.185 108.205C185.98 108.415 185.74 108.58 185.463 108.696C185.192 108.811 184.885 108.871 184.557 108.871C183.831 108.871 183.309 108.671 182.945 108.255C182.582 107.834 182.393 107.252 182.393 106.53V101.739H180.612V106.591C180.612 107.799 180.934 108.761 181.564 109.447C182.203 110.144 183.14 110.495 184.343 110.495C185.018 110.495 185.622 110.345 186.134 110.049C186.41 109.889 186.656 109.698 186.871 109.483V110.33H188.606V101.734H186.84V106.465Z" fill="#202339"/>
<path d="M197.423 102.611C197.096 102.27 196.691 102.01 196.221 101.829C195.76 101.654 195.238 101.564 194.665 101.564C193.979 101.564 193.365 101.714 192.833 102.015C192.536 102.18 192.275 102.381 192.045 102.606V101.729H190.31V110.325H192.075V105.578C192.075 105.222 192.137 104.892 192.254 104.601C192.372 104.31 192.541 104.055 192.751 103.844C192.961 103.634 193.211 103.468 193.493 103.353C193.774 103.238 194.087 103.177 194.419 103.177C195.156 103.177 195.699 103.383 196.082 103.799C196.466 104.22 196.661 104.796 196.661 105.518V110.325H198.442V105.458C198.442 104.861 198.355 104.32 198.181 103.844C198.007 103.363 197.751 102.947 197.423 102.606V102.611Z" fill="#202339"/>
<path d="M207.039 98V102.686C206.988 102.636 206.932 102.586 206.876 102.536C206.63 102.33 206.364 102.15 206.077 102.01C205.791 101.864 205.484 101.754 205.161 101.684C204.225 101.468 203.288 101.569 202.474 101.899C201.937 102.115 201.456 102.426 201.052 102.822C200.647 103.218 200.325 103.694 200.095 104.235C199.864 104.776 199.747 105.383 199.747 106.034C199.747 106.686 199.864 107.287 200.095 107.834C200.325 108.375 200.642 108.851 201.041 109.247C201.441 109.643 201.922 109.959 202.464 110.174C203.007 110.39 203.595 110.5 204.204 110.5C204.521 110.5 204.844 110.46 205.161 110.38C205.478 110.3 205.785 110.189 206.072 110.044C206.359 109.899 206.63 109.718 206.876 109.508C206.932 109.457 206.988 109.407 207.039 109.357V110.335H208.79V98H207.039ZM207.131 106.014C207.131 106.41 207.06 106.786 206.922 107.127C206.783 107.468 206.584 107.768 206.333 108.019C206.082 108.27 205.78 108.47 205.437 108.615C204.757 108.901 203.902 108.906 203.211 108.62C202.874 108.48 202.572 108.28 202.321 108.029C202.07 107.778 201.87 107.478 201.732 107.137C201.594 106.791 201.522 106.415 201.522 106.009C201.522 105.603 201.594 105.237 201.732 104.897C201.87 104.556 202.07 104.255 202.321 104.004C202.572 103.754 202.874 103.553 203.211 103.408C203.549 103.263 203.918 103.187 204.312 103.187C204.706 103.187 205.089 103.263 205.432 103.413C205.78 103.563 206.082 103.769 206.333 104.019C206.584 104.27 206.783 104.571 206.922 104.912C207.06 105.257 207.131 105.623 207.131 106.009V106.014Z" fill="#202339"/>
<path d="M211 96.6375H212.105V99.8206H212.792V96.6375H213.897V96H211V96.6375Z" fill="#202339"/>
<path d="M217.399 96L216.139 97.6522L214.919 96H214.301V99.8206H214.979V97.2122L216.13 98.7386L217.322 97.1673V99.8206H218V96H217.399Z" fill="#202339"/>
</g>
<defs>
<clipPath id="clip0_1_173">
<rect width="218" height="111" fill="white"/>
</clipPath>
</defs>
</svg>
