<svg width="180" height="44" fill="none" xmlns="http://www.w3.org/2000/svg"><g clip-path="url(#a)" fill="#000"><path d="M68.035 28.277c1.128 0 2.117-.282 2.968-.847a5.133 5.133 0 0 0 1.895-2.29h1.884c-.525 1.48-1.391 2.644-2.599 3.493-1.288.913-2.805 1.369-4.554 1.369-2.305 0-4.173-.779-5.602-2.337-1.352-1.494-2.028-3.382-2.027-5.663 0-2.281.676-4.17 2.027-5.663 1.43-1.559 3.298-2.338 5.602-2.337 1.749 0 3.266.456 4.554 1.369 1.205.849 2.071 2.013 2.599 3.492h-1.883a5.134 5.134 0 0 0-1.896-2.29c-.848-.564-1.838-.846-2.968-.846s-2.069.16-2.814.483a5.339 5.339 0 0 0-1.884 1.334c-1.033 1.148-1.549 2.635-1.549 4.46 0 1.825.517 3.312 1.55 4.46 1.081 1.21 2.647 1.814 4.697 1.813ZM84.008 14.185V28.11h8.606v1.694H82.22V14.185h1.788ZM113.475 29.813h-1.978l-1.93-4.531h-7.821l-1.93 4.53h-1.98l6.698-15.627h2.242l6.699 15.628Zm-4.6-6.159-3.219-7.625-3.219 7.625h6.438ZM122.034 29.834h-1.788V14.213h1.788v15.621ZM137.316 14.186a7.166 7.166 0 0 1 2.718.53 6.803 6.803 0 0 1 2.313 1.546c1.478 1.495 2.217 3.406 2.217 5.734 0 2.329-.739 4.24-2.217 5.734a6.805 6.805 0 0 1-2.313 1.546 7.17 7.17 0 0 1-2.718.531h-6.652V14.186h6.652Zm-.071 13.946c1.653 0 2.996-.606 4.029-1.818 1.002-1.163 1.503-2.602 1.503-4.318 0-1.715-.501-3.154-1.503-4.318-1.033-1.212-2.376-1.818-4.029-1.818h-4.792v12.272h4.792ZM152.194 27.404v2.41h-2.311v-2.41h2.311ZM175.676 29.813h-1.979l-1.931-4.531h-7.818l-1.932 4.53h-1.978l6.698-15.627h2.241l6.699 15.628Zm-4.602-6.159-3.218-7.625-3.218 7.625h6.436ZM179.467 29.752h-1.788V14.131h1.788v15.621Z"/></g><rect width="44" height="44" rx="8" fill="#A4A4F7"/><path d="M22.015 8.186a13.787 13.787 0 0 0-9.697 3.967h19.394a13.787 13.787 0 0 0-9.697-3.967ZM22.015 35.813c3.777 0 7.201-1.514 9.697-3.968H12.317a13.79 13.79 0 0 0 9.697 3.968ZM8.187 22a13.76 13.76 0 0 0 3.971 9.687V12.312A13.76 13.76 0 0 0 8.187 22ZM35.814 21.145a13.757 13.757 0 0 0-3.944-8.833v8.833h3.944ZM31.87 22.854v8.833a13.759 13.759 0 0 0 3.944-8.833H31.87Z" fill="#fff"/><defs><clipPath id="a"><path fill="#fff" d="M60 14h119.467v16H60z"/></clipPath></defs></svg>