<svg xmlns="http://www.w3.org/2000/svg" width="130" height="33" fill="none"><path fill="#3DC778" d="M7.98.316C3.572.316 0 3.861 0 8.236c0 4.377 3.572 7.921 7.98 7.921s7.98-3.544 7.98-7.92S12.388.317 7.98.317"/><path fill="#297DFF" d="M31.261.316h-13.24c-.75 0-1.36.604-1.36 1.349v13.138c0 .745.61 1.349 1.36 1.349h4.915c.75 0 1.36-.604 1.36-1.349v-1.748c0-.189.156-.345.345-.345s.345.156.345.345v1.748c0 .745.61 1.349 1.36 1.349h4.915c.75 0 1.36-.604 1.36-1.349V1.665c0-.745-.61-1.349-1.36-1.349"/><path fill="#FFB5B5" d="M14.606 16.843H1.36c-.75 0-1.36.604-1.36 1.348V31.33c0 .744.61 1.348 1.36 1.348H14.6c.75 0 1.36-.604 1.36-1.348v-4.878c0-.745-.61-1.349-1.36-1.349h-1.764a.344.344 0 0 1-.345-.345c0-.194.156-.345.345-.345H14.6c.75 0 1.36-.605 1.36-1.35v-4.877c0-.744-.61-1.349-1.36-1.349"/><path fill="#FF6359" d="M31.261 16.843h-4.915c-.75 0-1.36.604-1.36 1.348v1.749a.35.35 0 0 1-.345.345.35.35 0 0 1-.345-.345V18.19c0-.744-.61-1.348-1.36-1.348H18.02c-.75 0-1.36.604-1.36 1.348v4.878c0 .745.61 1.349 1.36 1.349h1.764c.189 0 .345.156.345.345a.35.35 0 0 1-.345.345H18.02c-.75 0-1.36.605-1.36 1.35v4.877c0 .745.61 1.349 1.36 1.349h13.24c.75 0 1.36-.604 1.36-1.35V18.198c0-.745-.61-1.349-1.36-1.349"/><path fill="#231932" d="M48.42 13.282h-5.208V4.195h-2.908v11.293h8.115zM55.45 11.528c0 1.505-.783 2.444-2.046 2.444-.7 0-1.176-.404-1.176-1.009s.351-.966 1.241-1.181l.486-.12c.561-.14.922-.237 1.343-.539l.157-.108v.518zm2.557 1.673V9.764c0-1.959-1.387-2.995-4.009-2.995S49.806 7.924 49.66 9.72h2.714c.043-.555.378-1.176 1.656-1.176.982 0 1.42.286 1.42.923 0 .512-.287.744-1.09.89l-1.986.346c-2.406.399-2.897 1.327-2.897 2.6 0 1.462 1.095 2.406 2.794 2.406s2.741-.674 3.184-1.953l.189-.545v.578c0 .631.043 1.187.124 1.7h2.385c-.076-.61-.146-1.36-.146-2.288M80.34 12.132c0-1.775.636-2.53 2.131-2.53h.966V7.05h-.631c-1.274 0-1.997.415-2.364 1.656l-.188.648v-2.31H77.54v8.444h2.8zM88.76 13.411c-1.515 0-2.206-.378-2.206-2.142s.69-2.142 2.207-2.142 2.32.378 2.32 2.142-.815 2.142-2.32 2.142m0-6.453c-3.037 0-4.817 1.435-4.817 4.311 0 1.381.442 4.311 4.818 4.311 3.027 0 4.899-1.435 4.899-4.31 0-2.877-1.878-4.312-4.9-4.312M109.033 7.044h-2.584l-1.457 6.642-2.018-6.642h-3.005L97.95 13.72l-1.49-6.675H93.63l2.077 8.444h4.03l1.603-5.956 1.608 5.956h3.993zM113.532 4.195h-2.8v2.85h-1.057v2.033h1.057v3.103c0 2.347.987 3.307 3.405 3.307h1.521V13.33h-2.126V9.078h2.126V7.044h-2.126zM122.949 6.77c-1.409 0-2.434.614-3.049 1.828l-.183.362V4.195h-2.8v11.293h2.8v-3.96c0-2.104 1.084-2.547 1.996-2.547 1.068 0 1.613.626 1.613 1.856v4.651h2.801v-5.152c0-2.331-1.101-3.567-3.178-3.567M47.837 26.171l-2.422-8.476H40.31v11.293h2.871V18.844l2.968 10.144h3.285l2.952-10.095v10.095h2.87V17.695h-4.98zM62.799 25.028c0 1.51-.783 2.444-2.045 2.444-.701 0-1.176-.405-1.176-1.015s.35-.965 1.24-1.181l.486-.119c.561-.14.923-.237 1.344-.54l.156-.107v.518zm2.557-1.765c0-1.958-1.386-2.994-4.009-2.994-2.622 0-4.192 1.154-4.338 2.951h2.714c.044-.556.378-1.176 1.657-1.176.982 0 1.419.286 1.419.922 0 .513-.286.745-1.09.89l-1.986.346c-2.406.4-2.897 1.327-2.897 2.6 0 1.463 1.095 2.407 2.795 2.407s2.74-.674 3.183-1.953l.189-.545v.577c0 .632.043 1.187.124 1.7h2.385c-.076-.61-.146-1.36-.146-2.288zM71.457 27.143c-1.424 0-2.028-.713-2.028-2.374s.642-2.374 2.082-2.374c1.123 0 1.743.54 1.846 1.607h2.751c-.118-2.746-2.47-3.728-4.65-3.728-4.484 0-4.83 3.442-4.83 4.5s.351 4.5 4.883 4.5c3.286 0 4.549-1.916 4.635-3.745H73.39c-.13 1.063-.793 1.624-1.932 1.624M83.572 20.269c-1.409 0-2.434.615-3.049 1.829l-.183.361v-4.764h-2.8v11.293h2.8v-3.96c0-2.105 1.084-2.547 1.996-2.547 1.069 0 1.613.626 1.613 1.856v4.65h2.8v-5.152c0-2.33-1.1-3.566-3.177-3.566M91.169 20.544h-2.8v8.444h2.8zM91.238 17.695h-2.924v1.953h2.924zM99.012 20.269c-1.408 0-2.433.615-3.048 1.829l-.183.361v-1.915h-2.8v8.444h2.8v-3.96c0-2.105 1.084-2.547 1.996-2.547 1.068 0 1.613.626 1.613 1.856v4.65h2.8v-5.152c0-2.33-1.1-3.566-3.178-3.566M106.103 23.895l.016-.108c.189-1.23.793-1.76 2.013-1.76s1.775.578 1.888 1.765l.011.108h-3.928zm1.975-3.626c-2.946 0-4.705 1.672-4.705 4.478s1.759 4.516 4.705 4.516c3.232 0 4.251-1.435 4.527-2.692h-2.731c-.302.577-.911.895-1.732.895-1.241 0-1.899-.615-2.061-1.931l-.016-.108h6.556c.027-.173.038-.389.038-.631 0-1.695-.594-4.533-4.587-4.533M73.152 13.443l.19-.507v2.552h2.362V9.596H70.11v2.089h2.709l-.016.107c-.173 1.36-1.905 1.813-2.887 1.813-2.077 0-3.092-1.23-3.092-3.755s1.074-3.593 3.28-3.62c1.237-.017 1.997.188 2.267.814h3.156c-.113-1.969-2.481-2.973-5.438-2.973-5.66 0-6.275 3.988-6.275 5.779 0 2.86 1.408 5.914 5.368 5.914 2.061 0 3.394-.783 3.966-2.32M129.256 2.2h-.567a.554.554 0 0 1-.556-.551v-.561a.12.12 0 0 0-.124-.124.12.12 0 0 0-.124.124v.56c0 .303-.248.551-.555.551h-.567a.12.12 0 0 0-.124.124c0 .07.054.124.124.124h.567c.307 0 .555.248.555.55v.562c0 .07.054.124.124.124a.12.12 0 0 0 .124-.124v-.561c0-.303.249-.55.556-.55h.567c.07 0 .124-.055.124-.125a.12.12 0 0 0-.124-.124"/><path fill="#231932" d="M129.795 3.338c0 .415-.34.75-.755.75h-2.045a.754.754 0 0 1-.761-.75v-2.03c0-.415.34-.754.761-.754h2.045c.415 0 .755.34.755.755zm-.761-2.99h-2.045a.964.964 0 0 0-.966.96v2.03c0 .528.432.96.966.96h2.045a.964.964 0 0 0 .966-.96v-2.03a.964.964 0 0 0-.966-.96"/></svg>