<svg height="31" viewBox="0 0 31 31" width="31" xmlns="http://www.w3.org/2000/svg" xmlns:xlink="http://www.w3.org/1999/xlink"><linearGradient id="a" x1="0" x2="0" y1="0" y2="1"><stop offset="0" stop-color="#40ffa9"/><stop offset="1" stop-color="#00ba60"/></linearGradient><g fill="url(#a)"><path d="m23.8008 30.9846c-1.8695-.0004-3.7078-.7301-5.0806-2.105l-16.61686-16.6149c-2.0528294-2.0544-2.668676-5.14617-1.556054-7.82863 1.113024-2.68528 3.731434-4.43607 6.638274-4.43607h16.61364c3.9679 0 7.1853 3.21581 7.1853 7.18371v16.61679c0 2.9057-1.7504 5.5257-4.4345 6.6383-.891.3678-1.8227.5458-2.7492.5458z" opacity=".35"/><path d="m7.18776 30.9846c-1.83974 0-3.67777-.7016-5.08084-2.103-2.804515-2.8066-2.806127-7.357 0-10.1615l16.61528-16.61526c2.8065-2.806528 7.3547-2.804879 10.1613-.00157 2.8045 2.80613 2.8065 7.35656 0 10.16143l-16.6169 16.6149c-1.403 1.4035-3.23951 2.105-5.07884 2.105z"/></g></svg>