<svg xmlns="http://www.w3.org/2000/svg" width="200" height="30" viewBox="0 0 200 30"><text xml:space="preserve" x="31.611" y="24" fill="#343f52" font-family="Helvetica" font-size="25" font-weight="700">TPSCheck.uk</text><path fill="#4079e0" d="M21.925 26.988c-.237.559-.783 1.012-1.215 1.012h-5.26c-.431 0-.59-.457-.353-1.012l5.965-13.976c.237-.559.783-1.012 1.214-1.012h5.262c.431 0 .59.458.353 1.012z"/><path fill="#4079e0" d="M14.399 20.506c-.22-.28-.723-.506-1.12-.506H8.427c-.397 0-.544.229-.325.506l5.5 6.988c.219.28.722.506 1.12.506h4.851c.397 0 .544-.229.325-.506z"/><path fill="#605eba" d="M21.547 2.04c.25-.572.822-1.04 1.274-1.04h5.693c.452 0 .62.468.37 1.04l-6.432 14.832c-.25.572-.822 1.04-1.274 1.04h-5.693c-.452 0-.62-.468-.37-1.04z"/><path fill="#605eba" d="M14.08 17.425c.231.268.763.487 1.183.487h5.286c.42 0 .575-.22.344-.487l-5.974-6.938c-.231-.268-.763-.487-1.183-.487H8.45c-.42 0-.575.219-.343.487z"/></svg>