<svg xmlns="http://www.w3.org/2000/svg" width="145mm" height="32mm" viewBox="0 0 145 32"><g transform="translate(.059 -26.757)"><g fill="#fc384c"><path d="M34.093 40.844q0-.3704-.3175-.635-.2999-.2646-.7232-.2646-.8467 0-1.3935.9702-.5468.9525-.5468 2.1696 0 .9348.3528 1.6933.3528.7408 1.023 1.1818.6704.441 1.5523.441.6526 0 1.2524-.247.5997-.2646.9701-.5644.3704-.3175.7585-.5645.4057-.2646.7055-.2646.3881 0 .6703.3175.2822.2999.2822.635 0 .3705-.2293.8643-.2116.494-.6879 1.0583-.4762.5469-1.1112 1.0231-.635.4587-1.5875.7762-.9348.2998-1.9756.2998-1.3758 0-2.5576-.4057-1.1642-.4233-2.0285-1.1818-.8643-.7761-1.3582-1.9403-.4939-1.1642-.4939-2.6106 0-2.8575 1.711-4.5156 1.711-1.658 4.4803-1.658 1.4111 0 2.6106.4762 1.1994.4762 1.905 1.3229t.7056 1.852q0 1.1643-.7761 2.1168-.7761.9348-2.0108.9348-.7056 0-1.27-.388-.5645-.3881-.5645-1.1112 0-.3352.3175-.9349.3352-.5997.3352-.8467zM44.169 47.723q0 1.0583-.441 1.4817-.441.4057-1.5699.4057-1.0407 0-1.411-.4763-.3705-.4938-.3705-1.605v-4.3393q0-.5997.2117-1.0407.2117-.4586.6173-.7055.4057-.247.9525-.247 1.3406 0 1.764.7762 1.023-.7762 1.9755-.7762 1.8521 0 1.8521 1.764 0 .7055-.4057 1.1464-.4057.441-1.0583.441-.388 0-.635-.1587-.2293-.1588-.441-.3175-.194-.1588-.4585-.1588-.3881 0-.5821.2646zM51.698 49.716q-1.3935 0-2.3107-1.1289-.9172-1.1465-.9172-3.1221 0-2.0108.8996-3.1926.9172-1.1994 2.3283-1.1994 1.4288 0 2.6458 1.0054.4762-.882 1.5346-.882.9525 0 1.4817.4234.5291.4057.5291 1.5169v4.586q0 1.0584-.441 1.4818-.441.4057-1.5521.4057-1.1642 0-1.5346-.6527-1.129.7585-2.6635.7585zm2.3989-5.9443q-.2999-.5115-.7761-.5115-.4586 0-.7408.6703-.2823.6702-.2823 1.5345 0 .8114.2646 1.4464.2646.635.7408.635.494 0 .7938-.4762zM64.699 40.332q-.3704.2999-.3704 1.3935 1.1818 0 1.6404.2293.4586.2117.4586.9525 0 .5997-.4939.7938-.4939.1763-1.6051.1763v3.0868q0 1.4993-.4762 2.0814-.4587.5645-1.464.5645-.9878 0-1.4464-.5468-.4587-.5645-.4587-1.9756l.0177-3.2103q-1.3053-.0177-1.3053-1.0231 0-1.0407 1.3229-1.1112.0176-2.2754.6526-3.228.6527-.97 2.4871-.97 1.464 0 2.2754.5997.829.5997.829 1.217 0 .2646-.2293.4763-.2116.194-.6173.194-.8643 0-1.2171.2999zM68.716 45.835v-2.0814q-.441-.0176-.7056-.1411-.2645-.1411-.388-.3528-.1059-.2117-.1059-.5292 0-1.0054 1.2172-1.0936v-1.6404q0-.6702.97-1.1994.9702-.5468 1.9227-.5468.582 0 .7585.3352t.1764 1.0054l.0176 2.0285h.4762q.9702 0 1.323.2646.3704.2469.3704.9172 0 .2822-.1059.4762-.1058.194-.3528.2999-.2292.1058-.5644.1587-.3351.0353-.829.0353h-.3175v1.9403q0 .2822.0176.4763.0353.1764.0882.2822.053.1058.1411.141.1058.0354.247.0354.2116 0 .3527-.1411.1411-.1588.2117-.3352.0882-.194.2117-.3351.141-.1588.3175-.1588.4057 0 .6173.194.2293.194.2293.4763 0 .4763-.194 1.0231-.1764.5468-.5292 1.0583t-.9877.8467q-.6174.3351-1.3935.3351-1.7463 0-2.4694-.882t-.7232-2.8927z" /></g><g fill="#4f4f4f"><path d="m87.465 43.154-2.2049 4.5156q-.2822.5644-.5997.8114-.3175.2293-.7585.2293-.5644 0-.9525-.388-.388-.4058-1.0054-1.4465l-2.046-3.7218v4.9918q0 .7585-.3529 1.1112-.3351.3528-1.023.3528-.7762 0-1.129-.3351-.3527-.3528-.3527-1.3582v-7.6906q0-1.3582.6173-2.0461.6174-.688 2.0814-.688.5468 0 .9525.194.4057.1765.5997.4234.2117.2293.4057.582l2.3636 5.1683 2.5047-5.08q.6527-1.27 2.346-1.27.7938 0 1.3582.2822.5645.2646.882.882.3351.5997.3351 1.5168v7.673q-.0176 1.7462-2.2049 1.7462-.7937 0-1.3053-.4233-.4939-.441-.5115-1.411zM102.46 44.636q0 3.0163-.1764 4.2157-.1411 1.076-.441 1.8521-.2998.7937-.8466 1.3935-.5468.6174-1.3935.9172-.8467.2999-2.0108.2999-.9349 0-1.7463-.2822-.7938-.2646-1.27-.6703-.4586-.388-.7232-.7761-.2646-.388-.2646-.6703t.1764-.5292q.194-.2293.5115-.2293.2293 0 .5292.1411.3175.1411.5997.3175t.6703.3175.7584.1411q.9525 0 1.3406-.4762.4057-.4763.4057-1.3582-.2998.1235-.582.2117-.2823.0882-.5468.141-.2646.053-.5116.0706-.2293.0177-.4586.0177-1.0407 0-1.7815-.5821t-1.076-1.4288q-.3175-.8643-.3175-1.8521 0-.9878.0177-1.6757.0352-.688.1234-1.2171.0882-.5468.194-.8643.1235-.3175.3352-.5116.2117-.2116.4763-.2822.2645-.0705.635-.0705 1.1111 0 1.5521.388.4587.3705.4587 1.1818l.0176 2.84v.4233q0 .1234.0176.3175.0353.194.0706.2822.053.0882.1235.194.0882.0882.2116.1235.1411.0353.3352.0353.5291 0 .6526-.2823.1411-.2998.1411-1.076l.0177-2.8575q0-.5468.1764-.8819.194-.3351.635-.5115.441-.1764 1.1994-.1764.4586 0 .776.1587.3352.1411.5292.388.194.2294.2823.7057.1058.4586.141.9348.0354.4763.0354 1.2524zM110.8 41.708q0-.6526-.1235-1.0231-.1235-.388-.441-.582-.2998-.1941-.6702-.247-.3528-.0706-.9878-.0706v3.8806q.4939 0 .8643-.0882.388-.0882.7056-.2998.3175-.2117.4762-.5998.1764-.4056.1764-.97zm-2.2225 5.2564q0 1.4288-.5292 2.0461-.5291.5997-1.6228.5997t-1.605-.5468q-.5116-.5644-.5116-1.9756v-7.4436q0-1.076.582-1.5875.5822-.5292 1.5347-.5292h3.1397q1.1465 0 2.1167.3175.9701.2999 1.6757.8644.7232.5468 1.1112 1.3935.4057.829.4057 1.852 0 1.2525-.7232 2.1873-.7232.9172-1.905 1.3758-1.1818.4586-2.6635.4586h-1.0054zM120.84 47.211q.4586 0 .7937-.0882.3528-.1058.6527-.3528.3175-.2646.5115-.6879.194-.4233.2999-1.076.1234-.6703.1234-1.5699 0-1.0054-.1763-1.6933-.1764-.7055-.5116-1.0583-.3351-.3704-.7408-.5115-.388-.1588-.9525-.1764zm.5292-9.6661q2.7517 0 4.4097 1.5875 1.6757 1.5875 1.6757 4.3744 0 .8996-.1764 1.7463-.1588.8467-.5468 1.6581-.388.7937-.9702 1.3935-.582.582-1.4817.9525-.8995.3528-2.0285.3528h-3.4749q-1.076 0-1.5522-.5468-.4586-.5468-.4586-1.9756V39.644q0-2.099 2.0108-2.099zM133.43 47.158q0 1.1994-.5292 1.8344-.5291.6174-1.5346.6174-.9525 0-1.4817-.5645-.5291-.582-.5291-1.9579v-7.4436q0-.5644.141-.9701.1588-.4233.441-.6703.2823-.247.635-.3528.3528-.1234.7938-.1234h5.7856q1.0231 0 1.517.3175.5115.3175.5115 1.1465 0 .776-.441 1.0936-.4233.2998-1.411.2998H133.43v2.0638h3.1044q.4762 0 .7937.0706.3351.0705.5292.247.2116.1587.2822.4056.0882.2293.0882.5997 0 .5998-.441.8643-.441.247-1.411.247H133.43z" /></g></g><path d="m13.647 3.4521-.0073 25.834a.682.682 27.286 0 0 1.0774.5557l8.2311-5.8592a2.6057 2.6057 117.64 0 0 1.0944-2.09l.1525-12.098a2.3034 2.3034 60.851 0 0-1.1175-2.0038L14.7816 2.81a.749.749 150.5 0 0-1.1346.642z" fill="#fc384c" /><path d="m9.966 5.5481-.081 22.702a.4086.4086 21.314 0 0 .7102.277l1.515-1.6576a2.7291 2.7291 111.23 0 0 .7145-1.8396l.0095-17.59a1.9657 1.9657 61.733 0 0-.8826-1.6415L10.853 5.073a.5719.5719 151.82 0 0-.887.4752z" fill="#fc384c" /><path d="m7.0303 7.1953-.0565 18.877a.4404.4404 29.194 0 0 .6724.3757l.8655-.5363a1.4248 1.4248 119.09 0 0 .6743-1.2118l-.0077-16.189a1.419 1.419 60.751 0 0-.677-1.2088l-.792-.486a.4458.4458 150.85 0 0-.679.3787z" fill="#ff2e00" /></svg>