<svg width="61" height="24" viewBox="0 0 61 24" fill="none" xmlns="http://www.w3.org/2000/svg">
<g clip-path="url(#clip0_1_5033)">
<path d="M9.81182 16.3154C9.4466 16.4216 9.07102 16.4707 8.69025 16.463C8.21624 16.4914 7.74999 16.3413 7.37959 16.0437C7.02991 15.671 6.85636 15.1637 6.90817 14.6539V9.2292H10.9308V5.96559H6.90817V1.67451L2.31567 2.94268V5.96559H-0.00777054V9.23179H2.31308V15.4122C2.28718 16.2921 2.50735 17.1617 2.94769 17.9227C3.35954 18.5567 3.96566 19.0407 4.67797 19.2995C5.53016 19.6049 6.43156 19.7524 7.33815 19.7317C8.04787 19.7317 8.7576 19.6412 9.44401 19.4626C10.0527 19.3176 10.6303 19.0614 11.1458 18.7068L10.6588 15.8729C10.4076 16.0696 10.1201 16.2197 9.81182 16.3154Z" fill="#1D1DFF"/>
<path d="M18.8983 16.5174C18.5253 16.5562 18.1549 16.4164 17.8985 16.1395C17.6654 15.759 17.5618 15.3139 17.6032 14.8713V0.243282H13.0108V15.464C13.0108 16.9755 13.3345 18.0625 13.9821 18.7302C14.6297 19.3953 15.6735 19.7292 17.1163 19.7292C17.6343 19.7266 18.1524 19.6645 18.6549 19.5403C19.1004 19.4445 19.5278 19.2815 19.9241 19.0537L20.2194 16.3025C19.9681 16.375 19.7505 16.4294 19.5718 16.4656C19.3516 16.5018 19.1237 16.5199 18.8983 16.5174Z" fill="#1D1DFF"/>
<path d="M22.8433 9.93058C23.395 10.3861 24.0995 10.6164 24.8144 10.5776C25.5345 10.6216 26.2442 10.3887 26.7985 9.93058C27.2881 9.46989 27.5497 8.82028 27.5134 8.14996C27.5523 7.47187 27.2907 6.80932 26.7985 6.34087C26.2416 5.88277 25.5345 5.64984 24.8144 5.69384C24.0995 5.65502 23.395 5.88536 22.8433 6.34087C22.3433 6.80414 22.0765 7.4667 22.1154 8.14996C22.0791 8.82287 22.3459 9.47507 22.8433 9.93058Z" fill="#1D1DFF"/>
<path d="M26.3789 15.275C25.8919 14.9541 25.3143 14.7937 24.7315 14.8169C24.2731 14.8144 23.8224 14.9153 23.4079 15.1146C23.0013 15.3061 22.6568 15.6037 22.4081 15.979C22.1413 16.4086 22.0092 16.9055 22.0299 17.4102C22.0118 17.8502 22.1284 18.2824 22.3667 18.6525C22.5765 18.9631 22.8666 19.2141 23.2033 19.3798C23.5089 19.5351 23.8457 19.6179 24.1902 19.6231C24.3818 19.6282 24.5709 19.6101 24.7574 19.5687C24.8843 19.5402 25.0035 19.4859 25.1071 19.4057L25.2418 19.4859C25.0631 19.8896 24.8222 20.2623 24.5269 20.591C24.1953 20.9637 23.8249 21.3001 23.4183 21.59C22.9883 21.898 22.5221 22.1542 22.0273 22.3457L23.8897 23.7226C24.5813 23.4146 25.2107 22.9798 25.7391 22.4389C26.309 21.8669 26.7752 21.2018 27.1171 20.4694C27.4642 19.7395 27.6429 18.9424 27.6429 18.1349C27.6507 17.5655 27.5445 17.0013 27.3321 16.4759C27.1404 15.9919 26.8089 15.5753 26.3789 15.275Z" fill="#1D1DFF"/>
<path d="M39.5865 8.27161C39.3352 7.73587 38.9933 7.24154 38.5737 6.8145C37.7837 6.05101 36.7139 5.64468 35.6156 5.69385C34.5692 5.67314 33.5383 5.9656 32.6576 6.52981C31.7743 7.12249 31.0801 7.95586 30.6605 8.93158C30.1502 10.1428 29.9068 11.4498 29.9456 12.7646C29.9119 14.0509 30.1476 15.3268 30.6346 16.5173C31.0335 17.4879 31.7096 18.3187 32.5799 18.9062C33.4528 19.4652 34.4733 19.7525 35.5094 19.7292C36.315 19.7421 37.1076 19.5506 37.8199 19.1727C38.4986 18.8026 39.0736 18.2695 39.4958 17.6199C39.6538 17.374 39.7911 17.1152 39.9076 16.8486L40.076 19.4548H44.1815V0.240696H39.589V8.27161H39.5865ZM39.2886 14.6824C39.1358 15.1741 38.8379 15.6115 38.439 15.9376C38.053 16.2223 37.5842 16.3698 37.105 16.3569C36.3772 16.3879 35.6778 16.0592 35.2375 15.4795C34.7868 14.8946 34.5614 13.9732 34.5614 12.7128C34.5614 11.455 34.7919 10.531 35.2504 9.94612C35.6959 9.36638 36.3979 9.04028 37.1283 9.06875C37.6075 9.05581 38.0789 9.20333 38.4649 9.48802C38.8586 9.80118 39.1487 10.223 39.3015 10.7018C39.5036 11.3256 39.5994 11.9778 39.5865 12.6326C39.602 13.3262 39.501 14.0198 39.2886 14.6824Z" fill="#1D1DFF"/>
<path d="M56.2494 5.96559L53.4131 16.2456L50.6313 5.96559H45.7954L50.6572 19.4574H56.1406L61.0024 5.96559H56.2494Z" fill="#1D1DFF"/>
</g>
<defs>
<clipPath id="clip0_1_5033">
<rect width="61" height="23.8883" fill="white"/>
</clipPath>
</defs>
</svg>
