<?xml version="1.0" encoding="UTF-8" standalone="no"?>
<svg
   width="400"
   height="124"
   viewBox="0 0 400 124"
   fill="none"
   version="1.1"
   id="svg37"
   sodipodi:docname="firmao_logo.svg"
   inkscape:version="1.1.1 (3bf5ae0d25, 2021-09-20)"
   xmlns:inkscape="http://www.inkscape.org/namespaces/inkscape"
   xmlns:sodipodi="http://sodipodi.sourceforge.net/DTD/sodipodi-0.dtd"
   xmlns="http://www.w3.org/2000/svg"
   xmlns:svg="http://www.w3.org/2000/svg">
  <sodipodi:namedview
     id="namedview39"
     pagecolor="#ffffff"
     bordercolor="#666666"
     borderopacity="1.0"
     inkscape:pageshadow="2"
     inkscape:pageopacity="0.0"
     inkscape:pagecheckerboard="0"
     showgrid="false"
     inkscape:zoom="2.244"
     inkscape:cx="217.02317"
     inkscape:cy="60.383244"
     inkscape:window-width="1920"
     inkscape:window-height="1009"
     inkscape:window-x="3832"
     inkscape:window-y="-8"
     inkscape:window-maximized="1"
     inkscape:current-layer="svg37" />
  <rect
     width="500"
     height="124"
     id="rect2"
     x="0"
     y="0" />
  <g
     clip-path="url(#clip0_64_411)"
     id="g30"
     transform="translate(-47.554367,2.8805704)">
    <path
       d="m 374.698,93.8959 -3.071,9.6221 h -0.506 l -2.93,-9.5589 h -2.992 l -2.929,9.5589 h -0.491 l -3.103,-9.6221 h -4.465 l 5.383,15.3831 h 3.848 l 3.229,-9.3533 3.278,9.3533 h 3.847 l 5.399,-15.3831 z"
       fill="#000000"
       id="path4" />
    <path
       d="m 395.771,98.3907 c -0.412,-0.9817 -1.013,-1.8517 -1.773,-2.6115 -0.776,-0.7759 -1.71,-1.3454 -2.723,-1.7569 -1.109,-0.4592 -2.296,-0.6489 -3.499,-0.6489 -1.204,0 -2.391,0.1897 -3.499,0.6489 -1.014,0.4115 -1.932,0.9971 -2.708,1.7569 -0.759,0.7598 -1.345,1.6298 -1.773,2.6115 -0.427,1.0126 -0.617,2.0893 -0.617,3.1813 0,1.092 0.206,2.184 0.633,3.197 0.412,0.981 0.998,1.851 1.757,2.595 0.776,0.76 1.694,1.346 2.708,1.757 1.108,0.459 2.28,0.649 3.467,0.649 1.188,0 2.407,-0.19 3.531,-0.633 0.95,-0.38 1.837,-0.918 2.58,-1.614 l 0.19,-0.19 c 0.713,-0.697 1.252,-1.52 1.663,-2.422 h -4.655 c 0,0 -0.047,0.064 -0.079,0.095 -0.396,0.428 -0.87,0.744 -1.409,0.966 -0.554,0.237 -1.155,0.332 -1.757,0.332 -0.602,0 -1.188,-0.111 -1.742,-0.332 -0.538,-0.222 -1.013,-0.554 -1.425,-0.982 -0.411,-0.427 -0.744,-0.949 -0.966,-1.503 -0.047,-0.111 -0.079,-0.206 -0.111,-0.317 l -0.126,-0.395 h 12.872 c 0.047,-0.396 0.079,-0.807 0.079,-1.219 0,-0.665 -0.063,-1.314 -0.222,-1.9625 -0.095,-0.4115 -0.237,-0.8229 -0.396,-1.2344 z m -12.175,1.4718 0.19,-0.4276 c 0.206,-0.4586 0.491,-0.8862 0.855,-1.25 0.412,-0.4115 0.887,-0.7443 1.409,-0.9655 0.555,-0.2373 1.14,-0.3322 1.742,-0.3322 0.602,0 1.187,0.1103 1.757,0.3322 0.539,0.2212 1.013,0.554 1.425,0.9655 0.349,0.3638 0.634,0.7914 0.839,1.25 l 0.191,0.4276 h -8.424 z"
       fill="#000000"
       id="path6" />
    <path
       d="m 406.38,93.3734 c -4.386,0 -7.964,3.5925 -7.964,7.9606 v 7.961 h 4.29 v -8.277 c 0,-2.0262 1.647,-3.6722 3.674,-3.6722 2.026,0 3.672,1.646 3.672,3.6722 v 8.277 h 4.291 v -7.961 c 0,-4.3835 -3.594,-7.9606 -7.963,-7.9606 z"
       fill="#000000"
       id="path8" />
    <path
       d="m 432.835,98.3907 c -0.411,-0.9817 -1.013,-1.8517 -1.773,-2.6115 -0.775,-0.7759 -1.71,-1.3454 -2.723,-1.7569 -1.109,-0.4592 -2.296,-0.6489 -3.499,-0.6489 -1.204,0 -2.391,0.1897 -3.499,0.6489 -1.013,0.4115 -1.932,0.9971 -2.708,1.7569 -0.759,0.7598 -1.345,1.6298 -1.773,2.6115 -0.427,1.0126 -0.617,2.0893 -0.617,3.1813 0,1.092 0.205,2.184 0.633,3.197 0.412,0.981 0.998,1.851 1.757,2.595 0.776,0.76 1.695,1.346 2.708,1.757 1.108,0.459 2.28,0.649 3.467,0.649 1.188,0 2.407,-0.19 3.531,-0.633 0.95,-0.38 1.837,-0.918 2.581,-1.614 l 0.19,-0.19 c 0.712,-0.697 1.267,-1.52 1.662,-2.422 h -4.655 c 0,0 -0.047,0.064 -0.079,0.095 -0.396,0.428 -0.87,0.744 -1.409,0.966 -0.554,0.237 -1.155,0.332 -1.757,0.332 -0.602,0 -1.188,-0.111 -1.742,-0.332 -0.538,-0.222 -1.013,-0.554 -1.425,-0.982 -0.411,-0.427 -0.744,-0.949 -0.966,-1.503 -0.047,-0.111 -0.079,-0.206 -0.111,-0.317 l -0.126,-0.395 h 12.872 c 0.047,-0.396 0.079,-0.807 0.079,-1.219 0,-0.665 -0.063,-1.314 -0.222,-1.9625 -0.095,-0.4115 -0.237,-0.8229 -0.396,-1.2344 z m -12.191,1.4718 0.19,-0.4276 c 0.206,-0.4586 0.491,-0.8862 0.856,-1.25 0.411,-0.4115 0.886,-0.7443 1.408,-0.9655 0.554,-0.2373 1.14,-0.3322 1.742,-0.3322 0.601,0 1.187,0.1103 1.757,0.3322 0.538,0.2212 1.014,0.554 1.425,0.9655 0.349,0.3638 0.634,0.7914 0.84,1.25 l 0.189,0.4276 h -8.423 z"
       fill="#000000"
       id="path10" />
    <path
       d="m 442.984,97.3458 v -3.4499 h -3.372 V 88.9102 H 435.4 v 14.8458 c 0,2.659 1.916,4.954 4.528,5.428 0.333,0.063 0.665,0.095 1.014,0.095 H 443 v -3.45 h -1.33 c -1.124,0 -2.043,-0.918 -2.043,-2.041 V 97.3303 H 443 Z"
       fill="#000000"
       id="path12" />
    <path
       d="m 322.641,109.77 c -1.06,0 -2.026,-0.158 -2.865,-0.459 -0.839,-0.301 -1.583,-0.744 -2.201,-1.298 -0.633,-0.553 -1.156,-1.187 -1.567,-1.883 l 0.364,-0.507 v 3.688 h -2.233 V 86.5677 h 2.344 v 11.0155 l -0.428,-0.5218 c 0.681,-1.0287 1.552,-1.884 2.628,-2.5483 1.077,-0.665 2.391,-0.9971 3.943,-0.9971 1.551,0 2.897,0.3638 4.053,1.108 1.171,0.7437 2.073,1.7247 2.723,2.9592 0.649,1.2344 0.966,2.5958 0.966,4.0678 0,1.124 -0.19,2.184 -0.554,3.166 -0.365,0.981 -0.903,1.851 -1.584,2.595 -0.681,0.744 -1.504,1.329 -2.438,1.741 -0.95,0.411 -1.995,0.617 -3.135,0.617 z m -0.427,-2.169 c 1.108,0 2.106,-0.237 2.961,-0.727 0.854,-0.491 1.535,-1.187 2.026,-2.074 0.491,-0.886 0.744,-1.946 0.744,-3.165 0,-1.218 -0.253,-2.2788 -0.744,-3.1811 -0.491,-0.9023 -1.172,-1.5828 -2.026,-2.0736 -0.855,-0.4902 -1.853,-0.7275 -2.961,-0.7275 -1.108,0 -2.106,0.2373 -2.977,0.7275 -0.871,0.4908 -1.535,1.1713 -2.026,2.0736 -0.491,0.9023 -0.728,1.9461 -0.728,3.1811 0,1.234 0.253,2.279 0.728,3.165 0.491,0.887 1.171,1.583 2.026,2.074 0.856,0.49 1.853,0.727 2.977,0.727 z"
       fill="#000000"
       id="path14" />
    <path
       d="m 334.658,116.385 c -0.458,0 -0.902,-0.047 -1.345,-0.174 -0.444,-0.11 -0.918,-0.316 -1.393,-0.601 l 0.586,-2.073 c 0.316,0.221 0.664,0.379 1.028,0.49 0.381,0.111 0.697,0.158 0.966,0.158 0.839,0 1.473,-0.205 1.916,-0.617 0.427,-0.411 0.792,-1.044 1.093,-1.883 l 0.696,-2.026 -6.095,-15.6999 h 2.612 l 4.828,12.8509 4.703,-12.8509 h 2.501 l -6.808,18.0109 c -0.458,1.187 -0.933,2.089 -1.456,2.722 -0.522,0.633 -1.092,1.076 -1.726,1.313 -0.633,0.238 -1.33,0.365 -2.106,0.365 z"
       fill="#000000"
       id="path16" />
    <path
       d="M 73.1161,74.2281 H 58 V 9.11633 h 49.361 V 21.2085 H 73.1161 Z M 71.9964,38.4165 H 103.349 V 50.5087 H 71.9964 Z"
       fill="#000000"
       id="path18" />
    <path
       d="M 116.691,74.2281 V 9.11633 h 15.117 V 74.2281 Z"
       fill="#000000"
       id="path20" />
    <path
       d="M 146.362,74.2281 V 9.11633 h 28.273 c 5.846,0 10.885,0.94627 15.116,2.83697 4.229,1.8923 7.495,4.6044 9.797,8.139 2.301,3.5343 3.453,7.7523 3.453,12.6502 0,4.8369 -1.152,9.0081 -3.453,12.5108 -2.302,3.5042 -5.568,6.1856 -9.797,8.0459 -4.231,1.8604 -9.27,2.7905 -15.116,2.7905 H 154.76 l 6.718,-6.6042 v 24.7426 z m 15.116,-23.0686 -6.719,-7.0692 h 19.035 c 4.666,0 8.149,-1.0071 10.452,-3.0231 2.3,-2.0144 3.452,-4.7903 3.452,-8.325 0,-3.5957 -1.152,-6.3862 -3.452,-8.3714 -2.302,-1.9838 -5.786,-2.9769 -10.452,-2.9769 h -19.035 l 6.719,-7.1623 z m 26.407,23.0686 -16.329,-23.6264 h 16.142 l 16.516,23.6264 z"
       fill="#000000"
       id="path22" />
    <path
       d="M 214.01,74.2281 V 9.11633 h 12.503 L 254.32,55.0665 h -6.625 L 275.034,9.11633 h 12.411 l 0.186,65.11177 h -14.183 l -0.093,-43.4389 h 2.612 l -21.834,36.5552 h -6.811 L 225.021,30.7892 h 3.172 v 43.4389 z"
       fill="#000000"
       id="path24" />
    <path
       d="M 301.626,74.2281 V 38.6027 c 0,-6.6346 1.26,-12.2314 3.779,-16.7892 2.519,-4.5578 6.019,-7.9994 10.498,-10.3248 4.478,-2.32545 9.704,-3.48815 15.675,-3.48815 5.972,0 11.212,1.1627 15.723,3.48815 4.51,2.3254 8.009,5.767 10.498,10.3248 2.487,4.5578 3.732,10.1546 3.732,16.7892 V 74.2281 H 346.414 V 37.2075 c 0,-5.581 -1.368,-9.7042 -4.105,-12.3709 -2.738,-2.6656 -6.345,-3.9998 -10.824,-3.9998 -4.479,0 -8.087,1.3345 -10.824,3.9998 -2.738,2.667 -4.106,6.7899 -4.106,12.3709 v 37.0206 z m 9.519,-15.6272 V 46.5088 h 40.682 v 12.0921 z"
       fill="#000000"
       id="path26" />
    <path
       d="m 407.252,75.3439 c -5.165,0 -9.937,-0.8365 -14.323,-2.5115 -4.386,-1.6741 -8.181,-4.0299 -11.384,-7.0691 -3.205,-3.0376 -5.692,-6.6042 -7.465,-10.6969 -1.772,-4.0927 -2.659,-8.5579 -2.659,-13.3944 0,-4.8365 0.887,-9.3017 2.659,-13.3944 1.773,-4.0927 4.276,-7.6577 7.512,-10.6969 3.233,-3.0376 7.028,-5.3946 11.383,-7.0692 C 397.329,8.83715 402.057,8 407.158,8 c 5.163,0 9.906,0.83684 14.23,2.5115 4.323,1.6742 8.086,4.0316 11.291,7.0692 3.203,3.0392 5.707,6.5896 7.511,10.6507 1.804,4.0624 2.706,8.543 2.706,13.4409 0,4.8369 -0.902,9.3178 -2.706,13.4409 -1.805,4.125 -4.308,7.69 -7.511,10.6969 -3.205,3.0085 -6.968,5.3485 -11.291,7.023 -4.324,1.6743 -9.037,2.5108 -14.136,2.5108 z m -0.094,-12.8358 c 2.923,0 5.614,-0.4958 8.072,-1.4883 2.456,-0.9913 4.619,-2.4188 6.485,-4.2791 1.866,-1.8603 3.313,-4.0608 4.339,-6.6041 1.026,-2.5419 1.54,-5.3631 1.54,-8.4646 0,-3.1015 -0.514,-5.9211 -1.54,-8.4645 -1.026,-2.5418 -2.458,-4.7438 -4.293,-6.6042 -1.835,-1.8603 -3.997,-3.2863 -6.484,-4.279 -2.489,-0.991 -5.196,-1.4883 -8.119,-1.4883 -2.924,0 -5.614,0.4973 -8.071,1.4883 -2.458,0.9927 -4.619,2.4187 -6.485,4.279 -1.866,1.8604 -3.313,4.0624 -4.339,6.6042 -1.026,2.5434 -1.54,5.3646 -1.54,8.4645 0,3.0392 0.514,5.8458 1.54,8.418 1.026,2.5738 2.457,4.7901 4.292,6.6504 1.834,1.8603 3.997,3.2878 6.486,4.2791 2.487,0.9925 5.193,1.4886 8.117,1.4886 z"
       fill="#1d4ed7"
       id="path28" />
  </g>
  <defs
     id="defs35">
    <clipPath
       id="clip0_64_411">
      <rect
         width="385"
         height="109"
         fill="#ffffff"
         transform="translate(58,8)"
         id="rect32"
         x="0"
         y="0" />
    </clipPath>
  </defs>
</svg>
