<svg xmlns="http://www.w3.org/2000/svg" xmlns:xlink="http://www.w3.org/1999/xlink" width="91.482" height="32.05" viewBox="0 0 91.482 32.05"><defs><linearGradient id="a" x1="0.928" y1="0.055" x2="0.183" y2="0.806" gradientUnits="objectBoundingBox"><stop offset="0.001" stop-color="#6cbefc"/><stop offset="0.139" stop-color="#5d9aeb"/><stop offset="0.338" stop-color="#4c6cd7"/><stop offset="0.53" stop-color="#3e49c7"/><stop offset="0.709" stop-color="#342fbb"/><stop offset="0.871" stop-color="#2e20b4"/><stop offset="1" stop-color="#2c1bb2"/></linearGradient><linearGradient id="b" x1="0.081" y1="0.058" x2="0.977" y2="1.003" gradientUnits="objectBoundingBox"><stop offset="0" stop-color="#6cbefc"/><stop offset="0.001" stop-color="#8490ff"/><stop offset="0.139" stop-color="#717fff"/><stop offset="0.338" stop-color="#3b4fff"/><stop offset="0.53" stop-color="#2137ff"/><stop offset="0.709" stop-color="#0019ff"/><stop offset="0.871" stop-color="#2137ff"/><stop offset="1" stop-color="#2137ff"/></linearGradient></defs><g transform="translate(-257.914 -39.475)"><g transform="translate(326 58.148)"><g transform="translate(0 -18.673)"><g transform="translate(0 0)"><g transform="translate(0)"><path d="M90.468,352.754a6.251,6.251,0,0,0,5.09,9.88l4.531-6.292-6.12-8.5Z" transform="translate(-89.296 -330.585)" fill="#2137ff"/><path d="M132.287,295.17h-.158l-4.376,6.138,6.129,8.6,3.478-4.831A6.251,6.251,0,0,0,132.287,295.17Z" transform="translate(-115.153 -295.17)" fill="url(#a)"/></g><path d="M95.559,295.17h.158l15.8,22.17a6.252,6.252,0,0,1-5.09,9.88L90.486,305.074A6.251,6.251,0,0,1,95.559,295.17Z" transform="translate(-89.296 -295.17)" fill="url(#b)"/><g transform="translate(0.003)"><path d="M111.528,317.34l-15.8-22.17h-.158a6.259,6.259,0,0,0-6.249,6.643l.033-.04a4.21,4.21,0,0,1,6.591.367l14.118,19.608a6.183,6.183,0,0,1,1.158,3.239A6.214,6.214,0,0,0,111.528,317.34Z" transform="translate(-89.305 -295.17)" fill="#fff" opacity="0.3" style="mix-blend-mode:overlay;isolation:isolate"/><path d="M91.949,357.163l4.372-6.072-2.338-3.248-3.5,4.911a6.416,6.416,0,0,0-.449.735c-.018.034-.037.068-.054.1a6.209,6.209,0,0,0-.316.736c-.013.037-.024.074-.036.11a6.062,6.062,0,0,0-.2.739c0,.012-.006.024-.008.035a6.03,6.03,0,0,0-.089.73c0,.063-.009.126-.011.189a6.161,6.161,0,0,0,.011.669c.006.08.016.159.025.239.017.158.042.315.071.471.025.13.053.259.086.387s.075.275.119.411c.039.117.079.233.125.348.036.092.078.181.118.271.088.2.185.389.293.575.034.059.069.116.1.174a6.391,6.391,0,0,0,.458.646c.021.026.041.053.062.079A6.185,6.185,0,0,1,91.949,357.163Z" transform="translate(-89.312 -330.585)" fill="#fff" opacity="0.3" style="mix-blend-mode:overlay;isolation:isolate"/><path d="M130.123,304.627l1.791-2.487a4.21,4.21,0,0,1,6.591-.367l.033.04c.006-.092,0-.184,0-.277,0-.151,0-.3-.006-.451-.007-.115-.019-.23-.032-.345q-.023-.2-.059-.4c-.02-.111-.039-.222-.065-.332-.04-.171-.091-.339-.145-.506-.042-.128-.089-.254-.139-.38-.059-.147-.119-.293-.189-.435-.047-.1-.1-.19-.15-.284-.069-.126-.144-.251-.222-.372-.055-.086-.109-.172-.169-.255q-.176-.248-.377-.479c-.056-.064-.114-.125-.172-.187-.131-.139-.268-.274-.412-.4-.069-.061-.142-.119-.214-.177q-.194-.156-.4-.3c-.073-.05-.145-.1-.221-.147a6.023,6.023,0,0,0-.629-.343l-.092-.04a6.091,6.091,0,0,0-.662-.247c-.08-.025-.162-.046-.244-.067q-.276-.074-.566-.123c-.083-.014-.165-.03-.249-.041a6.554,6.554,0,0,0-.83-.059h-.163l-4.376,6.138Z" transform="translate(-115.158 -295.17)" fill="#fff" opacity="0.3" style="mix-blend-mode:overlay;isolation:isolate"/></g><path d="M95.716,295.17h-.158a6.251,6.251,0,0,0-5.073,9.9l4.7,6.535a19.841,19.841,0,0,0,12.124-.17Z" transform="translate(-89.296 -295.17)" fill="#fff" opacity="0.3" style="mix-blend-mode:overlay;isolation:isolate"/></g></g></g><path d="M1.914,0V-20.3h8.352a7.165,7.165,0,0,1,3.379.768,5.674,5.674,0,0,1,2.291,2.161,6.358,6.358,0,0,1,.826,3.306v.406a6.209,6.209,0,0,1-.856,3.292,5.843,5.843,0,0,1-2.32,2.175,7.038,7.038,0,0,1-3.321.768H5.742V0ZM5.742-10.9H9.889a3.177,3.177,0,0,0,2.2-.754,2.625,2.625,0,0,0,.841-2.059v-.29a2.625,2.625,0,0,0-.841-2.059,3.177,3.177,0,0,0-2.2-.754H5.742ZM15.022,0l5.336-20.3h6.67L32.364,0H28.42l-1.1-4.466h-7.25L18.966,0Zm5.945-8h5.452l-2.465-9.889h-.522ZM40.194.406A7.66,7.66,0,0,1,36.41-.536a6.856,6.856,0,0,1-2.7-2.755,9.036,9.036,0,0,1-1-4.423v-4.872a7.924,7.924,0,0,1,2.2-6.018,8.3,8.3,0,0,1,5.974-2.1,7.96,7.96,0,0,1,5.785,1.987A7.154,7.154,0,0,1,48.72-13.34v.116H44.95v-.232A4.17,4.17,0,0,0,44.5-15.4a3.3,3.3,0,0,0-1.348-1.378,4.554,4.554,0,0,0-2.262-.507,4.143,4.143,0,0,0-3.19,1.247,4.785,4.785,0,0,0-1.16,3.393v4.988A4.9,4.9,0,0,0,37.7-4.249a4.143,4.143,0,0,0,3.248,1.291,3.829,3.829,0,0,0,3.045-1.1,4.093,4.093,0,0,0,.957-2.784v-.29H40.136v-3.248H48.72V0H45.182V-1.943H44.66A4.25,4.25,0,0,1,44.007-.9a3.392,3.392,0,0,1-1.348.928A6.531,6.531,0,0,1,40.194.406ZM50.924,0V-20.3h13.05v3.48H54.752v4.843h8.41V-8.5h-8.41V-3.48h9.4V0Z" transform="translate(256 66)" fill="#3f475e"/></g></svg>