<svg id="talenthr-logo" xmlns="http://www.w3.org/2000/svg" width="160.001" height="29.772" viewBox="0 0 160.001 29.772">
  <path id="Path_1" data-name="Path 1" d="M965.172,225.7a9,9,0,0,0,4.049-3.606,10.163,10.163,0,0,0,1.39-5.257,9.557,9.557,0,0,0-2.78-7.05q-2.78-2.82-8.138-2.821h-.259c.03.557.049,1.116.049,1.68a30.43,30.43,0,0,1-.456,5.209h.584a2.724,2.724,0,0,1,2.86,1.511,3.417,3.417,0,0,1,0,3.363,3.035,3.035,0,0,1-3.143,1.571h-2.175A30.347,30.347,0,0,1,947.165,233v.325h0v1.682h0v1.724h7.654v-9.87h2.941l5.237,9.87h8.622Z" transform="translate(-811.617 -206.962)" fill="#f77a21"/>
  <path id="Path_2" data-name="Path 2" d="M862.822,220.3h-2.336v-6.445h4.21a30.412,30.412,0,0,0,.456-5.209c0-.564-.018-1.124-.049-1.68h-12.27v11.361H842.4V206.962h-7.534v18.627h0v3.891h0v7.254H842.4v-11.2h10.434V233A30.348,30.348,0,0,0,862.822,220.3Z" transform="translate(-717.285 -206.962)" fill="#ffb229"/>
  <g id="Group_1" data-name="Group 1" transform="translate(0 0.157)">
    <path id="Path_3" data-name="Path 3" d="M107.917,241.878v-8.449h4.758v-4.143h-4.758v-5.7H102.83v5.7H100v4.143h2.708v9.106c0,7.014,5.784,7.875,8.7,7.875a9.592,9.592,0,0,0,1.6-.123v-4.553a4.8,4.8,0,0,1-.944.082C110.624,245.815,107.917,245.323,107.917,241.878Z" transform="translate(-100 -221.082)" fill="#1b68b3"/>
    <path id="Path_4" data-name="Path 4" d="M198.14,278.044a6.81,6.81,0,0,0,6.317-3.692h.082a9.006,9.006,0,0,0-.041.9c0,1.23.738,2.3,2.666,2.3h4.676v-4.389H210.2a.821.821,0,0,1-.9-.9v-7.793c0-4.676-2.051-8.327-9.024-8.327-2.173,0-7.671.41-7.671,4.307v2.215h4.841v-1.107c0-1.148,1.846-1.4,2.789-1.4,2.666,0,3.856,1.108,3.856,4.1v.164h-.657c-3.4,0-12.428.533-12.428,7.1C191,275.707,194.409,278.044,198.14,278.044ZM203.268,268h.9v.492c0,2.543-1.968,5.5-4.757,5.5-2.133,0-3.158-1.313-3.158-2.707C196.254,268.364,200.56,268,203.268,268Z" transform="translate(-176.443 -248.43)" fill="#1b68b3"/>
    <path id="Path_5" data-name="Path 5" d="M331.788,231.777V210.735c0-1.928-.862-2.789-2.789-2.789h-4.964v4.43h1.641a.8.8,0,0,1,.9.9v21c0,1.969.821,2.789,2.789,2.789h4.922v-4.389h-1.6A.821.821,0,0,1,331.788,231.777Z" transform="translate(-288.189 -207.946)" fill="#1b68b3"/>
    <path id="Path_6" data-name="Path 6" d="M408.741,256.141c-6.276,0-10.623,4.512-10.623,10.952,0,5.947,4.306,10.952,11.239,10.952a12.723,12.723,0,0,0,8.409-3.159l-2.174-3.609a9.5,9.5,0,0,1-5.865,2.338A6.016,6.016,0,0,1,403.45,268h14.438s.123-1.313.123-1.928C418.011,260.53,414.729,256.141,408.741,256.141Zm-5.127,8.245a5.013,5.013,0,0,1,5.127-4.225,4.061,4.061,0,0,1,3.938,4.225Z" transform="translate(-350.419 -248.43)" fill="#1b68b3"/>
    <path id="Path_7" data-name="Path 7" d="M536,261.966v15.587h5.169v-9.6a8.826,8.826,0,0,1,.41-2.789,5.737,5.737,0,0,1,5.62-4.266c2.625,0,3.281,1.723,3.281,4.266v9.6c0,1.969.82,2.789,2.789,2.789h4.964v-4.389h-1.641a.821.821,0,0,1-.9-.9V264.1c0-5.537-2.666-7.957-7.3-7.957a8.043,8.043,0,0,0-7.383,4.348h-.081a5.852,5.852,0,0,0,.081-.9v-.615c0-1.477-.9-2.339-2.747-2.339h-4.8v4.43H535.1A.8.8,0,0,1,536,261.966Z" transform="translate(-464.105 -248.43)" fill="#1b68b3"/>
    <path id="Path_8" data-name="Path 8" d="M696.456,241.878v-8.449h4.757v-4.143h-4.757v-5.7h-5.087v5.7h-2.83v4.143h2.707v9.106c0,7.014,5.783,7.875,8.7,7.875a9.573,9.573,0,0,0,1.6-.123v-4.553a4.781,4.781,0,0,1-.943.082C699.162,245.815,696.456,245.323,696.456,241.878Z" transform="translate(-594.373 -221.082)" fill="#1b68b3"/>
  </g>
</svg>
