<svg width="117" height="32" viewBox="0 0 117 32" fill="none" xmlns="http://www.w3.org/2000/svg">
<path d="M15.1912 13.6312C16.201 14.9779 16.5597 16.7944 16.3402 18.5429C15.7559 22.6449 11.632 25.5312 7.15186 24.9867C2.67175 24.4421 -0.502503 20.6037 0.081845 16.5016C0.300584 15.224 0.808313 14.014 1.60483 13.0063C1.60483 13.0063 1.38225 16.8398 3.83913 17.1124C4.92302 17.2485 5.86358 16.5772 6.00964 15.5685C6.08262 15.0978 5.93888 14.5595 5.65029 14.2228C3.41398 11.4619 3.63272 10.1843 3.7062 9.37723C4.29015 5.54422 8.41051 5.01207 8.41051 5.01207C7.97515 6.15487 7.75419 8.91224 10.6431 10.2616C13.532 11.611 14.3978 12.5539 15.1912 13.6312Z" fill="url(#paint0_linear_40101_51935)"/>
<path d="M23 21.68V9.64616H25.1543V14.7405H30.665V9.64616H32.8251V21.68H30.665V16.5679H25.1543V21.68H23Z" fill="#0B1426"/>
<path d="M35.8912 25.0645C35.6047 25.0645 35.3395 25.0409 35.0957 24.9939C34.8556 24.9509 34.664 24.8999 34.5208 24.8412L35.0086 23.1842C35.3144 23.2743 35.5873 23.3174 35.8273 23.3134C36.0673 23.3095 36.2783 23.2331 36.4603 23.0843C36.6461 22.9393 36.8029 22.6965 36.9306 22.3557L37.1106 21.868L33.8762 12.6546H36.106L38.1616 19.4706H38.2546L40.316 12.6546H42.5516L38.9804 22.7729C38.8139 23.2508 38.5933 23.6601 38.3184 24.0009C38.0436 24.3456 37.7068 24.6081 37.308 24.7883C36.9132 24.9724 36.4409 25.0645 35.8912 25.0645Z" fill="#0B1426"/>
<path d="M43.5156 25.0645V12.6546H45.5828V14.1471H45.7048C45.8132 13.9277 45.9661 13.6946 46.1635 13.4479C46.3609 13.1971 46.6281 12.9837 46.9649 12.8074C47.3016 12.6272 47.7313 12.5371 48.254 12.5371C48.943 12.5371 49.5644 12.7153 50.1179 13.0718C50.6754 13.4244 51.1167 13.9473 51.4419 14.6407C51.7709 15.3301 51.9355 16.1762 51.9355 17.179C51.9355 18.1701 51.7748 19.0123 51.4535 19.7057C51.1322 20.399 50.6947 20.9278 50.1412 21.2921C49.5876 21.6564 48.9604 21.8386 48.2598 21.8386C47.7488 21.8386 47.3249 21.7524 46.9881 21.5801C46.6513 21.4077 46.3803 21.2001 46.1751 20.9572C45.9738 20.7104 45.817 20.4774 45.7048 20.258H45.6177V25.0645H43.5156ZM45.577 17.1673C45.577 17.751 45.6583 18.2622 45.8209 18.7009C45.9874 19.1396 46.2255 19.4824 46.5351 19.7292C46.8487 19.972 47.2281 20.0935 47.6733 20.0935C48.1378 20.0935 48.5269 19.9681 48.8404 19.7174C49.154 19.4628 49.3902 19.1161 49.5489 18.6774C49.7115 18.2347 49.7928 17.7314 49.7928 17.1673C49.7928 16.6071 49.7134 16.1096 49.5547 15.6748C49.396 15.24 49.1598 14.8992 48.8463 14.6524C48.5327 14.4056 48.1417 14.2822 47.6733 14.2822C47.2242 14.2822 46.8429 14.4017 46.5293 14.6407C46.2158 14.8796 45.9777 15.2145 45.8151 15.6454C45.6564 16.0763 45.577 16.5836 45.577 17.1673Z" fill="#0B1426"/>
<path d="M57.1936 21.8562C56.2994 21.8562 55.5271 21.6682 54.8767 21.2921C54.2302 20.9122 53.7328 20.3755 53.3844 19.6822C53.036 18.9849 52.8618 18.1642 52.8618 17.2202C52.8618 16.2918 53.036 15.477 53.3844 14.7758C53.7366 14.0707 54.2283 13.5223 54.8593 13.1306C55.4903 12.7349 56.2316 12.5371 57.0833 12.5371C57.633 12.5371 58.1517 12.6272 58.6395 12.8074C59.1312 12.9837 59.5647 13.2579 59.9402 13.63C60.3196 14.0021 60.6177 14.4761 60.8345 15.052C61.0513 15.6239 61.1597 16.3055 61.1597 17.0968V17.749H53.8489V16.3153H59.1447C59.1408 15.9079 59.0537 15.5455 58.8834 15.2282C58.7131 14.907 58.475 14.6544 58.1692 14.4703C57.8672 14.2861 57.5149 14.1941 57.1123 14.1941C56.6826 14.1941 56.3052 14.2999 55.98 14.5114C55.6548 14.719 55.4013 14.9932 55.2193 15.334C55.0412 15.6709 54.9503 16.0411 54.9464 16.4445V17.6961C54.9464 18.221 55.0412 18.6715 55.2309 19.0476C55.4206 19.4197 55.6858 19.7057 56.0265 19.9054C56.3671 20.1013 56.7659 20.1992 57.2227 20.1992C57.5285 20.1992 57.8053 20.1561 58.053 20.07C58.3008 19.9799 58.5156 19.8486 58.6976 19.6763C58.8795 19.5039 59.017 19.2904 59.1099 19.0358L61.0726 19.2591C60.9487 19.784 60.7125 20.2423 60.3641 20.634C60.0196 21.0219 59.5783 21.3235 59.0402 21.5389C58.5021 21.7505 57.8866 21.8562 57.1936 21.8562Z" fill="#0B1426"/>
<path d="M64.0675 21.68H61.768L65.9547 9.64616H68.6142L72.8067 21.68H70.5073L67.3309 12.114H67.238L64.0675 21.68ZM64.143 16.9616H70.4143V18.7126H64.143V16.9616Z" fill="#0B1426"/>
<path d="M79.4745 17.8841V12.6546H81.5766V21.68H79.5384V20.0758H79.4455C79.2442 20.5812 78.9132 20.9944 78.4525 21.3156C77.9957 21.6369 77.4325 21.7975 76.7627 21.7975C76.1782 21.7975 75.6614 21.6662 75.2123 21.4038C74.7671 21.1374 74.4187 20.7516 74.1671 20.2462C73.9155 19.737 73.7897 19.122 73.7897 18.4012V12.6546H75.8917V18.0722C75.8917 18.6441 76.0466 19.0985 76.3563 19.4354C76.666 19.7723 77.0724 19.9407 77.5757 19.9407C77.8854 19.9407 78.1854 19.8643 78.4757 19.7115C78.7661 19.5588 79.0042 19.3316 79.19 19.0299C79.3797 18.7244 79.4745 18.3425 79.4745 17.8841Z" fill="#0B1426"/>
<path d="M86.5575 21.8386C85.8568 21.8386 85.2296 21.6564 84.6761 21.2921C84.1225 20.9278 83.685 20.399 83.3637 19.7057C83.0424 19.0123 82.8818 18.1701 82.8818 17.179C82.8818 16.1762 83.0443 15.3301 83.3695 14.6407C83.6986 13.9473 84.1418 13.4244 84.6993 13.0718C85.2567 12.7153 85.8781 12.5371 86.5633 12.5371C87.0859 12.5371 87.5156 12.6272 87.8524 12.8074C88.1892 12.9837 88.4563 13.1971 88.6537 13.4479C88.8511 13.6946 89.004 13.9277 89.1124 14.1471H89.1995V9.64616H91.3074V21.68H89.2402V20.258H89.1124C89.004 20.4774 88.8473 20.7104 88.6421 20.9572C88.4369 21.2001 88.1659 21.4077 87.8291 21.5801C87.4923 21.7524 87.0685 21.8386 86.5575 21.8386ZM87.1439 20.0935C87.5891 20.0935 87.9685 19.972 88.2821 19.7292C88.5956 19.4824 88.8337 19.1396 88.9963 18.7009C89.1589 18.2622 89.2402 17.751 89.2402 17.1673C89.2402 16.5836 89.1589 16.0763 88.9963 15.6454C88.8376 15.2145 88.6014 14.8796 88.2879 14.6407C87.9782 14.4017 87.5969 14.2822 87.1439 14.2822C86.6755 14.2822 86.2845 14.4056 85.971 14.6524C85.6574 14.8992 85.4213 15.24 85.2625 15.6748C85.1038 16.1096 85.0245 16.6071 85.0245 17.1673C85.0245 17.7314 85.1038 18.2347 85.2625 18.6774C85.4251 19.1161 85.6632 19.4628 85.9768 19.7174C86.2942 19.9681 86.6833 20.0935 87.1439 20.0935Z" fill="#0B1426"/>
<path d="M93.0568 21.68V12.6546H95.1589V21.68H93.0568ZM94.1137 11.3737C93.7807 11.3737 93.4943 11.262 93.2542 11.0387C93.0142 10.8115 92.8942 10.5393 92.8942 10.222C92.8942 9.90079 93.0142 9.62854 93.2542 9.40525C93.4943 9.17805 93.7807 9.06445 94.1137 9.06445C94.4504 9.06445 94.7369 9.17805 94.9731 9.40525C95.2131 9.62854 95.3331 9.90079 95.3331 10.222C95.3331 10.5393 95.2131 10.8115 94.9731 11.0387C94.7369 11.262 94.4504 11.3737 94.1137 11.3737Z" fill="#0B1426"/>
<path d="M101.284 12.6546V14.2999H96.1563V12.6546H101.284ZM97.4222 10.4923H99.5242V18.9653C99.5242 19.2513 99.5668 19.4706 99.652 19.6234C99.741 19.7723 99.8572 19.8741 100 19.9289C100.144 19.9838 100.302 20.0112 100.477 20.0112C100.608 20.0112 100.728 20.0014 100.837 19.9818C100.949 19.9622 101.034 19.9446 101.092 19.9289L101.446 21.5918C101.334 21.631 101.173 21.6741 100.964 21.7211C100.759 21.7681 100.508 21.7955 100.209 21.8033C99.683 21.819 99.2087 21.7387 98.7868 21.5624C98.3648 21.3822 98.03 21.1041 97.7822 20.7281C97.5383 20.352 97.4183 19.8819 97.4222 19.3179V10.4923Z" fill="#0B1426"/>
<path d="M106.346 21.8562C105.475 21.8562 104.72 21.6623 104.081 21.2745C103.442 20.8867 102.947 20.3442 102.595 19.6469C102.246 18.9496 102.072 18.1348 102.072 17.2025C102.072 16.2702 102.246 15.4535 102.595 14.7523C102.947 14.0511 103.442 13.5066 104.081 13.1188C104.72 12.731 105.475 12.5371 106.346 12.5371C107.217 12.5371 107.972 12.731 108.611 13.1188C109.249 13.5066 109.743 14.0511 110.091 14.7523C110.444 15.4535 110.62 16.2702 110.62 17.2025C110.62 18.1348 110.444 18.9496 110.091 19.6469C109.743 20.3442 109.249 20.8867 108.611 21.2745C107.972 21.6623 107.217 21.8562 106.346 21.8562ZM106.357 20.1522C106.83 20.1522 107.225 20.021 107.542 19.7585C107.86 19.4922 108.096 19.1357 108.251 18.6891C108.409 18.2426 108.489 17.7451 108.489 17.1967C108.489 16.6443 108.409 16.1449 108.251 15.6983C108.096 15.2478 107.86 14.8894 107.542 14.623C107.225 14.3567 106.83 14.2235 106.357 14.2235C105.874 14.2235 105.471 14.3567 105.15 14.623C104.832 14.8894 104.594 15.2478 104.435 15.6983C104.281 16.1449 104.203 16.6443 104.203 17.1967C104.203 17.7451 104.281 18.2426 104.435 18.6891C104.594 19.1357 104.832 19.4922 105.15 19.7585C105.471 20.021 105.874 20.1522 106.357 20.1522Z" fill="#0B1426"/>
<path d="M111.913 21.68V12.6546H113.951V14.1588H114.044C114.207 13.6378 114.486 13.2363 114.881 12.9543C115.279 12.6683 115.734 12.5253 116.245 12.5253C116.361 12.5253 116.491 12.5312 116.634 12.543C116.781 12.5508 116.903 12.5645 117 12.5841V14.5408C116.911 14.5094 116.77 14.482 116.576 14.4585C116.386 14.4311 116.203 14.4174 116.024 14.4174C115.641 14.4174 115.297 14.5016 114.991 14.67C114.689 14.8346 114.451 15.0637 114.277 15.3575C114.102 15.6513 114.015 15.9901 114.015 16.374V21.68H111.913Z" fill="#0B1426"/>
<defs>
<linearGradient id="paint0_linear_40101_51935" x1="8.22615" y1="5.0118" x2="8.19728" y2="25.0526" gradientUnits="userSpaceOnUse">
<stop stop-color="#FF9466"/>
<stop offset="1" stop-color="#FF6436"/>
</linearGradient>
</defs>
</svg>
