<svg version="1.1" id="Layer_1" xmlns="http://www.w3.org/2000/svg" x="0" y="0" viewBox="0 0 154.3 56.5" xml:space="preserve"><style>.st4{display:inline}</style><g><linearGradient id="SVGID_1_" gradientUnits="userSpaceOnUse" x1="-601.8233" y1="1250.1624" x2="-601.8233" y2="1250.1674" gradientTransform="matrix(24.458 0 0 -42.314 14731.624 52898.6367)"><stop offset="0" stop-color="#840084"/><stop offset="1" stop-color="#390051"/></linearGradient><path d="M0 42.3V14.2L24.5 0v28.2L0 42.3z" fill="url(#SVGID_1_)"/><linearGradient id="SVGID_2_" gradientUnits="userSpaceOnUse" x1="-614.6617" y1="1257.407" x2="-614.6617" y2="1257.402" gradientTransform="matrix(48.916 0 0 -56.512 30091.248 71057.8516)"><stop offset="0" stop-color="#ba02d8"/><stop offset="1" stop-color="#d002d8"/></linearGradient><path d="M24.5 0L0 14.2l24.5 42.3L49 42.4 24.5 0z" fill="url(#SVGID_2_)"/><linearGradient id="SVGID_3_" gradientUnits="userSpaceOnUse" x1="-601.8233" y1="1250.5455" x2="-601.8233" y2="1250.5375" gradientTransform="matrix(24.458 0 0 -42.376 14756.082 52992.0703)"><stop offset="0" stop-color="#f35fff"/><stop offset="1" stop-color="#ff83cf"/></linearGradient><path d="M24.5 56.5V28.3L49 14.1v28.3L24.5 56.5z" opacity=".95" fill="url(#SVGID_3_)"/></g><path d="M12.8 16.5L3.3 7.3v8.9H0V0h.1l9.4 9.2V.3h3.3v16.2zM34.5 8.3c0 4.5-3.7 8.2-8.3 8.1-4.5 0-8.2-3.7-8.1-8.3 0-4.5 3.7-8.1 8.2-8.1 4.4-.1 8.1 3.3 8.2 7.7v.6zm-13.1 0c0 3 2 5.2 4.8 5.2S31 11.3 31 8.3C31 5.2 29 3 26.2 3s-4.8 2.2-4.8 5.3zM50.3.4l-6.7 13h6.9v2.9h-12v-.1l6.7-13h-6.4V.3l11.5.1zM66.9 4.6c0 1.2-.5 2.4-1.5 3.1 1.8.5 3 2.1 2.9 3.9 0 3-2.4 4.6-5.3 4.6h-7.2V.2H62c3 .1 4.9 1.7 4.9 4.4zM59 3.3v3.5h2.5c1.3 0 2.1-.7 2.1-1.8s-.8-1.7-2.2-1.7H59zm0 6.1v3.8h3.5c1.4 0 2.4-.7 2.4-1.9s-.9-1.9-2.4-1.9H59zM83.7 3.3h-7v3.4h6v2.8h-6v3.7h7.2v3H73.4V.2h10.3v3.1z" transform="translate(70.48 20.621)"/></svg>