<svg width="200" height="40" viewBox="0 0 200 40" fill="none" xmlns="http://www.w3.org/2000/svg">
<path d="M52.8566 26.113V14.5587C52.8566 14.125 53.1044 13.8462 53.5691 13.8462H56.4499C56.8836 13.8462 57.1624 14.094 57.1624 14.5587V25.6483C57.1624 28.0955 58.6802 28.9318 60.291 28.9318C61.9018 28.9318 63.4197 28.1264 63.4197 25.6483V14.5587C63.4197 14.125 63.6675 13.8462 64.1321 13.8462H67.0439C67.4776 13.8462 67.7564 14.094 67.7564 14.5587V26.113C67.7564 29.8302 65.1234 33.1137 60.291 33.1137C55.4587 33.1137 52.8566 29.8302 52.8566 26.113Z" fill="black"/>
<path d="M70.7921 32.1539V14.5591C70.7921 14.1255 71.0399 13.8467 71.5046 13.8467H74.3854C74.7571 13.8467 75.0359 14.0016 75.2218 14.3113L82.1915 25.2461V14.5591C82.1915 14.1255 82.4393 13.8467 82.904 13.8467H85.7848C86.2185 13.8467 86.4973 14.0945 86.4973 14.5591V32.1539C86.4973 32.5876 86.2495 32.8664 85.7848 32.8664H82.873C82.5013 32.8664 82.2225 32.7115 82.0366 32.4017L75.0979 21.4979V32.1849C75.0979 32.6185 74.8501 32.8973 74.3854 32.8973H71.5046C71.0709 32.8664 70.7921 32.5876 70.7921 32.1539Z" fill="black"/>
<path d="M89.595 32.1539V14.5591C89.595 14.1255 89.8428 13.8467 90.3074 13.8467H93.1883C93.6219 13.8467 93.9007 14.0945 93.9007 14.5591V32.1539C93.9007 32.5876 93.6529 32.8664 93.1883 32.8664H90.3074C89.8428 32.8664 89.595 32.5876 89.595 32.1539Z" fill="black"/>
<path d="M96.6267 29.0561C96.4098 28.7154 96.5337 28.3437 96.8745 28.1268L99.2287 26.4231C99.5695 26.1753 99.9102 26.2063 100.189 26.578C101.056 27.5383 103.008 28.9322 105.145 28.9322C107.097 28.9322 107.499 28.1888 107.499 27.3524C107.499 26.0824 104.743 25.5868 103.411 25.0911C102.048 24.5955 97.1223 23.6043 97.1223 19.3295C97.1223 15.1166 100.839 13.5059 104.65 13.5059C107.995 13.5059 110.845 15.3025 111.898 17.0992C112.146 17.4709 111.991 17.8116 111.65 18.0285L109.358 19.5463C108.986 19.7941 108.677 19.7322 108.398 19.4224C107.592 18.648 105.982 17.7806 104.123 17.7806C102.76 17.7806 102.079 18.2763 102.079 19.0817C102.079 20.3827 104.65 20.8783 106.044 21.3739C107.376 21.8696 112.332 23.1086 112.332 27.1046C112.332 31.1006 109.203 33.176 104.65 33.176C100.561 33.207 97.7728 31.1626 96.6267 29.0561Z" fill="black"/>
<path d="M114.841 32.1539V14.5591C114.841 14.1255 115.089 13.8467 115.553 13.8467H127.201C127.634 13.8467 127.913 14.0945 127.913 14.5591V17.0683C127.913 17.5019 127.665 17.7807 127.201 17.7807H119.147V21.405H126.581C127.015 21.405 127.294 21.6528 127.294 22.1175V24.6266C127.294 25.0602 127.046 25.339 126.581 25.339H119.147V28.9633H127.201C127.634 28.9633 127.913 29.2111 127.913 29.6758V32.1849C127.913 32.6185 127.665 32.8973 127.201 32.8973H115.553C115.12 32.8664 114.841 32.5876 114.841 32.1539Z" fill="black"/>
<path d="M130.856 32.1539V14.5591C130.856 14.1255 131.104 13.8467 131.568 13.8467H134.449C134.821 13.8467 135.1 14.0016 135.286 14.3113L142.255 25.2461V14.5591C142.255 14.1255 142.503 13.8467 142.968 13.8467H145.849C146.282 13.8467 146.561 14.0945 146.561 14.5591V32.1539C146.561 32.5876 146.313 32.8664 145.849 32.8664H142.937C142.565 32.8664 142.286 32.7115 142.1 32.4017L135.162 21.4979V32.1849C135.162 32.6185 134.914 32.8973 134.449 32.8973H131.568C131.104 32.8664 130.856 32.5876 130.856 32.1539Z" fill="black"/>
<path d="M149.659 32.1539V14.5591C149.659 14.1255 149.907 13.8467 150.371 13.8467H156.876C162.421 13.8467 166.2 17.7188 166.2 23.3565C166.2 28.9943 162.421 32.8664 156.876 32.8664H150.371C149.907 32.8664 149.659 32.5876 149.659 32.1539ZM156.876 28.6845C158.177 28.6845 161.926 28.003 161.895 23.3565C161.864 18.741 158.177 18.0285 156.876 18.0285H153.965V28.6845H156.876Z" fill="black"/>
<path d="M168.864 32.1539V14.5591C168.864 14.1255 169.112 13.8467 169.577 13.8467H181.224C181.658 13.8467 181.936 14.0945 181.936 14.5591V17.0683C181.936 17.5019 181.689 17.7807 181.224 17.7807H173.17V21.405H180.604C181.038 21.405 181.317 21.6528 181.317 22.1175V24.6266C181.317 25.0602 181.069 25.339 180.604 25.339H173.17V28.9633H181.224C181.658 28.9633 181.936 29.2111 181.936 29.6758V32.1849C181.936 32.6185 181.689 32.8973 181.224 32.8973H169.577C169.112 32.8664 168.864 32.5876 168.864 32.1539Z" fill="black"/>
<path d="M184.848 32.1539V14.5591C184.848 14.1255 185.096 13.8467 185.561 13.8467H194.079C196.898 13.8467 199.996 15.9531 199.996 20.2589C199.996 23.3875 198.323 25.37 196.341 26.2064L199.872 32.03C200.151 32.4946 199.965 32.8664 199.407 32.8664H196C195.628 32.8664 195.349 32.7424 195.163 32.4017L191.694 26.671H189.216V32.1539C189.216 32.5876 188.968 32.8664 188.503 32.8664H185.561C185.096 32.8664 184.848 32.5876 184.848 32.1539ZM193.336 22.5201C194.575 22.5201 195.69 21.7457 195.69 20.2589C195.69 18.8029 194.575 18.0285 193.336 18.0285H189.154V22.4892H193.336V22.5201Z" fill="black"/>
<path d="M37.8329 14.3735C37.5851 12.6698 36.5939 7.83742 32.7218 5.79296C30.1197 4.42998 25.845 2.9431 20.1453 4.24412C16.1802 5.14245 14.9721 6.44347 13.7641 7.96133C12.4321 9.66504 12.463 12.0193 12.2152 14.9311C12.1842 15.3957 11.7815 15.7674 11.3169 15.7365C8.90072 15.6745 6.29868 15.4577 3.78956 15.2408C3.29394 15.2099 2.82929 15.5816 2.82929 16.1082C2.51952 23.9143 4.22324 28.0962 8.55997 30.6363C10.6974 31.8753 13.0206 32.5878 16.8927 31.7514C16.9547 31.9063 17.0476 32.0302 17.1095 32.1851C19.4018 37.575 18.9062 39.1239 24.3271 38.3494C25.2874 38.2255 26.2167 37.9468 27.084 37.606C31.4827 35.8094 36.5319 31.4107 36.5629 26.6403C36.6248 20.9715 38.4834 18.5863 37.8329 14.3735Z" fill="#FCB43D"/>
<path d="M28.9736 7.99201C38.3905 20.9403 19.3399 23.0467 18.2247 15.3954C17.2025 8.36373 26.6194 4.77044 28.9736 7.99201Z" fill="white"/>
<path d="M29.3144 11.3995C28.6019 9.66477 26.5884 8.14691 24.6059 8.48765C24.1413 8.58058 24.2032 9.29305 24.6679 9.23109C26.3406 8.9523 27.9824 10.2223 28.5709 11.6783C28.7878 12.1119 29.5002 11.8641 29.3144 11.3995Z" fill="#131313"/>
<path d="M19.5877 28.158C19.3399 28.189 19.1231 28.22 18.9682 28.22C18.4416 28.2819 17.9769 27.8792 17.9459 27.3836C17.884 26.857 18.2867 26.3924 18.7823 26.3614C19.2779 26.2994 23.7696 25.8038 25.1325 23.1708C25.3804 22.7061 25.9379 22.5203 26.4026 22.7681C26.8672 23.0159 27.0531 23.5735 26.8053 24.0381C25.2874 27.0119 21.2914 27.9102 19.5877 28.158Z" fill="#131313"/>
<path d="M10.3566 21.5599C10.8832 21.405 11.193 20.9094 11.0381 20.4447C10.9142 19.9801 10.3876 19.7323 9.86097 19.8872C9.33436 20.042 9.0246 20.5377 9.17948 21.0023C9.33436 21.467 9.86097 21.7148 10.3566 21.5599Z" fill="#131313"/>
<path d="M10.2947 23.4804C10.6664 23.3875 10.8832 23.0158 10.7903 22.706C10.6974 22.3962 10.3257 22.2104 9.98492 22.3033C9.6132 22.3962 9.39637 22.768 9.4893 23.0777C9.58223 23.3875 9.92297 23.5733 10.2947 23.4804Z" fill="#131313"/>
<path d="M12.556 22.644C12.9277 22.5511 13.1445 22.1793 13.0516 21.8696C12.9587 21.5598 12.587 21.3739 12.2462 21.4669C11.8745 21.5598 11.6577 21.9315 11.7506 22.2413C11.8435 22.5511 12.2152 22.7369 12.556 22.644Z" fill="#131313"/>
<path d="M26.6813 15.1475C26.9292 13.5367 26.3096 12.1118 25.2564 11.9569C24.2342 11.802 23.181 12.9481 22.9332 14.528C22.6853 16.1387 23.3049 17.5637 24.3581 17.7186C25.3803 17.9044 26.4335 16.7273 26.6813 15.1475Z" fill="#131313"/>
<path d="M17.2645 14.869C17.5743 13.7229 17.2025 12.6387 16.4591 12.4218C15.6847 12.205 14.8173 12.9484 14.5076 14.0946C14.1978 15.2407 14.5695 16.3249 15.313 16.5417C16.0874 16.7586 16.9547 16.0151 17.2645 14.869Z" fill="#131313"/>
<path d="M25.1635 14.8381C25.1635 15.3957 25.6282 15.8604 26.2167 15.8604C26.3406 15.8604 26.4645 15.8294 26.5575 15.7984C26.6194 15.5816 26.6814 15.3648 26.7123 15.1479C26.7743 14.7452 26.7743 14.3425 26.7433 13.9708C26.5884 13.8779 26.4026 13.8159 26.2167 13.8159C25.6282 13.8159 25.1635 14.2806 25.1635 14.8381Z" fill="white"/>
<path d="M16.7379 13.8159C16.2732 13.8159 15.9015 14.1876 15.9015 14.6523C15.9015 15.1169 16.2732 15.4887 16.7379 15.4887C16.8618 15.4887 16.9857 15.4577 17.0786 15.4267C17.1715 15.2718 17.2335 15.086 17.2954 14.9001C17.3574 14.6523 17.3884 14.4045 17.4193 14.1567C17.2335 13.9398 16.9857 13.8159 16.7379 13.8159Z" fill="white"/>
<path d="M42.5414 4.58455C39.7845 0.495628 33.4962 2.2613 27.146 0C26.7123 1.23907 26.7123 2.32325 27.0221 3.28353C26.2477 3.1906 25.4732 3.12864 24.6059 3.12864C23.8934 3.12864 23.15 3.15962 22.3756 3.25255C22.3756 3.1906 22.3446 3.12864 22.3446 3.06669C21.5392 -0.18586 11.2549 3.00474 8.43607 1.27004C8.68388 4.70845 10.7283 6.62901 12.6489 9.07617C12.1223 10.625 12.0913 12.5146 11.8745 14.6829C11.8435 15.1476 11.4408 15.5193 10.9762 15.5193H10.9452C9.95393 15.4883 8.90072 15.4264 7.84751 15.3644C6.91821 13.1961 -0.825956 11.8331 0.0723675 16.8513C0.506041 19.2365 1.37339 21.0332 2.4266 21.9934C3.07711 26.3302 4.90473 29.0561 8.09533 30.9147C9.55123 31.7511 11.4718 32.2777 13.7331 32.2777C14.8792 32.2777 15.4058 32.3397 16.7378 32.0609C16.7998 32.2157 16.8927 32.3397 16.9547 32.4945C18.9681 37.234 18.0388 39.0616 22.1897 39.0616C22.9022 39.0616 23.7076 38.9996 24.5439 38.8757C25.5352 38.7208 26.4955 38.473 27.3938 38.1013C31.9474 36.2427 38.1737 31.875 38.2047 26.9497C38.2666 21.4978 38.9171 18.8028 38.4525 14.8688C41.1784 12.8863 42.4485 9.04519 42.9131 7.12464C43.1919 6.25729 43.037 5.32799 42.5414 4.58455ZM36.377 26.9497C36.3461 31.2245 30.5224 34.8178 26.7433 36.3666C25.9689 36.6764 25.1635 36.8932 24.3271 37.0171C23.5837 37.1101 22.8712 37.172 22.2517 37.172C19.4638 37.172 20.7338 36.4286 18.7513 31.7511C18.6894 31.6272 18.6274 31.5343 18.5964 31.4104C18.5654 31.3794 18.5654 31.3174 18.5345 31.2864L17.884 29.9235L16.3971 30.2332C15.22 30.4811 14.8482 30.4191 13.795 30.4191C11.9984 30.4191 10.3566 30.0474 9.11756 29.3039C7.01114 28.0958 5.64817 26.4231 4.87375 24.0379C4.68789 23.4184 4.84278 22.7059 5.36938 22.3342C6.17477 21.7456 6.88724 20.5375 7.44482 18.586C7.66165 17.8426 8.34314 17.3779 9.08658 17.4089C9.70611 17.4399 10.3256 17.4708 10.9452 17.4708H10.9762H11.0071C12.463 17.4708 13.6711 16.3557 13.795 14.8998C13.826 14.4042 13.888 13.9395 13.9189 13.4749C14.0119 12.2358 14.1048 11.1826 14.3216 10.2843C15.0341 9.32398 16.3041 8.70445 17.4813 8.67347C17.9769 8.64249 17.9769 7.89905 17.4813 7.89905C16.6759 7.93003 15.8085 8.17784 15.0651 8.61152C15.9944 7.4344 16.8927 6.35022 20.548 5.51385C21.9109 5.20408 23.3049 5.0492 24.6369 5.0492C25.9069 5.0492 27.146 5.20408 28.3541 5.48287C30.8632 8.42566 35.6646 10.7799 36.7178 15.4574C37.0585 18.9887 36.439 21.5598 36.377 26.9497Z" fill="#131313"/>
<path d="M2.76742 15.6744C3.29402 15.5195 3.60379 15.0239 3.44891 14.5592C3.325 14.0946 2.7984 13.8468 2.27179 14.0017C1.74519 14.1565 1.43542 14.6522 1.59031 15.1168C1.74519 15.5815 2.27179 15.8293 2.76742 15.6744Z" fill="white"/>
</svg>
