<svg version="1.2" baseProfile="tiny-ps" xmlns="http://www.w3.org/2000/svg" viewBox="0 0 1556 215" width="1556" height="215">
	<title>simillarweb-svg</title>
	<style>
		tspan { white-space:pre }
		.shp0 { fill: #092540 } 
		.shp1 { fill: #f4732a } 
	</style>
	<path id="Layer" fill-rule="evenodd" class="shp0" d="M717.69 36.89C712.25 36.89 707.73 35.15 704.16 31.65C700.74 28.17 699.03 23.73 699.03 18.39C699.03 13.07 700.74 8.72 704.16 5.39C707.73 1.9 712.25 0.16 717.69 0.16C723.13 0.16 727.57 1.9 730.99 5.39C734.57 8.72 736.37 13.07 736.37 18.4C736.37 23.72 734.56 28.13 730.99 31.66C727.57 35.15 723.13 36.89 717.69 36.89ZM701.14 54L734.22 54L734.22 184.84L701.14 184.84L701.14 54ZM407.42 31.66C403.99 28.17 402.29 23.73 402.29 18.4C402.29 13.08 403.99 8.73 407.41 5.39C410.98 1.9 415.5 0.17 420.94 0.17C426.38 0.17 430.83 1.9 434.24 5.39C437.82 8.72 439.62 13.08 439.62 18.4C439.62 23.73 437.82 28.13 434.24 31.66C430.82 35.16 426.38 36.89 420.94 36.89C415.5 36.89 410.99 35.16 407.41 31.66L407.42 31.66ZM404.39 53.99L437.49 53.99L437.49 184.84L404.39 184.84L404.39 53.99ZM464.88 54L494.1 54L496.93 71.67C497.95 70.1 499.06 68.6 500.26 67.18C501.47 65.75 502.76 64.4 504.13 63.13C505.5 61.86 506.95 60.68 508.47 59.6C509.99 58.51 511.57 57.52 513.22 56.63C520.12 52.76 528.05 50.83 537 50.83C556.81 50.83 570.87 58.66 579.13 74.3C580.29 72.51 581.56 70.79 582.93 69.16C584.31 67.53 585.78 65.98 587.35 64.53C588.92 63.09 590.58 61.74 592.32 60.51C594.06 59.27 595.88 58.15 597.76 57.14C599.74 56.09 601.78 55.16 603.87 54.36C605.96 53.56 608.1 52.89 610.28 52.36C612.45 51.82 614.66 51.42 616.88 51.16C619.11 50.9 621.34 50.78 623.58 50.79C640.32 50.79 653.16 55.9 662.11 66.09C671.07 76.3 675.55 91.24 675.55 110.93L675.55 184.8L642.47 184.8L642.47 114.16C642.47 102.9 640.32 94.27 636 88.3C631.86 82.31 625.4 79.33 616.59 79.33C607.64 79.33 600.4 82.65 594.89 89.35C589.55 96.05 586.88 105.37 586.88 117.33L586.88 184.86L553.79 184.86L553.79 114.16C553.79 102.9 551.65 94.27 547.33 88.3C543.01 82.31 536.38 79.33 527.44 79.33C518.63 79.33 511.48 82.65 505.98 89.35C500.62 96.05 497.95 105.37 497.95 117.33L497.95 184.87L464.88 184.87L464.88 54ZM794.73 1.27L794.73 184.87L761.65 184.87L761.65 1.27L794.73 1.27ZM876.78 188C864.72 188 853.93 185.03 844.48 179.03C834.99 173.04 827.5 164.88 822 154.51C816.5 144.14 813.72 132.34 813.72 119.18C813.72 106.01 816.49 94.28 822 84.09C827.5 73.72 835.03 65.63 844.48 59.82C853.96 53.83 864.72 50.85 876.78 50.85C886.41 50.85 894.88 52.68 902.12 56.39C909.37 60.08 915.21 65.28 919.69 71.98L919.69 54.02L952.77 54.02L952.77 184.88L923.3 184.88L919.69 166.13C915.56 171.93 910.05 177.05 903.15 181.42C896.4 185.84 887.63 188.02 876.78 188.02L876.78 188ZM883.75 158.48C883.75 158.48 883.75 158.48 883.75 158.48C883.74 158.48 883.74 158.48 883.74 158.48L883.75 158.48ZM909.86 147.66C916.77 140.28 920.22 130.85 920.22 119.43C920.22 108.01 916.77 98.68 909.86 91.45C903.15 84.06 894.44 80.38 883.74 80.38C873.24 80.38 864.53 84 857.63 91.19C850.73 98.4 847.27 107.72 847.27 119.18C847.27 130.6 850.73 140.02 857.63 147.41C864.53 154.76 873.24 158.48 883.75 158.48C894.44 158.48 903.15 154.85 909.86 147.66ZM979.32 53.98L1008.79 53.98L1011.9 78.5C1013.01 76.46 1014.24 74.49 1015.6 72.61C1016.96 70.73 1018.44 68.94 1020.03 67.25C1021.62 65.56 1023.32 63.97 1025.12 62.5C1026.91 61.04 1028.8 59.69 1030.78 58.47C1036.03 55.19 1043.15 53.99 1049.9 53.99L1059.2 86.43L1049.9 86.43C1042.65 86.43 1036.18 87.58 1030.49 89.87C1024.81 92.15 1020.32 96.11 1017.03 101.74C1013.93 107.35 1012.4 115.18 1012.4 125.21L1012.4 184.84L979.32 184.84L979.32 53.98ZM1068.83 54.02L1101.66 54.02L1123.89 148.2L1149.74 54.02L1186.45 54.02L1212.29 148.2L1234.79 54.02L1267.63 54.02L1229.88 184.87L1195.5 184.87L1168.1 86.98L1140.69 184.87L1106.33 184.87L1068.83 54.02ZM1301.51 179.58C1299.05 178.2 1296.68 176.65 1294.43 174.94C1292.18 173.23 1290.06 171.36 1288.07 169.36C1286.08 167.35 1284.24 165.21 1282.55 162.94C1280.86 160.68 1279.33 158.3 1277.97 155.82C1272.29 145.6 1269.46 133.84 1269.46 120.48C1269.46 106.93 1272.22 94.88 1277.73 84.34C1283.42 73.78 1291.16 65.63 1300.99 59.82C1311 53.83 1322.68 50.85 1336.15 50.85C1348.74 50.85 1359.84 53.68 1369.48 59.29C1371.85 60.65 1374.12 62.17 1376.27 63.85C1378.43 65.53 1380.46 67.35 1382.36 69.31C1384.27 71.28 1386.03 73.37 1387.64 75.58C1389.25 77.78 1390.7 80.1 1391.98 82.51C1397.49 92.19 1400.26 103 1400.26 114.95C1400.26 116.89 1400.17 118.92 1399.98 121.01C1399.98 123.14 1399.88 125.32 1399.73 127.61L1302.29 127.61C1302.97 137.82 1306.42 145.82 1312.61 151.63C1318.98 157.43 1326.67 160.32 1335.62 160.32C1342.34 160.32 1347.93 158.82 1352.44 155.85C1357.07 152.67 1360.52 148.64 1362.79 143.7L1396.4 143.7C1395.79 145.77 1395.08 147.81 1394.26 149.81C1393.45 151.81 1392.53 153.77 1391.51 155.67C1390.49 157.57 1389.37 159.42 1388.16 161.21C1386.94 163 1385.64 164.72 1384.25 166.37C1382.85 168.06 1381.36 169.66 1379.78 171.18C1378.21 172.7 1376.54 174.13 1374.81 175.46C1373.07 176.79 1371.26 178.02 1369.38 179.15C1367.5 180.28 1365.57 181.3 1363.57 182.21C1355.46 186.08 1346.22 188.01 1335.9 188.01C1322.97 188.01 1311.52 185.19 1301.51 179.58ZM1314.69 85.39C1308.47 89.96 1304.52 97 1302.79 106.49L1366.65 106.49C1366.12 97.86 1363.04 91 1357.35 85.9C1351.66 80.83 1344.61 78.25 1336.15 78.25C1328.03 78.25 1320.88 80.63 1314.69 85.4L1314.69 85.39ZM1466.88 182.46C1465.12 181.57 1463.41 180.57 1461.77 179.46C1460.13 178.35 1458.56 177.14 1457.08 175.82C1455.6 174.51 1454.21 173.1 1452.91 171.61C1451.61 170.11 1450.41 168.54 1449.32 166.89L1445.68 184.84L1416.21 184.84L1416.21 1.26L1449.28 1.26L1449.28 72.73C1453.42 66.93 1458.86 61.82 1465.58 57.44C1472.48 53.04 1481.34 50.85 1492.19 50.85C1504.25 50.85 1515.02 53.83 1524.5 59.82C1526.86 61.32 1529.13 62.98 1531.28 64.78C1533.43 66.58 1535.46 68.52 1537.36 70.59C1539.25 72.66 1541.01 74.85 1542.62 77.15C1544.23 79.45 1545.68 81.85 1546.97 84.34C1552.48 94.72 1555.24 106.53 1555.24 119.68C1555.24 132.85 1552.48 144.66 1546.97 155.03C1545.67 157.49 1544.21 159.87 1542.6 162.15C1540.99 164.43 1539.23 166.59 1537.33 168.64C1535.44 170.69 1533.41 172.61 1531.26 174.39C1529.12 176.17 1526.86 177.81 1524.5 179.29C1515.07 185.13 1504.29 188.01 1492.22 188.01C1482.55 188.01 1474.12 186.17 1466.88 182.46ZM1485.25 158.48C1495.76 158.48 1504.47 154.86 1511.37 147.66C1518.28 140.47 1521.73 131.13 1521.73 119.68C1521.73 108.26 1518.28 98.85 1511.37 91.45C1504.47 84.07 1495.8 80.38 1485.25 80.38C1474.56 80.38 1465.8 84.07 1458.89 91.45C1452.18 98.65 1448.82 107.98 1448.82 119.44C1448.82 130.85 1452.18 140.28 1458.89 147.66C1465.76 154.86 1474.56 158.48 1485.25 158.48ZM362.34 112.56C369.93 115.04 375.96 118.81 380.44 123.91C384.91 128.86 387.15 135.96 387.18 145.28C387.25 147.21 387.16 149.14 386.93 151.06C386.69 152.97 386.31 154.87 385.78 156.72C385.26 158.58 384.59 160.39 383.78 162.14C382.97 163.89 382.03 165.58 380.96 167.18C376.64 173.68 370.45 178.79 362.34 182.47C354.23 186.19 344.68 188.02 333.63 188.02C322.27 188.02 312.25 186.15 303.64 182.47C295.03 178.6 288.12 173.34 282.97 166.64C281.93 165.3 280.97 163.9 280.09 162.45C279.21 161 278.42 159.5 277.71 157.97C276.99 156.43 276.37 154.85 275.84 153.24C275.3 151.63 274.86 150 274.51 148.34L304.45 143.64C305.54 146.09 309.7 152.33 314.15 155.57C314.47 155.88 314.8 156.14 315.14 156.45L315.29 156.58C319.97 160.11 325.9 161.85 333.15 161.85C340.39 161.85 345.64 160.36 348.91 157.38C352.35 154.4 354.06 150.97 354.06 147.1C354.06 141.45 351.65 137.68 346.82 135.74C341.98 133.64 335.25 131.62 326.64 129.68C325.23 129.37 323.82 129.04 322.41 128.69C321.01 128.35 319.6 127.99 318.21 127.62C316.81 127.25 315.41 126.86 314.02 126.46C312.63 126.05 311.24 125.64 309.86 125.21C308.49 124.79 307.14 124.34 305.8 123.86C304.46 123.37 303.13 122.85 301.81 122.3C300.5 121.75 299.2 121.17 297.91 120.55C296.62 119.94 295.35 119.29 294.09 118.62C292.97 117.95 291.89 117.23 290.84 116.44C289.8 115.66 288.8 114.83 287.84 113.94C286.89 113.05 285.98 112.12 285.12 111.13C284.27 110.15 283.46 109.12 282.72 108.05C279.79 103.67 278.33 98.32 278.33 91.97C278.33 80.35 282.81 70.62 291.76 62.69C300.9 54.79 313.65 50.82 330.04 50.82C345.2 50.82 357.27 54.45 366.23 61.64C367.98 63.02 369.62 64.53 371.13 66.16C372.64 67.79 374.02 69.54 375.25 71.39C376.49 73.24 377.58 75.18 378.5 77.2C379.43 79.22 380.2 81.31 380.8 83.45L353.15 90.44L353.13 90.31C353.13 90.31 349.49 83.17 343.59 80.03C340.1 77.97 335.49 76.92 329.78 76.92C323.56 76.92 318.74 78.13 315.28 80.6C312.02 83.08 310.37 86.16 310.37 89.84C310.37 93.7 312.89 96.78 317.87 99.07C322.85 101.36 329.5 103.47 337.77 105.41C346.72 107.54 354.94 109.91 362.33 112.55L362.34 112.56Z" />
	<path id="Layer" class="shp1" d="M197.86 58.62C200.68 63.04 203.18 67.67 205.33 72.46C207.49 77.25 209.28 82.19 210.72 87.24C212.15 92.29 213.21 97.44 213.9 102.64C214.58 107.85 214.89 113.1 214.81 118.35C214.74 123.6 214.28 128.84 213.45 134.02C212.62 139.2 211.41 144.32 209.84 149.33C208.26 154.34 206.32 159.22 204.04 163.95C201.75 168.68 199.13 173.23 196.18 177.57C194.18 180.52 192.03 183.36 189.74 186.1C187.45 188.83 185.03 191.45 182.48 193.94C179.94 196.44 177.27 198.8 174.49 201.03C171.71 203.26 168.82 205.35 165.84 207.3C163.61 208.66 162.33 208.28 161.74 207.77C160.58 206.79 162.42 203.42 162.42 203.42L162.38 203.42C166.68 194.81 169.19 182.55 169.19 170.98C169.19 167.8 168.98 164.66 168.64 161.59C167.21 138.82 149.86 120.44 123.11 99.73C112.24 91.3 103.85 83.87 97.94 76.71C96.53 75.05 95.32 73.41 94.21 71.75L96.53 74.8C91.69 68.39 88.8 60.34 88.8 51.58C88.8 30.55 105.46 13.51 126.05 13.41C127.67 13.42 129.29 13.49 130.91 13.62C132.53 13.75 134.14 13.94 135.74 14.18C137.35 14.43 138.94 14.74 140.52 15.1C142.1 15.47 143.67 15.89 145.22 16.37L150.85 18.28C169.85 25.85 186.42 40.77 197.86 58.62L197.86 58.62Z" />
	<path id="Layer" class="shp0" d="M116.7 136.44C119.33 138.47 121.72 140.79 123.82 143.37C125.92 145.95 127.71 148.75 129.17 151.74C130.62 154.72 131.73 157.87 132.47 161.11C133.21 164.35 133.57 167.66 133.56 170.98C133.58 175.23 132.98 179.46 131.77 183.54C130.56 187.61 128.75 191.49 126.41 195.03C124.08 198.58 121.23 201.77 117.96 204.48C114.69 207.2 111.04 209.42 107.13 211.07L107.1 211.07C107.1 211.07 75.36 225.42 38.36 198.16L38.39 198.16C36.54 196.83 34.74 195.42 33.01 193.93C31.27 192.45 29.6 190.9 27.99 189.28C26.38 187.66 24.84 185.97 23.37 184.23C21.9 182.48 20.5 180.67 19.17 178.81C15.92 173.98 13.05 168.89 10.61 163.59C8.18 158.3 6.17 152.81 4.62 147.19C3.06 141.57 1.97 135.83 1.34 130.04C0.71 124.24 0.55 118.4 0.86 112.58C1.34 103.41 2.99 94.34 5.76 85.59C8.54 76.85 12.42 68.49 17.32 60.73C22.21 52.96 28.08 45.86 34.77 39.58C41.47 33.31 48.93 27.91 57 23.53C62.39 20.97 59.91 26.17 59.91 26.17L59.91 26.21C58.64 29.15 57.52 32.17 56.61 35.27C46.61 69.34 64.86 96.98 99.96 122.59L116.71 136.43L116.7 136.44Z" />
</svg>