<?xml version="1.0" encoding="UTF-8" standalone="no"?>
<!DOCTYPE svg PUBLIC "-//W3C//DTD SVG 1.1//EN" "http://www.w3.org/Graphics/SVG/1.1/DTD/svg11.dtd">
<svg width="100%" height="100%" viewBox="0 0 2263 773" version="1.1" xmlns="http://www.w3.org/2000/svg" xmlns:xlink="http://www.w3.org/1999/xlink" xml:space="preserve" style="fill-rule:evenodd;clip-rule:evenodd;stroke-linejoin:round;stroke-miterlimit:1.41421;">
    <g transform="matrix(1,0,0,1,-52.1572,-45.7084)">
        <g transform="matrix(1,0,0,1,0,-9.27277)">
            <g transform="matrix(3.24024e-17,-0.529172,0.529172,3.24024e-17,193.198,544.932)">
                <path d="M696.763,168.963L925.883,301.245L925.883,565.809L696.763,698.091L467.644,565.809L467.644,301.245L696.763,168.963Z" style="fill:rgb(193,47,147);"/>
            </g>
            <g transform="matrix(3.24024e-17,-0.529172,0.529172,3.24024e-17,193.198,809.48)">
                <path d="M696.763,168.963L925.883,301.245L925.883,565.809L696.763,698.091L467.644,565.809L467.644,301.245L696.763,168.963Z" style="fill:rgb(193,47,147);"/>
            </g>
            <g transform="matrix(3.24024e-17,-0.529172,0.529172,3.24024e-17,-37.2531,677.206)">
                <path d="M696.763,168.963L925.883,301.245L925.883,565.809L696.763,698.091L467.644,565.809L467.644,301.245L696.763,168.963Z" style="fill:rgb(193,47,147);"/>
            </g>
            <g transform="matrix(3.24024e-17,-0.529172,0.529172,3.24024e-17,-37.2531,941.754)">
                <path d="M696.763,168.963L925.883,301.245L925.883,565.809L696.763,698.091L467.644,565.809L467.644,301.245L696.763,168.963Z" style="fill:rgb(193,47,147);"/>
            </g>
            <g transform="matrix(3.24024e-17,-0.529172,0.529172,3.24024e-17,423.887,677.206)">
                <path d="M696.763,168.963L925.883,301.245L925.883,565.809L696.763,698.091L467.644,565.809L467.644,301.245L696.763,168.963Z" style="fill:rgb(193,47,147);"/>
            </g>
            <g transform="matrix(3.24024e-17,-0.529172,0.529172,3.24024e-17,423.887,941.754)">
                <path d="M696.763,168.963L925.883,301.245L925.883,565.809L696.763,698.091L467.644,565.809L467.644,301.245L696.763,168.963Z" style="fill:rgb(193,47,147);"/>
            </g>
            <g transform="matrix(3.24024e-17,-0.529172,0.529172,3.24024e-17,193.198,1075.03)">
                <path d="M696.763,168.963L925.883,301.245L925.883,565.809L696.763,698.091L467.644,565.809L467.644,301.245L696.763,168.963Z" style="fill:rgb(193,47,147);"/>
            </g>
        </g>
        <g transform="matrix(0.785186,0,0,0.785186,1012.51,32.6589)">
            <path d="M1310.65,726.784L1268.62,770.086L1052.11,557.397L1052.11,762.444L991.618,762.444L991.618,316.69L1052.11,316.69L1052.11,519.826L1241.88,314.78L1282.63,352.35L1108.79,533.199L1310.65,726.784Z" style="fill:rgb(77,77,77);fill-rule:nonzero;"/>
            <path d="M1393.43,762.444L1336.12,762.444L1336.12,431.312L1393.43,431.312L1393.43,762.444ZM1364.78,374.638C1353.74,374.638 1344.29,370.711 1336.44,362.857C1328.59,355.004 1324.66,345.558 1324.66,334.52C1324.66,322.209 1328.27,312.445 1335.49,305.228C1342.7,298.011 1352.47,294.402 1364.78,294.402C1375.82,294.402 1385.26,298.329 1393.12,306.183C1400.97,314.037 1404.9,323.482 1404.9,334.52C1404.9,346.831 1401.29,356.596 1394.07,363.813C1386.85,371.029 1377.09,374.638 1364.78,374.638Z" style="fill:rgb(77,77,77);fill-rule:nonzero;"/>
            <path d="M1489.59,338.978L1533.53,338.978L1533.53,443.411L1625.23,443.411L1625.23,493.081L1533.53,493.081L1533.53,652.916C1533.53,665.227 1534.91,675.628 1537.67,684.119C1540.43,692.609 1544.14,699.402 1548.81,704.496C1553.48,709.59 1559.11,713.305 1565.68,715.64C1572.27,717.975 1579.16,719.142 1586.38,719.142C1596.99,719.142 1606.97,717.444 1616.31,714.048C1625.65,710.652 1634.57,706.619 1643.06,701.949L1658.98,747.798C1650.49,752.892 1639.02,757.88 1624.59,762.762C1610.15,767.644 1595.08,770.086 1579.38,770.086C1547.54,770.086 1522.38,759.685 1503.92,738.883C1485.45,718.081 1476.22,687.939 1476.22,648.458L1476.22,493.081L1418.9,493.081L1418.9,443.411L1477.49,443.411L1489.59,338.978Z" style="fill:rgb(77,77,77);fill-rule:nonzero;"/>
        </g>
        <g id="Rite" transform="matrix(0.785186,0,0,0.785186,185.617,23.6589)">
            <path d="M1251.43,770.086L1196.03,649.095C1182.02,618.954 1164.4,597.515 1143.17,584.779C1121.95,572.043 1094.78,565.675 1061.66,565.675L1052.11,565.675L1052.11,762.444L991.618,762.444L991.618,317.964C1014.54,315.841 1036.09,314.249 1056.25,313.188C1076.42,312.126 1098.39,311.596 1122.16,311.596C1149.33,311.596 1173.1,314.461 1193.48,320.192C1213.86,325.923 1230.84,334.096 1244.42,344.709C1258.01,355.322 1268.3,367.846 1275.31,382.279C1282.31,396.713 1285.82,412.633 1285.82,430.039C1285.82,461.029 1276.58,485.97 1258.12,504.862C1239.65,523.753 1213.01,537.869 1178.2,547.208C1186.69,551.029 1194.54,555.381 1201.76,560.263C1208.98,565.145 1215.77,571.088 1222.14,578.093C1228.5,585.098 1234.77,593.482 1240.92,603.246C1247.08,613.01 1253.34,624.897 1259.71,638.906L1308.1,743.34L1251.43,770.086ZM1122.16,362.539C1107.73,362.539 1094.78,362.751 1083.32,363.176C1071.85,363.6 1061.45,364.237 1052.11,365.086L1052.11,514.732L1122.16,514.732C1152.73,514.732 1177.56,507.94 1196.66,494.355C1215.77,480.77 1225.32,461.242 1225.32,435.77C1225.32,414.544 1216.4,397.032 1198.58,383.235C1180.75,369.438 1155.27,362.539 1122.16,362.539Z" style="fill:rgb(77,77,77);fill-rule:nonzero;"/>
            <path d="M1416.36,762.444L1359.05,762.444L1359.05,431.312L1416.36,431.312L1416.36,762.444ZM1387.7,374.638C1376.66,374.638 1367.22,370.711 1359.37,362.857C1351.51,355.004 1347.58,345.558 1347.58,334.52C1347.58,322.209 1351.19,312.445 1358.41,305.228C1365.63,298.011 1375.39,294.402 1387.7,294.402C1398.74,294.402 1408.19,298.329 1416.04,306.183C1423.89,314.037 1427.82,323.482 1427.82,334.52C1427.82,346.831 1424.21,356.596 1417,363.813C1409.78,371.029 1400.01,374.638 1387.7,374.638Z" style="fill:rgb(77,77,77);fill-rule:nonzero;"/>
            <path d="M1525.25,338.978L1569.19,338.978L1569.19,443.411L1660.89,443.411L1660.89,493.081L1569.19,493.081L1569.19,652.916C1569.19,665.227 1570.57,675.628 1573.33,684.119C1576.09,692.609 1579.8,699.402 1584.47,704.496C1589.14,709.59 1594.77,713.305 1601.35,715.64C1607.93,717.975 1614.83,719.142 1622.04,719.142C1632.65,719.142 1642.63,717.444 1651.97,714.048C1661.31,710.652 1670.23,706.619 1678.72,701.949L1694.64,747.798C1686.14,752.892 1674.68,757.88 1660.25,762.762C1645.82,767.644 1630.74,770.086 1615.04,770.086C1583.2,770.086 1558.04,759.685 1539.58,738.883C1521.11,718.081 1511.88,687.939 1511.88,648.458L1511.88,493.081L1454.57,493.081L1454.57,443.411L1513.15,443.411L1525.25,338.978Z" style="fill:rgb(77,77,77);fill-rule:nonzero;"/>
            <path d="M1756.4,620.44C1760.23,651.43 1771.05,675.628 1788.88,693.034C1806.71,710.439 1830.27,719.142 1859.57,719.142C1878.67,719.142 1895.86,717.126 1911.14,713.093C1926.43,709.06 1941.07,703.859 1955.08,697.491L1968.46,746.524C1953.17,753.741 1935.98,759.472 1916.88,763.718C1897.77,767.963 1876.33,770.086 1852.56,770.086C1828.79,770.086 1807.35,766.159 1788.24,758.305C1769.14,750.451 1752.9,739.201 1739.53,724.555C1726.16,709.909 1715.86,691.866 1708.64,670.428C1701.43,648.989 1697.82,624.473 1697.82,596.878C1697.82,572.256 1701.43,549.331 1708.64,528.105C1715.86,506.878 1726.05,488.518 1739.21,473.022C1752.37,457.527 1768.08,445.428 1786.33,436.725C1804.59,428.022 1824.97,423.671 1847.47,423.671C1871.24,423.671 1892.04,427.704 1909.87,435.77C1927.7,443.836 1942.56,454.874 1954.45,468.883C1966.33,482.893 1975.25,499.237 1981.19,517.916C1987.13,536.595 1990.11,556.336 1990.11,577.138C1990.11,591.996 1989.47,606.43 1988.2,620.44L1756.4,620.44ZM1846.19,473.341C1821.14,473.341 1800.66,481.831 1784.74,498.812C1768.82,515.793 1759.16,540.841 1755.77,573.954L1937.25,573.954C1937.25,541.69 1929.19,516.855 1913.06,499.449C1896.92,482.043 1874.63,473.341 1846.19,473.341Z" style="fill:rgb(77,77,77);fill-rule:nonzero;"/>
        </g>
    </g>
</svg>
