<?xml version="1.0" encoding="utf-8"?><svg id="Layer_1" data-name="Layer 1" xmlns="http://www.w3.org/2000/svg" viewBox="0 0 276.92 80"><defs><style>.cls-1{fill:#224057;}.cls-2{fill:#437e9b;}</style></defs><title>client_portal_logo_svg</title><path class="cls-1" d="M96.26,29.1H85.32V23.33H114.7V29.1h-11V56.46H96.26V29.1ZM80.78,56.46h-7.5V23.27h7.5V56.46ZM44.84,23.27V43.16c0,2.81.51,4.89,1.52,6.27s3,2.08,6.15,2.08,5.13-.71,6.14-2.08a10.92,10.92,0,0,0,1.47-6.21V23.27h7.16V44.54a7.39,7.39,0,0,1-.06,1.15,14.67,14.67,0,0,1-.45,3.46,7.91,7.91,0,0,1-1.46,3.13,9.06,9.06,0,0,1-3.89,3,20.42,20.42,0,0,1-5,1.26c-.68,0-1.36.16-2,.16s-1.3.06-1.92.06-1.24,0-1.86-.06-1.35-.11-2-.16a17.31,17.31,0,0,1-5-1.21,8.81,8.81,0,0,1-4-3.08,7.91,7.91,0,0,1-1.46-3.13,17.83,17.83,0,0,1-.45-3.46c0-.38-.06-.77-.06-1.15V23.27ZM31.13,29.21H13.43a7.72,7.72,0,0,0-3.89.93A3.64,3.64,0,0,0,7.91,33.6a3,3,0,0,0,1.35,2.75,6,6,0,0,0,3.16.82H23c.39,0,.73.06,1.12.06a15.52,15.52,0,0,1,3.27.55,6.73,6.73,0,0,1,2.88,1.59,6,6,0,0,1,1.63,2.42,9.8,9.8,0,0,1,.74,2.86c.05.27.05.55.11.82v1.1c-.06,3.85-1.13,6.48-3.27,7.86s-5,2-8.63,2h-19V50.53H19.75a9.74,9.74,0,0,0,3.89-.61,2.86,2.86,0,0,0,1.63-3v-.33a.84.84,0,0,0-.06-.38,2.81,2.81,0,0,0-1.63-2.69A11.89,11.89,0,0,0,20.2,43H11.8c-3.56,0-6.32-.66-8.35-2.09s-3-3.95-3-7.58c.06-3.85,1.13-6.48,3.27-7.91a15.79,15.79,0,0,1,8.63-2.09l18.77-.06Z"/><path class="cls-2" d="M187.61,42.67h5.08l-5.08-12.53V23.27h4L206.1,56.46h-7.95L195,48.55h-7.39Zm-.11-12.75-5,12.75h5.07v5.88h-7.38l-3,7.91h-7.55L184,23.27h3.61v6.87Z"/><path class="cls-2" d="M240,29.21h-17.7a8,8,0,0,0-3.95.93,3.73,3.73,0,0,0-1.57,3.46,3,3,0,0,0,1.35,2.75,6,6,0,0,0,3.16.82h10.6c.33,0,.73.06,1.12.06a15.52,15.52,0,0,1,3.27.55,6.2,6.2,0,0,1,2.82,1.59,5.64,5.64,0,0,1,1.69,2.42,9.8,9.8,0,0,1,.74,2.86c.05.27.05.55.11.82v1.1c-.06,3.85-1.13,6.48-3.27,7.86s-5,2-8.63,2H210.7V50.53h17.93a9.74,9.74,0,0,0,3.89-.61,2.86,2.86,0,0,0,1.63-3v-.33a.84.84,0,0,0-.06-.38c-.17-1.43-.67-2.31-1.63-2.69a11.89,11.89,0,0,0-3.38-.55l-8.46-.06c-3.5.06-6.26-.6-8.29-2s-3-3.95-3-7.58c.11-3.85,1.18-6.48,3.32-7.91a15.79,15.79,0,0,1,8.63-2.09L240,23.27Z"/><polygon class="cls-2" points="254.16 23.27 254.16 36.73 267.3 36.73 267.3 23.27 274.46 23.27 274.46 56.46 267.3 56.46 267.3 42.61 254.16 42.61 254.16 56.46 247 56.46 247 23.27 254.16 23.27"/><path class="cls-1" d="M131.11,29c-2.3,0-4,.71-5.15,2.09a9.15,9.15,0,0,0-1.86,5.73l0,5.73a15.32,15.32,0,0,0,.34,3.36,6.85,6.85,0,0,0,1.43,3,3.78,3.78,0,0,0,2.25,1.55,10.87,10.87,0,0,0,2.65.33h.4l10.2-.06v5.79H130.81A23,23,0,0,1,126,56a9.85,9.85,0,0,1-4.41-2.37,12.81,12.81,0,0,1-3.48-5.56A23.62,23.62,0,0,1,117,41.37V40.1a2,2,0,0,1,0-.49v-.5c0-.16,0-.34,0-.5.3-5.29,1.57-9.15,3.78-11.62s5.64-3.7,10.1-3.7l10.34-.05V29Z"/><path class="cls-2" d="M155.25,29c3,0,4.9,1.1,5.78,3.31a22.59,22.59,0,0,1,1.47,7.66v1.33a7.09,7.09,0,0,1,0,.89V43a17.13,17.13,0,0,1-.55,3.2,7.33,7.33,0,0,1-1.37,2.75,3.9,3.9,0,0,1-2.25,1.55,11.54,11.54,0,0,1-2.7.33h-.34l-10.25,0v5.79h10.54a22.57,22.57,0,0,0,4.8-.5,9.79,9.79,0,0,0,4.42-2.37,12.45,12.45,0,0,0,3.48-5.56,23.61,23.61,0,0,0,1.07-6.72V40.13a2,2,0,0,0,0-.49v-1c-.35-5.29-1.57-9.15-3.83-11.62s-5.59-3.7-10.1-3.7L145,23.27V29h10.25Z"/><path class="cls-2" d="M142.55,43.72a3.54,3.54,0,0,0,4.21-2.81A3.65,3.65,0,0,0,144,36.57a3.58,3.58,0,0,0-4.22,2.86A3.66,3.66,0,0,0,142.55,43.72Z"/><path class="cls-1" d="M127.87,40l10.62-1.92-.15.71a5.07,5.07,0,0,0,0,2.26l.17.7Z"/></svg>