<?xml version="1.0" encoding="UTF-8" standalone="no"?>
<!-- Created with Inkscape (http://www.inkscape.org/) -->

<svg
   version="1.1"
   id="svg1"
   width="733.05011"
   height="657.52924"
   viewBox="0 0 733.0501 657.52924"
   sodipodi:docname="logo-only.svg"
   inkscape:version="1.4.3 (0d15f750, 2025-12-25)"
   xmlns:inkscape="http://www.inkscape.org/namespaces/inkscape"
   xmlns:sodipodi="http://sodipodi.sourceforge.net/DTD/sodipodi-0.dtd"
   xmlns="http://www.w3.org/2000/svg"
   xmlns:svg="http://www.w3.org/2000/svg">
  <defs
     id="defs1">
    <clipPath
       clipPathUnits="userSpaceOnUse"
       id="clipPath9">
      <path
         style="fill:#297dd8;fill-opacity:1"
         d="m -138.75605,2240.0597 c -33.52943,-3.3073 -65.28517,-11.3164 -100.26954,-25.2887 -31.60626,-12.6232 -72.84737,-38.4703 -102.22801,-64.0694 -13.22971,-11.5269 -15.05476,-13.3242 -25.92783,-25.5326 -19.90965,-22.3547 -30.76856,-37.4617 -45.51647,-63.323 -6.71843,-11.7812 -8.59737,-15.8846 -8.12867,-17.752 1.46145,-5.8229 21.2306,-23.7136 39.86987,-36.0815 39.24851,-26.0429 91.28054,-30.8718 147.5878,-13.697 16.83448,5.1348 39.4604,15.7393 58.61285,27.471 8.25212,5.0548 13.27849,8.4978 40.21387,27.5465 19.66144,13.9045 32.24073,21.8275 46.605185,29.3538 95.8782099,50.2363 195.772465,47.3421 278.844065,-8.0786 4.76472,-3.1788 8.90519,-5.5375 9.20105,-5.2417 1.56878,1.5688 -17.12161,25.8529 -29.93332,38.8918 -36.60029,37.2493 -81.542575,59.2296 -135.892875,66.4623 -14.89282,1.9819 -53.97276,0.6702 -70.53797,-2.3675 -24.28241,-4.4528 -40.39556,-9.086 -63.991505,-18.4 -27.47587,-10.8454 -48.02741,-22.0985 -85.18419,-46.6427 -42.63126,-28.1605 -78.65118,-41.0637 -109.82431,-39.3417 -14.27918,0.7887 -14.73621,1.5461 -2.81712,4.6688 25.20655,6.6038 43.59304,17.5388 74.87707,44.5315 35.39569,30.5405 40.71434,35.0694 47.94005,40.8227 25.03579,19.9342 62.63702,40.6995 92.000005,50.8071 25.70199,8.8474 60.95069,15.8252 80.6730399,15.97 4.57983,0.034 8.32696,0.3754 8.32696,0.7594 0,0.3841 -5.73749995,2.5779 -12.75,4.875 -39.8687799,13.0604 -87.6169799,18.0097 -131.7500049,13.6565 z m 1314.94995,-49.4886 c -11.8284,-0.8852 -19.2249,-2.45 -28.6586,-6.0631 -22.0204,-8.4339 -38.9002,-26.7444 -44.1598,-47.9028 -2.7666,-11.1297 -3.8369,-10.1622 14.1184,-12.7619 8.6625,-1.2542 16.6033,-2.369 17.6462,-2.4773 1.5259,-0.1585 2.3186,1.17 4.0593,6.803 5.8586,18.9586 17.6829,28.5831 38.8819,31.6482 10.3984,1.5034 24.1244,0.1752 33.112,-3.2041 15.1574,-5.6992 22.4982,-20.3526 18.383,-36.6956 -1.6661,-6.6163 -9.3715,-14.2686 -17.3324,-17.2127 -5.7571,-2.129 -10.247,-3.2899 -46,-11.8933 -24.7469,-5.9549 -37.2713,-11.8452 -46.7635,-21.9931 -5.3258,-5.6936 -6.8192,-8.3912 -9.5425,-17.2361 -4.5516,-14.7826 -3.5277,-30.6048 2.8973,-44.775 4.4286,-9.767 15.7618,-20.5015 28.0051,-26.5256 15.0878,-7.4238 22.9742,-9.0032 44.9036,-8.9931 21.6416,0.01 28.489,1.4019 43.6778,8.8782 10.9917,5.4105 18.9256,12.3258 25.2479,22.0065 4.915,7.526 10.9264,23.0741 9.4589,24.4649 -0.6929,0.6566 -31.5237,8.0308 -33.5761,8.0308 -0.2706,0 -1.0638,-1.9125 -1.7628,-4.25 -5.8336,-19.5078 -21.4584,-29.75 -45.3848,-29.75 -12.6691,0 -24.4044,3.7321 -31.0041,9.8601 -8.1264,7.5454 -10.8292,22.8795 -5.6568,32.0932 5.2269,9.3108 13.1478,12.802 44.5,19.6139 40.5198,8.8037 58.0717,17.0412 67.918,31.8752 9.4584,14.2497 11.6321,31.8779 6.3914,51.8324 -7.9499,30.2702 -43.5608,48.0548 -89.3594,44.6273 z m -780.44998,-109.343 c 0,-58.5426 0.3375,-106.5801 0.75,-106.75 0.4125,-0.17 8.85,-0.1667 18.75,0.01 l 18.00001,0.3163 6.3287,9.1837 c 3.4807,5.051 11.7652,17.0586 18.41,26.6836 6.6447,9.625 19.9621,28.975 29.5941,43 9.6321,14.025 22.6874,32.9064 29.0117,41.9586 6.3244,9.0523 14.012,20.3448 17.0836,25.0945 l 5.5847,8.6358 0.1866,-65.5944 c 0.1026,-36.077 0.2122,-70.882 0.2436,-77.3445 l 0.057,-11.7497 h 17.5045 17.5046 l -0.2546,106.25 -0.2545,106.25 h -17.4762 -17.4761 l -6.6137,-9.5 c -3.6375,-5.225 -16.6653,-24.125 -28.9507,-42 -12.2854,-17.875 -30.7385,-44.65 -41.0068,-59.5 -10.2683,-14.85 -21.5512,-31.2516 -25.0731,-36.448 l -6.4034,-9.448 -0.2561,78.698 -0.256,78.698 h -17.49401 -17.4939 z m 227.92241,77.518 c -0.1739,-64.075 0.1334,-183.4662 0.473,-183.8058 0.2001,-0.2001 32.8289,-0.4554 72.5084,-0.5675 l 72.1447,-0.2038 -0.2742,15.5 -0.2743,15.5 h -54.2499 -54.2498 l -2e-4,28.25 -10e-5,28.25 h 50 50 v 15.3835 c 0,15.1722 -0.031,15.3887 -2.25,15.7689 -1.2375,0.2121 -23.7375,0.3771 -50,0.3666 l -47.75,-0.019 v 31.25 31.25 h 56.0254 56.0254 l -0.2754,15.7209 -0.2754,15.721 -73.75,0.1062 -73.75,0.1061 z m 231.0755,24.6729 c -0.5936,-2.3375 -2.8304,-9.875 -4.9707,-16.75 -2.1403,-6.875 -5.4566,-17.9 -7.3696,-24.5 -1.9129,-6.6 -8.8838,-30 -15.4907,-52 -6.6069,-22 -13.8774,-46.525 -16.1566,-54.5 -2.2792,-7.975 -5.304,-18.325 -6.7219,-23 -1.4179,-4.675 -4.4685,-15.025 -6.7792,-23 l -4.2013,-14.5 18.096,-0.5 c 9.9529,-0.275 18.5003,-0.1858 18.9943,0.1983 0.9951,0.7735 7.1745,21.7234 14.5421,49.3017 2.6448,9.9 7.7576,28.575 11.3619,41.5 11.663,41.8242 18.6978,67.974 18.6978,69.5042 0,0.8227 0.45,1.4958 1,1.4958 0.55,0 1,-0.612 1,-1.36 0,-0.748 2.4213,-10.0855 5.3807,-20.75 2.9594,-10.6645 7.0627,-25.69 9.1184,-33.39 2.0557,-7.7 6.1374,-22.55 9.0705,-33 2.933,-10.45 7.5933,-27.325 10.3561,-37.5 6.1865,-22.7838 9.7252,-34.9842 10.3195,-35.5785 0.5894,-0.5894 36.8776,-0.632 37.4655,-0.044 0.4088,0.4087 8.0788,27.2798 15.3059,53.6226 2.4659,8.988 12.9416,46.2258 22.9401,81.5446 1.564,5.5245 3.87997,14.2706 5.14677,19.4357 l 2.3031,9.3912 2.6545,-10.4358 c 2.6579,-10.4494 8.4635,-31.6494 29.1475,-106.4357 6.0846,-22 11.5066,-41.6875 12.0488,-43.75 l 0.9859,-3.75 h 18.8305 18.8305 l -1.4554,4.75 c -0.8005,2.6125 -1.936,6.55 -2.5233,8.75 -0.5874,2.2 -2.8014,9.625 -4.9202,16.5 -2.1187,6.875 -5.9459,19.7 -8.5049,28.5 -2.5589,8.8 -6.6096,22.3 -9.0014,30 -5.8251,18.7522 -15.0192,49.5678 -18.6476,62.5 -2.2125,7.8859 -13.5156,45.2123 -18.3961,60.75 -0.2956,0.941 -4.9813,1.25 -18.9554,1.25 -13.96737,0 -18.66307,-0.3095 -18.96807,-1.25 -0.3906,-1.2044 -9.3955,-33.6688 -17.6828,-63.75 -2.1971,-7.975 -4.8298,-17.2 -5.8504,-20.5 -1.6351,-5.2864 -17.9239,-63.6038 -21.0882,-75.5 l -1.1969,-4.5 -2.2429,8 c -1.2336,4.4 -7.94,28.925 -14.9032,54.5 -10.9565,40.2422 -26.8914,97.9278 -28.1071,101.75 -0.2997,0.9422 -5.0749,1.25 -19.3905,1.25 h -18.9928 z m 501.00207,3.3281 c 0,-0.783 16.5185,-43.374 28.3425,-73.0781 1.4231,-3.575 10.4126,-26.3 19.9766,-50.5 9.564,-24.2 21.3466,-54.0125 26.1834,-66.25 l 8.7943,-22.25 h 18.8516 c 10.3684,0 19.1599,-0.033 19.5366,-0.074 0.3768,-0.041 10.2213,23.6968 21.8767,52.75 24.4803,61.0217 50.496,125.3648 60.7803,150.3241 1.9263,4.675 3.1672,8.8477 2.7575,9.2727 -0.4097,0.425 -9.2622,0.65 -19.6722,0.5 l -18.9273,-0.2728 -8.1242,-21.5 c -4.4683,-11.825 -9.1964,-24.1938 -10.5069,-27.4863 l -2.3827,-5.9864 -36.9931,0.1701 c -20.3462,0.094 -40.6372,0.2 -45.0912,0.2364 l -8.0981,0.066 -1.5761,4.75 c -0.8669,2.6125 -4.3599,12.4 -7.7622,21.75 -3.4024,9.35 -6.9854,19.475 -7.9623,22.5 l -1.7762,5.5 -19.1135,0.2716 c -11.8029,0.1677 -19.1135,-0.098 -19.1135,-0.6935 z m 135.5322,-86.8281 c -1.2157,-3.1206 -17.5606,-46.2411 -24.733,-65.25 -8.0354,-21.2957 -8.4335,-22.1621 -9.1885,-20 -0.2881,0.825 -3.4302,9.375 -6.9825,19 -3.5523,9.625 -9.662,26.275 -13.577,37 -3.9151,10.725 -8.0032,21.6976 -9.0848,24.3834 -1.0815,2.6858 -1.9664,5.2733 -1.9664,5.75 0,0.4767 14.8981,0.8666 33.107,0.8666 31.1235,0 33.0661,-0.1048 32.4252,-1.75 z m 100.4678,-18.8083 v -106.5584 l 50.75,0.3564 50.75,0.3564 9,2.7895 c 12.5191,3.8803 21.3722,8.7916 28.4014,15.7557 11.7934,11.6841 16.1031,23.053 16.8155,44.3587 0.5036,15.0612 -0.5798,22.8197 -4.7232,33.8243 -6.2726,16.6595 -22.9475,29.1731 -46.9937,35.2664 -5.0724,1.2853 -13.2534,1.754 -37.25,2.134 l -30.75,0.4869 v 38.8942 38.8942 h -18 -18 z m 89,-3.4704 c 8.5493,-1.3331 19.9641,-6.9244 23.44,-11.4814 4.9835,-6.5338 6.8475,-12.2747 7.3498,-22.6367 0.8709,-17.9655 -4.2133,-27.8463 -17.5525,-34.1119 -7.7318,-3.6317 -14.0175,-4.2413 -43.7373,-4.2413 h -22 l -0.2623,36.75 -0.2623,36.75 23.2623,-0.01 c 12.7943,0 26.1873,-0.4636 29.7623,-1.0211 z m 103,3.5287 v -106.5 h 18 18 v 106.5 106.5 h -18 -18 z M 28.743955,2064.9979 c -57.10381,-5.728 -107.27252,-25.3286 -159.500005,-62.3157 -34.15225,-24.1863 -54.84889,-37.0893 -73.34422,-45.7251 -58.94549,-27.5226 -112.67791,-33.8966 -167.43687,-19.8621 -19.66185,5.0393 -31.89809,9.8299 -55.46891,21.7169 -11.6875,5.8941 -21.25,10.2776 -21.25,9.7411 0,-1.3891 3.93081,-8.5264 7.9219,-14.384 6.39969,-9.3926 23.0877,-27.4673 31.88772,-34.5375 2.3703,-1.9043 5.5203,-4.4925 7,-5.7515 8.95826,-7.6217 31.76786,-20.723 45.69038,-26.2434 59.46259,-23.5774 124.02275,-19.3231 194,12.7841 19.07689,8.753 32.21149,16.4712 64.000005,37.608 40.38873,26.8553 61.65131,37.7837 93.4890699,48.0506 30.0914901,9.7038 49.2286801,12.8487 78.5109301,12.9022 53.993905,0.099 94.814115,-13.7967 139.522475,-47.4936 8.15917,-6.1496 29.08112,-26.7796 34.04389,-33.5689 1.70866,-2.3375 3.44733,-4.25 3.86372,-4.25 0.88895,0 -2.94528,14.8675 -6.06052,23.5 -8.30992,23.0275 -27.58821,51.9214 -46.79627,70.1372 -41.17803,39.0509 -92.23171,58.7861 -150.567165,58.2028 -8.80337,-0.088 -17.58113,-0.318 -19.50613,-0.5111 z m 29,-111.0038 c -7.45504,-0.4939 -9.74407,-1.8128 -4.84884,-2.7938 17.00785,-3.4084 51.598895,-18.6911 70.848835,-31.3019 30.7609,-20.1518 57.63483,-49.4161 73.21699,-79.7294 15.15589,-29.484 24.78301,-70.0011 24.78301,-104.3028 0,-6.7734 0.38847,-12.0751 0.86326,-11.7817 0.4748,0.2935 2.7866,4.4825 5.13733,9.3091 5.84008,11.9908 13.50895,35.6873 15.96671,49.3366 4.84005,26.8793 0.97998,56.8013 -10.39318,80.5643 -26.50185,55.3727 -83.6452,89.3767 -152.574115,90.7915 -9.075,0.1863 -19.425,0.1449 -23,-0.092 z M 1280.7439,1915.518 c -30.0088,-1.924 -57.5798,-15.5453 -73.067,-36.0984 -14.0244,-18.6117 -20.3571,-39.9705 -20.2357,-68.2506 0.1789,-41.6962 15.5532,-71.031 47.3197,-90.2881 17.4073,-10.5525 47.0915,-16.0754 71.4482,-13.2933 54.9176,6.2728 84.5348,43.1813 84.5348,105.3463 v 13.5081 l -3.25,0.5 c -1.7875,0.275 -33.8322,0.5708 -71.2105,0.6573 -37.3782,0.087 -68.1495,0.3464 -68.3806,0.5775 -0.8093,0.8093 2.9426,13.759 5.7501,19.8467 3.9288,8.5191 9.0305,14.0008 16.383,17.6033 8.09,3.9639 16.0885,5.3706 27.2951,4.8004 14.409,-0.7332 24.6502,-6.4146 28.0063,-15.5366 0.9555,-2.5969 2.0003,-5.0265 2.3219,-5.3993 0.4803,-0.5567 60.0786,1.0273 60.8119,1.6163 0.1249,0.1004 -0.8754,3.7553 -2.2231,8.122 -3.6402,11.7956 -10.3672,22.5598 -20.0287,32.0495 -6.814,6.6928 -10.0673,9.004 -18.6162,13.2252 -19.0878,9.4249 -39.4145,12.7734 -66.8592,11.0137 z m 49.4685,-131.099 c -1.8645,-11.2027 -8.1446,-22.3202 -15.1,-26.7312 -8.0544,-5.108 -13.6924,-6.5315 -25.3685,-6.4051 -13.0871,0.1416 -19.2196,2.264 -27.2679,9.4374 -6.2576,5.5773 -12.1984,16.1278 -13.3444,23.6989 l -0.6433,4.25 h 41.2157 41.2157 z m 565.5315,131.2259 c -28.2894,-2.2664 -47.8482,-9.9702 -63.7719,-25.1184 -9.5315,-9.0674 -17.3014,-24.6838 -17.592,-35.3575 l -0.1361,-5 9,-0.7622 c 26.5476,-2.2486 47.7417,-3.2532 48.0027,-2.2754 2.6931,10.0919 6.7497,15.7244 14.2747,19.82 14.0371,7.6399 40.2335,7.345 51.5857,-0.5807 5.2209,-3.645 7.2385,-12.7037 4.1569,-18.663 -3.6198,-6.9999 -10.3505,-9.4123 -40.7278,-14.5975 -38.2517,-6.5295 -54.002,-11.7944 -65.4331,-21.8728 -21.8343,-19.2506 -23.0766,-54.9641 -2.6953,-77.4862 11.0387,-12.1982 26.3274,-20.0207 47.3668,-24.2354 16.2056,-3.2463 42.7876,-3.2604 57.7058,-0.031 14.3649,3.11 23.1981,6.628 33.3033,13.2634 8.9357,5.8675 16.3439,13.5998 21.5643,22.5078 3.4436,5.876 8.5713,20.6374 7.5304,21.6783 -0.4387,0.4387 -11.786,1.8981 -25.2161,3.2431 -13.43,1.3449 -25.7998,2.6859 -27.4884,2.9799 -2.9374,0.5114 -3.2182,0.2444 -6.5,-6.1827 -6.0311,-11.8114 -15.3866,-16.6135 -32.4299,-16.6458 -11.8469,-0.023 -20.4564,2.4273 -25.5462,7.2691 -8.8675,8.4355 -4.9263,20.4076 7.9286,24.0847 1.9897,0.5691 13.9676,2.835 26.6176,5.0352 27.3692,4.7604 36.2888,6.8 47.2809,10.8116 27.1107,9.8942 39.4391,28.3343 37.8671,56.6393 -0.9579,17.2473 -5.1981,27.3933 -15.7218,37.6192 -18.1837,17.6694 -53.2651,26.8738 -90.9262,23.8566 z M 474.24393,1914.995 c -6.8011,-0.8487 -18.5199,-3.7495 -26.5,-6.5595 -41.10961,-14.476 -67.18371,-47.2201 -76.65701,-96.2665 -2.2157,-11.4715 -2.5698,-54.0956 -0.54,-65 8.4104,-45.1815 31.545,-77.3921 67.52511,-94.0159 16.3378,-7.5485 33.8975,-10.8114 58.1719,-10.8092 14.8029,0 19.8604,0.3971 28.4744,2.228 35.132,7.4677 59.6829,26.1387 74.0065,56.282 4.0578,8.5396 8.573,22.7388 9.178,28.8627 0.3258,3.2979 0.1845,3.4658 -3.1589,3.7519 -1.925,0.1647 -15.9344,1.8522 -31.1319,3.75 -15.1975,1.8978 -28.0816,3.4505 -28.6313,3.4505 -0.5496,0 -1.5289,-2.1375 -2.176,-4.75 -0.6471,-2.6125 -2.9284,-8.3902 -5.0695,-12.8393 -8.8909,-18.475 -26.6925,-27.9822 -48.6665,-25.991 -29.2394,2.6496 -45.9132,22.2452 -51.3802,60.3834 -1.7285,12.058 -0.6793,41.2656 1.875,52.1969 5.2922,22.6481 16.2483,39.1215 30.5467,45.9293 8.552,4.0718 21.2196,6.4912 29.5395,5.6418 23.7817,-2.4279 35.5849,-12.184 43.1156,-35.6378 l 3.2427,-10.099 5.6179,0.5912 c 3.0899,0.3252 15.518,1.2651 27.618,2.0887 30.5926,2.0823 30.5,2.067 30.5,5.0685 0,4.7735 -5.297,24.0222 -8.9209,32.4173 -2.018,4.675 -5.79,11.7063 -8.3821,15.625 -4.9469,7.4787 -17.1457,19.8367 -24.7282,25.051 -11.5476,7.941 -29.8186,15.0669 -45.7596,17.8468 -7.8068,1.3614 -39.0248,1.887 -47.7092,0.8032 z m 222.5,-0.016 c -4.6159,-0.7718 -15.4456,-4.5626 -21.786,-7.6258 -7.8801,-3.8071 -19.794,-15.9278 -24.1626,-24.5821 -5.0113,-9.9272 -8.112,-22.2337 -8.9702,-35.6017 -0.8886,-13.8418 -1.4047,-132.4934 -0.5856,-134.628 0.4575,-1.1922 5.3765,-1.3974 30.2753,-1.2626 16.351,0.089 30.054,0.2125 30.4511,0.2757 0.3971,0.063 0.8471,29.2524 1,64.8649 0.2595,60.4482 0.4028,65.094 2.1568,69.9284 5.2582,14.4929 19.1396,20.8543 36.8895,16.9053 10.5635,-2.3502 17.2684,-6.6466 22.4604,-14.3925 7.8813,-11.7579 7.6127,-9.2386 8.2256,-77.1737 l 0.5457,-60.4825 30,-0.017 30,-0.017 0.2548,99.75 0.2549,99.75 h -29.5049 -29.5048 v -11.6147 -11.6147 l -6.4442,6.0282 c -17.241,16.1282 -33.3646,22.341 -57.2636,22.065 -6.4857,-0.075 -12.9172,-0.3243 -14.2922,-0.5542 z m 1036.49997,-1.6882 c -29.1283,-4.8074 -43.639,-16.0831 -51.6322,-40.1214 -2.303,-6.9258 -2.331,-7.5703 -2.6461,-60.75 l -0.3184,-53.75 -2.7016,-0.072 c -1.486,-0.039 -8.7767,-0.1994 -16.2017,-0.3557 -7.425,-0.1562 -13.725,-0.3488 -14,-0.428 -0.3561,-0.1026 -0.3705,-36.031 -0.019,-46.1769 0.01,-0.2926 7.4435,-0.4897 16.5185,-0.4379 l 16.5,0.094 v -26.3121 -26.3121 h 30.5 30.5 v 26.3801 26.38 l 23.25,0.089 c 12.7875,0.049 23.8125,0.103 24.5,0.12 0.9629,0.024 1.25,5.3141 1.25,23.0309 0,21.182 -0.1383,23.0116 -1.75,23.1473 -0.9625,0.081 -10.525,0.2502 -21.25,0.376 -10.725,0.1259 -20.9625,0.2846 -22.75,0.3528 l -3.2495,0.1238 v 42.9508 c 0,27.9928 0.3916,44.7963 1.1244,48.25 2.0698,9.7549 10.2622,14.8639 23.6748,14.7644 4.7067,-0.035 18.3266,-2.2143 21.2611,-3.402 1.3159,-0.5326 2.2367,2.8308 5.8792,21.4734 2.4341,12.4583 3.9352,22.4449 3.4397,22.8838 -1.6901,1.4972 -9.948,4.2858 -18.3792,6.2064 -11.0984,2.5283 -32.7332,3.2716 -43.5,1.4947 z m -1748.999945,-0.7429 c -22.25339,-2.1045 -55.28492,-11.2218 -77.34275,-21.3479 -5.68852,-2.6115 -19.413525,-10.1312 -30.500005,-16.7106 -46.13155,-27.3773 -82.63571,-41.7054 -120.82101,-47.4231 -12.30885,-1.8431 -45.99702,-2.4814 -60.48055,-1.146 -14.49351,1.3363 -39.86543,7.1985 -53.713,12.4104 -37.42827,14.0871 -67.35688,33.4696 -93.84976,60.7794 -2.63611,2.7174 -4.79293,4.3924 -4.79293,3.7223 0,-1.3932 5.40281,-12.5478 9.58142,-19.7817 24.14854,-41.8055 56.28182,-72.4345 98.41858,-93.8114 21.14167,-10.7256 40.7226,-17.0883 66.99943,-21.7709 16.69318,-2.9748 51.71449,-3.1761 71.50057,-0.411 38.59948,5.3942 78.80972,18.8153 124.000005,41.3879 22.28377,11.1308 42.6905,17.9195 65,21.6235 18.0086299,2.99 29.0117599,2.5336 46.63754,-1.9343 36.84768,-9.3404 62.24546,-32.9157 73.90806,-68.6047 12.511175,-38.2856 -1.93926,-80.3634 -35.4084,-103.1046 -14.27286,-9.6979 -28.03065,-13.7559 -46.6372,-13.7559 -24.2138101,0 -42.47435,7.5186 -58.81744,24.2173 -14.19746,14.5065 -20.5856,28.2578 -24.09569,51.8691 l -1.84542,12.4136 -1.60464,-3.6793 c -0.88255,-2.0237 -2.81685,-7.6487 -4.29844,-12.5 -2.46756,-8.0798 -2.69577,-10.2485 -2.71715,-25.8207 -0.0226,-16.428 0.0864,-17.3507 3.23917,-27.4252 6.30526,-20.1481 14.95443,-34.1128 29.61748,-47.8194 22.78091,-21.2951 58.47328,-32.5799 92.62724,-29.2858 62.263285,6.0051 111.786095,48.8999 127.366645,110.3203 7.30042,28.7791 7.8086,44.4068 2.45354,75.4518 -8.61196,49.9262 -40.13214,94.0142 -85.454415,119.5273 -31.50502,17.7349 -71.8975,26.1157 -108.97088,22.6096 z m 891.745175,-101.6286 0.2548,-99.75 27.8782,-0.266 c 19.7326,-0.1883 28.279,0.067 29.25,0.8724 1.029,0.854 1.3865,4.4194 1.4306,14.2661 0.047,10.5602 0.2918,12.7592 1.25,11.244 12.4998,-19.7655 34.1625,-30.7462 57.6912,-29.2434 12.71907,0.8125 19.57807,2.6695 19.26537,5.2161 -2.9027,23.6436 -6.7143,51.071 -7.1703,51.5957 -0.3273,0.3766 -3.2951,0.037 -6.59507,-0.7554 -7.9991,-1.9199 -21.6434,-1.9037 -30.0061,0.036 -14.3985,3.3393 -23.6528,10.8543 -28.6713,23.2828 l -2.3226,5.752 -0.2878,58.75 -0.2877,58.75 h -30.9671 -30.9671 z m 161.51437,0.6543 c -0.1428,-54.5026 -0.01,-99.5011 0.2973,-99.9966 0.5672,-0.9175 52.5532,-1.0837 56.6931,-0.1813 2.164,0.4717 2.2527,0.9163 2.3203,11.6321 0.039,6.1278 0.4073,12.0012 0.8193,13.0519 0.6631,1.6911 1.0057,1.4951 2.9851,-1.7076 3.8497,-6.2289 15.8781,-16.5087 23.7436,-20.2919 9.4672,-4.5535 21.3813,-6.8265 31.9425,-6.094 8.2428,0.5717 17.273,2.3567 18.783,3.7129 0.7573,0.6801 -0.1491,8.6373 -4.8843,42.8767 -0.7915,5.7236 -1.5599,10.5273 -1.7076,10.6749 -0.1476,0.1477 -2.9647,-0.3657 -6.2601,-1.1408 -12.3796,-2.9118 -30.4085,-1.3103 -40.9308,3.6358 -6.4743,3.0432 -13.2666,9.4091 -16.1854,15.1692 -5.0521,9.9698 -5.3395,13.8855 -5.3582,73.0044 l -0.017,54.75 h -30.9904 -30.9903 z m 387.015,14.3457 c -0.3103,-116.6701 -0.312,-112.6153 0.048,-113.911 0.2376,-0.8543 7.9634,-1.0973 29.2469,-0.9198 15.9082,0.1327 29.2037,0.5209 29.5454,0.8627 0.3418,0.3417 0.6807,5.9306 0.7532,12.4198 l 0.1319,11.7983 7.5734,-7.5575 c 14.6057,-14.5751 32.5122,-21.2707 56.9266,-21.2858 16.3699,-0.01 24.9891,1.7147 36.5633,7.3169 14.3605,6.9509 24.6237,19.1741 30.5598,36.3959 5.4062,15.6846 5.8384,22.6474 5.8586,94.3805 l 0.018,65.25 h -30.9516 -30.9517 l -0.2986,-63.25 -0.2987,-63.25 -2.3336,-5.7823 c -3.2629,-8.0847 -7.8416,-13.6748 -13.6483,-16.6631 -4.4799,-2.3054 -6.0906,-2.5546 -16.5118,-2.5546 -11.0294,0 -11.8469,0.1473 -18.2115,3.2806 -7.7883,3.8342 -14.3547,10.5881 -18.4989,19.0272 l -2.7953,5.6922 -0.2793,61.75 -0.2792,61.75 h -30.9708 -30.9707 z m -1817.40529,-60.7702 c 1.02327,-2.6665 8.78233,-13.7334 15.05649,-21.4752 28.52208,-35.194 58.99093,-54.6672 98.80081,-63.1453 13.6747,-2.9123 39.42589,-3.1209 54.27344,-0.4397 19.8992,3.5935 43.69504,13.507 62.5,26.0381 16.97903,11.3142 40.37676,32.9034 44.97849,41.5018 1.38608,2.59 0.98148,2.5603 -4.76173,-0.3494 -5.4706,-2.7715 -27.4538,-10.5772 -41.21676,-14.6351 -35.0412,-10.3314 -75.42312,-14.3052 -107.5,-10.5787 -14.50688,1.6853 -40.18002,7.0446 -51.5,10.7505 -18.97234,6.2113 -46.149,18.7434 -61.3725,28.301 -4.8638,3.0536 -9.06787,5.5519 -9.34238,5.5519 -0.2745,0 -0.23664,-0.6839 0.0841,-1.5199 z"
         id="path9" />
    </clipPath>
  </defs>
  <sodipodi:namedview
     id="namedview1"
     pagecolor="#ffffff"
     bordercolor="#000000"
     borderopacity="0.25"
     inkscape:showpageshadow="2"
     inkscape:pageopacity="0.0"
     inkscape:pagecheckerboard="0"
     inkscape:deskcolor="#d1d1d1"
     showguides="true"
     inkscape:zoom="0.28644561"
     inkscape:cx="1169.5065"
     inkscape:cy="1003.6809"
     inkscape:window-width="2007"
     inkscape:window-height="1186"
     inkscape:window-x="395"
     inkscape:window-y="77"
     inkscape:window-maximized="0"
     inkscape:current-layer="g1">
    <inkscape:page
       x="0"
       y="0"
       width="733.05011"
       height="657.52924"
       id="page2"
       margin="0"
       bleed="0" />
  </sodipodi:namedview>
  <g
     inkscape:groupmode="layer"
     inkscape:label="Image"
     id="g1"
     transform="translate(-160.66231,-337.764)">
    <rect
       style="fill:#2b7dd8;fill-opacity:1;stroke-width:22.0231"
       id="rect8"
       width="757.56091"
       height="715.66815"
       x="-481.76685"
       y="1553.5237"
       clip-path="url(#clipPath9)"
       transform="translate(617.91836,-1246.3099)" />
  </g>
</svg>
