<svg width="91" height="24" viewBox="0 0 91 24" fill="none" xmlns="http://www.w3.org/2000/svg">
<path fill-rule="evenodd" clip-rule="evenodd" d="M31.3113 16.7386H34.9344C35.5702 16.7386 36.1581 16.5678 36.5188 16.2319C36.8783 15.8961 37.0469 15.3576 37.0469 14.7636C37.0469 14.2239 36.8794 13.848 36.5234 13.4886C36.1663 13.1292 35.5761 12.7887 34.9344 12.7887H31.3113V16.7386ZM31.3113 10.9669H34.9344C35.5176 10.9669 35.9696 10.677 36.3045 10.3506C36.6382 10.0242 36.7459 9.66359 36.7459 9.14392C36.7459 8.61718 36.6382 8.12697 36.3045 7.7982C35.9696 7.46708 35.5105 7.30328 34.9262 7.30328L31.3113 7.32096V10.9669ZM28.8955 18.8656V5.19397H35.4098C36.5925 5.19397 37.5188 5.52392 38.191 6.18381C38.8643 6.84371 39.1606 7.68861 39.1606 8.68789C39.1606 9.51394 38.9767 10.1903 38.5306 10.7501C38.0844 11.311 37.5352 11.6598 36.8829 11.8C37.5973 11.9131 38.2038 12.2937 38.7039 12.9383C39.2027 13.5853 39.4627 14.2346 39.4627 15.0677C39.4627 16.153 39.1125 17.1298 38.431 17.8157C37.7495 18.5027 36.8021 18.8456 35.589 18.8456L28.8955 18.8656ZM50.388 10.4603V8.59235H52.0035V5.79098H54.1559V8.59235H55.7708V10.4603H54.1559V15.7527C54.1559 16.1017 54.2979 16.4688 54.4638 16.6861C54.6284 16.9047 54.9613 16.9276 55.2584 16.9276C55.4505 16.9276 55.6354 16.8926 55.8144 16.8225C55.9922 16.7513 56.1246 16.6704 56.2105 16.575L56.7164 18.2027C56.2738 18.6314 55.5471 18.8656 54.6475 18.8656C53.8278 18.8656 53.1663 18.6253 52.7356 18.1858C52.3073 17.7463 52.0035 17.2005 52.0035 16.3746V10.4603H50.388ZM58.6686 14.8199C59.1757 15.3573 59.845 15.9467 60.567 16.2897C61.2889 16.6326 61.9631 16.8034 62.8283 16.8034C63.7193 16.8034 64.3684 16.6243 64.8133 16.2637C65.2594 15.9043 65.4825 15.4778 65.4825 14.9852C65.4825 14.6871 65.3932 14.4278 65.2136 14.2074C65.0352 13.9871 64.7957 13.8068 64.4964 13.6677C64.197 13.5287 63.8531 13.405 63.4645 13.2989C63.0771 13.1929 62.8092 13.0809 62.3842 12.9643C61.9581 12.8476 61.5272 12.7298 61.0929 12.6096C60.6574 12.4905 60.2465 12.3326 59.8603 12.1358C59.4717 11.9391 59.129 11.7093 58.8308 11.4477C58.5314 11.1861 58.292 10.8526 58.1135 10.4449C57.9339 10.0383 57.8224 9.57285 57.8224 9.05083C57.8224 7.94904 58.2955 7.03107 59.1959 6.29576C60.0974 5.56163 61.2666 5.19397 62.7035 5.19397C64.7672 5.19397 66.3778 5.7973 67.6586 7.01693L66.4154 8.63513C65.9142 8.13667 65.306 7.87951 64.6311 7.62498C63.9572 7.36927 63.2365 7.23611 62.5133 7.23611C61.8301 7.23611 61.2784 7.38695 60.8652 7.68861C60.4508 7.99146 60.2453 8.39211 60.2453 8.89293C60.2453 9.15335 60.3322 9.38313 60.5071 9.5811C60.6832 9.77907 60.9192 9.94169 61.2173 10.069C61.5155 10.195 61.8595 10.3129 62.2469 10.4213C62.6354 10.5297 62.9046 10.644 63.333 10.7642C63.7615 10.8844 64.1912 11.0046 64.6196 11.1236C65.0493 11.2438 65.4602 11.4076 65.8546 11.6126C66.2478 11.82 66.5953 12.0581 66.8982 12.3291C67.1999 12.6001 67.4394 12.943 67.6178 13.359C67.7939 13.775 67.8209 14.2346 67.8209 14.7636C67.8209 15.3234 67.7798 15.856 67.5744 16.338C67.3689 16.8199 67.0614 17.2512 66.654 17.6295C66.2455 18.0101 65.8425 18.3071 65.1675 18.5227C64.4914 18.7372 63.6908 18.8656 62.8162 18.8656C60.5318 18.8656 58.7593 17.981 57.4328 16.587L58.6686 14.8199ZM67.8806 10.4603V8.59235H69.4752V5.79098H71.6296V8.59235H73.2274V10.4605L71.6296 10.4603V15.7527C71.6296 16.1017 71.7716 16.4688 71.9364 16.6861C72.1023 16.9047 72.3935 16.9276 72.6907 16.9276C72.8829 16.9276 73.0679 16.8926 73.2469 16.8225C73.4247 16.7513 73.5572 16.6704 73.6432 16.575L74.1492 18.2027C73.7064 18.6314 72.9903 18.8656 72.0903 18.8656C71.2703 18.8656 70.5981 18.5319 70.1684 18.0924C69.7375 17.6529 69.4752 16.889 69.4752 16.0643V10.4603H67.8806ZM84.5373 18.8656V8.59695H86.7199V10.1527C87.2568 9.68079 87.7054 9.36578 88.2955 9.05801C88.8856 8.75144 89.5035 8.59695 90.1492 8.59695V10.6862C89.9618 10.6463 89.726 10.627 89.4406 10.627C88.9691 10.627 88.466 10.7562 87.9315 11.0145C87.3959 11.2727 86.9412 11.6807 86.7199 12.0198V18.8656H84.5373ZM77.2721 16.8986C77.6596 17.2146 78.1511 17.372 78.7479 17.372C79.2226 17.372 79.6639 17.286 80.0729 17.1141C80.4819 16.941 80.8036 16.6952 81.038 16.3768L81.0273 14.8223C80.7941 14.5039 80.4819 14.349 80.0729 14.1771C79.6639 14.0052 79.2226 13.918 78.7479 13.918C78.1511 13.918 77.6596 14.0766 77.2721 14.3926C76.887 14.7073 76.6933 15.1286 76.6933 15.6553C76.6933 16.1686 76.887 16.5839 77.2721 16.8986ZM74.5672 15.5984C74.5672 15.0589 74.7148 14.5942 74.9113 14.1779C75.1078 13.7602 75.3674 13.4283 75.6913 13.1821C76.0153 12.9359 76.369 12.75 76.75 12.6257C77.1335 12.5002 77.5265 12.4374 77.9302 12.4374C78.5207 12.4374 79.0473 12.4924 79.5119 12.624C80.1164 12.7953 80.616 13.0965 81.0146 13.5756V12.3312C81.0146 11.7772 80.8193 11.2824 80.4085 10.9601C79.9988 10.6379 79.4569 10.4762 78.7841 10.4762C77.7147 10.4762 76.9203 10.6029 76.1022 11.3971L75.1816 10.1527C76.2689 9.10025 77.5825 8.59695 79.1723 8.59695C79.7273 8.59695 80.1881 8.71524 80.649 8.84317C81.1123 8.9699 81.5303 9.16663 81.9042 9.43216C82.2793 9.69648 82.5735 10.0622 82.7867 10.5305C82.9998 10.9976 83.1642 11.3922 83.1642 12.0198V18.8656H81.0146V17.62C80.6526 18.0401 80.2155 18.2766 79.682 18.5023C79.1485 18.7292 78.5781 18.8656 77.9445 18.8656C77.5456 18.8656 77.1407 18.7739 76.756 18.6363C76.3702 18.4987 76.0153 18.2996 75.6913 18.0401C75.3674 17.7806 75.1078 17.4402 74.9113 17.0202C74.7148 16.6002 74.5672 16.1174 74.5672 15.5984ZM45.3731 18.8656C42.5375 18.8656 40.2388 16.5669 40.2388 13.7313C40.2388 10.8957 42.5375 8.59695 45.3731 8.59695C48.2087 8.59695 50.5074 10.8957 50.5074 13.7313C50.5074 16.5669 48.2087 18.8656 45.3731 18.8656ZM45.4033 16.8723C47.1215 16.8723 48.5141 15.4661 48.5141 13.7313C48.5141 12.9247 48.2131 12.1891 47.7182 11.6329C47.1487 10.9929 46.3226 10.5903 45.4033 10.5903C43.6852 10.5903 42.2925 11.9965 42.2925 13.7313C42.2925 14.7045 42.7308 15.5743 43.419 16.1504C44.1072 16.7266 44.6491 16.8723 45.4033 16.8723Z" fill="#0E92EE"/>
<path d="M12 24C18.6274 24 24 18.6274 24 12C24 5.37258 18.6274 0 12 0C5.37258 0 0 5.37258 0 12C0 18.6274 5.37258 24 12 24Z" fill="#0E92EE"/>
<path fill-rule="evenodd" clip-rule="evenodd" d="M8.44689 17.5623L6.65424 18.9505C6.61418 18.9816 6.56495 18.9984 6.51429 18.9984C6.38805 18.9984 6.28571 18.8961 6.28571 18.7698V16.4684C4.88971 15.3845 4 13.7447 4 11.9096C4 8.64582 6.81421 6 10.2857 6H13.7143C17.1858 6 20 8.64582 20 11.9096C20 15.1734 17.1858 17.8192 13.7143 17.8192H10.2857C9.64595 17.8192 9.02851 17.7293 8.44689 17.5623ZM8.57143 9.54576C7.30906 9.54576 6.28571 10.5691 6.28571 11.8315V11.9877C6.28571 13.2501 7.30906 14.2734 8.57143 14.2734H15.4286C16.6909 14.2734 17.7143 13.2501 17.7143 11.9877V11.8315C17.7143 10.5691 16.6909 9.54576 15.4286 9.54576H8.57143ZM15.0373 13.0968C14.3856 13.0968 13.8573 12.5677 13.8573 11.9149C13.8573 11.2622 14.3856 10.733 15.0373 10.733C15.689 10.733 16.2173 11.2622 16.2173 11.9149C16.2173 12.5677 15.689 13.0968 15.0373 13.0968ZM8.96401 13.0938C8.31232 13.0938 7.78401 12.5646 7.78401 11.9119C7.78401 11.2591 8.31232 10.7299 8.96401 10.7299C9.61571 10.7299 10.144 11.2591 10.144 11.9119C10.144 12.5646 9.61571 13.0938 8.96401 13.0938Z" fill="white"/>
</svg>
