<svg xmlns="http://www.w3.org/2000/svg" viewBox="0 0 32 32" fill="none">
  <rect width="32" height="32" rx="8" fill="#2563eb"/>
  <g transform="translate(4 4) scale(0.96)">
    <path d="M21.4 8H16c-.8 0-1.2-.6-.9-1.3l2-4.6c.4-1-.2-2-1.3-2h-5c-.6 0-1.1.4-1.3.9L7 6.5c-.4 1 .1 1.7 1.1 1.7h5.2c.6 0 1.1.3 1.3.8l2.4 5.5c.3.7-.1 1.3-1 1.3h-12c-.5 0-1 .4-1.3.8L.6 22c-.5 1 0 2 1.2 2h11.8c.5 0 1-.5 1.2-1l2.7-6c.2-.6.7-.9 1.2-.9H24c1 0 1.5-.8 1-1.7l-2.2-5.5c-.2-.4-.8-.8-1.3-.8Z" fill="#fff"/>
  </g>
</svg>
