<?xml version="1.0" encoding="UTF-8" standalone="no"?>
<!-- Created with Inkscape (http://www.inkscape.org/) -->

<svg
   width="66.513222mm"
   height="7.621295mm"
   viewBox="0 0 66.513221 7.621295"
   version="1.1"
   id="svg64266"
   inkscape:version="1.1.1 (3bf5ae0d25, 2021-09-20)"
   sodipodi:docname="highergov_logo_light.svg"
   xmlns:inkscape="http://www.inkscape.org/namespaces/inkscape"
   xmlns:sodipodi="http://sodipodi.sourceforge.net/DTD/sodipodi-0.dtd"
   xmlns="http://www.w3.org/2000/svg"
   xmlns:svg="http://www.w3.org/2000/svg">
  <sodipodi:namedview
     id="namedview64268"
     pagecolor="#ffffff"
     bordercolor="#666666"
     borderopacity="1.0"
     inkscape:pageshadow="2"
     inkscape:pageopacity="0.0"
     inkscape:pagecheckerboard="0"
     inkscape:document-units="mm"
     showgrid="false"
     inkscape:zoom="2"
     inkscape:cx="172.25"
     inkscape:cy="51.25"
     inkscape:window-width="1284"
     inkscape:window-height="1041"
     inkscape:window-x="2306"
     inkscape:window-y="18"
     inkscape:window-maximized="0"
     inkscape:current-layer="layer1"
     fit-margin-top="0"
     fit-margin-left="0"
     fit-margin-right="0"
     fit-margin-bottom="0" />
  <defs
     id="defs64263" />
  <g
     inkscape:label="Layer 1"
     inkscape:groupmode="layer"
     id="layer1"
     transform="translate(-73.407027,-82.371467)">
    <path
       d="m 78.67751,82.466717 h 1.174746 v 7.408309 H 78.67751 Z m -4.095737,7.408309 h -1.174746 v -7.408309 h 1.174746 z m 4.190987,-3.249073 h -4.29682 v -1.02658 h 4.29682 z"
       style="font-size:10.5833px;line-height:1.25;font-family:Montserrat;-inkscape-font-specification:'Montserrat, @wght=538';font-variation-settings:'wght' 538;letter-spacing:0px;fill:#495057;fill-opacity:1;stroke-width:0.264583"
       id="path49334-5" />
    <path
       d="m 81.990072,89.875026 v -7.408309 h 1.174746 v 7.408309 z"
       style="font-size:10.5833px;line-height:1.25;font-family:Montserrat;-inkscape-font-specification:'Montserrat, @wght=538';font-variation-settings:'wght' 538;letter-spacing:0px;fill:#495057;fill-opacity:1;stroke-width:0.264583"
       id="path49336-0" />
    <path
       id="path49338-3"
       style="font-size:10.5833px;line-height:1.25;font-family:Montserrat;-inkscape-font-specification:'Montserrat, @wght=538';font-variation-settings:'wght' 538;letter-spacing:0px;fill:#495057;fill-opacity:1;stroke-width:0.999999"
       d="m 57.839844,0 c -2.186661,0 -4.201021,0.36008064 -6.041016,1.0800781 -1.813326,0.6933317 -3.399771,1.6933367 -4.759766,3 -1.359994,1.279995 -2.41349,2.8005519 -3.160156,4.5605469 -0.746663,1.733327 -1.11914,3.638755 -1.11914,5.71875 0,2.079992 0.372477,3.999771 1.11914,5.759766 0.746666,1.733326 1.787765,3.253883 3.121094,4.560547 1.359995,1.279994 2.946439,2.280002 4.759766,3 1.839995,0.693331 3.840007,1.041015 6,1.041015 1.973326,0 3.893104,-0.294196 5.759765,-0.880859 1.893329,-0.613332 3.547611,-1.506356 4.960938,-2.679688 V 12.572345 l -4.413833,-0.04419 -5.050283,0.04419 0.04419,3.9568 5.050284,-0.07276 0.08839,6.639321 C 63.544028,23.502504 62.865566,23.83111 62.160156,24.080078 60.826827,24.53341 59.439995,24.759766 58,24.759766 56.426671,24.759766 54.986348,24.506663 53.679688,24 52.373024,23.466668 51.239294,22.734113 50.279297,21.800781 49.319299,20.840786 48.572394,19.7338 48.039062,18.480469 47.505731,17.22714 47.240234,15.852702 47.240234,14.359375 c 0,-1.493329 0.265497,-2.865811 0.798828,-4.119141 0.533332,-1.2799971 1.280237,-2.386983 2.240235,-3.3203121 0.959997,-0.9333317 2.093727,-1.653493 3.400391,-2.1601563 1.333329,-0.5333316 2.786048,-0.7988281 4.359374,-0.7988281 1.546664,0 2.97459,0.2654965 4.28125,0.7988281 C 63.653642,5.2664289 64.880003,6.0935711 66,7.2402344 L 68.798828,4.4003906 C 67.492165,2.9603957 65.905723,1.8658065 64.039062,1.1191406 62.172402,0.37247732 60.106502,0 57.839844,0 Z"
       transform="matrix(0.26458333,0,0,0.26458333,73.407027,82.371467)"
       sodipodi:nodetypes="scccscccscccccccccsccsscscscccss" />
    <path
       id="path49338-3-1"
       style="font-size:10.5833px;line-height:1.25;font-family:Montserrat;-inkscape-font-specification:'Montserrat, @wght=538';font-variation-settings:'wght' 538;letter-spacing:0px;fill:#787e83;fill-opacity:0.88344991;stroke-width:0.264583"
       d="m 120.39596,82.393743 c -0.57855,0 -1.11152,0.09527 -1.59835,0.285771 -0.47977,0.183444 -0.89952,0.448028 -1.25935,0.79375 -0.35984,0.338665 -0.63857,0.740979 -0.83613,1.206644 -0.19755,0.45861 -0.2961,0.962754 -0.2961,1.513086 0,0.550331 0.0985,1.058273 0.2961,1.523938 0.19756,0.458609 0.47301,0.860924 0.82579,1.206645 0.35983,0.338665 0.77958,0.603251 1.25936,0.79375 0.48683,0.183444 1.016,0.275435 1.5875,0.275435 0.5221,0 1.03005,-0.07784 1.52394,-0.23306 0.50094,-0.162278 0.93863,-0.398557 1.31258,-0.709001 v -3.330525 l -1.16783,-0.01169 -1.33622,0.01169 0.0117,1.046903 1.33622,-0.01925 0.0234,1.756654 c -0.17335,0.107632 -0.35286,0.194575 -0.5395,0.260448 -0.35278,0.119944 -0.71972,0.179834 -1.10071,0.179834 -0.41628,0 -0.79737,-0.06697 -1.14309,-0.201021 -0.34572,-0.141111 -0.64568,-0.334933 -0.89968,-0.581877 -0.254,-0.253998 -0.45162,-0.546888 -0.59273,-0.878499 -0.14111,-0.33161 -0.21136,-0.695263 -0.21136,-1.090373 0,-0.39511 0.0703,-0.758246 0.21136,-1.089856 0.14111,-0.338666 0.33873,-0.631556 0.59273,-0.878499 0.254,-0.246944 0.55396,-0.437487 0.89968,-0.571541 0.35278,-0.141111 0.73714,-0.211357 1.15342,-0.211357 0.40922,0 0.78703,0.07025 1.13275,0.211357 0.35278,0.134054 0.67725,0.352902 0.97359,0.65629 l 0.74052,-0.751375 c -0.34572,-0.380999 -0.76547,-0.670609 -1.25936,-0.868164 -0.49388,-0.197555 -1.04049,-0.296106 -1.64021,-0.296106 z"
       sodipodi:nodetypes="scccscccscccccccccsccsscscscccss" />
    <path
       d="m 98.743426,82.466717 h 1.174746 v 7.408309 h -1.174746 z m -4.095737,7.408309 h -1.174746 v -7.408309 h 1.174746 z m 4.190987,-3.249073 h -4.29682 v -1.02658 h 4.29682 z"
       style="font-size:10.5833px;line-height:1.25;font-family:Montserrat;-inkscape-font-specification:'Montserrat, @wght=538';font-variation-settings:'wght' 538;letter-spacing:0px;fill:#495057;fill-opacity:1;stroke-width:0.264583"
       id="path49340-6" />
    <path
       d="m 102.03484,83.4782 v -1.011483 h 5.29166 v 1.015996 l -5.29166,-0.0045 z"
       style="font-size:10.5833px;line-height:1.25;font-family:Montserrat;-inkscape-font-specification:'Montserrat, @wght=538';font-variation-settings:'wght' 538;letter-spacing:0px;fill:#495057;fill-opacity:1;stroke-width:0.264583"
       id="path49342-2"
       sodipodi:nodetypes="cccccc" />
    <path
       d="m 109.14677,82.466717 h 2.95274 c 0.64205,0 1.19591,0.105833 1.66158,0.317499 0.46567,0.20461 0.82197,0.50447 1.06892,0.89958 0.25399,0.388055 0.38099,0.850192 0.38099,1.386412 0,0.536221 -0.127,0.998358 -0.38099,1.386413 -0.24695,0.388054 -0.60325,0.687914 -1.06892,0.89958 -0.46567,0.204611 -1.01953,0.306916 -1.66158,0.306916 h -2.30716 l 0.52917,-0.550332 v 2.762241 h -1.17475 m 4.91065,0 -1.88382,-2.688158 h 1.26999 l 1.89441,2.688158 z m -4.90028,-3.325886 1.16438,0.690645 -1.16438,-0.690645 2.98519,0.01274 c 0.6491,0.0028 1.05432,-0.03468 1.38593,-0.316896 0.33161,-0.282221 0.49741,-0.673804 0.49741,-1.174747 0,-0.507998 -0.1658,-0.89958 -0.49741,-1.174746 -0.33161,-0.275166 -0.82197,-0.412266 -1.47108,-0.412749 l -2.91068,-0.0022"
       style="font-size:10.5833px;line-height:1.25;font-family:Montserrat;-inkscape-font-specification:'Montserrat, @wght=538';font-variation-settings:'wght' 538;letter-spacing:0px;fill:#495057;fill-opacity:1;stroke-width:0.264583"
       id="path59620-5"
       sodipodi:nodetypes="csccsccsccccccccccccsssssc" />
    <path
       d="m 128.07685,89.970276 q -0.85725,0 -1.5875,-0.285749 -0.71966,-0.285749 -1.25941,-0.793747 -0.52916,-0.518582 -0.8255,-1.206497 -0.29633,-0.698497 -0.29633,-1.513411 0,-0.814915 0.29633,-1.502829 0.29634,-0.698498 0.8255,-1.206496 0.53975,-0.518582 1.25941,-0.804331 0.73025,-0.285749 1.5875,-0.285749 0.85725,0 1.57691,0.285749 0.71966,0.285749 1.24883,0.793748 0.52916,0.507998 0.8255,1.206496 0.29633,0.687914 0.29633,1.513412 0,0.825497 -0.29633,1.523995 -0.29634,0.687914 -0.8255,1.195913 -0.52917,0.507998 -1.24883,0.793747 -0.71966,0.285749 -1.57691,0.285749 z m 0,-1.047747 q 0.59266,0 1.10066,-0.201082 0.508,-0.211666 0.87842,-0.582082 0.37041,-0.380998 0.58208,-0.878414 0.21166,-0.497415 0.21166,-1.090079 0,-0.603249 -0.21166,-1.09008 -0.21167,-0.497415 -0.58208,-0.867831 -0.37042,-0.380999 -0.87842,-0.582081 -0.508,-0.211666 -1.10066,-0.211666 -0.60325,0 -1.11125,0.211666 -0.49741,0.201082 -0.87841,0.582081 -0.37042,0.370416 -0.58208,0.867831 -0.21167,0.497415 -0.21167,1.09008 0,0.592664 0.21167,1.090079 0.21166,0.497416 0.58208,0.878414 0.37041,0.370416 0.87841,0.582082 0.508,0.201082 1.11125,0.201082 z"
       style="font-size:10.5833px;line-height:1.25;font-family:Montserrat;-inkscape-font-specification:'Montserrat, @wght=538';font-variation-settings:'wght' 538;letter-spacing:0px;fill:#787e83;fill-opacity:0.88344991;stroke-width:0.264583"
       id="path49348-1" />
    <path
       d="m 135.5176,89.875026 -3.25966,-7.408309 h 1.28058 l 2.95274,6.773311 h -0.73025 l 2.98449,-6.773311 h 1.17475 l -3.23849,7.408309 z"
       style="font-size:10.5833px;line-height:1.25;font-family:Montserrat;-inkscape-font-specification:'Montserrat, @wght=538';font-variation-settings:'wght' 538;letter-spacing:0px;fill:#787e83;fill-opacity:0.88344991;stroke-width:0.264583"
       id="path49350-8" />
    <path
       d="m 102.04131,86.589376 v -1.011483 h 5.29163 v 1.015996 l -5.29163,-0.0045 z"
       style="font-size:10.5833px;line-height:1.25;font-family:Montserrat;-inkscape-font-specification:'Montserrat, @wght=538';font-variation-settings:'wght' 538;letter-spacing:0px;fill:#495057;fill-opacity:1;stroke-width:0.264583"
       id="path49342-9-56"
       sodipodi:nodetypes="cccccc" />
    <path
       d="m 102.03484,89.875026 v -1.011483 h 5.29165 v 1.015996 l -5.29165,-0.0045 z"
       style="font-size:10.5833px;line-height:1.25;font-family:Montserrat;-inkscape-font-specification:'Montserrat, @wght=538';font-variation-settings:'wght' 538;letter-spacing:0px;fill:#495057;fill-opacity:1;stroke-width:0.264583"
       id="path49342-9-5-0"
       sodipodi:nodetypes="cccccc" />
  </g>
</svg>
