<svg width="182" height="67" viewBox="0 0 182 67" fill="none" xmlns="http://www.w3.org/2000/svg">
<g clip-path="url(#clip0_2_26388)">
<path fill-rule="evenodd" clip-rule="evenodd" d="M70.6107 5.92919C71.0274 5.30245 71.2498 4.56578 71.2498 3.8122H71.2382C71.2398 3.31108 71.1426 2.8146 70.9523 2.35133C70.762 1.88806 70.4823 1.46715 70.1294 1.1128C69.7765 0.758456 69.3572 0.477675 68.8958 0.286616C68.4344 0.0955568 67.9399 -0.00200989 67.4408 -0.000470342C66.6902 0.00183418 65.9572 0.227401 65.3342 0.64774C64.7112 1.06808 64.2263 1.66434 63.9407 2.36121C63.655 3.05809 63.5815 3.82432 63.7293 4.56313C63.8772 5.30195 64.2397 5.98021 64.7713 6.51226C65.3028 7.0443 65.9795 7.40627 66.7158 7.55244C67.4521 7.69861 68.2151 7.62243 68.9083 7.33352C69.6015 7.0446 70.1939 6.55592 70.6107 5.92919ZM96.8451 24.8227C96.8451 19.5176 93.3611 16.1713 88.5998 16.1713C83.8385 16.1713 80.2152 19.5176 80.2152 24.8227C80.2152 29.5681 83.6991 32.7395 88.4721 36.832C93.1986 32.9261 96.8102 29.4748 96.8102 24.8227H96.8451ZM92.6063 40.9478C96.4967 44.3291 100.352 47.9435 100.352 53.7733C100.402 55.3796 100.13 56.9795 99.5523 58.4782C98.9745 59.9769 98.1027 61.3437 96.9887 62.4976C95.8746 63.6516 94.5411 64.569 93.0671 65.1955C91.5931 65.8221 90.0088 66.1449 88.4082 66.1449C86.8076 66.1449 85.2233 65.8221 83.7493 65.1955C82.2753 64.569 80.9417 63.6516 79.8277 62.4976C78.7137 61.3437 77.8419 59.9769 77.2641 58.4782C76.6863 56.9795 76.4143 55.3796 76.4642 53.7733C76.4989 50.6586 77.6443 47.6596 79.6926 45.3201L83.7339 48.818C82.5337 50.1878 81.8513 51.9378 81.8062 53.7617C81.8062 55.5181 82.5011 57.2026 83.7382 58.4445C84.9752 59.6865 86.653 60.3843 88.4024 60.3843C90.1518 60.3843 91.8296 59.6865 93.0666 58.4445C94.3036 57.2026 94.9986 55.5181 94.9986 53.7617C94.9986 50.0554 92.288 47.7042 88.6156 44.5188L88.4372 44.3641L84.7559 41.1693L84.3494 40.8196C79.4371 36.5638 74.5016 32.0866 74.5016 24.7644C74.4641 22.8438 74.806 20.9348 75.5077 19.1477C76.2093 17.3606 77.2567 15.7308 78.5894 14.3524C79.9113 13.0441 81.4791 12.0127 83.2016 11.3181C84.9241 10.6236 86.767 10.2797 88.623 10.3066C96.7521 10.3066 102.652 16.3928 102.652 24.7644C102.652 32.3431 96.8451 37.45 92.6295 40.8895L92.6063 40.9478ZM59.172 25.0909C59.1992 23.4801 59.145 21.869 59.0094 20.2638C58.452 15.5184 55.6881 11.5891 50.648 10.7846C48.5175 10.3234 46.2976 10.5223 44.2821 11.355C42.2666 12.1878 40.5503 13.6152 39.3602 15.4484H39.0002V11.4842H33.3446V41.799H39.1511V40.8779V24.2514C39.1167 22.446 39.5702 20.6651 40.4634 19.0979C41.2346 17.874 42.369 16.9241 43.7067 16.3823C45.0444 15.8404 46.5178 15.734 47.919 16.078C49.0494 16.2065 50.1156 16.6715 50.9807 17.4133C51.8457 18.1551 52.47 19.1397 52.7732 20.2405C53.0979 21.4335 53.2619 22.6648 53.261 23.9016C53.2997 27.6711 53.2868 31.4354 53.2739 35.2014C53.2674 37.0851 53.261 38.9692 53.261 40.8546V41.8223H59.1604V40.9245V25.0909H59.172ZM7.05286 23.6916H23.4853C23.6595 20.4853 21.4995 16.3461 16.0646 15.973C14.9615 15.8508 13.8452 15.9565 12.7845 16.2839C11.7237 16.6112 10.7409 17.1531 9.89661 17.8762C9.05234 18.5993 8.36448 19.4883 7.87541 20.4885C7.38634 21.4887 7.10641 22.5788 7.05286 23.6916ZM26.5395 16.5793C28.6067 19.7857 29.1176 22.3741 29.1176 27.4577V28.4837H6.22834C6.18657 30.4468 6.78283 32.3701 7.92689 33.9627C9.07094 35.5552 10.7005 36.7302 12.5691 37.31C14.3494 37.9076 16.2716 37.9298 18.0652 37.3735C19.8588 36.8171 21.4335 35.7103 22.5679 34.2086H28.7344C28.1998 35.3088 27.5496 36.3485 26.795 37.31C25.7141 38.7876 24.3396 40.024 22.7585 40.9412C21.1774 41.8583 19.424 42.4362 17.6091 42.6384C15.5442 42.9832 13.4303 42.8901 11.4035 42.3651C9.37663 41.84 7.48174 40.8947 5.84082 39.5899C4.19989 38.285 2.8493 36.6497 1.87598 34.7891C0.902662 32.9285 0.328194 30.8839 0.189561 28.7869C-0.145132 25.6845 0.293851 22.5472 1.46699 19.6574C2.64038 16.7595 4.71412 14.3192 7.37978 12.6995C10.0454 11.0799 13.1606 10.3673 16.262 10.6679C18.3169 10.7744 20.3181 11.365 22.1035 12.392C23.889 13.4189 25.4086 14.8534 26.5395 16.5793ZM70.3092 11.4608H64.584V41.7639H70.3092V11.4608ZM150.811 18.923C150.455 16.5587 149.26 14.4033 147.446 12.854C145.632 11.3048 143.321 10.4663 140.94 10.4932C136.585 10.4932 132.88 11.5308 130.569 15.3435H130.151C128.247 11.4726 125.75 10.5864 121.755 10.5048C119.935 10.4258 118.126 10.8319 116.513 11.6817C114.899 12.5316 113.539 13.7949 112.569 15.3435H112.279V11.4376H106.704V41.7524H112.511V40.8079V23.5752C112.511 18.993 115.496 15.5184 120.443 15.9731C121.474 16.0114 122.474 16.34 123.328 16.9214C124.182 17.5028 124.856 18.3135 125.274 19.2611C125.802 20.5293 126.048 21.8983 125.994 23.272V41.8107H131.882V40.8079V23.4236C131.882 18.9347 134.959 15.3902 139.802 15.8915C140.889 15.9171 141.942 16.2791 142.817 16.9281C143.693 17.5771 144.347 18.4814 144.691 19.5176C145.052 20.5886 145.244 21.7099 145.26 22.8406V40.7846V41.7057H151.066V40.8662V22.211C151.062 21.0762 150.953 19.9443 150.741 18.8297L150.811 18.923ZM167.809 37.6242C169.025 37.3788 170.175 36.8741 171.18 36.1441L171.145 36.0975C174.071 33.9171 174.28 30.7108 174.222 27.3179C173.42 27.4423 172.622 27.5626 171.827 27.6824C169.123 28.0898 166.458 28.4912 163.829 29.0318C162.869 29.2524 162.02 29.8115 161.436 30.6075C160.852 31.4034 160.572 32.3834 160.647 33.3692C160.664 34.3626 161.019 35.3203 161.653 36.0836C162.286 36.8469 163.161 37.3701 164.131 37.5666C165.339 37.85 166.593 37.8697 167.809 37.6242ZM180.261 20.6369C180.412 25.7205 180.342 35.6777 180.342 35.6777L181.422 41.7057H175.546L174.791 37.7182H174.501C173.585 38.9036 172.533 39.976 171.366 40.9129C169.281 42.251 166.825 42.8855 164.356 42.724C161.886 42.5625 159.533 41.6134 157.639 40.0151C156.548 39.0153 155.727 37.7541 155.254 36.3492C154.78 34.9444 154.67 33.442 154.932 31.9825C155.194 30.523 155.821 29.1541 156.753 28.0039C157.686 26.8537 158.893 25.9597 160.264 25.4057C162.161 24.7033 164.139 24.2449 166.151 24.0415C166.733 23.9566 167.316 23.8736 167.897 23.7906C169.393 23.5771 170.888 23.3639 172.376 23.1204C174.048 22.8406 174.745 22.0361 174.466 20.3338C174.351 19.4104 173.963 18.5428 173.352 17.8426C172.742 17.1424 171.937 16.6416 171.04 16.4045C169.196 15.7312 167.178 15.7024 165.315 16.3229C164.34 16.5952 163.455 17.1248 162.752 17.8569C162.05 18.5889 161.555 19.4965 161.32 20.4854H155.409C155.566 18.8766 156.106 17.3294 156.983 15.9739C157.86 14.6184 159.049 13.4945 160.449 12.6968C162.7 11.3289 165.273 10.5874 167.904 10.5485C170.535 10.5096 173.128 11.1746 175.419 12.4753C176.906 13.2437 178.149 14.4162 179.005 15.8592C179.861 17.3022 180.296 18.9577 180.261 20.6369Z" fill="#343332"/>
</g>
<defs>
<clipPath id="clip0_2_26388">
<rect width="181.163" height="66.4594" fill="white" transform="translate(0.0849609 -0.000488281)"/>
</clipPath>
</defs>
</svg>
