<svg version="1.2" xmlns="http://www.w3.org/2000/svg" viewBox="0 0 1553 423" width="1553" height="423"><style>.a{fill:#1976d2}</style><path fill-rule="evenodd" class="a" d="m658 313.4c-16.4 9.5-34.7 14.5-57 14.5-64.5 0-101.9-44.8-101.9-120.4 0-53.8 20.5-89.6 47.8-108.2 15.5-10.3 38.2-17.2 57.9-17.2 15.5 0 32.5 3.6 45 10.4 8.7 4.7 12.9 7.7 22.9 16.4l-29.7 40.1c-12.3-11.5-25.7-18.3-36.9-18.3-27.3 0-39.6 23.8-39.6 78.4 0 30.5 4.1 48.8 11.8 58.9 6.2 8.2 16.9 13.1 27.2 13.1 14.2 0 27.1-6 42.1-19.1l3.5-3.3 27.9 36.9c-8.7 9.5-12.9 12.5-21.1 17.7zm203.5-18.2c-17.8 20.2-41 32.4-77 32.4-63.4 0-104.9-47.5-104.9-120.9 0-73.4 42-122.3 104.9-122.3 33.3 0 59.2 11.5 79.4 35.2 18.8 21.9 27 47.5 27 85.2-0.2 40.1-9.5 67.4-29.4 90.4zm-49.7-153.5c-6-7.6-15.6-12.2-26.5-12.2-14.5 0-26.5 9-31.4 23.7-4.1 12.3-6.3 28.7-6.3 51.9 0 27 2.7 46.9 7.6 58.9 5.5 12.9 19.2 19.2 31.2 19.2 26.5 0 37.9-23.8 37.9-78.9-0.2-31.4-4.3-51.9-12.5-62.5zm250.9 187.2c-7.7-5.4-14.2-13.1-18.3-22.9-15 14.5-36.9 22.4-61.7 22.4-32.8 0-61.2-15.5-68.8-37.9-3.6-10.4-4.9-23-4.9-46.4v-149.6l60.3-11.5v150.1c0 21.1 1.9 32 4.9 38.2 3.3 6.3 12.3 11 21.6 11 15 0 33.3-11 37.9-22.4v-164.1l58.5-12.3v178.3c0 15.5 4.9 31.4 14.2 42.3 0 0-43.7 24.8-43.7 24.8zm239.4-27.8c-15.8 16.9-36.9 26.5-62.5 26.5-18.3 0-35.5-4.7-48.9-12.3 0.8 5.4 0.8 12.3 0.8 19.1v72.9l-59 15.6v-270c0-30.6-0.5-39.4-3.5-59l54.3-9.6c2.2 8.2 3.5 14.5 4.1 21.9 10.3-12.9 33.8-21.9 57.6-21.9 16.3 0 33.3 5.5 46.1 14.2 25.1 17 43.4 47 43.4 100.8 0 50.2-8.2 75.6-32.5 101.8zm-40.1-147.4c-4.6-12.8-14.2-19.6-29.2-19.6-15 0-29.8 6.2-40.7 17.7v113.6c8.2 6.8 21.6 13.6 33.9 13.6 30 0 42-20.5 42-74 0-22.1-1.9-39.8-6-51.3zm258.3 180.7c-14.2-6-27-16.3-32.8-28.4-4.6 4.7-9.5 9-14.2 12.3-11.4 8.2-27.8 12.8-46.9 12.8-51.9 0-80.3-26.4-80.3-72.8 0-54.9 37.9-80.3 112.2-80.3 4.6 0 8.7 0 13.6 0.5v-9.5c0-25.9-4.9-34.7-27.3-34.7-19.6 0-42.3 9.6-67.4 26.5l-25.9-43.7c12.3-7.6 21.5-12.3 37.9-19.1 23-9.6 42.4-13.7 63.9-13.7 39.4 0 66.1 14.5 75.4 40.7 3.3 9.6 4.6 16.9 4.1 42.1l-1.4 78.3c-0.5 25.7 1.4 36.6 21.9 51.9zm-52.2-114.1c-42.3 0-57.1 7.6-57.1 35.5 0 18.2 11.5 30.5 27.1 30.5 11.5 0 22.9-6 31.9-15.8l0.9-50.3h-2.8z"/><path fill-rule="evenodd" class="a" d="m455.9 230.3c0 0 9.8 9.8 7.3 18.8 0 0-2.1 11.4-32.1 9.3 0 0-23.3-1.4-51.7-9.7 0.1 0 0.2 0 0.2 0 0 0 28.1 31.9 36.2 48.9 0 0 18.3 28.9 7.3 40.1 0 0-5.1 6.7-25 0.6 0 0-28.2-9.6-58.2-33.9 0 0 12.5 34.8 13.9 61.9 0 0 2.7 26.6-11 32.1 0 0-11.5 5.7-33.3-16.8 0 0-26.3-28.6-41.3-57.7-1.8 16.1-4.5 32.4-8.6 48.1-2.6 9.8-5.7 19.6-10.2 28.8-3.4 6.8-8.5 16.4-17.2 16.9-8.7-0.5-13.8-10.1-17.2-16.9-4.5-9.2-7.6-18.9-10.2-28.8-4.1-15.7-6.8-32-8.6-48.1-15 29-41.3 57.7-41.3 57.7-21.8 22.5-33.3 16.8-33.3 16.8-13.7-5.5-11-32.1-11-32.1 1.4-27.1 13.9-61.9 13.9-61.9-30 24.3-58.2 33.9-58.2 33.9-19.9 6.1-25-0.6-25-0.6-11-11.2 7.3-40.1 7.3-40.1 8.1-17 36.2-48.9 36.2-48.9q0 0 0.2 0c-28.4 8.3-51.7 9.7-51.7 9.7-30 2.1-32.1-9.3-32.1-9.3-2.5-9 7.4-18.8 7.4-18.8 12.2-16.3 54.4-38.6 54.4-38.6-18.3-1.5-38.6-7.9-38.6-7.9-18.4-6.3-19.1-15.5-19.1-15.5-1.2-9.7 16.6-17.8 16.6-17.8 19.6-10.4 59.1-16.2 59.1-16.2-16.8-9.2-27.1-17.6-27.1-17.6-16.9-14.9-12.3-22.2-12.3-22.2 2.4-8.8 20.9-10.8 20.9-10.8 17-2.3 44.9 2.5 44.9 2.5-10.7-13.6-14.6-26.3-14.6-26.3-2.8-10.1 1.1-14.9 1.1-14.9 4.6-8 20.9-4.5 20.9-4.5 24.1 5.6 40.6 16.7 40.6 16.7-3-10.8-2.5-26.6-2.5-26.6 0.7-6.1 2-14 7.3-17.8 6.7-5 16.2-0.9 22.6 3 6.3 3.9 11.7 9.3 16.6 14.9 0.8 0.9 5.4 5.2 5.2 6.2q2.5-8.7 5.9-17.2c3.5-8.3 12-18.5 21.7-19 9.8 0.5 18.3 10.7 21.7 19q3.5 8.5 5.9 17.2c-0.2-1 4.4-5.3 5.3-6.2 4.9-5.6 10.3-11 16.6-14.9 6.3-3.9 15.9-8 22.6-3 5.3 3.8 6.6 11.7 7.2 17.8 0 0 0.6 15.8-2.5 26.6 0 0 16.6-11.1 40.6-16.7 0 0 16.4-3.4 21 4.5 0 0 4 4.8 1 14.9 0 0-3.8 12.7-14.5 26.3 0 0 27.9-4.8 44.9-2.5 0 0 18.5 2 20.9 10.8 0 0 4.6 7.3-12.4 22.2 0 0-10.2 8.4-27 17.6 0 0 39.5 5.8 59.1 16.2 0 0 17.8 8.1 16.5 17.8 0 0-0.7 9.2-19 15.5 0 0-20.4 6.4-38.6 7.9 0 0 42.1 22.3 54.4 38.6zm-49-3.6c5.2-14-32.5-36.1-32.5-36.1-28.7-18.8-72.6-32.5-72.6-32.5 51.2-14.6 70-32.2 70-32.2 15.9-13.3 10.7-19.5 10.7-19.5-8-13.5-52.8-5-52.8-5-33.1 6.2-51 14.9-51 14.9 13.8-25.5 17-47.5 17-47.5 4.4-27.9-7.7-30.3-7.7-30.3-8.9-3.1-21.9 9.5-21.9 9.5-25.1 25.8-33.7 51.6-33.7 51.6 0 0-8.5-25.8-33.6-51.6 0 0-13-12.6-21.9-9.5 0 0-12.1 2.4-7.7 30.3 0 0 3.2 22 17 47.5 0 0-17.9-8.7-51-14.9 0 0-44.8-8.5-52.8 5 0 0-5.2 6.2 10.7 19.5 0 0 18.8 17.6 70 32.2 0 0-43.9 13.7-72.6 32.5 0 0-37.7 22.1-32.5 36.1 0 0 4.5 17 69.8-2.2 0 0 36.8-11.5 52.8-20.7 0 0-33.7 57.1-36.9 102.7 0 0-2.2 22.3 8.4 26.4 0 0 11.6 5.2 35.3-24.6 0 0 28.4-34.4 45.1-85.6 16.7 51.2 45.1 85.6 45.1 85.6 23.6 29.8 35.3 24.6 35.3 24.6 10.5-4.1 8.4-26.4 8.4-26.4-3.3-45.6-37-102.7-37-102.7 16 9.2 52.9 20.7 52.9 20.7 65.3 19.2 69.7 2.2 69.7 2.2z"/></svg>