<svg xmlns="http://www.w3.org/2000/svg" width="126.14" height="49" viewBox="0 0 126.14 49"><defs><style>.a{fill:#fce301;}.b{fill:#6ca1f8;}.c{fill:#fff;}</style></defs><title>logo white text</title><path class="a" d="M32.89,15.22c-.12,6.9-1.72,7.94-5.53,13.73a19.51,19.51,0,0,0-3.47,9.18A.93.93,0,0,1,23,39H17.75V22.34a3.77,3.77,0,1,0-2.62,0V39H9.92A.93.93,0,0,1,9,38.13,19.63,19.63,0,0,0,5.53,29C1.72,23.16.12,22.12,0,15.22S6,.66,16.44,0C26.9.66,33,8.33,32.89,15.22Z"/><rect class="b" x="9.27" y="40.02" width="14.23" height="1.6" rx="0.8"/><rect class="b" x="9.27" y="42.78" width="14.23" height="1.6" rx="0.8"/><rect class="b" x="9.27" y="45.54" width="14.23" height="1.6" rx="0.8"/><ellipse class="b" cx="16.41" cy="47.27" rx="4.29" ry="1.73"/><path class="b" d="M31.31,36.55V16.11h3.21a16.66,16.66,0,0,1,4.09.36,5.48,5.48,0,0,1,2.92,1.81,4.72,4.72,0,0,1,1.09,3.11,4.51,4.51,0,0,1-.5,2.12,5.38,5.38,0,0,1-1.6,1.79,6.36,6.36,0,0,1,2.72,2.18,5.5,5.5,0,0,1,.86,3.11,5.74,5.74,0,0,1-.89,3.14,5.68,5.68,0,0,1-2.29,2.12,8.94,8.94,0,0,1-3.88.7ZM35.2,19.82v4.31h.85a3.14,3.14,0,0,0,2.11-.6,2,2,0,0,0,.69-1.62,1.94,1.94,0,0,0-.65-1.53,3,3,0,0,0-2-.56Zm0,7.78v5.24h1a6,6,0,0,0,3.27-.61,2.07,2.07,0,0,0,.84-1.78,2.48,2.48,0,0,0-1-2.08A5.41,5.41,0,0,0,36,27.6Z"/><path class="b" d="M46.51,21.43h3.25v1.91a4.08,4.08,0,0,1,1.4-1.71A3.4,3.4,0,0,1,53.08,21a3.54,3.54,0,0,1,1.54.39L53.44,24.7a2.65,2.65,0,0,0-1.1-.34,1.76,1.76,0,0,0-1.48,1.09,10,10,0,0,0-.6,4.25v6.85H46.51Z"/><path class="b" d="M58,15.21a2.34,2.34,0,0,1,1.71.72,2.42,2.42,0,0,1,.71,1.75,2.34,2.34,0,0,1-.71,1.73,2.28,2.28,0,0,1-1.69.72,2.35,2.35,0,0,1-1.72-.73,2.43,2.43,0,0,1-.71-1.77A2.41,2.41,0,0,1,58,15.21Zm-1.9,6.22h3.79V36.55H56.08Z"/><path class="b" d="M62.9,15.6h3.79V36.55H62.9Z"/><path class="b" d="M69.72,15.6h3.8V36.55h-3.8Z"/><path class="b" d="M78.44,15.21a2.3,2.3,0,0,1,1.71.72,2.47,2.47,0,0,1,0,3.48,2.29,2.29,0,0,1-1.69.72,2.36,2.36,0,0,1-1.73-.73A2.47,2.47,0,0,1,76,17.63a2.42,2.42,0,0,1,2.41-2.42Zm-1.9,6.22h3.8V36.55h-3.8Z"/><path class="b" d="M94.94,21.43h3.79V36.55H94.94V35a7.26,7.26,0,0,1-2.23,1.52,6.21,6.21,0,0,1-2.42.47,6.73,6.73,0,0,1-5.06-2.27A7.92,7.92,0,0,1,83.09,29a8.11,8.11,0,0,1,2.07-5.74,6.58,6.58,0,0,1,5-2.24,6.39,6.39,0,0,1,2.55.52,7,7,0,0,1,2.21,1.54Zm-4,3.12A3.83,3.83,0,0,0,88,25.79,4.46,4.46,0,0,0,86.87,29a4.52,4.52,0,0,0,1.18,3.22A3.85,3.85,0,0,0,91,33.46a3.9,3.9,0,0,0,3-1.24A4.56,4.56,0,0,0,95.11,29a4.42,4.42,0,0,0-1.18-3.19A4,4,0,0,0,91,24.55Z"/><path class="b" d="M102.57,21.43h3.79V23a9.1,9.1,0,0,1,2.34-1.51,5.68,5.68,0,0,1,2.14-.43,5.19,5.19,0,0,1,3.81,1.57A5.4,5.4,0,0,1,116,26.56v10h-3.75V29.93a16.89,16.89,0,0,0-.24-3.59,2.41,2.41,0,0,0-.85-1.36,2.36,2.36,0,0,0-1.49-.46,2.76,2.76,0,0,0-2,.77,4.06,4.06,0,0,0-1.14,2.13,16.12,16.12,0,0,0-.17,3.06v6.07h-3.79Z"/><path class="b" d="M120.1,15.86h3.79v5.57h2.25V24.7h-2.25V36.55H120.1V24.7h-1.95V21.43h1.95Z"/><path class="c" d="M31.21,38.9h1.87a6.14,6.14,0,0,1,2.68.45A3.47,3.47,0,0,1,37.2,40.8a4.74,4.74,0,0,1,.57,2.36,4.54,4.54,0,0,1-.32,1.75,3.7,3.7,0,0,1-.87,1.34,3.27,3.27,0,0,1-1.21.73,8.93,8.93,0,0,1-2.26.2h-1.9Zm1.57,1.52v5.22h.73a3.72,3.72,0,0,0,1.56-.24,1.92,1.92,0,0,0,.8-.84,3,3,0,0,0,.31-1.44,2.77,2.77,0,0,0-.74-2,3,3,0,0,0-2.13-.65Z"/><path class="c" d="M41.86,38.9h1.56v8.28H41.86Z"/><path class="c" d="M48,38.9h1.67a5.34,5.34,0,0,1,1.95.25,2,2,0,0,1,.94.81,2.55,2.55,0,0,1,.35,1.34,2.31,2.31,0,0,1-.39,1.37,2.34,2.34,0,0,1-1.18.83l2,3.68H51.58l-1.86-3.51h-.15v3.51H48Zm1.57,3.24h.5a1.92,1.92,0,0,0,1-.2.74.74,0,0,0,.29-.65.85.85,0,0,0-.14-.48.76.76,0,0,0-.38-.28,2.8,2.8,0,0,0-.86-.09h-.44Z"/><path class="c" d="M57.28,38.9H61.8v1.54h-3v1.5h3v1.51h-3v2.18h3v1.55H57.28Z"/><path class="c" d="M73.57,40.36l-1.1,1a3.43,3.43,0,0,0-2.53-1.19A2.77,2.77,0,0,0,67.13,43a3,3,0,0,0,.36,1.47,2.58,2.58,0,0,0,1,1,3,3,0,0,0,1.46.36,3,3,0,0,0,1.26-.25,4.55,4.55,0,0,0,1.25-.93l1.06,1.11A5.68,5.68,0,0,1,71.8,47a4.71,4.71,0,0,1-1.86.35,4.27,4.27,0,0,1-3.16-1.23A4.22,4.22,0,0,1,65.55,43a4.31,4.31,0,0,1,.56-2.2,4.19,4.19,0,0,1,1.6-1.55A4.56,4.56,0,0,1,70,38.69a4.68,4.68,0,0,1,2,.44A4.73,4.73,0,0,1,73.57,40.36Z"/><path class="c" d="M76.83,38.9H81.4v1.56H79.89v6.72H78.3V40.46H76.83Z"/><path class="c" d="M89.09,38.69a4.12,4.12,0,0,1,3,1.28,4.22,4.22,0,0,1,1.26,3.1,4.14,4.14,0,0,1-1.25,3.06,4.31,4.31,0,0,1-6.12,0A4.28,4.28,0,0,1,84.77,43a4.36,4.36,0,0,1,.57-2.19,4.38,4.38,0,0,1,3.75-2.16Zm0,1.55a2.59,2.59,0,0,0-1.93.79,2.81,2.81,0,0,0-.79,2,2.64,2.64,0,0,0,1,2.17,2.74,2.74,0,0,0,1.76.62A2.59,2.59,0,0,0,91,45.05a2.91,2.91,0,0,0,0-4A2.6,2.6,0,0,0,89.07,40.24Z"/><path class="c" d="M97.66,38.9h1.67a5.34,5.34,0,0,1,2,.25,2,2,0,0,1,.94.81,2.55,2.55,0,0,1,.35,1.34,2.31,2.31,0,0,1-.39,1.37,2.34,2.34,0,0,1-1.18.83l2,3.68h-1.72l-1.86-3.51h-.14v3.51H97.66Zm1.58,3.24h.49a1.92,1.92,0,0,0,1-.2.74.74,0,0,0,.29-.65.85.85,0,0,0-.14-.48.76.76,0,0,0-.38-.28,2.75,2.75,0,0,0-.86-.09h-.43Z"/><path class="c" d="M106.82,38.9h1.57v8.28h-1.57Z"/><path class="c" d="M112.86,38.9h4.52v1.54h-3v1.5h3v1.51h-3v2.18h3v1.55h-4.52Z"/><path class="c" d="M125.89,40l-1.17,1a1.67,1.67,0,0,0-1.25-.86.77.77,0,0,0-.51.17.48.48,0,0,0-.2.37.64.64,0,0,0,.15.4,10.13,10.13,0,0,0,1.15,1.06c.6.5,1,.82,1.09.95a3.13,3.13,0,0,1,.68.93,2.17,2.17,0,0,1,.2,1,2.2,2.2,0,0,1-.7,1.68,2.54,2.54,0,0,1-1.84.67A2.73,2.73,0,0,1,122,47a3.31,3.31,0,0,1-1.12-1.36l1.32-.8c.4.73.86,1.1,1.38,1.1a1,1,0,0,0,.68-.24.71.71,0,0,0,.28-.54.91.91,0,0,0-.21-.56,6.25,6.25,0,0,0-.92-.87,9.1,9.1,0,0,1-1.75-1.7,2.18,2.18,0,0,1-.39-1.19,2,2,0,0,1,.65-1.48,2.29,2.29,0,0,1,1.62-.62,2.54,2.54,0,0,1,1.18.29A4.23,4.23,0,0,1,125.89,40Z"/></svg>