<svg width="193" height="37" viewBox="0 0 193 37" fill="none" xmlns="http://www.w3.org/2000/svg">
<g clip-path="url(#clip0_2832_2458)">
<mask id="mask0_2832_2458" style="mask-type:luminance" maskUnits="userSpaceOnUse" x="0" y="0" width="193" height="37">
<path d="M192.985 0.230469H0.0150146V36.7705H192.985V0.230469Z" fill="white"/>
</mask>
<g mask="url(#mask0_2832_2458)">
<path d="M52.945 20.1402C53.615 20.9802 53.945 21.9402 53.945 23.0302C53.945 24.0102 53.705 24.8702 53.225 25.6202C52.745 26.3602 52.045 26.9502 51.135 27.3702C50.225 27.7902 49.145 28.0002 47.905 28.0002H39.995V9.66016H47.565C48.805 9.66016 49.885 9.86016 50.785 10.2602C51.685 10.6602 52.365 11.2202 52.835 11.9402C53.295 12.6602 53.535 13.4702 53.535 14.3802C53.535 15.4502 53.255 16.3402 52.685 17.0602C52.115 17.7802 51.355 18.2902 50.415 18.5802C51.445 18.7702 52.295 19.2902 52.965 20.1302M43.665 17.2302H47.025C47.905 17.2302 48.575 17.0302 49.045 16.6402C49.515 16.2502 49.755 15.6802 49.755 14.9502C49.755 14.2202 49.515 13.6502 49.045 13.2402C48.575 12.8402 47.895 12.6402 47.025 12.6402H43.665V17.2402V17.2302ZM49.455 24.3702C49.955 23.9502 50.205 23.3502 50.205 22.5802C50.205 21.8102 49.945 21.1802 49.415 20.7302C48.885 20.2802 48.175 20.0602 47.285 20.0602H43.655V25.0002H47.365C48.255 25.0002 48.955 24.7902 49.455 24.3702Z" fill="#3C2E7E"/>
<path d="M70.3051 21.8292H59.6651C59.7551 22.8792 60.1251 23.6992 60.7651 24.2992C61.4151 24.8992 62.2151 25.1892 63.1551 25.1892C64.5251 25.1892 65.4951 24.5992 66.0751 23.4292H70.0451C69.6251 24.8292 68.8151 25.9792 67.6251 26.8792C66.4351 27.7792 64.9751 28.2292 63.2351 28.2292C61.8351 28.2292 60.5751 27.9192 59.4651 27.2992C58.3551 26.6792 57.4851 25.7992 56.8651 24.6592C56.2451 23.5192 55.9351 22.2092 55.9351 20.7192C55.9351 19.2292 56.2451 17.8892 56.8551 16.7492C57.4651 15.6092 58.3251 14.7392 59.4251 14.1192C60.5251 13.5092 61.7951 13.1992 63.2351 13.1992C64.6751 13.1992 65.8551 13.4992 66.9551 14.0892C68.0451 14.6792 68.8951 15.5292 69.5051 16.6192C70.1051 17.7192 70.4151 18.9692 70.4151 20.3892C70.4151 20.9192 70.3851 21.3892 70.3151 21.8092M66.6051 19.3592C66.5851 18.4092 66.2451 17.6592 65.5751 17.0892C64.9151 16.5192 64.0951 16.2392 63.1351 16.2392C62.2251 16.2392 61.4551 16.5192 60.8351 17.0692C60.2151 17.6192 59.8351 18.3892 59.6951 19.3692H66.6051V19.3592Z" fill="#3C2E7E"/>
<path d="M85.355 14.8822C86.425 15.9822 86.955 17.5022 86.955 19.4622V28.0022H83.275V19.9622C83.275 18.8022 82.985 17.9222 82.405 17.2922C81.825 16.6722 81.035 16.3622 80.045 16.3622C79.055 16.3622 78.225 16.6722 77.645 17.2922C77.055 17.9122 76.765 18.8022 76.765 19.9622V28.0022H73.085V13.4522H76.765V15.2622C77.255 14.6322 77.885 14.1322 78.645 13.7822C79.405 13.4222 80.245 13.2422 81.155 13.2422C82.885 13.2422 84.285 13.7922 85.355 14.8822Z" fill="#3C2E7E"/>
<path d="M90.425 16.7709C91.035 15.6409 91.885 14.7709 92.975 14.1409C94.065 13.5209 95.305 13.2109 96.705 13.2109C98.505 13.2109 100.005 13.6609 101.185 14.5609C102.365 15.4609 103.155 16.7309 103.565 18.3609H99.595C99.385 17.7309 99.025 17.2409 98.535 16.8809C98.035 16.5209 97.415 16.3409 96.685 16.3409C95.635 16.3409 94.805 16.7209 94.195 17.4809C93.585 18.2409 93.275 19.3209 93.275 20.7209C93.275 22.1209 93.585 23.1809 94.195 23.9409C94.805 24.7009 95.635 25.0809 96.685 25.0809C98.175 25.0809 99.145 24.4209 99.605 23.0809H103.575C103.175 24.6609 102.375 25.9109 101.185 26.8409C99.995 27.7709 98.505 28.2309 96.715 28.2309C95.315 28.2309 94.075 27.9209 92.985 27.3009C91.895 26.6809 91.055 25.8009 90.435 24.6709C89.825 23.5409 89.515 22.2209 89.515 20.7209C89.515 19.2209 89.825 17.9009 90.435 16.7709" fill="#3C2E7E"/>
<path d="M117.405 13.9586C118.265 14.4386 118.935 15.1486 119.415 16.0886C119.895 17.0286 120.135 18.1486 120.135 19.4686V28.0086H116.455V19.9686C116.455 18.8086 116.165 17.9186 115.585 17.2986C115.005 16.6786 114.215 16.3686 113.225 16.3686C112.235 16.3686 111.405 16.6786 110.825 17.2986C110.235 17.9186 109.945 18.8086 109.945 19.9686V28.0086H106.265V8.55859H109.945V15.2586C110.415 14.6286 111.045 14.1286 111.835 13.7786C112.625 13.4186 113.495 13.2386 114.465 13.2386C115.565 13.2386 116.545 13.4786 117.405 13.9586Z" fill="#3C2E7E"/>
<path d="M146.025 14.8822C147.115 15.9822 147.665 17.5022 147.665 19.4622V28.0022H143.985V19.9622C143.985 18.8222 143.695 17.9522 143.115 17.3522C142.535 16.7522 141.745 16.4422 140.755 16.4422C139.765 16.4422 138.965 16.7422 138.375 17.3522C137.785 17.9522 137.495 18.8322 137.495 19.9622V28.0022H133.815V19.9622C133.815 18.8222 133.525 17.9522 132.945 17.3522C132.365 16.7522 131.575 16.4422 130.585 16.4422C129.595 16.4422 128.765 16.7422 128.185 17.3522C127.595 17.9522 127.305 18.8322 127.305 19.9622V28.0022H123.625V13.4522H127.305V15.2122C127.775 14.6022 128.385 14.1222 129.135 13.7722C129.875 13.4222 130.695 13.2422 131.595 13.2422C132.735 13.2422 133.745 13.4822 134.645 13.9622C135.535 14.4422 136.225 15.1322 136.725 16.0222C137.195 15.1822 137.885 14.5122 138.785 14.0022C139.685 13.4922 140.665 13.2422 141.715 13.2422C143.505 13.2422 144.945 13.7922 146.035 14.8822" fill="#3C2E7E"/>
<path d="M151.095 16.7609C151.685 15.6209 152.475 14.7509 153.485 14.1309C154.495 13.5209 155.615 13.2109 156.865 13.2109C157.955 13.2109 158.905 13.4309 159.715 13.8709C160.525 14.3109 161.185 14.8609 161.675 15.5309V13.4509H165.375V28.0009H161.675V25.8709C161.205 26.5509 160.555 27.1209 159.715 27.5609C158.885 28.0109 157.925 28.2309 156.835 28.2309C155.605 28.2309 154.495 27.9109 153.485 27.2809C152.475 26.6509 151.685 25.7609 151.095 24.6109C150.505 23.4609 150.215 22.1509 150.215 20.6609C150.215 19.1709 150.505 17.8809 151.095 16.7509M161.145 18.4209C160.795 17.7809 160.325 17.2909 159.725 16.9509C159.125 16.6109 158.495 16.4409 157.805 16.4409C157.115 16.4409 156.495 16.6109 155.915 16.9409C155.335 17.2709 154.865 17.7609 154.505 18.4009C154.145 19.0409 153.965 19.8009 153.965 20.6709C153.965 21.5409 154.145 22.3109 154.505 22.9709C154.865 23.6309 155.335 24.1309 155.925 24.4809C156.515 24.8309 157.135 25.0109 157.805 25.0109C158.475 25.0109 159.125 24.8409 159.725 24.5009C160.315 24.1609 160.795 23.6709 161.145 23.0309C161.495 22.3909 161.665 21.6209 161.665 20.7309C161.665 19.8409 161.495 19.0709 161.145 18.4309" fill="#3C2E7E"/>
<path d="M174.505 13.8905C175.265 13.4505 176.135 13.2305 177.115 13.2305V17.0905H176.145C174.985 17.0905 174.115 17.3605 173.535 17.9005C172.945 18.4405 172.655 19.3905 172.655 20.7405V27.9905H168.975V13.4405H172.655V15.7005C173.125 14.9305 173.745 14.3205 174.505 13.8905Z" fill="#3C2E7E"/>
<path d="M188.205 27.9986L183.265 21.7986V27.9986H179.585V8.55859H183.265V19.6186L188.155 13.4386H192.935L186.525 20.7486L192.985 27.9986H188.205Z" fill="#3C2E7E"/>
<path d="M10.035 11.2305V2.76047C10.035 1.36047 11.165 0.230469 12.565 0.230469H20.825C25.865 0.230469 29.945 4.32047 29.945 9.35047V9.37047C29.945 14.4105 25.865 18.4905 20.825 18.4905H17.305C13.295 18.4905 10.035 15.2405 10.035 11.2205" fill="#8E2680"/>
<path d="M2.755 18.5005H2.535C1.135 18.5005 0.00500488 17.3705 0.00500488 15.9705V2.76047C0.0150049 1.36047 1.145 0.230469 2.545 0.230469H7.505C8.89501 0.230469 10.025 1.36047 10.025 2.76047V11.2305C10.025 15.2405 6.775 18.5005 2.755 18.5005Z" fill="#FBB042"/>
<path d="M10.0348 25.7695V34.2495C10.0348 35.6495 11.1648 36.7795 12.5648 36.7795H20.8248C25.8648 36.7795 29.9448 32.6895 29.9448 27.6595V27.6395C29.9448 22.5995 25.8648 18.5195 20.8248 18.5195H17.3048C13.2948 18.5195 10.0348 21.7695 10.0348 25.7895" fill="#0CAFB4"/>
<path d="M2.755 18.5H2.535C1.135 18.5 0.00500488 19.63 0.00500488 21.03V34.24C0.00500488 35.64 1.135 36.77 2.535 36.77H7.49501C8.885 36.77 10.025 35.64 10.025 34.24V25.77C10.025 21.76 6.775 18.5 2.755 18.5Z" fill="#3C2E7E"/>
</g>
</g>
<defs>
<clipPath id="clip0_2832_2458">
<rect width="192.97" height="36.54" fill="white" transform="translate(0.0150146 0.230469)"/>
</clipPath>
</defs>
</svg>
