<svg viewBox="115 70 280 370" xmlns="http://www.w3.org/2000/svg">
	<path d="M286.809 207.5L286.806 116.759C286.81 97.1464 283.308 100.529 299.467 92.4945L329.474 77.4885C332.91 75.775 336.364 73.781 340.08 72.7541C344.075 72.8704 364.759 87.376 369.377 90.2746L382.753 98.7195C386.456 101.03 391.81 103.249 394.222 107.039C394.548 112.819 394.225 118.801 394.224 124.607L394.237 359.011C394.247 363.261 394.483 367.669 393.916 371.887C390.406 375.248 352.363 392.864 345.336 395.713C337.845 398.75 326.953 388.585 319.945 384.343L301.372 373.053C287.866 364.902 286.785 368.061 286.799 352.74L286.809 288.384L225.349 315.704L225.37 398.47C225.402 413.371 227.763 412.283 213.684 419.195C206.286 422.826 198.796 426.222 191.346 429.739C179.587 435.291 175.456 441.675 164.127 434.785C154.21 428.355 143.981 422.274 133.924 416.059C117.822 406.108 117.564 410.393 117.564 393.049L117.566 151.328C117.566 147.052 116.202 140.907 120.625 138.422C132.803 131.581 152.422 122.534 165.315 117.159C172.792 114.042 182.335 122.958 189.127 127L212.277 140.692C226.183 148.88 225.375 144.833 225.361 160.737L225.349 234.812C245.591 226.743 267.03 216.643 286.809 207.5ZM340.08 83.9741C328.2 88.4534 313.039 96.8108 301.601 102.63C314.356 111.073 327.683 119.129 340.915 126.827C351.495 122.612 368.846 113.905 378.715 108.23C374.659 105.635 340.958 84.0673 340.08 83.9741ZM297.045 112.303L297.032 198.605C297.023 202.389 296.871 206.238 297.045 210.016L323.226 237.897C325.657 240.476 332.7 248.646 335.305 250.137L335.305 136.164C330.659 131.947 303.941 115.221 297.045 112.303ZM384.266 116.994C371.265 123.101 358.081 129.38 345.432 136.164C345.433 155.41 345.213 383.585 345.432 384.094C356.249 380.233 373.795 371.465 384.266 366.087L384.266 124.244C384.272 122.284 385.193 118.678 384.266 116.994ZM168.742 126.827C157.689 130.839 144.611 138.36 133.329 143.359C138.345 146.745 169.311 166.153 173.796 167.604L174.091 167.543L197.251 156.63C201.317 154.696 205.622 152.92 209.546 150.722L183.831 135.447C179.843 133.06 172.758 128.114 168.742 126.827ZM127.26 151.714L127.246 391.6C127.243 394.55 127.075 397.59 127.26 400.531C130.944 402.49 165.47 424.261 166.738 424.166L166.738 175.698C157.799 168.747 137.658 156.957 127.26 151.714ZM215.2 159.742C202.455 164.307 189.862 171.606 177.23 176.96L176.552 384.25C176.489 398.095 176.607 411.948 176.37 425.792L215.2 407.318L215.2 320.24C215.164 316.793 214.425 311.685 216.927 308.991C219.78 305.921 243.905 296.449 249.193 294.073L329.082 258.512C316.082 245.828 302.255 230.719 289.992 217.096C275.843 223.659 261.494 229.767 247.258 236.131L232.314 242.74C228.236 244.561 218.562 250.682 215.625 244.177C214.151 240.913 215.205 223.558 215.203 219.035L215.193 170.169C215.193 166.587 215.828 159.871 215.2 159.742ZM335.305 266.488C323.318 271.148 308.857 278.466 297.045 284.037L297.045 358.974C302.177 361.432 306.752 364.705 311.675 367.513C319.465 372.271 327.262 377.379 335.305 381.676L335.308 272.623C335.325 270.768 336.143 268.167 335.305 266.488Z"/>
    <style>
        path { fill: #000; }
        @media (prefers-color-scheme: dark) {
            path { fill: #FFF; }
        }
    </style>
</svg>
