<?xml version="1.0" encoding="UTF-8"?>
<svg id="Layer_1" xmlns="http://www.w3.org/2000/svg" version="1.1" viewBox="0 0 792 226.01">
  <!-- Generator: Adobe Illustrator 30.0.0, SVG Export Plug-In . SVG Version: 2.1.1 Build 123)  -->
  <defs>
    <style>
      .st0 {
        fill: #f40;
      }

      .st1 {
        fill: #ffa200;
      }

      .st2 {
        fill: #009eff;
      }
    </style>
  </defs>
  <g>
    <path d="M267.49,153.78V11.38h-17.23v158.43h87.48v-16.04h-70.25Z"/>
    <path d="M361.73,57.91v111.91h15.82V57.91h-15.82ZM377.68,12.93c-2.21-2.3-4.81-3.4-7.95-3.4s-5.96,1.1-8.17,3.4c-2.25,2.3-3.31,4.95-3.31,8.09s1.06,5.79,3.31,8c2.21,2.21,4.9,3.31,8.17,3.31s5.79-1.1,8-3.31c2.21-2.25,3.31-4.86,3.31-8s-1.1-5.79-3.36-8.09Z"/>
    <path d="M560.81,111.98l53.41-54.08h-19.84l-52.84,54.08,55.67,57.83h19l-55.4-57.83ZM525.15,11.38v158.43h15.86V11.38h-15.86Z"/>
    <path d="M640.51,11.38v158.43h15.82V11.38h-15.82Z"/>
    <path d="M769.91,57.91l-34.86,94.94-41.17-94.94h-16.83l49.79,113.68-2.52,5.35c-6.63,16.74-17.1,25.05-31.23,25.09v14.45c10.21.27,19.35-2.74,27.3-8.84,8.53-6.63,15.29-16.43,20.1-29.16l46.3-120.57h-16.88Z"/>
    <path d="M500.9,104.43v65.39h-15.46v-65.39c0-18.82-15.29-34.11-34.06-34.11s-34.11,15.29-34.11,34.11v65.39h-15.46v-65.39c0-27.35,22.22-49.57,49.57-49.57s49.53,22.22,49.53,49.57Z"/>
  </g>
  <g>
    <rect class="st1" x="5.21" y="11.18" width="79.21" height="79.21"/>
    <rect class="st2" x="84.43" y="90.39" width="79.21" height="79.21"/>
    <polygon class="st0" points="84.43 90.39 5.21 90.39 84.43 169.6 84.43 90.39"/>
  </g>
</svg>