<svg xmlns="http://www.w3.org/2000/svg" width="314" height="59" fill="none" xmlns:v="https://vecta.io/nano"><g fill="#000"><path d="M3.988 33.588V12.576H0v21.012c0 7.816 3.988 12.644 12.689 12.644 8.474 0 12.689-4.828 12.689-12.644V12.576H21.39v21.012c0 6.437-2.946 9.058-8.701 9.058s-8.701-2.621-8.701-9.058z"/><path fill-rule="evenodd" d="M35.937 25.91v-3.219h-3.535v32.185h3.625V42.692h.453c1.359 1.977 3.761 3.54 7.477 3.54 5.438 0 10.559-4.322 10.559-12.046s-5.121-12.046-10.559-12.046c-3.852 0-6.254 1.701-7.568 3.77h-.453zm14.864 8.276c0 5.517-3.036 8.736-7.477 8.736s-7.477-3.218-7.477-8.736 3.036-8.736 7.477-8.736 7.477 3.218 7.477 8.736z"/><path d="M63.353 12.576V45.68h-3.625V12.576h3.625z"/><path d="M90.952 34.186c0-7.127-4.396-12.046-11.193-12.046s-11.193 4.92-11.193 12.046 4.396 12.046 11.193 12.046 11.193-4.92 11.193-12.046zm-3.716 0c0 5.517-2.945 8.736-7.477 8.736s-7.477-3.218-7.477-8.736 2.946-8.736 7.477-8.736 7.477 3.218 7.477 8.736zm17.9-12.047c3.716 0 6.118 1.563 7.477 3.54h.453l.907-2.989h2.719v22.99h-3.535v-3.218h-.453c-1.315 2.069-3.716 3.77-7.568 3.77-5.438 0-10.559-4.322-10.559-12.046s5.121-12.046 10.559-12.046zm.634 20.782c4.441 0 7.477-3.218 7.477-8.736s-3.036-8.736-7.477-8.736-7.477 3.218-7.477 8.736 3.036 8.736 7.477 8.736zm34.169-17.241c-1.359-1.977-3.761-3.54-7.477-3.54-5.438 0-10.559 4.322-10.559 12.046s5.121 12.046 10.559 12.046c3.852 0 6.254-1.701 7.568-3.77h.453v3.218h3.535V12.576h-3.626V25.68h-.453zm.635 8.506c0 5.517-3.037 8.736-7.478 8.736s-7.477-3.218-7.477-8.736 3.036-8.736 7.477-8.736 7.478 3.218 7.478 8.736z" fill-rule="evenodd"/><path d="M160.695 22.139c6.435 0 9.244 3.724 10.015 7.449v.69h-3.716c-.499-2.391-1.813-4.736-6.345-4.736-4.758 0-7.704 3.127-7.704 8.644s2.946 8.644 7.704 8.644c4.532 0 6.073-2.391 6.617-4.966h3.716v.69c-.816 3.77-3.535 7.679-10.333 7.679-7.024 0-11.42-4.92-11.42-12.046s4.396-12.046 11.466-12.046z"/><path fill-rule="evenodd" d="M191.963 25.68c-1.359-1.977-3.761-3.54-7.477-3.54-5.438 0-10.559 4.322-10.559 12.046s5.121 12.046 10.559 12.046c3.852 0 6.254-1.701 7.568-3.77h.453v3.218h3.535V22.691h-2.719l-.906 2.989h-.454zm.635 8.506c0 5.517-3.036 8.736-7.478 8.736s-7.477-3.218-7.477-8.736 3.036-8.736 7.477-8.736 7.478 3.218 7.478 8.736z"/><path d="M206.374 22.691v3.448h.453c.725-2.069 2.493-3.54 5.982-3.54h2.039v3.402h-1.993c-5.439 0-6.39 3.172-6.39 7.311V45.68h-3.626V22.691h3.535z"/><path fill-rule="evenodd" d="M238.64 33.266c0-6.207-3.625-11.127-10.65-11.127-6.888 0-11.102 4.92-11.102 12.046 0 7.081 4.214 12.046 11.284 12.046 5.846 0 9.29-3.402 10.241-7.449v-.69h-3.625c-.634 2.621-2.628 4.828-6.707 4.828-4.532 0-7.205-3.264-7.296-7.724h17.855v-1.931zm-10.65-7.908c4.442 0 6.753 2.989 6.843 6.713h-14.048c.181-3.862 2.674-6.713 7.205-6.713z"/></g><ellipse cx="284.088" cy="29.5" rx="29.463" ry="29.5" fill="url(#A)"/><defs><radialGradient id="A" cx="0" cy="0" r="1" gradientUnits="userSpaceOnUse" gradientTransform="translate(324.074 29.5) rotate(149.184) scale(57.5857 66.3505)"><stop stop-color="#ffc700"/><stop offset="1" stop-color="#ffedab"/></radialGradient></defs></svg>