<svg xmlns="http://www.w3.org/2000/svg" xmlns:xlink="http://www.w3.org/1999/xlink" width="46" zoomAndPan="magnify" viewBox="0 0 34.5 43.499999" height="58" preserveAspectRatio="xMidYMid meet" version="1.0"><defs><clipPath id="22f7868f6a"><path d="M 0 0.0625 L 34 0.0625 L 34 42.941406 L 0 42.941406 Z M 0 0.0625 " clip-rule="nonzero"/></clipPath></defs><g clip-path="url(#22f7868f6a)"><path fill="#5359e8" d="M 33.382812 7.25 C 33.921875 6.640625 33.871094 5.707031 33.226562 5.207031 C 30.683594 3.242188 27.742188 1.855469 24.621094 1.160156 C 21.023438 0.359375 17.308594 0.5 13.847656 1.574219 C 10.386719 2.648438 7.296875 4.613281 4.890625 7.277344 C 2.808594 9.582031 1.300781 12.335938 0.464844 15.332031 C 0.246094 16.121094 0.757812 16.910156 1.554688 17.09375 C 2.386719 17.289062 3.207031 16.753906 3.449219 15.9375 C 4.179688 13.480469 5.441406 11.222656 7.15625 9.324219 C 9.21875 7.039062 11.863281 5.355469 14.832031 4.4375 C 17.796875 3.515625 20.976562 3.394531 24.0625 4.082031 C 26.667969 4.664062 29.128906 5.804688 31.265625 7.421875 C 31.914062 7.910156 32.84375 7.859375 33.382812 7.25 Z M 17.917969 19.558594 C 18.035156 21.332031 19.195312 24.382812 23.117188 24.835938 C 23.429688 24.871094 23.726562 24.707031 23.882812 24.433594 L 24.164062 23.945312 C 24.339844 23.632812 24.300781 23.238281 24.007812 23.03125 C 23.628906 22.769531 23.09375 22.511719 22.480469 22.480469 C 22.285156 22.472656 22.101562 22.570312 21.976562 22.722656 C 21.78125 22.953125 21.460938 23.042969 21.199219 22.886719 C 20.753906 22.617188 20.191406 22.136719 19.792969 21.414062 C 19.636719 21.125 19.722656 20.777344 19.953125 20.546875 C 20.109375 20.390625 20.203125 20.175781 20.167969 19.957031 C 20.09375 19.511719 19.882812 18.910156 19.390625 18.527344 C 19.191406 18.375 18.917969 18.386719 18.714844 18.53125 C 18.53125 18.65625 18.316406 18.828125 18.109375 19.039062 C 17.972656 19.175781 17.90625 19.367188 17.917969 19.558594 Z M 0.128906 21.335938 C 0.144531 20.523438 0.859375 19.917969 1.671875 19.984375 C 2.484375 20.050781 3.082031 20.765625 3.078125 21.578125 C 3.0625 24.582031 3.765625 27.546875 5.132812 30.203125 C 6.722656 33.292969 9.140625 35.839844 12.101562 37.539062 C 15.058594 39.234375 18.433594 40.011719 21.820312 39.773438 C 24.691406 39.570312 27.46875 38.640625 29.910156 37.082031 C 30.628906 36.625 31.59375 36.761719 32.089844 37.453125 C 32.5625 38.113281 32.429688 39.03125 31.753906 39.480469 C 28.828125 41.417969 25.476562 42.570312 22.003906 42.816406 C 18.050781 43.097656 14.113281 42.191406 10.660156 40.210938 C 7.207031 38.230469 4.382812 35.257812 2.527344 31.648438 C 0.894531 28.472656 0.0742188 24.925781 0.128906 21.335938 Z M 7.667969 29.753906 C 8.09375 30.472656 9.050781 30.621094 9.722656 30.125 C 10.394531 29.632812 10.535156 28.695312 10.128906 27.96875 C 8.949219 25.863281 8.386719 23.457031 8.519531 21.03125 C 8.679688 18.105469 9.851562 15.328125 11.824219 13.179688 C 13.800781 11.035156 16.460938 9.648438 19.351562 9.257812 C 21.734375 8.9375 24.152344 9.3125 26.320312 10.324219 C 27.085938 10.679688 28.019531 10.46875 28.460938 9.75 C 28.894531 9.039062 28.679688 8.105469 27.933594 7.734375 C 25.152344 6.351562 22.019531 5.828125 18.933594 6.242188 C 15.351562 6.722656 12.050781 8.445312 9.601562 11.109375 C 7.148438 13.773438 5.699219 17.214844 5.5 20.847656 C 5.328125 23.972656 6.085938 27.074219 7.667969 29.753906 Z M 32.433594 30.125 C 33.105469 30.621094 33.257812 31.570312 32.699219 32.195312 C 31.667969 33.351562 30.46875 34.355469 29.136719 35.167969 C 27.378906 36.242188 25.429688 36.957031 23.398438 37.277344 C 21.367188 37.597656 19.296875 37.515625 17.304688 37.035156 C 15.808594 36.671875 14.378906 36.089844 13.058594 35.308594 C 12.335938 34.878906 12.191406 33.917969 12.6875 33.242188 C 13.1875 32.5625 14.136719 32.425781 14.867188 32.835938 C 15.859375 33.390625 16.925781 33.8125 18.039062 34.078125 C 19.644531 34.46875 21.3125 34.535156 22.949219 34.277344 C 24.585938 34.019531 26.15625 33.441406 27.574219 32.574219 C 28.5625 31.972656 29.464844 31.238281 30.25 30.394531 C 30.820312 29.785156 31.757812 29.632812 32.433594 30.125 Z M 20.835938 12.175781 C 15.589844 12.175781 11.335938 16.429688 11.335938 21.675781 C 11.335938 26.925781 15.589844 31.175781 20.835938 31.175781 C 26.082031 31.175781 30.335938 26.925781 30.335938 21.675781 C 30.335938 16.429688 26.082031 12.175781 20.835938 12.175781 Z M 14.015625 21.675781 C 14.015625 17.910156 17.070312 14.855469 20.835938 14.855469 C 24.601562 14.855469 27.65625 17.910156 27.65625 21.675781 C 27.65625 25.445312 24.601562 28.496094 20.835938 28.496094 C 17.070312 28.496094 14.015625 25.445312 14.015625 21.675781 Z M 14.015625 21.675781 " fill-opacity="1" fill-rule="evenodd"/></g></svg>