<svg width="190" height="36" viewBox="0 0 190 36" fill="none" xmlns="http://www.w3.org/2000/svg">
    <g>
        <path fill-rule="evenodd" clip-rule="evenodd"
            d="M21.3924 13.3929C21.3131 13.3443 21.214 13.2836 21.103 13.2188C20.6708 12.9678 20.0641 12.6318 19.7231 12.4901C19.5526 11.4943 19.4852 10.5106 19.5844 9.76577C19.8024 8.08986 20.4963 6.47466 21.6303 5.30072C22.7286 4.1632 23.9934 3.59647 25.1869 3.51146C26.0315 3.45074 26.8403 3.6329 27.5421 4.02152C28.2439 4.41418 28.8308 5.01735 29.2193 5.79458C29.592 6.54348 29.7824 7.4543 29.7189 8.49062V8.40561C29.374 8.29226 29.0013 8.2113 28.6087 8.16677L28.5492 8.15867C28.5572 7.4543 28.4144 6.84709 28.1686 6.34108C27.891 5.78244 27.4747 5.35334 26.9791 5.07807C26.4795 4.79875 25.8887 4.66921 25.2702 4.71374C24.3463 4.77851 23.3551 5.2319 22.4709 6.14677C21.8167 6.8228 21.3409 7.67695 21.0435 8.61206C20.9444 8.92376 20.8452 9.31238 20.7858 9.72933C20.6747 10.4742 20.5201 11.6724 21.0593 12.2473C21.214 12.4132 21.44 12.559 21.7572 12.6642C22.003 12.227 22.2885 11.8141 22.6057 11.4255C23.6326 10.1746 25.0164 9.22332 26.535 8.86709C28.01 8.51895 29.3264 8.72541 30.3454 9.28809C31.067 9.68885 31.6419 10.2677 32.0147 10.9559C32.3874 11.6481 32.5579 12.4497 32.4825 13.2917C32.3794 14.417 31.8243 15.6112 30.7102 16.6921C29.6634 17.7081 28.4224 18.3396 27.098 18.6878C25.8768 19.0076 24.6318 19.0481 23.3828 19.0481C23.1727 19.0481 23.1806 19.0481 23.0815 19.04L23.0696 18.9995C22.6017 17.2467 21.5351 15.7165 19.9769 14.7854C19.2196 14.332 18.3949 14.0365 17.5543 13.8908C16.674 13.7369 15.77 13.745 14.8938 13.9029C14.7193 13.9353 14.5647 13.9677 14.4299 14.0001C12.602 14.4494 11.0279 15.5707 9.98905 17.0564C8.96211 18.5299 8.46649 20.3677 8.79162 22.2622C8.81937 22.4242 8.84713 22.5658 8.87488 22.6832C8.98194 23.1326 9.13657 23.5536 9.33879 23.9422C9.54497 24.3389 9.79873 24.7032 10.0921 25.023C10.4926 25.4643 10.9406 25.7962 11.4165 26.0715C11.9041 26.3508 12.4553 26.5937 13.0381 26.8406C13.4307 27.0107 13.8232 27.1888 14.184 27.4033C14.5686 27.6341 14.9255 27.9053 15.2308 28.2534C15.6035 28.6785 15.8017 29.1723 15.7224 29.7431C15.7106 29.816 15.6987 29.8848 15.6788 29.9577C16.0872 29.8403 16.4798 29.7067 16.8525 29.565C17.6851 29.2452 18.4345 28.8647 19.0967 28.4356C19.8976 27.9215 20.5796 27.3305 21.1426 26.6949C21.7374 26.027 22.2052 25.3064 22.5502 24.5616C23.2758 22.999 23.474 21.315 23.2203 19.7605C23.6207 19.7889 24.0212 19.7969 24.4177 19.7929C24.6556 21.5174 24.4098 23.3633 23.6207 25.0797C23.2242 25.9339 22.6929 26.7556 22.0189 27.5126C21.3845 28.2251 20.6232 28.8809 19.7271 29.4598C18.9975 29.9293 18.1768 30.3463 17.2688 30.6985C16.4044 31.0304 15.4608 31.3016 14.4259 31.5L13.9303 30.4515C14.3307 30.0994 14.5171 29.8119 14.5488 29.5772C14.5726 29.4031 14.4893 29.229 14.3426 29.059C14.1325 28.8202 13.8708 28.6218 13.5853 28.4518C13.2721 28.2656 12.9311 28.1077 12.5861 27.962C11.9834 27.7029 11.4085 27.4519 10.8376 27.124C10.2587 26.7921 9.71943 26.3913 9.22777 25.8489C8.85902 25.444 8.54579 24.9988 8.29203 24.513C8.04223 24.0353 7.85191 23.5212 7.72106 22.9666C7.67745 22.7804 7.64176 22.6185 7.61797 22.4727C7.23337 20.2463 7.81226 18.0887 9.01762 16.3601C10.2151 14.6437 12.035 13.3483 14.1444 12.8302C14.3387 12.7816 14.5171 12.7452 14.6757 12.7168C15.6828 12.5347 16.7216 12.5266 17.7406 12.7047C18.716 12.8747 19.6716 13.2188 20.5637 13.7531C22.1339 14.6923 23.2797 16.1456 23.9221 17.8336C24.9014 17.8579 25.8768 17.7729 26.7967 17.53C27.9307 17.2305 28.9933 16.6921 29.8854 15.8258C30.7776 14.9595 31.2177 14.0365 31.297 13.1824C31.3525 12.5913 31.2335 12.0287 30.9679 11.5429C30.7062 11.0571 30.2978 10.6442 29.7784 10.3568C28.9973 9.92769 27.9664 9.77386 26.7927 10.0491C25.5319 10.3446 24.3781 11.1462 23.5058 12.2068C23.022 12.7978 22.6255 13.4657 22.3519 14.166C22.0506 13.8867 21.7294 13.6277 21.3884 13.3929H21.3924ZM16.2617 29.0711C17.6256 27.9701 18.8984 26.703 19.961 25.2943C20.6192 24.4199 21.2021 23.4888 21.6581 22.5173C22.118 21.5498 22.4511 20.5458 22.6176 19.5298L22.6097 19.4812L22.5343 19.1938L22.5224 19.1533L22.5105 19.1169L22.4986 19.0804L22.4867 19.044L22.4749 19.0076L22.463 18.9711L22.4511 18.9347L22.4392 18.8983L22.4273 18.8618L22.4154 18.8254L22.4035 18.789L22.3916 18.7525L22.3797 18.7161V18.708L22.3678 18.6756V18.6675L22.3559 18.6392V18.6311L22.344 18.6028V18.5947L22.3321 18.5663V18.5582L22.3202 18.5299V18.5218L22.3083 18.4935V18.4854L22.2964 18.457V18.4489L22.2806 18.4206V18.4125L22.2647 18.3882V18.3761L22.2488 18.3518V18.3396L22.233 18.3153L22.2171 18.2789V18.2668L22.2013 18.2425V18.2303L22.1854 18.206V18.1939L22.1695 18.1696V18.1575L22.1537 18.1332L22.1458 18.121L22.1378 18.1008L22.1299 18.0846L22.122 18.0644L22.114 18.0482L22.1061 18.0279L22.0982 18.0117L22.0902 17.9915L22.0823 17.9753L22.0744 17.9551L22.0665 17.9389L22.0585 17.9186L22.0506 17.9024L22.0427 17.8822L22.0347 17.866L22.0268 17.8498L22.0189 17.8336L22.0109 17.8174L22.003 17.8012L21.9951 17.785L21.9872 17.7689L21.9792 17.7527L21.9713 17.7324L21.9634 17.7162L21.9515 17.696L21.9435 17.6798L21.9316 17.6596L21.9237 17.6434L21.9118 17.6231L21.9039 17.6069L21.892 17.5867L21.8841 17.5745L21.8722 17.5543L21.8642 17.5422L21.8523 17.5219L21.8444 17.5098L21.8325 17.4895L21.8246 17.4774L21.8127 17.4572L21.8048 17.445L21.7929 17.4248L21.7849 17.4126L21.773 17.3883L21.7651 17.3762L21.7493 17.3519L21.7413 17.3438L21.7255 17.3195V17.3114L21.7056 17.2871V17.279L21.6858 17.2547V17.2466L21.666 17.2224V17.2143L21.6462 17.19V17.1819L21.6263 17.1576V17.1495L21.6065 17.1252V17.1171L21.5867 17.0928V17.0847L21.5629 17.0604H21.5589L21.5391 17.0281L21.5193 16.9957L21.4995 16.9633L21.4796 16.9309C21.4955 17.3479 21.4638 17.7891 21.3964 18.2344C21.1942 19.5662 20.6787 20.9304 20.2386 21.825C19.5407 23.25 18.601 24.6668 17.6613 25.8124C16.9516 26.6747 16.2419 27.3871 15.6233 27.8405L15.6313 27.8486L15.6392 27.8567L15.6471 27.8648L15.655 27.8729C15.889 28.1401 16.0674 28.4315 16.1824 28.7513V28.7594V28.7675V28.7756V28.7797V28.7837V28.7878V28.7918V28.7959V28.804V28.8121V28.8161V28.8202V28.8242V28.8283V28.8364V28.8404V28.8444V28.8525V28.8566V28.8606V28.8647V28.8687V28.8768V28.8849V28.889V28.893V28.8971V28.9011V28.9092V28.9173V28.9254V28.9335V28.9416V28.9497V28.9537V28.9578V28.9618V28.9659V28.9861V28.9942V28.9983V29.0023V29.0064V29.0104V29.0185V29.0266V29.0388V29.059L16.2617 29.0711ZM14.3624 26.8487C16.0912 25.3509 17.6098 23.4929 18.6605 21.4243C19.5764 19.6188 20.1395 17.6515 20.1831 15.6153L20.1751 15.6112H20.1672L20.1593 15.5991L20.1514 15.591H20.1434L20.1355 15.5788H20.1276V15.5748H20.1196L20.1117 15.5626H20.1038L20.0958 15.5505H20.0879L20.0562 15.5222H20.0483L20.0403 15.51H20.0324V15.5019H20.0245L20.0165 15.4938H20.0086L20.0007 15.4817L19.9967 15.4776H19.9888L19.9809 15.4655H19.9729V15.4574H19.969L19.961 15.4493L19.9452 15.4372L19.9412 15.4331H19.9333L19.9254 15.421H19.9174V15.4129H19.9135L19.9055 15.4048H19.8976L19.8897 15.3926H19.8857V15.3886H19.8778L19.8698 15.3805H19.8619L19.8579 15.3724L19.85 15.3643H19.8421L19.8342 15.3562H19.8302V15.3521H19.8223L19.8143 15.344H19.8064L19.7985 15.3359L19.7905 15.3279H19.7826L19.7747 15.3198H19.7668V15.3157H19.7588L19.7509 15.3076L19.735 15.2995L19.7271 15.2955H19.7192L19.7112 15.2874H19.7033L19.6875 15.2712L19.6716 15.2631L19.6557 15.255C19.3861 15.0971 19.1046 14.9595 18.8191 14.8421C18.4662 18.3234 17.6138 19.9346 17.1261 20.898C16.0278 23.0719 14.3981 25.0311 12.7844 26.0998H12.7923L12.7963 26.1039L12.8042 26.1079H12.8082H12.8161H12.824L12.832 26.112H12.8399H12.8439H12.8518V26.116H12.8557L12.8637 26.1201H12.8716H12.8795H12.8875L12.8914 26.1241L12.8994 26.1282H12.9033H12.9113L12.9192 26.1363H12.9232H12.9311V26.1403H12.935L12.943 26.1444H12.9509H12.9588H12.9668L12.9707 26.1484L12.9787 26.1525H12.9826H12.9906H12.9985L13.0064 26.1565H13.0143H13.0183H13.0262V26.1606H13.0302L13.0381 26.1646H13.0461L13.054 26.1687L13.0619 26.1727H13.0699V26.1768H13.0738L13.0818 26.1808H13.0897H13.0936H13.1016V26.1848H13.1055L13.1135 26.1889H13.1214H13.1293H13.1373L13.1412 26.1929L13.1492 26.197H13.1531H13.1611H13.169L13.1769 26.201H13.1848H13.1888H13.1967V26.2051H13.2007L13.2086 26.2091H13.2166L13.2245 26.2172H13.2324L13.2404 26.2253H13.2483L13.2562 26.2334H13.2641L13.2721 26.2415H13.28L13.2879 26.2496H13.2959L13.3038 26.2577H13.3117L13.3197 26.2658H13.3276V26.2699H13.3355V26.2739H13.3434V26.278H13.3514V26.282H13.3593V26.2861H13.3672V26.2901H13.3752L13.3831 26.2982H13.391V26.3022H13.399V26.3063H13.4069V26.3103H13.4148L13.4227 26.3184H13.4307V26.3225H13.4386V26.3265H13.4465L13.4545 26.3346H13.4624V26.3387H13.4703L13.4783 26.3468H13.4862V26.3508H13.4941L13.502 26.3589H13.51L13.5179 26.367H13.5258V26.3711H13.5338V26.3751H13.5417V26.3792H13.5496L13.5576 26.3873H13.5655V26.3913H13.5734V26.3953H13.5813V26.3994H13.5893L13.5972 26.4075H13.6051L13.6131 26.4156H13.621L13.6289 26.4237H13.6369V26.4277H13.6448L13.6527 26.4358H13.6606V26.4399H13.6686L13.6765 26.448H13.6844L13.6924 26.4561H13.7003L13.7082 26.4642H13.7162L13.7241 26.4723H13.732H13.736H13.7399H13.7479H13.7558H13.7637V26.4763H13.7717V26.4804H13.7756L13.7796 26.4844L13.7836 26.4885L13.7915 26.4925L13.7994 26.4966H13.8073V26.5006H13.8113L13.8153 26.5046L13.8192 26.5087L13.8272 26.5127L13.8351 26.5168H13.843L13.847 26.5208H13.851L13.8827 26.537H13.8866H13.8906V26.5411C13.9858 26.5897 14.077 26.6382 14.1642 26.6868L14.3624 26.8487ZM11.9676 18.3963C12.5306 18.1332 12.9073 18.2141 13.3593 18.6392C13.5932 18.8578 13.7479 19.044 13.8113 18.5663C13.9144 17.7972 13.4029 17.2386 12.8439 17.1819C12.2848 17.1252 11.6028 17.6919 11.6385 18.283C11.6504 18.4368 11.7297 18.5056 11.9676 18.3963Z"
            fill="#1A1919" />
    </g>
    <g>
        <path fill-rule="evenodd" clip-rule="evenodd"
            d="M55.9799 10.64C55.9239 9.296 55.5642 8.136 54.9007 7.144C54.2372 6.152 53.3179 5.384 52.1268 4.832C50.9437 4.28 49.5368 4.008 47.906 4C46.659 4 45.5638 4.16 44.6365 4.464C43.7012 4.768 42.9258 5.192 42.3103 5.736C41.6947 6.288 41.2231 6.92 40.9113 7.648C40.5995 8.368 40.4477 9.16 40.4477 10C40.4477 10.84 40.5596 11.616 40.7834 12.248C41.0072 12.88 41.351 13.424 41.8066 13.88C42.2703 14.336 42.8538 14.736 43.5573 15.072C44.2608 15.408 45.1001 15.704 46.0674 15.976C47.0347 16.248 48.1378 16.504 49.3689 16.76C50.0164 16.896 50.544 17.048 50.9517 17.224C51.3594 17.4 51.6792 17.592 51.903 17.816C52.1348 18.04 52.2867 18.28 52.3746 18.56C52.4626 18.832 52.5105 19.136 52.5025 19.472C52.5025 20.024 52.3427 20.504 52.0389 20.904C51.7271 21.312 51.2715 21.624 50.6639 21.848C50.0564 22.064 49.305 22.176 48.4256 22.184C47.6022 22.184 46.8588 22.04 46.2113 21.768C45.5638 21.496 45.0522 21.104 44.6685 20.608C44.2848 20.104 44.0929 19.52 44.0769 18.832H40C40.0799 21.064 40.8633 22.744 42.3582 23.88C43.8531 25.024 46.0594 25.592 48.9852 25.6C50.0324 25.6 51.0237 25.464 51.935 25.192C52.8543 24.92 53.6617 24.52 54.3651 24C55.0686 23.48 55.6202 22.84 56.0119 22.088C56.4116 21.328 56.6194 20.472 56.6194 19.504C56.6194 18.704 56.5395 18.008 56.3796 17.432C56.2197 16.848 56.0039 16.36 55.7161 15.96C55.4283 15.56 55.1006 15.216 54.7089 14.952C54.3252 14.68 53.9095 14.456 53.4458 14.264C52.9262 14.04 52.3586 13.84 51.7591 13.648C51.1675 13.456 50.512 13.264 49.8006 13.08C49.0891 12.896 48.3057 12.704 47.4424 12.504C46.3552 12.248 45.5558 11.912 45.0522 11.512C44.5486 11.104 44.3007 10.616 44.3087 10.04C44.3087 9.216 44.6205 8.6 45.228 8.184C45.8356 7.776 46.7229 7.568 47.906 7.568C49.193 7.568 50.1603 7.824 50.8238 8.328C51.4793 8.832 51.855 9.608 51.9589 10.64H55.9799ZM71.0805 24.896V9.904H67.1554V18.56C67.1554 19.224 67.0355 19.816 66.8037 20.328C66.5719 20.832 66.2281 21.24 65.7725 21.528C65.3168 21.824 64.7493 21.968 64.0858 21.976C63.2464 21.976 62.6229 21.744 62.1912 21.288C61.7675 20.824 61.5597 20.12 61.5597 19.176V9.912H57.6027V19.784C57.6107 20.888 57.8345 21.848 58.2582 22.68C58.6899 23.504 59.2814 24.144 60.0408 24.6C60.8003 25.064 61.6876 25.296 62.6868 25.304C63.718 25.304 64.6294 25.104 65.4048 24.696C66.1802 24.288 66.8277 23.656 67.3473 22.808V24.912H71.0885L71.0805 24.896ZM79.7299 21.912C78.6348 21.912 77.8034 21.504 77.2518 20.696C76.6922 19.88 76.4124 18.664 76.4124 17.032C76.4124 16.184 76.5723 15.44 76.8601 14.792C77.1559 14.152 77.5556 13.648 78.0592 13.288C78.5628 12.92 79.1304 12.736 79.7619 12.736C80.4254 12.736 81.009 12.936 81.5206 13.312C82.0242 13.696 82.4239 14.224 82.7117 14.904C82.9995 15.584 83.1433 16.376 83.1513 17.272C83.1513 18.808 82.8795 19.968 82.312 20.744C81.7524 21.52 80.897 21.904 79.7379 21.904L79.7299 21.912ZM76.5643 32V22.952C77.1239 23.744 77.7794 24.336 78.5149 24.72C79.2503 25.104 80.0817 25.296 81.009 25.296C81.9762 25.296 82.8396 25.104 83.599 24.728C84.3584 24.352 85.0059 23.816 85.5335 23.128C86.0611 22.44 86.4608 21.624 86.7406 20.68C87.0124 19.744 87.1563 18.696 87.1563 17.56C87.1563 16.288 86.9964 15.16 86.6767 14.168C86.3569 13.176 85.9093 12.336 85.3337 11.64C84.7581 10.952 84.0706 10.424 83.2872 10.064C82.4958 9.704 81.6245 9.52 80.6812 9.52C79.7699 9.52 78.9625 9.696 78.267 10.056C77.5636 10.424 76.98 10.984 76.5084 11.744L76.4764 9.912H72.6713V32H76.5723H76.5643ZM95.502 21.912C94.4068 21.912 93.5754 21.504 93.0239 20.696C92.4643 19.88 92.1845 18.664 92.1845 17.032C92.1845 16.184 92.3444 15.44 92.6322 14.792C92.9279 14.152 93.3276 13.648 93.8313 13.288C94.3349 12.92 94.9024 12.736 95.534 12.736C96.1975 12.736 96.781 12.936 97.2926 13.312C97.7963 13.696 98.1959 14.224 98.4837 14.904C98.7715 15.584 98.9154 16.376 98.9234 17.272C98.9234 18.808 98.6516 19.968 98.084 20.744C97.5245 21.52 96.6691 21.904 95.51 21.904L95.502 21.912ZM92.3364 32V22.952C92.896 23.744 93.5515 24.336 94.2869 24.72C95.0224 25.104 95.8537 25.296 96.781 25.296C97.7483 25.296 98.6116 25.104 99.3711 24.728C100.13 24.352 100.778 23.816 101.306 23.128C101.833 22.44 102.233 21.624 102.513 20.68C102.784 19.744 102.928 18.696 102.928 17.56C102.928 16.288 102.768 15.16 102.449 14.168C102.129 13.176 101.681 12.336 101.106 11.64C100.53 10.952 99.8427 10.424 99.0593 10.064C98.2679 9.704 97.3966 9.52 96.4533 9.52C95.542 9.52 94.7346 9.696 94.0391 10.056C93.3356 10.424 92.7521 10.984 92.2804 11.744L92.2484 9.912H88.4433V32H92.3444H92.3364ZM111.578 21.976C110.379 21.976 109.475 21.592 108.86 20.832C108.252 20.072 107.949 18.928 107.949 17.408C107.949 15.888 108.252 14.744 108.86 13.992C109.467 13.24 110.371 12.864 111.578 12.864C112.785 12.864 113.68 13.24 114.296 13.992C114.903 14.744 115.207 15.88 115.207 17.408C115.207 18.936 114.903 20.072 114.296 20.832C113.688 21.592 112.785 21.976 111.578 21.976ZM111.578 25.296C112.745 25.296 113.792 25.104 114.735 24.728C115.671 24.352 116.47 23.824 117.134 23.128C117.797 22.432 118.309 21.608 118.66 20.64C119.012 19.672 119.188 18.592 119.196 17.4C119.196 16.2 119.02 15.112 118.668 14.152C118.317 13.184 117.813 12.352 117.15 11.664C116.486 10.976 115.687 10.44 114.751 10.072C113.816 9.704 112.761 9.52 111.586 9.512C110.395 9.512 109.324 9.704 108.38 10.072C107.429 10.44 106.622 10.976 105.958 11.672C105.287 12.36 104.775 13.192 104.423 14.16C104.072 15.128 103.888 16.208 103.888 17.4C103.888 18.568 104.064 19.632 104.407 20.6C104.751 21.568 105.263 22.392 105.918 23.096C106.582 23.8 107.389 24.336 108.34 24.712C109.292 25.096 110.379 25.288 111.586 25.288L111.578 25.296ZM124.424 24.896V17.096C124.424 15.896 124.72 14.992 125.319 14.376C125.919 13.768 126.83 13.464 128.045 13.464C128.413 13.464 128.773 13.496 129.141 13.552V9.496H128.621C128.213 9.496 127.822 9.512 127.43 9.56C127.038 9.6 126.662 9.696 126.287 9.84C125.919 9.984 125.551 10.208 125.2 10.504C124.848 10.8 124.512 11.2 124.176 11.696V9.896H120.459V24.888H124.416L124.424 24.896ZM138.549 18.928C138.549 19.864 138.366 20.584 137.99 21.088C137.614 21.592 137.031 21.848 136.239 21.856C135.44 21.856 134.856 21.584 134.496 21.072C134.129 20.552 133.953 19.816 133.961 18.872V12.72H142.243V9.92H133.961V5.864H130.06V19.272C130.06 20.088 130.172 20.856 130.404 21.576C130.635 22.296 130.995 22.944 131.483 23.496C131.97 24.056 132.602 24.496 133.377 24.816C134.153 25.136 135.096 25.296 136.183 25.304C137.238 25.304 138.15 25.128 138.917 24.808C139.685 24.488 140.316 24.048 140.804 23.488C141.299 22.928 141.659 22.288 141.891 21.576C142.123 20.856 142.243 20.096 142.243 19.304V15.04H138.557V18.944L138.549 18.928ZM151.859 24.896C153.466 24.896 154.793 24.656 155.824 24.192C156.856 23.728 157.623 23.072 158.119 22.232C158.614 21.384 158.862 20.384 158.862 19.232C158.862 18.304 158.726 17.52 158.47 16.88C158.215 16.232 157.887 15.712 157.471 15.304C157.063 14.896 156.616 14.584 156.128 14.376C155.64 14.16 155.161 14.024 154.689 13.96C155.137 13.928 155.569 13.8 156 13.608C156.424 13.408 156.808 13.128 157.151 12.752C157.495 12.384 157.767 11.936 157.967 11.4C158.175 10.856 158.278 10.232 158.278 9.512C158.278 8.56 158.087 7.72 157.703 7C157.319 6.272 156.712 5.704 155.872 5.296C155.049 4.888 153.962 4.68 152.643 4.672H143.905V24.904H151.851L151.859 24.896ZM145.16 23.832V14.6H152.835C153.786 14.6 154.617 14.744 155.329 15.048C156.04 15.352 156.592 15.84 156.983 16.512C157.383 17.176 157.583 18.056 157.591 19.136C157.591 20.072 157.399 20.896 156.999 21.6C156.6 22.304 155.984 22.848 155.153 23.232C154.321 23.624 153.258 23.824 151.963 23.824H145.176L145.16 23.832ZM145.16 13.504V5.792H152.467C153.57 5.792 154.457 5.952 155.129 6.272C155.8 6.584 156.288 7.024 156.592 7.584C156.896 8.144 157.039 8.8 157.039 9.544C157.039 10.856 156.68 11.848 155.96 12.504C155.241 13.168 154.194 13.504 152.803 13.504H145.16ZM171.708 20.48C171.469 21.304 171.125 22 170.661 22.56C170.197 23.128 169.654 23.552 169.006 23.848C168.359 24.136 167.655 24.288 166.864 24.288C165.033 24.288 163.642 23.72 162.683 22.6C161.732 21.48 161.236 19.816 161.204 17.616H173.203C173.203 16.384 173.059 15.272 172.787 14.28C172.508 13.288 172.1 12.44 171.548 11.728C170.997 11.016 170.325 10.472 169.518 10.088C168.711 9.712 167.775 9.52 166.72 9.512C165.297 9.52 164.082 9.84 163.083 10.456C162.084 11.08 161.316 11.96 160.789 13.096C160.261 14.232 159.997 15.576 159.989 17.128C159.989 19.856 160.565 21.896 161.724 23.256C162.883 24.616 164.618 25.296 166.928 25.296C167.919 25.296 168.815 25.104 169.63 24.728C170.445 24.352 171.141 23.808 171.708 23.096C172.284 22.376 172.708 21.504 172.987 20.48H171.708ZM161.236 16.76C161.252 15.488 161.476 14.384 161.908 13.456C162.339 12.528 162.955 11.816 163.762 11.312C164.57 10.808 165.545 10.552 166.688 10.544C167.791 10.544 168.727 10.808 169.502 11.312C170.277 11.816 170.869 12.536 171.293 13.464C171.708 14.392 171.932 15.488 171.948 16.752H161.228L161.236 16.76ZM186.505 20.48C186.265 21.304 185.922 22 185.458 22.56C184.994 23.128 184.451 23.552 183.803 23.848C183.156 24.136 182.444 24.288 181.661 24.288C179.83 24.288 178.439 23.72 177.48 22.6C176.529 21.48 176.033 19.816 176.001 17.616H188C188 16.384 187.856 15.272 187.584 14.28C187.305 13.288 186.897 12.44 186.345 11.728C185.794 11.016 185.122 10.472 184.315 10.088C183.507 9.712 182.572 9.52 181.517 9.512C180.094 9.52 178.879 9.84 177.88 10.456C176.88 11.08 176.113 11.96 175.585 13.096C175.058 14.232 174.794 15.576 174.786 17.128C174.786 19.856 175.362 21.896 176.521 23.256C177.68 24.616 179.414 25.296 181.725 25.296C182.716 25.296 183.611 25.104 184.427 24.728C185.242 24.352 185.938 23.808 186.505 23.096C187.081 22.376 187.504 21.504 187.784 20.48H186.505ZM176.033 16.76C176.049 15.488 176.273 14.384 176.705 13.456C177.136 12.528 177.752 11.816 178.559 11.312C179.367 10.808 180.342 10.552 181.485 10.544C182.588 10.544 183.523 10.808 184.299 11.312C185.074 11.816 185.666 12.536 186.089 13.464C186.505 14.392 186.729 15.488 186.745 16.752H176.025L176.033 16.76Z"
            fill="#1A1919" />
    </g>
    <defs>
    </defs>
</svg>