<svg version="1.2" xmlns="http://www.w3.org/2000/svg" viewBox="0 0 1526 293" width="1526" height="293">
	<title>TomTom_logo-svg</title>
	<style>
		.s0 { fill: #000000 } 
		.s1 { fill: #df1b12 } 
	</style>
	<g id="Layer">
		<path id="Layer" fill-rule="evenodd" class="s0" d="m1481.6 161.7c0.1-7.5-2.9-14.6-8.1-19.8-5.2-5.3-12.3-8.3-19.7-8.3-7.4 0-14.5 2.9-19.7 8.1-5.3 5.2-8.3 12.3-8.3 19.7v108.8h-43.5v-108.5c0-7.4-2.9-14.6-8.2-19.8-5.2-5.2-12.3-8.2-19.7-8.2-7.4 0-14.5 3-19.7 8.2-5.3 5.2-8.2 12.4-8.2 19.8v108.5h-43.4v-110.4q0-2.5 0.1-4.9 0.2-2.5 0.5-5 0.3-2.4 0.8-4.8 0.5-2.5 1.1-4.9c8.6-31.5 39.2-53.3 73-51.8 15.6 0.6 30.4 6.4 43.7 17.2l1.7 1.4 1.8-1.4c13.3-10.8 28.1-16.6 43.7-17.3 33.8-1.3 64.4 20.5 73 51.9q0.6 2.4 1.1 4.8 0.5 2.5 0.8 4.9 0.3 2.5 0.5 5 0.1 2.4 0.1 4.9v110.4h-43.4c0 0 0-108.5 0-108.5zm-320.5 108.5c-50.3 0-90.9-40.6-90.9-90.8 0-50.2 40.6-90.8 90.9-90.8 50.3 0 91 40.6 91 90.8 0 50.2-40.7 90.8-91 90.8zm18.2-47c5.7-2.3 11-5.8 15.4-10.2 4.4-4.5 7.9-9.7 10.3-15.4 2.4-5.8 3.6-12 3.7-18.2-0.1-6.2-1.3-12.4-3.7-18.2-2.4-5.7-5.9-11-10.3-15.4-4.4-4.4-9.7-7.9-15.4-10.2-5.8-2.4-12-3.7-18.2-3.7-6.2 0-12.4 1.3-18.2 3.7-5.7 2.3-11 5.8-15.4 10.2-4.4 4.4-7.9 9.7-10.3 15.4-2.4 5.8-3.6 12-3.6 18.2 0 6.2 1.2 12.4 3.6 18.2 2.4 5.7 5.9 10.9 10.3 15.3 4.4 4.5 9.7 7.9 15.4 10.3 5.8 2.4 12 3.6 18.2 3.6 6.2 0 12.4-1.2 18.2-3.6zm-167.8 47h-2.5c-9.7-0.7-17.6-2.6-24.7-6.1-26.5-13-40.6-34.1-42.1-62.9l-0.2-3.3c0-0.8 0-3.5 0-3.5l-0.1-59.2h-27.4v-43.4h27.5v-39l43.4-30v71.1h79.5l-22.4 39.2h-57.1v65.4c0.1 2.2 0.2 4.2 0.3 5.8 1 12.4 13.2 22.5 27.2 22.5h29.6l25.2 43.4h-56.2zm-171.4-108.5c0.1-7.4-2.8-14.5-8.1-19.8-5.2-5.3-12.3-8.2-19.7-8.3-7.4 0-14.5 2.9-19.7 8.1-5.3 5.2-8.3 12.3-8.3 19.7v108.8h-43.5v-108.5c0-7.4-2.9-14.5-8.1-19.8-5.3-5.2-12.4-8.1-19.8-8.1-7.4 0-14.5 2.9-19.7 8.1-5.3 5.3-8.2 12.4-8.2 19.8v108.5h-43.4v-110.4q0-2.4 0.2-4.9 0.1-2.5 0.4-4.9 0.3-2.5 0.8-4.9 0.5-2.4 1.1-4.8c8.6-31.5 39.2-53.3 73-51.9 15.7 0.6 30.4 6.5 43.8 17.2l1.7 1.4 1.7-1.4c13.4-10.8 28.1-16.6 43.7-17.2 33.8-1.4 64.5 20.4 73 51.9q0.6 2.4 1.1 4.8 0.5 2.4 0.8 4.9 0.3 2.4 0.5 4.9 0.1 2.5 0.1 4.9v110.4h-43.3c-0.1 0-0.1-108.5-0.1-108.5zm-320.5 108.5c-50.3 0-90.9-40.6-90.9-90.8 0-50.2 40.6-90.7 90.9-90.7 50.3 0 91 40.5 91 90.7 0 50.2-40.7 90.8-91 90.8zm18.2-46.9c5.8-2.4 11-5.9 15.4-10.3 4.4-4.4 7.9-9.6 10.3-15.4 2.4-5.8 3.7-11.9 3.7-18.2 0-6.2-1.3-12.4-3.7-18.1-2.4-5.8-5.9-11-10.3-15.4-4.4-4.4-9.6-7.9-15.4-10.3-5.7-2.4-11.9-3.6-18.2-3.6-6.2 0-12.4 1.2-18.1 3.6-5.8 2.4-11 5.9-15.4 10.3-4.4 4.4-7.9 9.6-10.3 15.4-2.4 5.7-3.7 11.9-3.7 18.1 0 6.3 1.3 12.4 3.7 18.2 2.4 5.8 5.9 11 10.3 15.4 4.4 4.4 9.6 7.9 15.4 10.3 5.7 2.3 11.9 3.6 18.1 3.6 6.3 0 12.5-1.2 18.2-3.6zm-167.8 46.9h-2.5c-9.7-0.6-17.5-2.6-24.6-6-26.5-13-40.7-34.2-42.2-62.9l-0.2-3.3c0-0.8 0-3.6 0-3.6v-59.2h-27.4v-43.4h27.4v-39l43.4-30v71.1h79.5l-22.3 39.2h-57.2v65.4c0.1 2.2 0.2 4.2 0.4 5.8 1 12.4 13.1 22.5 27.1 22.5l29.7 0.1 25.1 43.3h-56.2c0 0 0 0 0 0z"/>
		<path id="Layer" fill-rule="evenodd" class="s1" d="m62.4 226h77.4l-38.7 67zm38.7-24.2c-55.9 0-101.1-45.1-101.1-100.9 0-55.8 45.2-100.9 101.1-100.9 56 0 101.2 45.1 101.2 100.9-0.1 55.8-45.2 100.9-101.2 100.9zm20.2-52.2c6.4-2.6 12.3-6.5 17.2-11.4 4.9-4.9 8.8-10.7 11.4-17.1 2.7-6.4 4.1-13.3 4.1-20.2 0-7-1.4-13.8-4.1-20.2-2.6-6.4-6.5-12.2-11.4-17.1-4.9-4.9-10.8-8.8-17.2-11.5-6.4-2.6-13.2-4-20.2-4-6.9 0-13.7 1.4-20.1 4-6.5 2.7-12.3 6.6-17.2 11.5-4.9 4.9-8.8 10.7-11.4 17.1-2.7 6.4-4.1 13.2-4.1 20.2 0 6.9 1.4 13.8 4.1 20.2 2.6 6.4 6.5 12.2 11.4 17.1 4.9 4.9 10.7 8.8 17.2 11.4 6.4 2.6 13.2 4 20.1 4 7 0 13.8-1.4 20.2-4z"/>
	</g>
</svg>