<svg width="115" height="32" viewBox="0 0 115 32" fill="none" xmlns="http://www.w3.org/2000/svg">
<g clip-path="url(#clip0_3698_12685)">
<path fill-rule="evenodd" clip-rule="evenodd" d="M10.7629 4.86333L0.775099 10.6325C0.29511 10.9086 0 11.4213 0 11.9739V23.5122C0.00173594 24.0652 0.29511 24.5758 0.775099 24.8536L10.7629 30.6227C11.2428 30.8993 11.8331 30.8993 12.313 30.6227L22.303 24.8536C22.7808 24.5775 23.0759 24.0652 23.0759 23.5122V11.9739C23.0759 11.4213 22.7808 10.9086 22.303 10.6325L12.313 4.86333C12.0891 4.73483 11.8348 4.66189 11.5748 4.65668C11.5631 4.65625 11.551 4.65625 11.5388 4.65625C11.2667 4.65625 11.0002 4.72745 10.7629 4.86333ZM11.5379 7.99382L19.9768 12.8678V22.617L11.5379 27.4909V7.99382Z" fill="url(#paint0_linear_3698_12685)"/>
<path fill-rule="evenodd" clip-rule="evenodd" d="M40.475 5.23438V25.2019H43.9622V17.0183C43.9622 16.6228 43.9904 16.2577 44.1036 15.9774C44.468 14.9365 45.4239 14.0371 46.7731 14.0371C48.6848 14.0371 49.4176 15.528 49.4176 17.5249V25.2019H52.8739V17.1288C52.8739 12.7442 50.4274 11.1974 48.094 11.1974C47.2231 11.1974 46.408 11.4211 45.7324 11.8139C45.0312 12.1817 44.4398 12.7442 44.0187 13.3897H43.9622V5.23438H40.475ZM84.581 5.23438V12.9962H84.5244C83.9074 11.9836 82.5562 11.1974 80.6721 11.1974C77.3829 11.1974 74.5154 13.9239 74.5437 18.5066C74.5437 22.7266 77.1317 25.5104 80.3926 25.5104C82.3891 25.5104 84.0462 24.5544 84.8632 23.0352H84.9198L85.0586 25.2019H88.1524C88.0965 24.2741 88.0399 22.7549 88.0399 21.3489V5.23438H84.581ZM56.3532 5.26267C55.0375 5.26267 54.1402 6.19301 54.1402 7.41416C54.1402 8.59913 55.0066 9.52947 56.3196 9.52947C57.6998 9.52947 58.5655 8.59913 58.5655 7.41416C58.5346 6.19301 57.6998 5.26267 56.3532 5.26267ZM35.2044 11.1974C32.0257 11.1974 30.0292 13.0811 30.0292 15.4997C30.0009 17.1005 31.1264 18.5631 33.7966 19.4935C35.4846 20.0823 36.0471 20.56 36.0471 21.4877C36.0471 22.3878 35.3715 23.0069 33.8532 23.0069C32.6171 23.0069 31.1264 22.5003 30.3403 22.0226L29.6641 24.5261C30.6765 25.0887 32.1671 25.5104 33.8249 25.5104C37.4529 25.5104 39.3928 23.6826 39.3928 21.2081C39.3645 19.1823 38.2107 17.9183 35.7366 17.0183C33.994 16.3991 33.3466 15.9774 33.3466 15.1036C33.3466 14.2608 34.0222 13.6719 35.2583 13.6719C36.4687 13.6719 37.566 14.122 38.1548 14.4588L38.8304 12.0119C38.0443 11.5902 36.7207 11.1974 35.2044 11.1974ZM67.7647 11.1974C65.6833 11.1974 64.0828 12.0685 63.0704 13.616H63.0138L62.8441 11.5053H59.8068C59.8634 12.7982 59.9193 14.2608 59.9193 16.0623V30.7688H63.3782V23.6826H63.4348C64.1367 24.7801 65.5702 25.5104 67.2871 25.5104C70.4066 25.5104 73.5287 23.1201 73.5287 18.1697C73.5287 13.8956 70.9125 11.1974 67.7647 11.1974ZM95.1321 11.1974C92.9658 11.1974 91.1949 11.7856 90.1825 12.4054L90.8588 14.6543C91.7863 14.0654 93.1921 13.6417 94.5407 13.6417C96.9589 13.6417 97.324 15.1346 97.324 16.034V16.2577C92.2639 16.2294 89.1984 17.9749 89.1984 21.4311C89.1984 23.5129 90.7456 25.5104 93.5 25.5104C95.2709 25.5104 96.7069 24.7518 97.5503 23.6826H97.6325L97.8581 25.2019H100.98C100.839 24.3564 100.783 23.1484 100.783 21.9095V16.9617C100.783 13.9805 99.5185 11.1974 95.1321 11.1974ZM54.6389 25.2019H58.1261V11.5053H54.6389V25.2019ZM100.888 11.5053L105.894 24.0761C106.063 24.413 106.092 24.6104 106.092 24.7492C106.092 24.9189 106.007 25.117 105.865 25.369C105.388 26.2967 104.629 27.1139 103.982 27.5356C103.278 28.0416 102.548 28.3501 101.957 28.4916L102.746 31.4162C103.617 31.303 105.023 30.8536 106.372 29.643C108.003 28.237 109.268 25.9598 111.151 20.8429L114.582 11.5053H110.871L108.734 18.8178C108.482 19.7172 108.227 20.7298 108.003 21.516H107.918C107.721 20.7298 107.441 19.6889 107.158 18.8461L104.686 11.5053H100.888ZM81.5181 13.8673C83.0903 13.8673 84.1876 14.9648 84.4962 16.3143C84.5527 16.5945 84.581 16.9334 84.581 17.2137V19.2671C84.581 19.6323 84.5527 19.9692 84.4679 20.2797C84.131 21.7706 82.895 22.7266 81.4872 22.7266C79.2953 22.7266 78.0592 20.8969 78.0592 18.396C78.0592 15.8366 79.2953 13.8673 81.5181 13.8673ZM66.6109 13.9239C68.8311 13.9239 70.0132 15.8925 70.0132 18.3111C70.0132 21.0101 68.7205 22.8372 66.526 22.8372C65.0643 22.8372 63.8282 21.8272 63.4914 20.4212C63.4065 20.1106 63.3782 19.8021 63.3782 19.4652V17.3551C63.3782 17.0722 63.4348 16.7643 63.5197 16.484C63.8565 14.9648 65.1774 13.9239 66.6109 13.9239ZM96.951 18.5039C97.1029 18.5039 97.2569 18.5039 97.4088 18.5092V20.3929C97.4088 20.6166 97.3806 20.8995 97.2957 21.1515C96.9872 22.1358 95.9748 23.0352 94.5972 23.0352C93.5 23.0352 92.629 22.4161 92.629 21.0666C92.629 19.1158 94.6795 18.5243 96.951 18.5039Z" fill="#173308"/>
</g>
<defs>
<linearGradient id="paint0_linear_3698_12685" x1="4.59197e-08" y1="7.54694" x2="25.1293" y2="9.5587" gradientUnits="userSpaceOnUse">
<stop stop-color="#34C896"/>
<stop offset="1" stop-color="#9EE870"/>
</linearGradient>
<clipPath id="clip0_3698_12685">
<rect width="114.581" height="32" fill="white"/>
</clipPath>
</defs>
</svg>
