<svg height="512pt" viewBox="0 -62 512.40197 512" width="512pt" xmlns="http://www.w3.org/2000/svg"><path d="m503.867188 135.773438c-3.441407.03125-6.863282-.511719-10.125-1.609376 7.550781-10.039062 10.691406-22.71875 8.703124-35.125-1.105468-4.910156-3.308593-9.511718-6.449218-13.449218 2.613281-.339844 5.246094-.519532 7.882812-.535156 2.953125-.003907 5.695313-1.535157 7.25-4.050782 1.550782-2.511718 1.695313-5.648437.375-8.292968-7.234375-15.226563-18.617187-28.105469-32.839844-37.15625 2.046876-1.570313 4.226563-2.957032 6.515626-4.140626 2.960937-1.492187 4.785156-4.566406 4.683593-7.878906-.101562-3.316406-2.113281-6.269531-5.15625-7.582031-26.992187-12.410156-58.089843-12.261719-84.957031.410156v-7.628906c-.003906-2.660156-1.242188-5.167969-3.359375-6.785156-2.113281-1.613281-4.859375-2.148438-7.425781-1.445313-47.417969 12.96875-67.394532 38.191406-75.714844 58.976563-36.425781-15.636719-77.675781-15.636719-114.105469 0-8.320312-20.785157-28.296875-46.011719-75.714843-58.976563-2.566407-.703125-5.3125-.167968-7.425782 1.445313-2.113281 1.617187-3.355468 4.125-3.355468 6.785156v7.628906c-26.871094-12.667969-57.964844-12.816406-84.957032-.410156-3.054687 1.308594-5.066406 4.269531-5.167968 7.589844-.097657 3.320312 1.738281 6.394531 4.707031 7.882812 2.296875 1.183594 4.492187 2.550781 6.566406 4.089844-14.253906 9.046875-25.65625 21.941406-32.898437 37.195313-1.316407 2.644531-1.175782 5.78125.378906 8.292968 1.550781 2.515625 4.292968 4.046875 7.25 4.050782 2.632812.015624 5.265625.195312 7.882812.535156-3.140625 3.9375-5.347656 8.539062-6.449218 13.449218-1.992188 12.40625 1.144531 25.082032 8.6875 35.125-3.257813 1.101563-6.675782 1.644532-10.113282 1.609376-2.957031 0-5.703125 1.527343-7.261718 4.042968-1.554688 2.515625-1.695313 5.65625-.375 8.300782 11.691406 23.464843 42.742187 60.601562 86.570312 61.523437-1.28125 8.523437-1.925781 17.132813-1.933594 25.75 0 89.003906 71.773438 153.601563 170.664063 153.601563 98.894531 0 170.667969-64.597657 170.667969-153.601563-.007813-8.621094-.65625-17.226563-1.933594-25.753906 43.816406-.921875 74.871094-38.058594 86.566406-61.523438 1.324219-2.644531 1.179688-5.785156-.375-8.300781s-4.300781-4.042969-7.257812-4.042969zm-102.429688 53.164062c-4.445312-1.417969-9.203125.996094-10.683594 5.421875-1.480468 4.421875.867188 9.214844 5.269532 10.761719 3.667968 1.210937 7.40625 2.1875 11.199218 2.921875 1.660156 9.023437 2.523438 18.171875 2.578125 27.347656 0 80.382813-63.167969 136.535156-153.601562 136.535156-90.433594 0-153.597657-56.152343-153.597657-136.535156.054688-9.175781.917969-18.328125 2.582032-27.351563 3.789062-.734374 7.53125-1.710937 11.199218-2.917968 4.402344-1.546875 6.75-6.339844 5.269532-10.761719-1.480469-4.425781-6.242188-6.839844-10.683594-5.421875-45.585938 15.25-76.160156-19.605469-88.566406-38.050781 5.46875-1.5 10.511718-4.273438 14.707031-8.09375 3.054687-3.070313 3.324219-7.949219.625-11.339844-8.859375-11.101563-12.714844-20.980469-11.140625-28.558594 1.109375-4.714843 4.105469-8.769531 8.289062-11.210937 2.886719-1.449219 4.707032-4.402344 4.710938-7.628906 0-8.980469-8.035156-13.054688-16.851562-14.816407 6.328124-9.808593 15.382812-17.550781 26.050781-22.28125 3.480469-1.167969 5.824219-4.425781 5.824219-8.09375-.226563-4.621093-2.167969-8.996093-5.441407-12.265625 22.8125-6.242187 47.21875-2.074218 66.667969 11.386719 2.558594 2.054687 6.070312 2.457031 9.03125 1.039063 2.960938-1.421876 4.84375-4.414063 4.84375-7.695313v-11.007813c62.632812 21.984376 58.339844 68.0625 58.097656 70.25-.570312 4.679688 2.757813 8.933594 7.4375 9.507813 4.675782.570313 8.933594-2.757813 9.503906-7.4375.402344-5.480469.101563-10.988281-.894531-16.390625 33.28125-14.996094 71.394531-14.996094 104.671875 0-.992187 5.402344-1.292968 10.910156-.894531 16.390625.265625 2.238281 1.417969 4.28125 3.195313 5.667969 1.777343 1.390625 4.035156 2.007812 6.273437 1.722656 4.664063-.5625 8-4.78125 7.476563-9.449219-.234376-2.058593-4.636719-48.246093 58.097656-70.261719v11.007813c.011718 3.269531 1.886718 6.25 4.832031 7.667969 2.945313 1.421875 6.441406 1.039062 9.007813-.988282 19.441406-13.507812 43.875-17.6875 66.703124-11.414062-3.277343 3.273438-5.214843 7.644531-5.441406 12.265625 0 3.671875 2.34375 6.929687 5.824219 8.09375 10.617187 4.808594 19.644531 12.539063 26.027344 22.289063-8.808594 1.765624-16.824219 5.839843-16.824219 14.8125.035156 3.179687 1.804688 6.085937 4.613281 7.582031 4.230469 2.433593 7.265625 6.507812 8.382813 11.257812 1.578125 7.574219-2.28125 17.453125-11.140625 28.558594-2.699219 3.390625-2.429688 8.269531.625 11.339844 4.171875 3.800781 9.179687 6.5625 14.617187 8.066406-12.550781 18.332031-43.34375 53.175781-88.472656 38.078125zm0 0"/><path d="m170.875 124.457031c3.097656-.003906 5.949219-1.6875 7.453125-4.398437 1.5-2.710938 1.414063-6.023438-.226563-8.652344-.984374-1.585938-24.640624-38.882812-59.507812-46.386719-16.117188-3.421875-32.925781.085938-46.328125 9.671875-3.871094 2.632813-4.898437 7.894532-2.300781 11.789063s7.847656 4.972656 11.769531 2.410156c9.546875-7.003906 21.617187-9.621094 33.207031-7.203125 27.777344 5.941406 48.492188 38.441406 48.691406 38.769531 1.566407 2.492188 4.300782 4.003907 7.242188 4zm0 0"/><path d="m393.808594 65.015625c-34.867188 7.503906-58.523438 44.800781-59.507813 46.386719-2.5 3.996094-1.289062 9.261718 2.707031 11.761718 3.992188 2.5 9.257813 1.289063 11.757813-2.707031.203125-.328125 20.917969-32.828125 48.691406-38.769531 11.59375-2.417969 23.664063.199219 33.210938 7.203125 2.535156 1.726563 5.800781 1.957031 8.554687.605469 2.753906-1.351563 4.570313-4.078125 4.761719-7.136719.1875-3.0625-1.28125-5.992187-3.851563-7.667969-13.402343-9.578125-30.207031-13.089844-46.324218-9.675781zm0 0"/><path d="m307.402344 303.65625c-4.714844 0-8.535156 3.820312-8.535156 8.535156 0 9.425782-7.640626 17.066406-17.066407 17.066406s-17.066406-7.640624-17.066406-17.066406v-9.109375c22.605469-2.742187 34.132813-16.808593 34.132813-42.089843 0-31.3125-16.625-76.800782-42.667969-76.800782-26.039063 0-42.664063 45.488282-42.664063 76.800782 0 25.28125 11.527344 39.347656 34.132813 42.089843v9.109375c0 9.425782-7.640625 17.066406-17.066407 17.066406-9.425781 0-17.066406-7.640624-17.066406-17.066406 0-4.714844-3.820312-8.535156-8.535156-8.535156-4.710938 0-8.53125 3.820312-8.53125 8.535156-.0625 14.230469 8.75 26.996094 22.082031 31.980469s28.355469 1.136719 37.648438-9.640625c9.292969 10.777344 24.320312 14.625 37.652343 9.640625 13.328126-4.984375 22.144532-17.75 22.082032-31.980469 0-4.714844-3.820313-8.535156-8.53125-8.535156zm-76.800782-42.664062c0-28.269532 15.257813-59.734376 25.597657-59.734376 10.34375 0 25.601562 31.464844 25.601562 59.734376 0 21.519531-9 25.597656-25.601562 25.597656-16.597657 0-25.597657-4.078125-25.597657-25.597656zm0 0"/><path d="m213.535156 184.191406c0-10.355468-6.238281-19.691406-15.804687-23.652344-9.566407-3.960937-20.578125-1.773437-27.898438 5.550782-7.320312 7.320312-9.511719 18.332031-5.550781 27.898437 3.964844 9.566407 13.296875 15.800781 23.652344 15.800781 14.132812-.015624 25.585937-11.464843 25.601562-25.597656zm-25.601562 8.53125c-4.710938 0-8.53125-3.820312-8.53125-8.53125 0-4.714844 3.820312-8.535156 8.53125-8.535156 4.714844 0 8.535156 3.820312 8.535156 8.535156-.007812 4.710938-3.824219 8.527344-8.535156 8.53125zm0 0"/><path d="m324.46875 158.589844c-14.140625 0-25.601562 11.460937-25.601562 25.601562 0 14.136719 11.460937 25.597656 25.601562 25.597656 14.136719 0 25.597656-11.460937 25.597656-25.597656-.015625-14.132812-11.46875-25.585937-25.597656-25.601562zm0 34.132812c-4.714844 0-8.535156-3.820312-8.535156-8.53125 0-4.714844 3.820312-8.535156 8.535156-8.535156 4.710938 0 8.53125 3.820312 8.53125 8.535156-.003906 4.710938-3.820312 8.527344-8.53125 8.53125zm0 0"/></svg>