<?xml version="1.0" encoding="UTF-8"?> <svg xmlns="http://www.w3.org/2000/svg" width="150" height="23" viewBox="0 0 150 23" fill="none"><path d="M37.1099 17.7957C36.0841 17.7957 35.2206 17.523 34.5194 16.9777C33.8247 16.4323 33.3443 15.6987 33.0781 14.7767L35.094 14.2996C35.1849 14.7345 35.4154 15.1079 35.7855 15.4195C36.162 15.7246 36.5808 15.8772 37.0417 15.8772C37.3469 15.8772 37.665 15.7993 37.9961 15.6435C38.3272 15.4877 38.574 15.2345 38.7363 14.8839C38.8466 14.6501 38.9116 14.384 38.931 14.0853C38.9505 13.7802 38.9603 13.4263 38.9603 13.0238V3.48966H41.0248V13.0238C41.0248 13.4393 41.0216 13.8094 41.0151 14.134C41.0151 14.4586 40.9826 14.7638 40.9177 15.0494C40.8593 15.3351 40.7424 15.6305 40.5671 15.9356C40.1971 16.5784 39.7101 17.0491 39.1063 17.3477C38.5025 17.6464 37.8371 17.7957 37.1099 17.7957ZM47.4665 17.7957C46.7393 17.7957 46.1291 17.6789 45.6356 17.4451C45.1422 17.2114 44.7397 16.9063 44.428 16.5297C44.1229 16.1466 43.8892 15.7311 43.7269 15.2832C43.5645 14.8352 43.4542 14.3969 43.3957 13.9684C43.3373 13.5399 43.3081 13.1634 43.3081 12.8388V6.99557H45.3727V12.1668C45.3727 12.5758 45.4052 12.9978 45.4701 13.4328C45.5415 13.8613 45.6713 14.2606 45.8596 14.6307C46.0544 15.0007 46.3238 15.2994 46.6679 15.5266C47.0185 15.7539 47.473 15.8675 48.0313 15.8675C48.3949 15.8675 48.739 15.809 49.0636 15.6922C49.3883 15.5688 49.6707 15.374 49.9109 15.1079C50.1576 14.8417 50.3491 14.4911 50.4855 14.0561C50.6283 13.6211 50.6997 13.092 50.6997 12.4687L51.9658 12.9459C51.9658 13.9003 51.7872 14.7443 51.4301 15.4779C51.073 16.2051 50.5601 16.7732 49.8914 17.1822C49.2227 17.5912 48.4144 17.7957 47.4665 17.7957ZM50.9432 17.5133V14.4748H50.6997V6.99557H52.7546V17.5133H50.9432ZM62.8679 17.5133V12.3421C62.8679 11.9331 62.8322 11.5143 62.7607 11.0858C62.6958 10.6508 62.566 10.2483 62.3712 9.87821C62.1829 9.50814 61.9135 9.20949 61.5629 8.98225C61.2188 8.75502 60.7676 8.6414 60.2092 8.6414C59.8456 8.6414 59.5015 8.70308 59.1769 8.82643C58.8523 8.9433 58.5666 9.13482 58.3199 9.40101C58.0797 9.6672 57.8882 10.0178 57.7453 10.4528C57.609 10.8878 57.5408 11.4169 57.5408 12.0402L56.2748 11.563C56.2748 10.6086 56.4533 9.76784 56.8104 9.04068C57.1675 8.30704 57.6804 7.73571 58.3491 7.32668C59.0179 6.91766 59.8262 6.71315 60.7741 6.71315C61.5012 6.71315 62.1115 6.83001 62.6049 7.06374C63.0983 7.29747 63.4976 7.60586 63.8028 7.98891C64.1144 8.36547 64.3514 8.77774 64.5137 9.22572C64.676 9.6737 64.7864 10.1119 64.8448 10.5404C64.9032 10.9689 64.9325 11.3455 64.9325 11.6701V17.5133H62.8679ZM55.4762 17.5133V6.99557H57.2974V10.034H57.5408V17.5133H55.4762ZM71.8028 22.48C71.2379 22.48 70.6893 22.3924 70.1569 22.2171C69.631 22.0418 69.1506 21.7821 68.7156 21.438C68.2806 21.1004 67.9203 20.6816 67.6346 20.1817L69.5142 19.2273C69.7414 19.6753 70.066 20.0032 70.488 20.2109C70.9101 20.4187 71.3548 20.5225 71.8222 20.5225C72.4001 20.5225 72.8935 20.4187 73.3025 20.2109C73.7115 20.0096 74.0199 19.7045 74.2277 19.2955C74.4419 18.8865 74.5458 18.38 74.5393 17.7762V14.8352H74.7828V6.99557H76.5844V17.7957C76.5844 18.0749 76.5747 18.3411 76.5552 18.5943C76.5357 18.8475 76.5 19.1007 76.4481 19.3539C76.2988 20.0616 76.0131 20.6459 75.5911 21.1069C75.1756 21.5678 74.6432 21.9119 73.994 22.1392C73.3512 22.3664 72.6208 22.48 71.8028 22.48ZM71.6469 17.8055C70.6666 17.8055 69.8193 17.562 69.1052 17.0751C68.3975 16.5881 67.8489 15.9259 67.4593 15.0884C67.0763 14.2444 66.8847 13.2965 66.8847 12.2447C66.8847 11.1864 67.0795 10.2418 67.4691 9.41075C67.8586 8.57323 68.4105 7.91425 69.1246 7.43381C69.8453 6.94688 70.699 6.70341 71.6859 6.70341C72.6792 6.70341 73.5135 6.94688 74.1887 7.43381C74.8704 7.91425 75.3833 8.57323 75.7274 9.41075C76.078 10.2483 76.2533 11.1929 76.2533 12.2447C76.2533 13.2965 76.078 14.2411 75.7274 15.0786C75.3768 15.9162 74.8607 16.5816 74.179 17.0751C73.4973 17.562 72.6533 17.8055 71.6469 17.8055ZM71.9294 15.9649C72.5981 15.9649 73.1434 15.8058 73.5655 15.4877C73.9875 15.1695 74.2959 14.7313 74.4906 14.173C74.6854 13.6146 74.7828 12.9719 74.7828 12.2447C74.7828 11.5175 74.6822 10.8748 74.4809 10.3164C74.2861 9.7581 73.981 9.32311 73.5655 9.01147C73.1564 8.69983 72.6338 8.54401 71.9975 8.54401C71.3223 8.54401 70.7672 8.70957 70.3322 9.04068C69.8972 9.3718 69.5726 9.81653 69.3584 10.3749C69.1506 10.9332 69.0467 11.5565 69.0467 12.2447C69.0467 12.9394 69.1506 13.5692 69.3584 14.134C69.5726 14.6923 69.8907 15.1371 70.3128 15.4682C70.7413 15.7993 71.2801 15.9649 71.9294 15.9649ZM79.1892 17.5133V3.1975H81.2245V17.5133H79.1892ZM88.4892 17.8055C87.4439 17.8055 86.5253 17.5782 85.7332 17.1238C84.9476 16.6628 84.3341 16.0233 83.8926 15.2052C83.4576 14.3807 83.2401 13.4263 83.2401 12.3421C83.2401 11.1929 83.4543 10.1963 83.8828 9.35232C84.3178 8.50831 84.9216 7.85582 85.6942 7.39485C86.4668 6.93389 87.366 6.70341 88.3918 6.70341C89.4631 6.70341 90.3753 6.95337 91.1284 7.45329C91.8815 7.94671 92.4431 8.65114 92.8132 9.56657C93.1897 10.482 93.3391 11.5695 93.2612 12.829H91.2258V12.0889C91.2128 10.8683 90.9791 9.96586 90.5246 9.38154C90.0766 8.79722 89.3917 8.50506 88.4697 8.50506C87.4504 8.50506 86.6843 8.82643 86.1714 9.46918C85.6585 10.1119 85.4021 11.0404 85.4021 12.2544C85.4021 13.4101 85.6585 14.306 86.1714 14.9423C86.6843 15.5721 87.4245 15.887 88.3918 15.887C89.0281 15.887 89.5767 15.7441 90.0377 15.4585C90.5051 15.1663 90.8687 14.7508 91.1284 14.2119L93.1248 14.8449C92.7158 15.7863 92.0958 16.5167 91.2647 17.0361C90.4337 17.549 89.5085 17.8055 88.4892 17.8055ZM84.7398 12.829V11.2416H92.2483V12.829H84.7398ZM100.939 17.8055C99.9329 17.8055 99.0239 17.6334 98.2124 17.2893C97.4073 16.9387 96.7419 16.4421 96.216 15.7993C95.6966 15.1501 95.359 14.3807 95.2032 13.4912L97.3262 13.1699C97.5404 14.0269 97.9884 14.6956 98.6701 15.176C99.3518 15.65 100.147 15.887 101.056 15.887C101.621 15.887 102.14 15.7993 102.614 15.624C103.088 15.4422 103.468 15.1858 103.754 14.8547C104.046 14.517 104.192 14.1145 104.192 13.6471C104.192 13.3939 104.146 13.1699 104.056 12.9751C103.971 12.7803 103.851 12.6115 103.695 12.4687C103.546 12.3194 103.361 12.1928 103.14 12.0889C102.926 11.9785 102.689 11.8844 102.429 11.8065L98.8357 10.7449C98.4851 10.6411 98.128 10.508 97.7644 10.3457C97.4008 10.1769 97.0665 9.95936 96.7613 9.69317C96.4627 9.42049 96.2192 9.08613 96.0309 8.69009C95.8427 8.28756 95.7485 7.80063 95.7485 7.2293C95.7485 6.3658 95.9693 5.63541 96.4107 5.0381C96.8587 4.43431 97.4625 3.97984 98.2221 3.67469C98.9817 3.36305 99.8323 3.20724 100.774 3.20724C101.722 3.22022 102.569 3.38902 103.315 3.71365C104.069 4.03827 104.692 4.50572 105.185 5.11601C105.685 5.71981 106.029 6.45345 106.218 7.31694L104.036 7.68701C103.939 7.16113 103.731 6.7099 103.413 6.33334C103.095 5.95029 102.705 5.65813 102.244 5.45686C101.783 5.24911 101.283 5.14198 100.744 5.13549C100.225 5.1225 99.7479 5.20041 99.3129 5.36921C98.8844 5.53802 98.5403 5.77499 98.2806 6.08014C98.0274 6.38528 97.9008 6.73587 97.9008 7.13191C97.9008 7.52146 98.0144 7.83634 98.2416 8.07656C98.4688 8.31678 98.748 8.50831 99.0791 8.65114C99.4167 8.78748 99.7511 8.9011 100.082 8.99199L102.673 9.72239C102.997 9.81328 103.364 9.93664 103.773 10.0925C104.189 10.2418 104.588 10.4528 104.971 10.7255C105.361 10.9982 105.682 11.3617 105.935 11.8162C106.188 12.2642 106.315 12.829 106.315 13.5107C106.315 14.2184 106.172 14.8417 105.886 15.3805C105.601 15.9129 105.208 16.3609 104.708 16.7245C104.215 17.0816 103.643 17.351 102.994 17.5328C102.345 17.7146 101.66 17.8055 100.939 17.8055ZM112.89 17.8055C111.812 17.8055 110.896 17.5652 110.143 17.0848C109.39 16.6044 108.812 15.9454 108.41 15.1079C108.014 14.2703 107.813 13.3192 107.806 12.2544C107.813 11.1702 108.02 10.2126 108.429 9.38154C108.838 8.54401 109.423 7.88828 110.182 7.41433C110.942 6.94038 111.854 6.70341 112.919 6.70341C114.068 6.70341 115.048 6.98908 115.86 7.56041C116.678 8.13174 117.217 8.91408 117.476 9.90742L115.451 10.4917C115.25 9.90093 114.918 9.44322 114.458 9.11859C114.003 8.78748 113.48 8.62192 112.89 8.62192C112.221 8.62192 111.672 8.78099 111.244 9.09912C110.815 9.41075 110.497 9.83925 110.289 10.3846C110.082 10.93 109.974 11.5533 109.968 12.2544C109.974 13.3387 110.221 14.2152 110.708 14.8839C111.202 15.5526 111.929 15.887 112.89 15.887C113.545 15.887 114.074 15.7376 114.477 15.439C114.886 15.1338 115.198 14.6988 115.412 14.134L117.476 14.6209C117.132 15.6467 116.564 16.4356 115.772 16.9874C114.98 17.5328 114.019 17.8055 112.89 17.8055ZM123.743 17.8055C122.691 17.8055 121.779 17.5685 121.006 17.0945C120.233 16.6206 119.636 15.9681 119.214 15.1371C118.799 14.2996 118.591 13.3354 118.591 12.2447C118.591 11.1475 118.805 10.1834 119.234 9.35232C119.662 8.5148 120.263 7.86555 121.035 7.40459C121.808 6.93714 122.71 6.70341 123.743 6.70341C124.794 6.70341 125.707 6.94038 126.479 7.41433C127.252 7.88828 127.849 8.54077 128.271 9.3718C128.693 10.2028 128.904 11.1605 128.904 12.2447C128.904 13.3419 128.69 14.3093 128.261 15.1468C127.839 15.9778 127.242 16.6303 126.469 17.1043C125.697 17.5717 124.788 17.8055 123.743 17.8055ZM123.743 15.887C124.749 15.887 125.499 15.5493 125.992 14.8741C126.492 14.1924 126.742 13.3159 126.742 12.2447C126.742 11.1475 126.489 10.271 125.982 9.61526C125.483 8.95304 124.736 8.62192 123.743 8.62192C123.061 8.62192 122.499 8.77774 122.058 9.08938C121.616 9.39452 121.288 9.81978 121.074 10.3651C120.86 10.904 120.753 11.5305 120.753 12.2447C120.753 13.3484 121.006 14.2314 121.512 14.8936C122.019 15.5558 122.762 15.887 123.743 15.887ZM135.008 17.7957C134.281 17.7957 133.67 17.6789 133.177 17.4451C132.683 17.2114 132.281 16.9063 131.969 16.5297C131.664 16.1466 131.43 15.7311 131.268 15.2832C131.106 14.8352 130.995 14.3969 130.937 13.9684C130.879 13.5399 130.849 13.1634 130.849 12.8388V6.99557H132.914V12.1668C132.914 12.5758 132.946 12.9978 133.011 13.4328C133.083 13.8613 133.213 14.2606 133.401 14.6307C133.596 15.0007 133.865 15.2994 134.209 15.5266C134.56 15.7539 135.014 15.8675 135.573 15.8675C135.936 15.8675 136.28 15.809 136.605 15.6922C136.929 15.5688 137.212 15.374 137.452 15.1079C137.699 14.8417 137.89 14.4911 138.027 14.0561C138.17 13.6211 138.241 13.092 138.241 12.4687L139.507 12.9459C139.507 13.9003 139.328 14.7443 138.971 15.4779C138.614 16.2051 138.101 16.7732 137.433 17.1822C136.764 17.5912 135.956 17.7957 135.008 17.7957ZM138.484 17.5133V14.4748H138.241V6.99557H140.296V17.5133H138.484ZM149.046 17.5133C148.383 17.6432 147.734 17.6983 147.098 17.6789C146.462 17.6594 145.894 17.536 145.394 17.3088C144.894 17.0816 144.517 16.7245 144.264 16.2375C144.037 15.8026 143.913 15.3611 143.894 14.9131C143.881 14.4586 143.874 13.9457 143.874 13.3744V4.07398H145.92V13.277C145.92 13.699 145.923 14.0658 145.929 14.3775C145.942 14.6891 146.01 14.952 146.134 15.1663C146.368 15.5688 146.738 15.7993 147.244 15.8577C147.757 15.9097 148.357 15.887 149.046 15.7896V17.5133ZM141.859 8.63166V6.99557H149.046V8.63166H141.859Z" fill="#00022B"></path><path fill-rule="evenodd" clip-rule="evenodd" d="M21.6253 0C19.4677 0 17.7186 1.7491 17.7186 3.90672V16.3139H17.716V22.8136H19.0296C22.6186 22.8136 25.5282 19.9048 25.5294 16.3161H25.5321V3.90671C25.5321 1.7491 23.783 0 21.6253 0ZM13.2228 5.57528C11.0652 5.57528 9.31607 7.32438 9.31607 9.482V22.8138H10.6352C14.2249 22.8138 17.1349 19.9038 17.1349 16.3141L17.1295 9.482C17.1295 7.32438 15.3804 5.57528 13.2228 5.57528ZM0.921883 15.0594C0.921883 12.9018 2.67098 11.1527 4.8286 11.1527C6.98622 11.1527 8.73531 12.9018 8.73531 15.0594L8.73532 16.3141C8.73533 19.9038 5.82529 22.8139 2.23557 22.8139H0.9219L0.921883 15.0594Z" fill="#00022B"></path></svg> 