<svg width="1737" height="608" viewBox="0 0 1737 608" fill="none" xmlns="http://www.w3.org/2000/svg">
<path fill-rule="evenodd" clip-rule="evenodd" d="M107.169 428.428C170.355 428.428 207.574 398.205 207.574 356.024C207.574 265.285 79.4706 290.482 79.4706 266.186C79.4706 257.486 90.4457 251.074 106.926 251.074C133.482 251.074 158.652 262.547 171.947 275.336L198.953 225.391C172.073 205.925 139.65 195.633 106.476 196.034C45.5752 196.034 11.7142 229.966 11.7142 268.82C11.7142 358.623 140.337 330.237 140.337 357.723C140.337 367.357 131.647 373.284 110.596 373.284C84.4909 373.284 49.2451 358.175 32.7647 343.512L3.47412 393.942C26.4289 415.153 67.1796 428.428 107.169 428.428Z" fill="#102342"/>
<path fill-rule="evenodd" clip-rule="evenodd" d="M255.249 181.858C265.993 181.858 276.296 177.586 283.893 169.981C291.49 162.376 295.758 152.061 295.758 141.306C295.758 130.551 291.49 120.237 283.893 112.632C276.296 105.027 265.993 100.754 255.249 100.754C244.506 100.754 234.202 105.027 226.605 112.632C219.009 120.237 214.741 130.551 214.741 141.306C214.741 152.061 219.009 162.376 226.605 169.981C234.202 177.586 244.506 181.858 255.249 181.858ZM290.668 422.953V201.58H220.003V422.953H290.668Z" fill="#102342"/>
<path fill-rule="evenodd" clip-rule="evenodd" d="M667.189 422.953V262.547C667.189 217.177 641.533 196.069 600.783 196.069C565.987 196.069 537.146 216.241 524.334 235.477C515.194 209.378 493.659 196.069 461.635 196.069C426.84 196.069 398.447 215.791 388.928 228.615V201.58H318.366V422.953H388.859V279.946C396.196 270.796 409.456 258.422 428.709 258.422C449.758 258.422 457.55 271.246 457.55 288.195V422.953H528.041V279.946C534.965 270.796 548.642 258.422 567.856 258.422C588.905 258.422 597.18 271.246 597.18 288.195V422.953H667.189Z" fill="#102342"/>
<path fill-rule="evenodd" clip-rule="evenodd" d="M831.436 428.428C886.832 428.428 928.378 387.185 928.378 312.041C928.378 236.898 886.832 196.069 831.436 196.069C818.87 195.929 806.437 198.667 795.091 204.073C783.745 209.48 773.781 217.411 765.965 227.263V201.58H695.474V507.246H765.965V396.819C784.28 418.829 806.715 428.428 831.436 428.428ZM808.101 366.04C792.972 366.04 774.657 357.341 765.965 345.869V278.56C774.657 266.671 792.972 258.422 808.101 258.422C835.556 258.422 856.574 279.045 856.574 312.041C856.574 345.037 835.556 366.11 808.101 366.11V366.04Z" fill="#102342"/>
<path d="M1012.17 117.253H941.676V422.918H1012.17V117.253Z" fill="#102342"/>
<path fill-rule="evenodd" clip-rule="evenodd" d="M1146.23 428.428C1180.09 428.428 1216.72 418.829 1238.7 399.109L1208.16 352.8C1195.35 364.724 1169.7 371.62 1154.12 371.62C1122.09 371.62 1103.78 355.124 1098.72 335.402H1256.18V319.354C1256.18 244.212 1208.58 196.069 1143.11 196.069C1073.86 196.069 1025.91 247.851 1025.91 312.041C1025.91 383.995 1078.12 428.428 1146.33 428.428H1146.23ZM1188.77 287.294H1097.68C1100.42 271.246 1112.33 252.911 1143.01 252.911C1175.51 252.842 1186.98 271.697 1188.77 287.294Z" fill="#102342"/>
<path fill-rule="evenodd" clip-rule="evenodd" d="M1337.93 422.953V281.783C1347.1 269.409 1371.38 261.611 1389.69 261.611C1395.52 261.36 1401.35 261.98 1407 263.447V195.618C1380.89 195.618 1352.54 210.73 1337.76 228.614V201.579H1267.44V422.953H1337.93Z" fill="#102342"/>
<path fill-rule="evenodd" clip-rule="evenodd" d="M1521.43 428.428C1597.43 428.428 1642.3 374.361 1642.3 312.041C1642.3 249.723 1597.29 196.069 1521.43 196.069C1446.37 196.069 1401.5 249.688 1401.5 312.041C1401.5 374.392 1446.5 428.428 1521.43 428.428ZM1521.43 366.04C1491.2 366.04 1473.82 341.779 1473.82 311.972C1473.82 282.164 1491.13 258.353 1521.43 258.353C1552.59 258.353 1569.9 282.615 1569.9 311.972C1569.9 341.329 1552.55 366.11 1521.43 366.11V366.04Z" fill="#102342"/>
<path fill-rule="evenodd" clip-rule="evenodd" d="M1691.18 427.98C1699.62 427.883 1707.85 425.294 1714.82 420.535C1721.8 415.775 1727.21 409.055 1730.39 401.228C1733.56 393.397 1734.35 384.801 1732.66 376.522C1730.97 368.243 1726.87 360.648 1720.88 354.693C1714.9 348.738 1707.29 344.686 1699 343.047C1690.72 341.408 1682.15 342.255 1674.34 345.483C1666.54 348.711 1659.87 354.172 1655.16 361.183C1650.45 368.198 1647.91 376.446 1647.87 384.895C1648.02 396.326 1652.63 407.242 1660.74 415.299C1668.83 423.352 1679.77 427.907 1691.18 427.98Z" fill="#F55953"/>
</svg>
