<svg width="127" height="41" viewBox="0 0 127 41" fill="none" xmlns="http://www.w3.org/2000/svg">
<g clip-path="url(#clip0_749_1729)">
<path d="M36.09 10.73L22.69 10.77L29.39 0L7.26 0.07L0 11.7L17.92 40.17L25.95 27.58L23.25 23.4H28.54L36.09 10.74V10.73ZM25.97 2L20.51 10.74H15.03L9.62 1.98L25.96 2H25.97ZM23.66 27.58L17.92 36.61L2.22 11.85L7.7 2.81L23.65 27.57L23.66 27.58ZM21.99 21.4L16.44 12.74H32.65L27.62 21.4H21.99Z" fill="#231F20"/>
<path d="M43 23.5V6H54.25V8.5H45.63V13.5H53.75V16H45.63V23.5H43.01H43Z" fill="#231F20"/>
<path d="M58.2002 23.5V6H60.8202V23.5H58.2002Z" fill="#231F20"/>
<path d="M65.52 23.5V6H69.4L76.52 19.62H77.02V6H79.64V23.5H75.76L68.64 9.88H68.14V23.5H65.52Z" fill="#231F20"/>
<path d="M84.3501 23.5V6H88.8501L93.4701 19.75H93.9701L98.5901 6H103.09V23.5H100.47V10.12H99.9701L95.4701 23.5H91.9701L87.4701 10.12H86.9701V23.5H84.3501Z" fill="#231F20"/>
<path d="M107.8 23.5V6H119.3V8.5H110.42V13.5H118.8V16H110.42V21H119.3V23.5H107.8Z" fill="#231F20"/>
<path d="M123.49 23.5V6H126.11V23.5H123.49Z" fill="#231F20"/>
</g>
<defs>
<clipPath id="clip0_749_1729">
<rect width="127" height="41" fill="white"/>
</clipPath>
</defs>
</svg>
