<svg width="148" height="33" viewBox="0 0 148 33" fill="none" xmlns="http://www.w3.org/2000/svg">
<g clip-path="url(#clip0_3568_7999)">
<path d="M39.763 22.6152C36.2828 22.6152 34.6671 19.3189 34.6671 14.4374C34.6671 10.6378 35.8105 6.88857 39.241 6.88857C41.7268 6.88857 43.1437 8.80093 43.8895 11.4682H46.6239L46.3753 6.88857C44.7844 5.52978 42.224 4.7749 39.3653 4.7749C33.4739 4.7749 28.7756 8.80093 28.7756 15.2174C28.7756 20.8539 32.4298 24.905 39.3901 24.905C42.4228 24.905 45.1075 24.2005 46.8228 22.9927L47.2702 17.5575H44.5607C43.5415 20.9545 42.0997 22.6152 39.763 22.6152Z" fill="#001B28"/>
<path d="M55.8576 23.0682C54.2666 23.0682 53.5458 20.4764 53.5458 16.9033C53.5458 14.1354 53.9186 12.3237 55.3356 12.3237C56.9265 12.3237 57.6474 14.9155 57.6474 18.4886C57.6474 21.2565 57.2745 23.0682 55.8576 23.0682ZM55.3356 24.905C59.8846 24.905 63.1411 22.0365 63.1411 17.4569C63.1411 13.5315 60.2824 10.4868 55.8576 10.4868C51.3085 10.4868 48.0521 13.3554 48.0521 17.935C48.0521 21.8604 50.9108 24.905 55.3356 24.905Z" fill="#001B28"/>
<path d="M73.1871 21.4326C73.1871 22.5901 72.864 22.7159 71.7205 22.8669V24.6534H79.7746V22.8669C78.6311 22.7159 78.3079 22.5901 78.3079 21.4326V14.6135C78.3079 11.8456 76.6424 10.4868 74.1317 10.4868C71.8945 10.4868 70.3781 11.745 69.2844 12.9528L69.4087 10.3359H68.4143L62.8212 11.745V12.7011L64.1636 14.2864V21.4326C64.1636 22.5901 63.8404 22.7159 62.6969 22.8669V24.6534H70.751V22.8669C69.6075 22.7159 69.2844 22.5901 69.2844 21.4326V14.0851C69.9058 13.909 70.7261 13.758 71.6459 13.758C72.7894 13.758 73.1871 14.3116 73.1871 15.2426V21.4326Z" fill="#001B28"/>
<path d="M94.3105 10.7385H88.6676V12.525C89.9851 12.7011 90.358 12.827 90.358 13.4309C90.358 13.6322 90.3083 13.8335 90.1343 14.2361L88.071 18.6899L86.0326 14.2361C85.8586 13.8586 85.7841 13.6322 85.7841 13.4309C85.7841 12.827 86.1321 12.7011 87.4496 12.525V10.7385H78.5752V12.525C79.4203 12.8018 79.6938 12.9779 79.9921 13.5315L85.9581 24.7289H87.549L92.8935 13.5315C93.1421 12.9779 93.4901 12.8018 94.3105 12.525V10.7385Z" fill="#001B28"/>
<path d="M100.287 10.4868C96.3096 10.4868 92.9786 13.5315 92.9786 18.1614C92.9786 22.6404 95.9864 24.905 99.8892 24.905C103.543 24.905 105.408 22.5398 106.203 20.0235L105.085 19.3693C104.215 20.4513 103.17 21.0552 101.53 21.0552C99.3175 21.0552 97.6768 19.5202 97.6768 17.1046H106.129V16.0981C106.129 12.9779 104.115 10.4868 100.287 10.4868ZM99.8395 12.2985C101.082 12.2985 101.58 13.5315 101.629 15.5445H97.7265C97.9005 13.7077 98.4474 12.2985 99.8395 12.2985Z" fill="#001B28"/>
<path d="M112.64 24.7037L112.317 25.358C111.571 27.1194 110.726 27.2703 108.961 27.2703H107.047V29.8369C107.42 30.4408 108.339 30.8434 109.582 30.8434C111.372 30.8434 112.615 29.7866 113.734 27.3458L120.073 13.5315C120.346 12.9528 120.644 12.8018 121.489 12.525V10.7385H115.847V12.525C117.164 12.7011 117.537 12.827 117.537 13.4309C117.537 13.6322 117.462 13.8335 117.214 14.4122L115.2 18.9918L113.237 14.4122C112.988 13.8335 112.938 13.6322 112.938 13.4309C112.938 12.827 113.311 12.7011 114.629 12.525V10.7385H105.754V12.525C106.599 12.8018 106.898 12.9779 107.171 13.5315L112.64 24.7037Z" fill="#001B28"/>
<path d="M128.588 23.0682C126.998 23.0682 126.277 20.4764 126.277 16.9033C126.277 14.1354 126.65 12.3237 128.066 12.3237C129.657 12.3237 130.378 14.9155 130.378 18.4886C130.378 21.2565 130.005 23.0682 128.588 23.0682ZM128.066 24.905C132.616 24.905 135.872 22.0365 135.872 17.4569C135.872 13.5315 133.013 10.4868 128.588 10.4868C124.039 10.4868 120.783 13.3554 120.783 17.935C120.783 21.8604 123.642 24.905 128.066 24.905Z" fill="#001B28"/>
<path d="M142.14 10.3359H141.12L135.552 11.745V12.7011L136.894 14.2864V21.4326C136.894 22.5901 136.571 22.7159 135.428 22.8669V24.6534H143.954V22.8669C142.562 22.6656 142.015 22.5901 142.015 21.4829V15.8213C143.084 15.1671 145.197 15.0916 146.788 15.0916H147.434V10.7888C147.111 10.6126 146.713 10.4868 146.142 10.4868C144.103 10.4868 143.084 11.3172 142.015 14.8148L142.14 10.3359Z" fill="#001B28"/>
<path d="M15.994 27.4966C15.0422 27.7182 14.0501 27.8353 13.0305 27.8353C12.8351 27.8353 12.6408 27.831 12.4475 27.8225V25.5247C12.4475 24.4625 11.4021 23.7114 10.3868 24.0392C8.81297 24.5473 7.23575 25.0459 5.65985 25.5482C4.54434 24.7795 3.55595 23.841 2.73239 22.7703L9.19275 20.6732C10.7879 20.1601 12.4916 20.4319 13.8479 21.4131C15.2043 22.3944 15.9905 23.9237 15.9933 25.5928L15.994 27.4966Z" fill="#33C69F"/>
<path d="M17.4704 27.0587L17.4737 20.3347C17.4709 18.6657 18.2465 17.1359 19.6184 16.1505C20.9583 15.1702 22.6582 14.9025 24.2692 15.4181L25.9506 15.9617C25.8552 17.1723 25.5918 18.3359 25.1836 19.4294C24.4711 19.1986 23.7591 18.9654 23.0462 18.7355C22.0451 18.4127 21.028 19.1589 21.028 20.206V25.0879C19.9637 25.9195 18.7653 26.5889 17.4704 27.0587Z" fill="#33C69F"/>
<path d="M25.9799 14.4056L19.707 12.372C18.096 11.8564 16.8829 10.6398 16.3669 9.05151C15.8509 7.46326 16.1232 5.76721 17.1083 4.41722L18.0949 3.06517C19.2041 3.53419 20.2342 4.15261 21.1596 4.89505C20.7433 5.46274 20.3203 6.02594 19.8941 6.58685C19.2416 7.44565 19.6331 8.68887 20.6637 9.01668L25.1857 10.4551C25.6473 11.6933 25.9232 13.0213 25.9799 14.4056Z" fill="#33C69F"/>
<path d="M12.616 2.04993C12.7536 2.04562 12.8918 2.04346 13.0305 2.04346C14.2787 2.04346 15.4857 2.21904 16.6279 2.54673L12.7835 7.81539C11.7984 9.16538 10.2626 9.9474 8.58606 9.94953C6.90957 9.95167 5.37266 9.17891 4.38237 7.81265L3.33485 6.38161C4.12506 5.49586 5.036 4.71915 6.04198 4.07702L7.31547 5.86911C7.93704 6.7438 9.23999 6.74727 9.86626 5.87589L12.616 2.04993Z" fill="#33C69F"/>
<path d="M0.617803 11.2184C1.01369 9.90904 1.61311 8.6874 2.37948 7.58985L6.30383 12.9606C7.29412 14.3268 7.56372 16.0194 7.0414 17.5911C6.52418 19.1948 5.30267 20.4019 3.70756 20.915L1.87395 21.5062C1.27412 20.4994 0.808021 19.4045 0.5 18.2456L2.68145 17.5108C3.69395 17.1697 4.07335 15.9408 3.43837 15.0851C2.48766 13.8041 1.5523 12.5114 0.617803 11.2184Z" fill="#33C69F"/>
</g>
<defs>
<clipPath id="clip0_3568_7999">
<rect width="147" height="32" fill="white" transform="translate(0.5 0.443359)"/>
</clipPath>
</defs>
</svg>
