<svg width="1131" height="174" viewBox="0 0 1131 174" fill="none" xmlns="http://www.w3.org/2000/svg">
<path fill-rule="evenodd" clip-rule="evenodd" d="M105.768 68.1648H34.8776V0H0V165.237H34.8776V97.0087H105.768V165.237H140.646V0H105.768V68.1648ZM247.045 55.3517C241.772 50.1594 235.449 46.1566 228.502 43.6122C221.182 40.9718 213.452 39.647 205.671 39.699C194.62 39.4671 183.716 42.2606 174.136 47.7778C165.133 53.113 157.862 60.9374 153.197 70.3101C148.069 80.7236 145.517 92.2177 145.755 103.824C145.475 115.577 148.028 127.224 153.197 137.781C157.898 147.097 165.279 154.79 174.388 159.871C184.444 165.317 195.755 168.017 207.185 167.697C216.424 167.873 225.61 166.266 234.242 162.964C241.504 160.1 247.988 155.559 253.162 149.71C258.141 144.045 261.536 137.165 263.001 129.765L231.466 127.682C230.356 130.667 228.589 133.364 226.295 135.572C223.966 137.762 221.19 139.42 218.159 140.432C214.777 141.52 211.241 142.053 207.689 142.009C202.477 142.147 197.321 140.906 192.742 138.412C188.521 135.999 185.1 132.4 182.903 128.061C180.505 123.108 179.316 117.657 179.434 112.156H263.884V102.688C264.05 93.2853 262.555 83.9268 259.469 75.0438C256.819 67.6485 252.577 60.9261 247.045 55.3517ZM179.623 90.7595C179.728 86.4952 180.853 82.3182 182.903 78.5782C185.085 74.5747 188.311 71.2376 192.237 68.9215C196.463 66.5237 201.255 65.3032 206.112 65.3871C210.721 65.2798 215.273 66.4133 219.294 68.6691C223.071 70.7639 226.193 73.8665 228.313 77.6315C230.503 81.6548 231.612 86.1786 231.53 90.7595H179.623ZM347.198 42.0986C353.225 43.6021 358.944 46.1436 364.101 49.6093C368.971 52.9842 372.952 57.4884 375.705 62.7374C378.71 68.5854 380.185 75.0994 379.994 81.6721V165.805H347.45V148.638H346.441C344.462 152.518 341.765 155.988 338.494 158.862C334.946 161.877 330.858 164.19 326.448 165.679C321.223 167.41 315.742 168.243 310.239 168.14C302.988 168.258 295.792 166.86 289.111 164.038C283.11 161.344 278.025 156.957 274.478 151.415C270.745 145.264 268.882 138.158 269.118 130.965C268.92 124.955 270.22 118.99 272.902 113.609C275.191 108.852 278.667 104.765 282.993 101.743C287.583 98.8521 292.609 96.7209 297.877 95.4313C303.635 93.9553 309.496 92.9214 315.411 92.3386C322.601 91.5812 328.403 90.8869 332.818 90.1927C336.193 89.8801 339.462 88.847 342.405 87.1631C343.383 86.525 344.177 85.6415 344.709 84.6006C345.24 83.5596 345.489 82.3976 345.432 81.2302V80.7253C345.557 78.5104 345.185 76.2956 344.345 74.2428C343.505 72.1899 342.217 70.3507 340.576 68.8596C336.719 65.8539 331.893 64.3714 327.016 64.694C321.789 64.4091 316.611 65.8263 312.257 68.7334C308.749 71.2183 306.191 74.8244 305.004 78.9581L273.469 76.3704C274.946 69.1496 278.222 62.4193 282.993 56.8045C287.99 51.1611 294.291 46.8273 301.346 44.1814C309.69 41.0561 318.549 39.5357 327.457 39.7002C334.111 39.685 340.741 40.4906 347.198 42.0986ZM342.594 132.543C344.778 129.067 345.916 125.036 345.873 120.93L345.937 108.054C344.577 108.877 343.113 109.513 341.585 109.948C339.63 110.516 337.611 110.958 335.278 111.463C333.123 111.929 330.969 112.287 328.864 112.638L328.34 112.725L322.033 113.609C318.436 113.999 314.899 114.826 311.5 116.07C308.754 117.184 306.327 118.962 304.437 121.246C302.745 123.615 301.881 126.477 301.977 129.387C301.859 131.452 302.265 133.514 303.159 135.379C304.052 137.244 305.403 138.853 307.086 140.054C310.91 142.648 315.461 143.952 320.078 143.778C324.731 143.837 329.334 142.799 333.512 140.748C337.201 138.85 340.331 136.022 342.594 132.543ZM454.669 39.5092C448.067 39.4223 441.619 41.5066 436.316 45.4421C430.639 49.8867 426.619 56.1102 424.9 63.1145H423.639V41.2765H390.338V165.236H424.711V95.1141C424.64 90.5304 425.817 86.0139 428.117 82.0491C430.363 78.2411 433.586 75.1032 437.451 72.9605C441.578 70.6566 446.222 69.4403 450.948 69.426C453.566 69.4121 456.18 69.602 458.768 69.9941C461.033 70.1974 463.272 70.6201 465.454 71.2564V40.7715C463.796 40.3527 462.11 40.0574 460.408 39.8879C458.505 39.637 456.588 39.5105 454.669 39.5092ZM533.318 139.295C534.925 139.273 536.527 139.125 538.111 138.853L541.832 138.159L547.256 163.721L540.003 165.614C536.274 166.441 532.47 166.885 528.651 166.94C521.247 167.41 513.828 166.291 506.892 163.658C500.947 161.357 495.889 157.224 492.449 151.855C488.787 145.8 487.008 138.791 487.34 131.721V67.1538H470.437V41.2764H487.34V11.6121H521.713V41.2764H544.797V67.1538H521.524V127.177C521.373 129.722 521.872 132.263 522.974 134.561C523.842 136.223 525.273 137.52 527.011 138.222C529.024 138.986 531.166 139.35 533.318 139.295ZM650.944 46.7687C643.386 42.0405 634.629 39.5867 625.716 39.6997C619.735 39.4721 613.788 40.6842 608.372 43.2342C604.035 45.3048 600.187 48.2736 597.083 51.9441C594.55 55.0443 592.43 58.46 590.776 62.1058H589.703V0H555.33V165.237H589.199V145.166H590.713C592.49 148.878 594.783 152.321 597.524 155.391C600.676 159.037 604.539 162.001 608.877 164.101C614.241 166.44 620.057 167.561 625.905 167.383C634.849 167.464 643.62 164.918 651.133 160.061C659.116 154.785 665.402 147.31 669.234 138.539C673.85 127.48 676.002 115.548 675.541 103.573C675.932 91.3895 673.605 79.2723 668.73 68.1017C664.935 59.4517 658.768 52.055 650.944 46.7687ZM638.33 122.507C636.585 127.439 633.533 131.802 629.5 135.131C625.461 138.3 620.44 139.953 615.31 139.801C610.22 139.943 605.236 138.339 601.182 135.257C597.142 131.935 594.089 127.569 592.352 122.634C590.17 116.456 589.123 109.934 589.262 103.383C589.111 96.8318 590.159 90.3078 592.352 84.1331C594.015 79.1601 597.082 74.7756 601.182 71.51C605.326 68.5582 610.286 66.9719 615.373 66.9719C620.459 66.9719 625.419 68.5582 629.563 71.51C633.618 74.8186 636.674 79.1885 638.393 84.1331C640.462 90.2272 641.464 96.6326 641.357 103.068C641.404 109.654 640.272 116.195 638.015 122.381L638.33 122.507ZM980.041 139.295C981.648 139.273 983.251 139.125 984.834 138.853L988.556 138.159L993.98 163.721L986.727 165.614C982.977 166.445 979.151 166.889 975.311 166.94C967.928 167.405 960.531 166.286 953.615 163.658C947.662 161.373 942.599 157.235 939.172 151.855C935.51 145.8 933.732 138.791 934.063 131.721V67.1538H917.161V41.2764H934.063V11.6121H968.247V41.2764H991.52V67.1538H968.247V127.177C968.111 129.714 968.587 132.247 969.635 134.561C970.544 136.214 971.99 137.505 973.734 138.222C975.747 138.986 977.889 139.35 980.041 139.295ZM763.84 132.922C761.826 135.393 759.283 137.378 756.397 138.729C753.165 140.228 749.717 141.208 746.18 141.632C741.02 142.385 735.753 141.753 730.917 139.802C726.469 137.938 722.672 134.797 720.006 130.776C717.047 126.153 715.211 120.9 714.645 115.439L798.402 105.151L797.203 95.8103C796.271 86.4508 793.642 77.3397 789.446 68.9231C785.946 61.9255 780.951 55.7843 774.814 50.9351C768.943 46.4088 762.167 43.2013 754.947 41.5309C747.302 39.7394 739.399 39.3332 731.611 40.3317C720.539 41.4026 709.977 45.5084 701.085 52.1974C692.825 58.5949 686.566 67.2235 683.047 77.065C679.255 88.0454 678.131 99.7719 679.768 111.274C680.889 122.991 684.851 134.256 691.309 144.094C697.115 152.727 705.344 159.447 714.961 163.407C725.627 167.565 737.196 168.849 748.514 167.131C757.709 166.195 766.639 163.495 774.814 159.178C781.762 155.482 787.729 150.181 792.221 143.715C796.503 137.49 799.05 130.235 799.6 122.698L768.065 124.465C767.35 127.581 765.901 130.48 763.84 132.922ZM714.014 81.6093C715.747 77.4027 718.553 73.7247 722.15 70.9428C726.03 68.0228 730.63 66.2122 735.458 65.7042C740.023 65.0335 744.684 65.6001 748.955 67.3452C752.916 68.9859 756.344 71.6954 758.857 75.1715C761.55 78.8826 763.224 83.2347 763.713 87.7946L712.122 94.1062C711.792 89.8506 712.439 85.5758 714.014 81.6093ZM882.284 42.0975C888.297 43.5857 893.998 46.1286 899.124 49.6083C904.006 52.9614 908.008 57.443 910.792 62.6732C913.778 68.5277 915.252 75.0371 915.08 81.6079V165.552H882.473V148.384H881.527C879.504 152.254 876.789 155.719 873.517 158.609C869.992 161.623 865.925 163.937 861.534 165.425C856.308 167.152 850.828 167.984 845.325 167.887C838.066 168.02 830.863 166.6 824.197 163.721C818.234 161.119 813.152 156.844 809.565 151.414C805.803 145.275 803.938 138.16 804.204 130.964C804.006 124.954 805.307 118.989 807.988 113.608C810.268 108.828 813.744 104.718 818.079 101.679C822.65 98.7941 827.654 96.6631 832.9 95.3671C838.654 93.8875 844.517 92.8744 850.434 92.3375C857.687 91.5802 863.489 90.8859 867.904 90.1916C871.27 89.8356 874.531 88.8053 877.491 87.1621C878.458 86.5019 879.239 85.6033 879.758 84.553C880.278 83.5027 880.518 82.3362 880.455 81.1661V80.7243C880.592 78.5138 880.233 76.3007 879.403 74.2474C878.574 72.1941 877.295 70.3528 875.662 68.8585C871.808 65.8409 866.986 64.3369 862.102 64.6298C856.868 64.3635 851.69 65.803 847.343 68.7323C843.836 71.2173 841.277 74.8233 840.09 78.957L808.555 76.3693C810.019 69.1441 813.296 62.4107 818.079 56.8035C823.059 51.1405 829.365 46.803 836.432 44.1803C844.748 41.03 853.591 39.5087 862.48 39.6991C869.155 39.6839 875.806 40.4894 882.284 42.0975ZM877.68 132.605C879.869 129.108 881.008 125.055 880.96 120.929L881.023 107.801C879.646 108.633 878.16 109.27 876.608 109.694C874.536 110.319 872.43 110.825 870.301 111.209C869.655 111.335 869.004 111.486 868.35 111.638C866.703 112.02 865.033 112.408 863.363 112.408L857.056 113.355C853.434 113.824 849.891 114.78 846.523 116.195C843.774 117.271 841.359 119.057 839.523 121.371C837.764 123.71 836.872 126.588 837 129.513C836.916 131.573 837.338 133.622 838.229 135.482C839.119 137.341 840.451 138.954 842.109 140.179C845.96 142.76 850.534 144.042 855.164 143.84C859.801 143.936 864.391 142.896 868.535 140.81C872.255 138.934 875.411 136.102 877.68 132.605ZM1130.32 101.503C1129.23 83.6506 1121.13 66.9555 1107.77 55.0689C1094.42 43.1823 1076.9 37.0714 1059.05 38.0723C1045.72 38.8445 1032.91 43.5526 1022.25 51.6025C1011.58 59.6523 1003.54 70.6831 999.133 83.3028C994.727 95.9225 994.156 109.565 997.49 122.51C1000.83 135.454 1007.92 147.12 1017.87 156.035C1030.2 167.121 1046.2 173.238 1062.78 173.203H1066.69C1084.57 172.177 1101.32 164.09 1113.25 150.718C1125.18 137.346 1131.32 119.782 1130.32 101.882V101.503ZM1107.56 145.369C1099.64 154.153 1089.31 160.399 1077.86 163.321C1066.41 166.244 1054.35 165.711 1043.2 161.792C1032.05 157.872 1022.3 150.74 1015.19 141.293C1008.08 131.846 1003.92 120.506 1003.24 108.699C1002.39 92.8468 1007.86 77.306 1018.44 65.4773C1029.02 53.6486 1043.85 46.4954 1059.69 45.5831H1063.09C1074.61 45.6456 1085.87 49.0315 1095.52 55.3348C1105.17 61.6382 1112.8 70.5917 1117.49 81.1226C1122.18 91.6534 1123.74 103.315 1121.98 114.71C1120.22 126.105 1115.21 136.749 1107.56 145.369ZM1079.11 123.168C1070.86 128.08 1058.91 134.718 1058.91 134.718C1058.91 134.718 1049.23 125.04 1042.69 118.004C1033.62 108.393 1032.74 100.547 1033.53 94.8917C1034.33 89.2364 1039.04 79.2931 1051.38 81.0321C1057.4 81.8818 1062.78 84.205 1065.03 91.5198C1069.12 85.1077 1074.93 84.3377 1080.95 85.1874C1093.29 86.9265 1095.19 97.7194 1094.34 103.401C1093.49 109.083 1090.48 116.385 1079.11 123.168Z" fill="url(#paint0_linear_9_3)"/>
<defs>
<linearGradient id="paint0_linear_9_3" x1="7.33437e-08" y1="86.6015" x2="1149" y2="138" gradientUnits="userSpaceOnUse">
<stop offset="0.0617268" stop-color="#F82086"/>
<stop offset="1" stop-color="#FEB356"/>
</linearGradient>
</defs>
</svg>
