<svg width="165" height="33" viewBox="0 0 165 33" fill="none" xmlns="http://www.w3.org/2000/svg">
<g clip-path="url(#clip0_898_9247)">
<path d="M32.8661 23.7862L34.5853 21.109C36.044 22.2659 38.1949 22.9333 40.3532 22.9333C42.5115 22.9333 43.6279 22.2733 43.6279 21.0793C43.6279 19.8854 42.5636 19.3588 40.0481 19.0918C35.7835 18.6988 33.3498 16.9041 33.3498 14.0638C33.3498 11.2235 36.2152 9.06543 40.4574 9.06543C42.9432 9.06543 45.1313 9.69579 46.9547 10.9491L45.3322 13.604C43.9331 12.6918 42.2957 12.2098 40.6212 12.2172C38.2693 12.2172 37.0041 12.8772 37.0041 14.0712C37.0041 15.1317 37.9642 15.6953 40.3532 15.9549C45.1983 16.4888 47.3119 18.0388 47.3119 21.1164C47.3119 24.194 44.4912 26.2112 40.2416 26.2112C37.5772 26.2409 34.9723 25.3954 32.8438 23.801" fill="black"/>
<path fill-rule="evenodd" clip-rule="evenodd" d="M52.0675 19.0253H65.1663C65.6947 12.9071 62.5093 9.13232 56.7414 9.13232C51.6656 9.13232 48.2495 12.5733 48.2495 17.631C48.2495 22.6888 51.7326 26.2633 57.1358 26.2633C59.9565 26.2633 62.5763 25.1657 64.1988 23.4229L61.9511 21.2352C60.9613 22.2586 59.1007 22.9261 57.24 22.9261C54.3524 22.9261 52.3652 21.4058 52.0675 19.0178V19.0253ZM61.6237 16.1479H52.1047C52.5662 13.7302 54.2556 12.3434 56.853 12.3434C59.5695 12.3434 61.3632 13.8341 61.6311 16.1479H61.6237Z" fill="black"/>
<path d="M82.9319 16.7707V25.8034H79.2181V17.008C79.2181 14.1306 77.7221 12.4768 75.2363 12.4768C72.5198 12.4768 70.6294 14.4643 70.6294 17.2082V25.8108H66.9082V9.46595H70.2276L70.2573 11.6166C71.6491 9.96282 73.6064 9.13965 75.9285 9.13965C80.1409 9.13965 82.9319 12.1209 82.9319 16.7781" fill="black"/>
<path fill-rule="evenodd" clip-rule="evenodd" d="M101.947 25.8034V2.1167H98.2334V11.2161C96.9384 9.89607 94.914 9.10256 92.5622 9.10256C87.9181 9.10256 84.502 12.4768 84.502 17.6384C84.502 22.7999 87.9181 26.1742 92.5622 26.1742C95.1522 26.1742 97.3402 25.2175 98.598 23.6231L98.6278 25.8108H101.947V25.8034ZM93.2246 12.4768C96.1792 12.4768 98.2334 14.5904 98.2334 17.6384C98.2334 20.6863 96.1718 22.7999 93.2246 22.7999C90.2773 22.7999 88.2158 20.6863 88.2158 17.6384C88.2158 14.5904 90.2699 12.4768 93.2246 12.4768Z" fill="black"/>
<path d="M108.415 2.1167H104.701V25.8034H108.415V2.1167Z" fill="black"/>
<path fill-rule="evenodd" clip-rule="evenodd" d="M124.371 25.8035H127.691V9.46611H124.371L124.342 11.639C123.084 10.052 120.926 9.08789 118.373 9.08789C113.565 9.08789 110.246 12.5957 110.246 17.6237C110.246 22.6517 113.565 26.1595 118.373 26.1595C120.888 26.1595 123.084 25.2028 124.342 23.6084L124.371 25.7961V25.8035ZM118.968 12.477C121.93 12.477 123.977 14.5906 123.977 17.6385C123.977 20.6865 121.923 22.8001 118.968 22.8001C116.014 22.8001 113.959 20.6865 113.959 17.6385C113.959 14.5906 116.006 12.477 118.968 12.477Z" fill="black"/>
<path d="M146.468 16.7707V25.8034H142.755V17.008C142.755 14.1306 141.259 12.4768 138.773 12.4768C136.056 12.4768 134.166 14.4643 134.166 17.2082V25.8108H130.452V9.46595H133.764L133.794 11.6166C135.186 9.96282 137.143 9.13965 139.465 9.13965C143.677 9.13965 146.461 12.1209 146.461 16.7781" fill="black"/>
<path fill-rule="evenodd" clip-rule="evenodd" d="M151.849 19.0253H164.948C165.476 12.9071 162.291 9.13232 156.523 9.13232C151.447 9.13232 148.031 12.5733 148.031 17.631C148.031 22.6888 151.514 26.2633 156.918 26.2633C159.738 26.2633 162.358 25.1657 163.981 23.4229L161.733 21.2352C160.743 22.2586 158.882 22.9261 157.022 22.9261C154.134 22.9261 152.147 21.4058 151.849 19.0178V19.0253ZM161.405 16.1479H151.886C152.348 13.7302 154.037 12.3434 156.635 12.3434C159.366 12.3434 161.145 13.8341 161.413 16.1479H161.405Z" fill="black"/>
<path d="M24.8056 16.5186C24.7535 15.2949 24.1804 14.1529 23.3171 13.2852C23.3171 13.2852 18.2636 8.30906 15.7704 5.8247C15.6513 5.6838 15.5322 5.54289 15.4057 5.41682L11.8482 1.87198C10.0248 0.0550611 7.04033 0.040229 5.19459 1.8349L1.42125 5.51323C0.483494 6.4254 -0.0225956 7.65645 -0.000268087 8.96908C0.0220594 10.2298 0.587689 11.4164 1.48823 12.2989L13.8725 24.6242L9.81638 28.6659C9.35494 29.1332 8.54371 29.1257 8.07483 28.6659L4.36103 24.9728C4.07077 24.6836 3.95169 24.2905 4.02612 23.8752C4.07077 23.6231 4.21218 23.3932 4.39824 23.2078L9.12422 18.506L7.06265 15.6361L1.89757 20.7753C0.959813 21.7098 0.461166 22.9705 0.520706 24.3053C0.572804 25.529 1.14588 26.671 2.0092 27.5387L5.49973 31.0168C6.3705 31.8845 7.51665 32.4481 8.74466 32.5C10.0843 32.5593 11.357 32.0625 12.2947 31.1281L17.5938 25.8553L23.4361 20.0412C24.3739 19.1067 24.8725 17.846 24.813 16.5111L24.8056 16.5186ZM3.52003 8.63536C3.56468 8.38322 3.71353 8.14591 3.8996 7.96792L7.64317 4.31926C8.11949 3.85205 8.90095 3.85205 9.36983 4.32667L13.039 7.97534C13.4334 8.36839 13.5227 8.9765 13.1878 9.52528L8.41719 14.2715L3.85494 9.73293C3.56468 9.4437 3.43816 9.04324 3.52003 8.63536ZM20.9429 17.5865L16.3434 22.1621L10.8955 16.741L15.5099 12.1505C15.8001 11.8613 16.0457 11.535 16.2467 11.1865L20.9057 15.8289C21.0917 16.0143 21.2332 16.2442 21.2778 16.4963C21.3522 16.9042 21.2257 17.3047 20.9429 17.5939V17.5865Z" fill="#FF3C78"/>
</g>
<defs>
<clipPath id="clip0_898_9247">
<rect width="165" height="32" fill="white" transform="translate(0 0.5)"/>
</clipPath>
</defs>
</svg>
