<svg width="350" height="347" viewBox="0 0 350 347" fill="none" xmlns="http://www.w3.org/2000/svg">
<path d="M349.911 319.111L262.758 231.957C262.155 238.9 259.21 245.676 253.899 250.987C248.589 256.297 241.812 259.254 234.87 259.845L322.023 346.999L349.911 319.111Z" fill="#5890FE"/>
<path d="M229.548 198.735L142.394 111.582L114.506 139.47L201.66 226.623C202.263 219.681 205.208 212.904 210.518 207.594C215.828 202.283 222.605 199.326 229.548 198.735Z" fill="#5890FE"/>
<path d="M201.648 231.945L114.495 319.098L142.383 346.986L229.537 259.833C222.594 259.23 215.817 256.285 210.507 250.975C205.196 245.664 202.24 238.887 201.648 231.945Z" fill="#5890FE"/>
<path d="M262.758 226.623L349.911 139.47L322.023 111.582L234.87 198.735C241.812 199.338 248.589 202.283 253.899 207.594C259.21 212.904 262.166 219.681 262.758 226.623Z" fill="#5890FE"/>
<path d="M0.000976562 259.538V3.82594H48.4808V44.447H51.1702C55.8706 30.6902 64.1767 19.8382 76.0884 11.9029C88.0001 3.96765 101.506 0 116.607 0C119.737 0 123.462 0.106275 127.769 0.330635C132.077 0.554996 135.457 0.82659 137.92 1.16904V48.7807C135.909 48.2258 132.327 47.5881 127.186 46.8678C122.045 46.1475 116.893 45.7814 111.752 45.7814C99.8999 45.7814 89.3567 48.2494 80.1224 53.1853C70.9001 58.1212 63.5936 64.9465 58.2268 73.6612C52.8599 82.3758 50.1706 92.2831 50.1706 103.383V259.538H0.000976562Z" fill="#5890FE"/>
</svg>
