<?xml version="1.0" encoding="UTF-8"?><svg id="Layer_2" xmlns="http://www.w3.org/2000/svg" viewBox="0 0 411.82 110.24"><defs><style>.cls-1{fill:#ff521d;}</style></defs><g id="Layer_1-2"><g><g><path class="cls-1" d="M73.72,51.22c0-20.8,14.04-34.32,34.19-34.32s34.71,14.04,34.71,34.45c0,21.97-16.38,33.15-31.98,33.15-9.23,0-16.9-2.9-21.45-10.05v27.79l-15.47,8V51.22Zm53.3-.52c0-11.31-7.67-19.37-18.98-19.37s-18.85,8.06-18.85,19.37,7.54,19.37,18.85,19.37,18.98-8.06,18.98-19.37"/><path class="cls-1" d="M146.96,51.35c0-20.41,14.3-34.45,34.71-34.45s34.19,13.65,34.19,34.32v31.59h-14.17v-12.61c-3.9,9.49-12.61,14.3-22.75,14.3-15.6,0-31.98-11.18-31.98-33.15m53.43-.65c0-11.31-7.54-19.37-18.85-19.37s-18.98,8.06-18.98,19.37,7.67,19.37,18.98,19.37,18.85-8.06,18.85-19.37"/><path class="cls-1" d="M258.33,16.9v14.43h-7.79c-7.5,.02-12.67,3.8-12.67,14.17v37.31h-15.47V45.5c0-18.89,10.89-28.14,26.99-28.58,.38,0,.76-.02,1.15-.02h7.79Z"/><path class="cls-1" d="M261.81,63.83h15.6c.13,4.29,3.9,7.15,11.44,7.15,7.93,0,11.31-3.25,11.31-7.15,0-4.94-5.72-5.59-12.61-6.5-9.88-1.3-24.44-2.99-24.44-18.72,0-13.13,10.01-21.71,25.48-21.71s25.35,8.84,25.74,20.15h-15.34c-.39-3.9-4.03-6.63-10.14-6.63-6.76,0-10.14,3.25-10.14,7.02,0,4.94,5.85,5.72,12.74,6.63,8.58,1.17,24.31,2.86,24.31,18.85,0,13-10.53,21.58-26.91,21.58s-26.65-8.71-27.04-20.67"/><path class="cls-1" d="M319.57,0c0,5.98,4.29,10.27,10.27,10.27s10.27-4.29,10.27-10.27h-20.54Z"/><rect class="cls-1" x="322.04" y="18.59" width="15.47" height="64.22"/><path class="cls-1" d="M342.66,50.7c0-19.5,14.3-33.8,34.58-33.8s34.58,14.3,34.58,33.8-14.3,33.8-34.58,33.8-34.58-14.3-34.58-33.8m53.43,0c0-11.31-7.54-19.37-18.85-19.37s-18.98,8.06-18.98,19.37,7.67,19.37,18.98,19.37,18.85-8.06,18.85-19.37"/></g><g><path class="cls-1" d="M0,37.06c0-7.86,6.16-14.92,15.69-17.98l29.47-10.8c5.27-1.69,11.1,1.25,11.1,5.59v19.76c0,5.77-4.54,10.98-11.54,13.22l-30.69,11.2c-6.31,2.03-11.3,5.83-14.03,10.51v-31.49Z"/><path class="cls-1" d="M37.91,61.22v24.86c0,2.81-2.83,4.74-5.45,3.71l-16.13-6.36c-3.94-1.54-6.28-4.6-6.13-7.98,.14-3.34,2.61-6.12,6.6-7.44l21.1-6.78Z"/></g></g></g></svg>