<svg xmlns="http://www.w3.org/2000/svg" xmlns:xlink="http://www.w3.org/1999/xlink" width="851.5" height="256.799"><defs><path id="a" d="M104.785 2.456 41.753 38.575c-9.637 5.523-12.929 17.839-7.331 27.432l40.264 69.051c.159.272.342.528.548.764l6.097 7a4.996 4.996 0 0 1 .985 4.827l-2.072 6.389a5.03 5.03 0 0 0-.244 1.544v47.876c0 5.326 4.019 9.977 9.334 10.321 5.825.377 10.666-4.236 10.666-9.979l-.004-56.009.004-7.397c0-.887-.236-1.758-.683-2.523L52.79 58.208a3 3 0 0 1 1.096-4.116l57.539-33.022a3 3 0 0 1 4.074 1.07L159.3 96.035c.458.773.699 1.656.698 2.554l-.012 13.44-.062 82.28a3 3 0 0 1-1.487 2.588l-65.89 38.457a5.003 5.003 0 0 1-5.044-.002l-66.017-38.587a3 3 0 0 1-1.486-2.59l-.192-73.542c0-2.323 2.526-3.765 4.526-2.583l26.706 15.273c2.023 1.195 4.571.621 6.005-1.658 1.437-2.281 1.004-5.319-1.261-6.657l-42.347-24.442 18.058-9.831c2.475-1.397 4.5-4.864 4.5-7.705 0-2.31-2.488-3.763-4.5-2.629L2.676 96.423a4.492 4.492 0 0 0-.287.162l-.004.003c-.004.001-.007.004-.01.006-.177.11-.348.229-.51.36a4.44 4.44 0 0 0-1.082 1.201c-.038.058-.077.117-.112.178a4.396 4.396 0 0 0-.153.298 4.952 4.952 0 0 0-.518 2.21v95.055c0 7.12 3.829 13.757 9.967 17.303l70.024 40.929a19.96 19.96 0 0 0 9.996 2.672c3.469 0 6.944-.896 10.051-2.692l69.926-40.78a20.055 20.055 0 0 0 9.994-17.313L180 93.284c0-.887-.236-1.758-.683-2.524L135.77 16.21C129.192 4.93 121.201 0 113.719 0c-3.112 0-6.136.852-8.934 2.456"/></defs><clipPath id="c"><use xlink:href="#a" overflow="visible"/></clipPath><linearGradient id="b" x1="-240.501" x2="-239.501" y1="535.503" y2="535.503" gradientTransform="matrix(179.9995 0 0 -179.9995 43290.129 96518.867)" gradientUnits="userSpaceOnUse"><stop offset="0" stop-color="#0381c4"/><stop offset="1" stop-color="#19418d"/></linearGradient><path fill="url(#b)" d="M0 0h180v256.8H0z" clip-path="url(#c)"/><path fill="#19418D" d="M289.379 178.682v17.187H230v-88.876h20.006v71.69h39.373zm5.128-16.032c0-5.982.918-11.221 2.757-15.71 1.838-4.487 4.253-8.228 7.247-11.222 2.991-2.992 6.433-5.258 10.324-6.797 3.889-1.539 7.887-2.309 11.991-2.309 9.575 0 17.142 2.93 22.701 8.786 5.556 5.857 8.336 14.473 8.336 25.842 0 1.112-.044 2.33-.128 3.655-.087 1.326-.173 2.5-.258 3.526H314.13c.426 3.934 2.264 7.054 5.514 9.363 3.249 2.308 7.61 3.462 13.082 3.462 3.505 0 6.945-.32 10.324-.961 3.376-.643 6.134-1.432 8.272-2.373l2.565 15.518c-1.026.513-2.395 1.026-4.104 1.539-1.711.513-3.613.962-5.707 1.347a91.385 91.385 0 0 1-6.734.961 66.989 66.989 0 0 1-7.181.386c-6.073 0-11.35-.897-15.84-2.693-4.488-1.796-8.207-4.253-11.157-7.374-2.95-3.121-5.13-6.817-6.54-11.094-1.411-4.274-2.117-8.892-2.117-13.852m44.887-7.309a19.772 19.772 0 0 0-.833-4.745 11.899 11.899 0 0 0-2.18-4.104c-.984-1.195-2.225-2.18-3.719-2.949-1.497-.771-3.356-1.154-5.579-1.154-2.138 0-3.976.365-5.515 1.09-1.54.729-2.822 1.689-3.848 2.886-1.026 1.199-1.817 2.587-2.373 4.168a27.262 27.262 0 0 0-1.217 4.81h25.264zm54.25-28.728c5.642 0 10.345.642 14.107 1.924 3.761 1.282 6.775 3.123 9.041 5.515 2.265 2.395 3.869 5.302 4.81 8.72.94 3.421 1.411 7.228 1.411 11.415v39.757c-2.738.6-6.541 1.305-11.414 2.116-4.874.812-10.772 1.218-17.699 1.218-4.36 0-8.316-.384-11.862-1.153-3.55-.77-6.606-2.03-9.17-3.783-2.566-1.752-4.533-4.04-5.9-6.862-1.369-2.821-2.052-6.284-2.052-10.387 0-3.932.79-7.268 2.373-10.004 1.581-2.735 3.697-4.915 6.348-6.541 2.649-1.623 5.685-2.799 9.106-3.527 3.418-.725 6.967-1.089 10.644-1.089 2.479 0 4.682.108 6.606.32 1.923.214 3.481.493 4.68.834v-1.796c0-3.249-.984-5.856-2.949-7.823-1.968-1.966-5.387-2.95-10.26-2.95-3.251 0-6.457.237-9.619.705-3.164.471-5.899 1.135-8.208 1.989L371.2 129.82c1.11-.34 2.501-.705 4.168-1.089a73.786 73.786 0 0 1 5.451-1.026c1.966-.299 4.039-.555 6.22-.77 2.18-.213 4.38-.322 6.605-.322m1.539 55.916c1.88 0 3.675-.042 5.388-.129 1.709-.084 3.076-.212 4.103-.384v-14.493c-.769-.169-1.923-.34-3.463-.512a38.56 38.56 0 0 0-4.232-.257c-1.795 0-3.485.107-5.065.32-1.583.215-2.973.621-4.168 1.219-1.199.599-2.139 1.411-2.822 2.436-.685 1.027-1.026 2.311-1.026 3.849 0 2.994 1.004 5.065 3.014 6.22 2.006 1.154 4.764 1.731 8.271 1.731m101.444 11.158c-1.711.513-3.677 1.006-5.899 1.476-2.224.472-4.553.876-6.988 1.218-2.438.341-4.919.62-7.439.834a86.688 86.688 0 0 1-7.247.321c-5.558 0-10.516-.814-14.877-2.438-4.36-1.623-8.037-3.954-11.029-6.99-2.992-3.033-5.279-6.711-6.86-11.028-1.583-4.316-2.373-9.169-2.373-14.557 0-5.471.684-10.408 2.052-14.812 1.367-4.402 3.335-8.145 5.9-11.222 2.564-3.077 5.707-5.428 9.426-7.053 3.72-1.623 7.971-2.436 12.761-2.436 2.649 0 5.022.256 7.118.768a38.737 38.737 0 0 1 6.348 2.181V99.425l19.109-3.078v97.34zm-43.219-32.062c0 5.898 1.323 10.645 3.975 14.235 2.649 3.592 6.583 5.387 11.798 5.387a54.34 54.34 0 0 0 4.746-.192c1.453-.128 2.65-.276 3.591-.449v-34.755c-1.199-.77-2.757-1.411-4.681-1.924a22.553 22.553 0 0 0-5.836-.77c-9.063 0-13.593 6.155-13.593 18.468m88.874 35.396c-4.873 0-9.728-.149-14.557-.449-4.832-.301-9.854-1.004-15.068-2.115v-86.184c4.103-.77 8.593-1.347 13.466-1.731 4.873-.385 9.403-.577 13.594-.577 5.643 0 10.838.406 15.582 1.218 4.745.813 8.827 2.202 12.248 4.168 3.418 1.967 6.092 4.553 8.016 7.759s2.886 7.162 2.886 11.863c0 7.098-3.421 12.696-10.26 16.8 5.643 2.139 9.489 5.046 11.541 8.722 2.053 3.678 3.078 7.822 3.078 12.44 0 9.32-3.397 16.331-10.194 21.032-6.799 4.704-16.91 7.054-30.332 7.054m-10.132-55.146h9.746c6.157 0 10.559-.789 13.21-2.372 2.649-1.581 3.977-4.125 3.977-7.631 0-3.591-1.369-6.112-4.104-7.567-2.737-1.453-6.755-2.18-12.056-2.18-1.711 0-3.549.022-5.514.064-1.969.044-3.721.151-5.259.32v19.366zm0 15.262v22.956c1.452.172 3.033.3 4.744.385 1.71.086 3.592.128 5.645.128 5.982 0 10.813-.853 14.492-2.564 3.675-1.709 5.514-4.873 5.514-9.491 0-4.104-1.538-7.031-4.617-8.784-3.078-1.752-7.482-2.629-13.209-2.629H532.15zm125.298 4.873c0 5.302-.77 10.154-2.309 14.556-1.539 4.405-3.763 8.166-6.669 11.286-2.907 3.123-6.392 5.537-10.452 7.246-4.061 1.71-8.614 2.565-13.659 2.565-4.96 0-9.47-.855-13.529-2.565-4.062-1.709-7.546-4.123-10.452-7.246-2.908-3.12-5.174-6.881-6.797-11.286-1.625-4.401-2.438-9.254-2.438-14.556 0-5.3.834-10.131 2.501-14.492 1.667-4.36 3.977-8.08 6.926-11.158 2.949-3.078 6.454-5.47 10.517-7.181 4.06-1.71 8.483-2.566 13.272-2.566 4.874 0 9.341.856 13.403 2.566 4.061 1.711 7.544 4.103 10.452 7.181 2.906 3.078 5.172 6.797 6.797 11.158 1.624 4.361 2.437 9.192 2.437 14.492m-19.493 0c0-5.899-1.178-10.536-3.527-13.915-2.353-3.376-5.707-5.065-10.068-5.065-4.359 0-7.737 1.689-10.131 5.065-2.395 3.379-3.591 8.016-3.591 13.915 0 5.9 1.196 10.581 3.591 14.043 2.394 3.463 5.771 5.194 10.131 5.194 4.361 0 7.716-1.731 10.068-5.194 2.349-3.462 3.527-8.143 3.527-14.043m55.46-14.691 13.41-18.911h19.75l-23.413 32.803c5.365 6.165 10.131 12.288 14.298 18.376 4.164 6.088 7.502 11.515 10.012 16.28h-20.493a835.452 835.452 0 0 1-2.581-4.815 117.55 117.55 0 0 0-3.459-6.032c-1.281-2.097-2.618-3.872-4.013-5.327s-2.77-2.777-4.123-3.967a68.401 68.401 0 0 0-3.941 3.668c-1.334 1.341-2.603 3.016-3.805 5.021a877.4 877.4 0 0 0-3.541 5.953 135.639 135.639 0 0 0-3.089 5.499h-19.438c1.073-2.104 2.492-4.621 4.256-7.552a205.174 205.174 0 0 1 5.8-9.064 112.885 112.885 0 0 1 6.825-9.078 235.875 235.875 0 0 1 7.206-8.272l-12.097-17.185-11.478-16.308h20.647l13.267 18.911zm34.827 15.331c0-5.982.918-11.221 2.757-15.71 1.839-4.487 4.253-8.228 7.247-11.222 2.992-2.992 6.433-5.258 10.324-6.797 3.889-1.539 7.887-2.309 11.991-2.309 9.574 0 17.141 2.93 22.699 8.786 5.557 5.857 8.337 14.473 8.337 25.842 0 1.112-.045 2.33-.128 3.655-.087 1.326-.173 2.5-.258 3.526h-43.347c.427 3.934 2.264 7.054 5.514 9.363 3.249 2.308 7.609 3.462 13.081 3.462 3.505 0 6.946-.32 10.324-.961 3.377-.643 6.134-1.432 8.272-2.373l2.565 15.518c-1.026.513-2.396 1.026-4.104 1.539-1.711.513-3.613.962-5.708 1.347-2.095.384-4.34.705-6.732.961a67.007 67.007 0 0 1-7.182.386c-6.071 0-11.35-.897-15.839-2.693s-8.208-4.253-11.158-7.374c-2.949-3.121-5.13-6.817-6.54-11.094-1.409-4.274-2.115-8.892-2.115-13.852m44.887-7.309a19.821 19.821 0 0 0-.833-4.745 11.916 11.916 0 0 0-2.18-4.104c-.984-1.195-2.226-2.18-3.72-2.949-1.497-.771-3.356-1.154-5.579-1.154-2.138 0-3.976.365-5.515 1.09-1.539.729-2.822 1.689-3.848 2.886-1.026 1.199-1.817 2.587-2.372 4.168a27.178 27.178 0 0 0-1.218 4.81h25.265zm70.665-10.003c-1.711-.427-3.72-.876-6.027-1.348-2.308-.469-4.789-.704-7.438-.704-1.198 0-2.629.107-4.297.32-1.666.214-2.93.449-3.783.705v51.557H803.14V132c3.419-1.197 7.459-2.329 12.12-3.398 4.659-1.069 9.854-1.603 15.582-1.603 1.026 0 2.265.063 3.72.191a76.44 76.44 0 0 1 8.72 1.283c1.452.3 2.692.663 3.719 1.09l-3.207 15.775z"/></svg>