<svg width="218" height="38" viewBox="0 0 218 38" fill="none" xmlns="http://www.w3.org/2000/svg">
<path fill-rule="evenodd" clip-rule="evenodd" d="M22.32 5C18.454 5 15.32 8.13401 15.32 12C15.32 13.9741 13.9679 16.6667 11.9937 16.6667H8.81999C4.30966 16.6667 0.65332 20.323 0.65332 24.8333C0.65332 29.3437 4.30966 33 8.81999 33H26.5133C31.0236 33 34.68 29.3437 34.68 24.8333C34.68 22.4567 36.3503 19 38.727 19H40C43.866 19 47 15.866 47 12C47 8.13401 43.866 5 40 5H22.32Z" fill="#0053FF"/>
<path d="M78.904 13.232C78.7547 13.0827 78.4773 12.88 78.072 12.624C77.688 12.368 77.208 12.1227 76.632 11.888C76.0773 11.6533 75.4693 11.4507 74.808 11.28C74.1467 11.088 73.4747 10.992 72.792 10.992C71.5973 10.992 70.6907 11.216 70.072 11.664C69.4747 12.112 69.176 12.7413 69.176 13.552C69.176 14.1707 69.368 14.6613 69.752 15.024C70.136 15.3867 70.712 15.696 71.48 15.952C72.248 16.208 73.208 16.4853 74.36 16.784C75.8533 17.1467 77.144 17.5947 78.232 18.128C79.3413 18.64 80.184 19.3227 80.76 20.176C81.3573 21.008 81.656 22.1173 81.656 23.504C81.656 24.72 81.432 25.7653 80.984 26.64C80.536 27.4933 79.9173 28.1867 79.128 28.72C78.3387 29.2533 77.4427 29.648 76.44 29.904C75.4373 30.1387 74.3707 30.256 73.24 30.256C72.1093 30.256 70.9787 30.1387 69.848 29.904C68.7173 29.6693 67.6293 29.3387 66.584 28.912C65.5387 28.464 64.5787 27.9307 63.704 27.312L65.656 23.504C65.848 23.696 66.1893 23.952 66.68 24.272C67.1707 24.5707 67.768 24.88 68.472 25.2C69.176 25.4987 69.944 25.7547 70.776 25.968C71.608 26.1813 72.4507 26.288 73.304 26.288C74.4987 26.288 75.4053 26.0853 76.024 25.68C76.6427 25.2747 76.952 24.6987 76.952 23.952C76.952 23.2693 76.7067 22.736 76.216 22.352C75.7253 21.968 75.0427 21.6373 74.168 21.36C73.2933 21.0613 72.2587 20.7413 71.064 20.4C69.6347 19.9947 68.44 19.5467 67.48 19.056C66.52 18.544 65.8053 17.904 65.336 17.136C64.8667 16.368 64.632 15.408 64.632 14.256C64.632 12.6987 64.9947 11.3973 65.72 10.352C66.4667 9.28533 67.4693 8.48533 68.728 7.952C69.9867 7.39733 71.384 7.12 72.92 7.12C73.9867 7.12 74.9893 7.23733 75.928 7.472C76.888 7.70667 77.784 8.016 78.616 8.4C79.448 8.784 80.1947 9.2 80.856 9.648L78.904 13.232ZM83.425 25.04C83.425 23.952 83.7237 23.0027 84.321 22.192C84.9397 21.36 85.793 20.72 86.881 20.272C87.969 19.824 89.217 19.6 90.625 19.6C91.329 19.6 92.0437 19.6533 92.769 19.76C93.4943 19.8667 94.1237 20.0373 94.657 20.272V19.376C94.657 18.3093 94.337 17.488 93.697 16.912C93.0783 16.336 92.1503 16.048 90.913 16.048C89.9957 16.048 89.121 16.208 88.289 16.528C87.457 16.848 86.5823 17.3173 85.665 17.936L84.289 15.12C85.3983 14.3947 86.529 13.8507 87.681 13.488C88.8543 13.1253 90.081 12.944 91.361 12.944C93.7503 12.944 95.6063 13.5413 96.929 14.736C98.273 15.9307 98.945 17.6373 98.945 19.856V25.2C98.945 25.648 99.0197 25.968 99.169 26.16C99.3397 26.352 99.6063 26.4693 99.969 26.512V30C99.585 30.064 99.233 30.1173 98.913 30.16C98.6143 30.2027 98.3583 30.224 98.145 30.224C97.2917 30.224 96.641 30.032 96.193 29.648C95.7663 29.264 95.4997 28.7947 95.393 28.24L95.297 27.376C94.5717 28.3147 93.665 29.04 92.577 29.552C91.489 30.064 90.3797 30.32 89.249 30.32C88.1397 30.32 87.137 30.096 86.241 29.648C85.3663 29.1787 84.673 28.5493 84.161 27.76C83.6703 26.9493 83.425 26.0427 83.425 25.04ZM93.857 25.904C94.0917 25.648 94.2837 25.392 94.433 25.136C94.5823 24.88 94.657 24.6453 94.657 24.432V22.736C94.145 22.5227 93.5903 22.3627 92.993 22.256C92.3957 22.128 91.8303 22.064 91.297 22.064C90.1877 22.064 89.2703 22.3093 88.545 22.8C87.841 23.2693 87.489 23.8987 87.489 24.688C87.489 25.1147 87.6063 25.52 87.841 25.904C88.0757 26.288 88.417 26.5973 88.865 26.832C89.313 27.0667 89.8463 27.184 90.465 27.184C91.105 27.184 91.7343 27.0667 92.353 26.832C92.9717 26.576 93.473 26.2667 93.857 25.904ZM102.92 6.64H107.208V24.624C107.208 25.392 107.336 25.9147 107.592 26.192C107.848 26.448 108.2 26.576 108.648 26.576C108.989 26.576 109.341 26.5333 109.704 26.448C110.067 26.3627 110.387 26.256 110.664 26.128L111.24 29.392C110.664 29.6693 109.992 29.8827 109.224 30.032C108.456 30.1813 107.763 30.256 107.144 30.256C105.8 30.256 104.755 29.904 104.008 29.2C103.283 28.4747 102.92 27.4507 102.92 26.128V6.64ZM120.884 30.32C119.54 30.32 118.324 30.096 117.236 29.648C116.148 29.1787 115.22 28.5493 114.452 27.76C113.684 26.9493 113.087 26.032 112.66 25.008C112.255 23.9627 112.052 22.864 112.052 21.712C112.052 20.112 112.404 18.6507 113.108 17.328C113.834 16.0053 114.858 14.9493 116.18 14.16C117.524 13.3493 119.103 12.944 120.916 12.944C122.751 12.944 124.319 13.3493 125.62 14.16C126.922 14.9493 127.914 16.0053 128.596 17.328C129.3 18.6293 129.652 20.0373 129.652 21.552C129.652 21.808 129.642 22.0747 129.62 22.352C129.599 22.608 129.578 22.8213 129.556 22.992H116.596C116.682 23.8453 116.927 24.592 117.332 25.232C117.759 25.872 118.292 26.3627 118.932 26.704C119.594 27.024 120.298 27.184 121.044 27.184C121.898 27.184 122.698 26.9813 123.444 26.576C124.212 26.1493 124.735 25.5947 125.012 24.912L128.692 25.936C128.287 26.7893 127.7 27.5467 126.932 28.208C126.186 28.8693 125.3 29.392 124.276 29.776C123.252 30.1387 122.122 30.32 120.884 30.32ZM116.5 20.272H125.268C125.183 19.4187 124.938 18.6827 124.532 18.064C124.148 17.424 123.636 16.9333 122.996 16.592C122.356 16.2293 121.642 16.048 120.852 16.048C120.084 16.048 119.38 16.2293 118.74 16.592C118.122 16.9333 117.61 17.424 117.204 18.064C116.82 18.6827 116.586 19.4187 116.5 20.272ZM138.441 30.32C137.011 30.32 135.646 30.0853 134.345 29.616C133.043 29.1467 131.923 28.4533 130.985 27.536L132.521 24.752C133.523 25.5627 134.505 26.16 135.465 26.544C136.446 26.928 137.385 27.12 138.281 27.12C139.113 27.12 139.774 26.9707 140.265 26.672C140.777 26.3733 141.033 25.9253 141.033 25.328C141.033 24.9227 140.894 24.6133 140.617 24.4C140.339 24.1653 139.934 23.9627 139.401 23.792C138.889 23.6213 138.259 23.4293 137.513 23.216C136.275 22.8107 135.241 22.416 134.409 22.032C133.577 21.648 132.947 21.168 132.521 20.592C132.115 19.9947 131.913 19.2373 131.913 18.32C131.913 17.2107 132.19 16.2613 132.745 15.472C133.321 14.6613 134.11 14.032 135.113 13.584C136.137 13.136 137.331 12.912 138.697 12.912C139.891 12.912 141.022 13.104 142.089 13.488C143.155 13.8507 144.126 14.448 145.001 15.28L143.273 18C142.419 17.3387 141.609 16.8587 140.841 16.56C140.073 16.24 139.294 16.08 138.505 16.08C138.057 16.08 137.63 16.1333 137.225 16.24C136.841 16.3467 136.521 16.528 136.265 16.784C136.03 17.0187 135.913 17.36 135.913 17.808C135.913 18.2133 136.019 18.5333 136.233 18.768C136.467 18.9813 136.809 19.1733 137.257 19.344C137.726 19.5147 138.291 19.7067 138.953 19.92C140.297 20.304 141.427 20.6987 142.345 21.104C143.283 21.5093 143.987 22.0107 144.457 22.608C144.926 23.184 145.161 23.984 145.161 25.008C145.161 26.672 144.553 27.9733 143.337 28.912C142.121 29.8507 140.489 30.32 138.441 30.32ZM163.055 30.256C161.754 30.256 160.719 29.904 159.951 29.2C159.205 28.496 158.831 27.6 158.831 26.512V13.456C158.831 12.816 158.757 12.2293 158.607 11.696C158.458 11.1627 158.191 10.7467 157.807 10.448C157.423 10.128 156.869 9.968 156.143 9.968C155.461 9.968 154.906 10.1173 154.479 10.416C154.074 10.7147 153.775 11.1413 153.583 11.696C153.391 12.2293 153.295 12.848 153.295 13.552V14.128H156.079V17.392H153.295V30H149.007V17.392H146.799V14.128H149.007V12.72C149.007 11.3333 149.285 10.1707 149.839 9.232C150.415 8.272 151.226 7.54667 152.271 7.056C153.317 6.56533 154.565 6.32 156.015 6.32C158.447 6.32 160.239 6.896 161.391 8.048C162.543 9.2 163.119 10.7147 163.119 12.592V24.496C163.119 25.1787 163.237 25.6693 163.471 25.968C163.706 26.2667 164.037 26.416 164.463 26.416C164.869 26.416 165.274 26.352 165.679 26.224C166.085 26.096 166.373 26 166.543 25.936L167.119 29.392C166.949 29.4773 166.639 29.5947 166.191 29.744C165.743 29.872 165.242 29.9893 164.687 30.096C164.133 30.2027 163.589 30.256 163.055 30.256ZM167.863 25.04C167.863 23.952 168.161 23.0027 168.759 22.192C169.377 21.36 170.231 20.72 171.319 20.272C172.407 19.824 173.655 19.6 175.062 19.6C175.767 19.6 176.481 19.6533 177.207 19.76C177.932 19.8667 178.561 20.0373 179.095 20.272V19.376C179.095 18.3093 178.775 17.488 178.135 16.912C177.516 16.336 176.588 16.048 175.351 16.048C174.433 16.048 173.559 16.208 172.727 16.528C171.895 16.848 171.02 17.3173 170.103 17.936L168.727 15.12C169.836 14.3947 170.967 13.8507 172.119 13.488C173.292 13.1253 174.519 12.944 175.799 12.944C178.188 12.944 180.044 13.5413 181.367 14.736C182.711 15.9307 183.383 17.6373 183.383 19.856V25.2C183.383 25.648 183.457 25.968 183.607 26.16C183.777 26.352 184.044 26.4693 184.407 26.512V30C184.023 30.064 183.671 30.1173 183.351 30.16C183.052 30.2027 182.796 30.224 182.583 30.224C181.729 30.224 181.079 30.032 180.631 29.648C180.204 29.264 179.937 28.7947 179.831 28.24L179.735 27.376C179.009 28.3147 178.103 29.04 177.015 29.552C175.927 30.064 174.817 30.32 173.687 30.32C172.577 30.32 171.575 30.096 170.679 29.648C169.804 29.1787 169.111 28.5493 168.599 27.76C168.108 26.9493 167.863 26.0427 167.863 25.04ZM178.295 25.904C178.529 25.648 178.721 25.392 178.871 25.136C179.02 24.88 179.095 24.6453 179.095 24.432V22.736C178.583 22.5227 178.028 22.3627 177.431 22.256C176.833 22.128 176.268 22.064 175.735 22.064C174.625 22.064 173.708 22.3093 172.983 22.8C172.279 23.2693 171.927 23.8987 171.927 24.688C171.927 25.1147 172.044 25.52 172.279 25.904C172.513 26.288 172.855 26.5973 173.303 26.832C173.751 27.0667 174.284 27.184 174.903 27.184C175.543 27.184 176.172 27.0667 176.791 26.832C177.409 26.576 177.911 26.2667 178.295 25.904ZM197.374 16.944C196.072 16.944 194.91 17.2 193.885 17.712C192.862 18.2027 192.126 18.9173 191.678 19.856V30H187.39V13.232H191.326V16.816C191.923 15.664 192.68 14.7573 193.598 14.096C194.515 13.4347 195.486 13.072 196.51 13.008C196.744 13.008 196.926 13.008 197.054 13.008C197.182 13.008 197.288 13.0187 197.374 13.04V16.944ZM207.322 30.32C205.978 30.32 204.762 30.096 203.674 29.648C202.586 29.1787 201.658 28.5493 200.89 27.76C200.122 26.9493 199.524 26.032 199.098 25.008C198.692 23.9627 198.49 22.864 198.49 21.712C198.49 20.112 198.842 18.6507 199.546 17.328C200.271 16.0053 201.295 14.9493 202.618 14.16C203.962 13.3493 205.54 12.944 207.354 12.944C209.188 12.944 210.756 13.3493 212.058 14.16C213.359 14.9493 214.351 16.0053 215.034 17.328C215.738 18.6293 216.09 20.0373 216.09 21.552C216.09 21.808 216.079 22.0747 216.058 22.352C216.036 22.608 216.015 22.8213 215.994 22.992H203.034C203.119 23.8453 203.364 24.592 203.77 25.232C204.196 25.872 204.73 26.3627 205.37 26.704C206.031 27.024 206.735 27.184 207.482 27.184C208.335 27.184 209.135 26.9813 209.882 26.576C210.65 26.1493 211.172 25.5947 211.45 24.912L215.13 25.936C214.724 26.7893 214.138 27.5467 213.37 28.208C212.623 28.8693 211.738 29.392 210.714 29.776C209.69 30.1387 208.559 30.32 207.322 30.32ZM202.938 20.272H211.706C211.62 19.4187 211.375 18.6827 210.97 18.064C210.586 17.424 210.074 16.9333 209.434 16.592C208.794 16.2293 208.079 16.048 207.29 16.048C206.522 16.048 205.818 16.2293 205.178 16.592C204.559 16.9333 204.047 17.424 203.642 18.064C203.258 18.6827 203.023 19.4187 202.938 20.272Z" fill="black"/>
</svg>
