<svg width="177" height="52" fill="none" xmlns="http://www.w3.org/2000/svg"><g clip-path="url(#a)"><path d="M99.78 32.489c1.451.467 2.117.818 2.117 2.659 0 2.074-.725 2.454-3.335 2.454-1.391 0-2.551-.029-6.35-.117l-.232 2.689c2.9.584 5.277.642 6.495.642 5.133 0 7.105-1.051 7.105-5.64 0-2.95-.957-4.85-4.118-5.872l-3.856-1.198c-1.566-.497-2.233-.906-2.233-2.688 0-2.163.899-2.309 3.335-2.309 1.971 0 4.291.059 5.944.117l.232-2.6c-2.146-.556-4.379-.673-6.293-.673-4.784 0-6.872.79-6.872 5.406 0 3.01 1.073 4.88 4.03 5.844l4.031 1.286M110.417 32.313c.087-3.01.899-3.769 3.335-3.769 2.175 0 2.813.585 2.813 2.104 0 .76-.145 1.665-1.276 1.665h-4.872Zm5.858 2.484c2.638 0 3.799-1.52 3.799-4.09 0-3.244-1.857-4.968-6.467-4.968-4.814 0-6.873 1.87-6.873 7.539 0 5.434 1.943 7.538 7.105 7.538 1.798 0 4.35-.233 5.857-.964l-.318-2.279c-1.711.204-3.741.35-5.104.35-2.436 0-3.509-.525-3.799-3.126h5.8M124.778 26.148h-2.958v14.318h3.538v-9.964c1.943-1.11 3.248-1.753 4.669-1.753 1.131 0 1.508.438 1.508 2.045v9.672h3.538V29.712c0-2.57-1.392-3.974-3.915-3.974-2.059 0-4.118.965-6.148 2.514l-.232-2.104M146.901 36.317c-1.566 1.052-2.32 1.49-3.741 1.49-1.885 0-2.668-.847-2.668-4.617 0-3.857.783-4.558 2.871-4.558 1.276 0 2.262.263 3.538.584v7.1Zm3.538-16.305h-3.538v4.12c0 .994.029 1.929.144 2.864-1.391-.877-3.044-1.257-4.726-1.257-3.596 0-5.452 1.783-5.452 7.48 0 4.85 1.392 7.598 4.988 7.598 2.32 0 4.234-1.11 5.51-2.309l.29 1.958h2.784V20.012M155.972 32.313c.087-3.01.899-3.769 3.335-3.769 2.175 0 2.813.585 2.813 2.104 0 .76-.145 1.665-1.276 1.665h-4.872Zm5.858 2.484c2.639 0 3.799-1.52 3.799-4.09 0-3.244-1.856-4.968-6.467-4.968-4.814 0-6.873 1.87-6.873 7.539 0 5.434 1.943 7.538 7.105 7.538 1.798 0 4.349-.233 5.857-.964l-.319-2.279c-1.71.204-3.74.35-5.103.35-2.436 0-3.509-.525-3.799-3.126h5.8M177.002 25.74h-.695c-1.857 0-3.915.905-5.858 2.512l-.319-2.104h-2.755v14.318h3.538v-10.11c2.03-.818 3.334-1.286 4.698-1.286h1.014l.377-3.331" fill="#242322"/><path fill-rule="evenodd" clip-rule="evenodd" d="m61.21.001-5.6 4.762h7.118L32.695 28.469v6.932L65.831 8.282v5.89l4.55-3.916V0h-9.17Z" fill="url(#b)"/><path fill-rule="evenodd" clip-rule="evenodd" d="M61.105 29.819v17.606H4.551V9.52h34.534l5.762-4.575H0V52h65.656V26.206l-4.55 3.613" fill="url(#c)"/><path fill-rule="evenodd" clip-rule="evenodd" d="M11.508 16.706 32.699 28.47v6.928L11.508 21.412v-4.706" fill="url(#d)"/></g><defs><linearGradient id="b" x1="70.414" y1=".033" x2="33.727" y2="36.443" gradientUnits="userSpaceOnUse"><stop stop-color="#F57724"/><stop offset="1" stop-color="#ED1E24"/></linearGradient><linearGradient id="c" x1="50.515" y1="10.651" x2="4.393" y2="56.425" gradientUnits="userSpaceOnUse"><stop stop-color="#F57724"/><stop offset="1" stop-color="#ED1E24"/></linearGradient><linearGradient id="d" x1="26.202" y1="21.924" x2="19.055" y2="29.017" gradientUnits="userSpaceOnUse"><stop stop-color="#F57724"/><stop offset="1" stop-color="#ED1E24"/></linearGradient><clipPath id="a"><path fill="#fff" d="M0 0h177v52H0z"/></clipPath></defs></svg>