<?xml version="1.0" encoding="UTF-8"?>
<svg id="Layer_1" data-name="Layer 1" xmlns="http://www.w3.org/2000/svg" xmlns:xlink="http://www.w3.org/1999/xlink" viewBox="0 0 811.75 106.96">
  <defs>
    <style>
      .cls-1, .cls-2 {
        fill: none;
      }

      .cls-3 {
        fill: #293475;
      }

      .cls-4 {
        fill: url(#linear-gradient);
      }

      .cls-5 {
        fill: #fff;
      }

      .cls-2 {
        stroke: #fff;
        stroke-linecap: round;
        stroke-linejoin: round;
      }
    </style>
    <linearGradient id="linear-gradient" x1="53.48" y1="826" x2="53.48" y2="719.04" gradientTransform="translate(0 826.96) scale(1 -1)" gradientUnits="userSpaceOnUse">
      <stop offset="0" stop-color="#7a53a1"/>
      <stop offset=".34" stop-color="#42489d"/>
      <stop offset=".67" stop-color="#4e60aa"/>
      <stop offset="1" stop-color="#25abe2"/>
    </linearGradient>
  </defs>
  <g>
    <circle class="cls-4" cx="53.48" cy="53.48" r="53.48"/>
    <g>
      <path class="cls-1" d="M90.76,56.63c.84-9.41-2.52-19.13-9.2-26.73-6.65-7.57-15.78-12.12-25.04-12.49-.92-.07-1.79-.11-2.66-.11-14.58,0-28.38,9.41-33.56,22.89-1.4,3.53-2.24,7.24-2.49,11.05l-.08,1.21-1.39.1c-.17,0-.35-.03-.54-.06-.1,3.54.28,7.04,1.15,10.45,3.73,15.41,18.38,27.61,34.08,28.39,1.02.09,1.98.13,2.94.13h0c18.85,0,36.04-16.28,36.78-34.83Z"/>
      <line class="cls-2" x1="14.58" y1="51.01" x2="15.55" y2="51.08"/>
    </g>
    <path class="cls-5" d="M14.05,53.71C14.35,19.22,56.49,1.88,80.67,26.52c14.64,14.34,14.43,39.95-.46,53.93-23.59,23.16-63.9,6.35-63.58-26.74,0,0-2.59,0-2.59,0h0ZM16.64,53.71c.31,32.19,39.64,48.38,62.21,25.37,13.64-13.38,13.43-37.25-.46-50.27-21.97-21.53-59.48-5.89-59.16,24.91,0,0-2.59,0-2.59,0h0Z"/>
  </g>
  <g>
    <path class="cls-3" d="M191.38,58.31h-47.53c.86,11.88,9.94,19.77,22.36,19.77,6.91,0,13.07-2.48,17.39-7.45l4.32,4.97c-5.08,6.05-12.96,9.29-21.93,9.29-17.72,0-29.82-12.1-29.82-28.95s11.78-28.84,27.76-28.84,27.55,11.78,27.55,28.84c0,.65-.11,1.51-.11,2.38ZM143.85,52.58h40.3c-.97-11.13-9.07-18.91-20.2-18.91s-19.12,7.78-20.09,18.91Z"/>
    <path class="cls-3" d="M259.44,51.39v32.95h-7.67v-32.19c0-11.99-6.27-18.15-17.07-18.15-12.21,0-19.88,7.56-19.88,20.53v29.82h-7.67V27.52h7.35v10.48c4.11-6.91,11.78-10.91,21.61-10.91,13.83,0,23.33,7.99,23.33,24.31Z"/>
    <path class="cls-3" d="M310.22,80.88c-3.02,2.7-7.56,4-11.99,4-10.7,0-16.64-6.05-16.64-16.53v-34.35h-10.15v-6.48h10.15v-12.42h7.67v12.42h17.29v6.48h-17.29v33.92c0,6.7,3.46,10.37,9.83,10.37,3.13,0,6.27-.97,8.43-2.92l2.7,5.51Z"/>
    <path class="cls-3" d="M371.59,58.31h-47.53c.86,11.88,9.94,19.77,22.36,19.77,6.91,0,13.07-2.48,17.39-7.45l4.32,4.97c-5.08,6.05-12.96,9.29-21.93,9.29-17.72,0-29.82-12.1-29.82-28.95s11.78-28.84,27.76-28.84,27.55,11.78,27.55,28.84c0,.65-.11,1.51-.11,2.38ZM324.05,52.58h40.3c-.97-11.13-9.07-18.91-20.2-18.91s-19.12,7.78-20.09,18.91Z"/>
    <path class="cls-3" d="M387.36,4.18h7.67v80.16h-7.67V4.18Z"/>
    <path class="cls-3" d="M416.42,4.18h7.67v80.16h-7.67V4.18Z"/>
    <path class="cls-3" d="M443.76,9.58c0-2.92,2.48-5.4,5.62-5.4s5.62,2.38,5.62,5.29c0,3.13-2.38,5.62-5.62,5.62s-5.62-2.48-5.62-5.51ZM445.49,27.52h7.67v56.83h-7.67V27.52Z"/>
    <path class="cls-3" d="M527.16,27.52v49.91c0,19.55-9.61,28.41-28.41,28.41-10.37,0-20.53-3.13-26.47-8.75l3.89-5.83c5.4,4.86,13.61,7.78,22.36,7.78,14.37,0,20.96-6.59,20.96-20.63v-7.24c-4.75,7.24-12.86,11.02-22.15,11.02-16.21,0-28.52-11.34-28.52-27.66s12.32-27.44,28.52-27.44c9.51,0,17.72,3.89,22.47,11.34v-10.91h7.35ZM519.7,54.52c0-12.32-9.07-20.74-21.61-20.74s-21.5,8.43-21.5,20.74,8.97,20.85,21.5,20.85,21.61-8.53,21.61-20.85Z"/>
    <path class="cls-3" d="M598.14,58.31h-47.53c.86,11.88,9.94,19.77,22.36,19.77,6.91,0,13.07-2.48,17.39-7.45l4.32,4.97c-5.08,6.05-12.96,9.29-21.93,9.29-17.72,0-29.82-12.1-29.82-28.95s11.78-28.84,27.76-28.84,27.55,11.78,27.55,28.84c0,.65-.11,1.51-.11,2.38ZM550.6,52.58h40.3c-.97-11.13-9.07-18.91-20.2-18.91s-19.12,7.78-20.09,18.91Z"/>
    <path class="cls-3" d="M666.2,51.39v32.95h-7.67v-32.19c0-11.99-6.27-18.15-17.07-18.15-12.21,0-19.88,7.56-19.88,20.53v29.82h-7.67V27.52h7.35v10.48c4.11-6.91,11.78-10.91,21.61-10.91,13.83,0,23.33,7.99,23.33,24.31Z"/>
    <path class="cls-3" d="M681.54,55.93c0-16.96,12.32-28.84,29.28-28.84,9.62,0,17.72,3.78,22.25,11.24l-5.73,3.89c-3.89-5.73-9.94-8.43-16.53-8.43-12.42,0-21.5,8.86-21.5,22.15s9.07,22.15,21.5,22.15c6.59,0,12.64-2.59,16.53-8.32l5.73,3.89c-4.54,7.35-12.64,11.24-22.25,11.24-16.96,0-29.28-11.99-29.28-28.95Z"/>
    <path class="cls-3" d="M796.6,58.31h-47.53c.86,11.88,9.94,19.77,22.36,19.77,6.91,0,13.07-2.48,17.39-7.45l4.32,4.97c-5.08,6.05-12.96,9.29-21.93,9.29-17.72,0-29.82-12.1-29.82-28.95s11.78-28.84,27.76-28.84,27.55,11.78,27.55,28.84c0,.65-.11,1.51-.11,2.38ZM749.07,52.58h40.3c-.97-11.13-9.07-18.91-20.2-18.91s-19.12,7.78-20.09,18.91Z"/>
  </g>
  <g>
    <path class="cls-3" d="M793.44,16.58h-3.68v-1.34h8.89v1.34h-3.68v9.41h-1.52v-9.41Z"/>
    <path class="cls-3" d="M810.28,25.99l-.02-7.83-3.88,6.52h-.71l-3.88-6.48v7.78h-1.47v-10.75h1.26l4.48,7.55,4.42-7.55h1.26l.02,10.75h-1.47Z"/>
  </g>
</svg>