<?xml version="1.0" encoding="UTF-8"?>
<svg width="40px" height="53px" viewBox="0 0 40 53" version="1.1" xmlns="http://www.w3.org/2000/svg" xmlns:xlink="http://www.w3.org/1999/xlink">
    <title>logo</title>
    <g id="Page-1" stroke="none" stroke-width="1" fill="none" fill-rule="evenodd">
        <g id="Artboard" transform="translate(-125.000000, -117.000000)" fill="#3fd9b2">
            <g id="logo" transform="translate(125.000000, 117.000000)">
                <g id="Logo-Label" transform="translate(0.000000, 45.294118)">
                    <path d="M0.201176471,1.9 L1.06941176,1.9 L1.06941176,2.60588235 C1.3,2.13529412 1.84,1.75294118 2.69941176,1.76470588 C4.24117647,1.78235294 4.64882353,2.84117647 4.64882353,3.79411765 L4.64882353,6.47647059 L3.71882353,6.47647059 L3.71882353,3.99411765 C3.71882353,3.17058824 3.38176471,2.58235294 2.44294118,2.58823529 C1.53882353,2.59411765 1.12294118,3.13529412 1.12294118,3.92352941 L1.12294118,6.47647059 L0.201176471,6.47647059 L0.201176471,1.9" id="Fill-57"></path>
                    <path d="M15.4688235,6.47647059 L14.6,6.47647059 L14.6,5.77058824 C14.3694118,6.24117647 13.8294118,6.61764706 12.97,6.61176471 C11.42,6.6 11.0211765,5.53529412 11.0211765,4.58235294 L11.0211765,1.9 L11.9423529,1.9 L11.9423529,4.38235294 C11.9423529,5.20588235 12.2788235,5.79411765 13.2270588,5.79411765 C14.1311765,5.78823529 14.5470588,5.24117647 14.5470588,4.45882353 L14.5470588,1.9 L15.4688235,1.9 L15.4688235,6.47647059" id="Fill-58"></path>
                    <path d="M24.1176471,3.09411765 C24.1176471,2.74117647 23.8864706,2.47058824 23.4176471,2.47647059 C22.9652941,2.47647059 22.7170588,2.76470588 22.7264706,3.06470588 C22.7441176,3.42941176 23.0894118,3.6 23.6041176,3.73529412 C24.3394118,3.92352941 25.1452941,4.12941176 25.1717647,5.11176471 C25.1894118,6.00588235 24.41,6.61176471 23.4529412,6.61176471 C22.6911765,6.61176471 21.7429412,6.2 21.6988235,5.15294118 L22.6111765,5.15294118 C22.6470588,5.71176471 23.1170588,5.89411765 23.4623529,5.89411765 C23.9047059,5.89411765 24.2511765,5.6 24.2511765,5.21176471 C24.2417647,4.75882353 23.8788235,4.60588235 23.0194118,4.34117647 C22.3458824,4.14705882 21.8141176,3.84117647 21.8047059,3.15294118 C21.8047059,2.28235294 22.5494118,1.76470588 23.4264706,1.76470588 C24.0905882,1.76470588 24.9594118,2.07647059 25.03,3.09411765 L24.1176471,3.09411765" id="Fill-59"></path>
                    <path d="M31.4370588,1.9 L32.4370588,1.9 L32.4370588,6.47647059 L31.4370588,6.47647059 L31.4370588,1.9 Z M31.4370588,0.247058824 L32.4370588,0.247058824 L32.4370588,1.17647059 L31.4370588,1.17647059 L31.4370588,0.247058824 Z" id="Fill-60"></path>
                    <path d="M38.8811765,1.9 L39.8811765,1.9 L39.8811765,6.47647059 L38.8811765,6.47647059 L38.8811765,1.9 Z M38.8811765,0.247058824 L39.8811765,0.247058824 L39.8811765,1.17647059 L38.8811765,1.17647059 L38.8811765,0.247058824 Z" id="Fill-61"></path>
                </g>
                <g>
                    <path d="M31.6664706,0 L23.5294118,0 L23.5294118,8.59411765 L6.47058824,0 L6.47058824,11.2529412 L33.5294118,25.0058824 L33.5294118,8.33529412 C33.5294118,7.41176471 32.5870588,6.47058824 31.6664706,6.47058824 L30,6.47058824 L30,19.5352941 L10,9.21764706 L10,5.47058824 L27.0588235,14.0647059 L27.0588235,3.52941176 L31.6664706,3.52941176 C34.4276471,3.52941176 36.4705882,5.57058824 36.4705882,8.33529412 L36.4705882,40 L40,40 L40,8.33529412 C40,3.72941176 36.2688235,0 31.6664706,0" id="Fill-62"></path>
                    <path d="M8.33352941,40 L16.4705882,40 L16.4705882,31.4058824 L33.5294118,40 L33.5294118,28.7470588 L6.47058824,14.9941176 L6.47058824,31.6647059 C6.47058824,32.5882353 7.41294118,33.5294118 8.33352941,33.5294118 L10,33.5294118 L10,20.4647059 L30,30.7823529 L30,34.5294118 L12.9411765,25.9352941 L12.9411765,36.4705882 L8.33352941,36.4705882 C5.57176471,36.4705882 3.52941176,34.4294118 3.52941176,31.6647059 L3.52941176,0 L0,0 L0,31.6647059 C0,36.2705882 3.73117647,40 8.33352941,40" id="Fill-63"></path>
                </g>
            </g>
        </g>
    </g>
</svg>