<svg xmlns="http://www.w3.org/2000/svg" width="247" height="252" fill="none"><path fill="#1D1D1D" d="M246.977 202.478v-56.281c0-5.389-2.84-10.383-7.471-13.171l-49.898-29.894a3.836 3.836 0 0 1-1.862-3.298v-58.21c0-4.041-2.118-7.804-5.609-9.871L133.938 2.88a20.387 20.387 0 0 0-20.899 0l-48.2 28.873c-3.467 2.09-5.608 5.83-5.608 9.871V99.88a3.839 3.839 0 0 1-1.862 3.299L7.47 133.003A15.354 15.354 0 0 0 0 146.173v56.282c0 7.735 3.863 14.889 10.1 18.652l46.175 28.013a15.404 15.404 0 0 0 15.965 0l49.503-29.778c1.21-.721 2.723-.697 3.933.023l51.062 30.963a11.578 11.578 0 0 0 11.986 0l48.175-29.221C243.137 217.321 247 210.19 247 202.455l-.023.023Zm-128.865 0c0 4.135-1.978 7.898-5.097 9.802l-38.843 23.553c-3.188 1.928-7.005-.766-7.005-4.947v-45.899c0-4.134 1.978-7.897 5.097-9.802l38.843-23.553c3.188-1.928 7.005.767 7.005 4.948v45.898Zm59.231-102.366c0 4.135-1.978 7.898-5.097 9.803l-38.843 23.553c-3.189 1.928-7.005-.767-7.005-4.948V82.622c0-4.135 1.978-7.898 5.096-9.802l38.844-23.553c3.188-1.928 7.005.766 7.005 4.947v45.898Zm59.231 102.366c0 4.135-1.979 7.898-5.097 9.802l-38.844 23.553c-3.188 1.928-7.005-.766-7.005-4.947v-45.899c0-4.134 1.978-7.897 5.097-9.802l38.843-23.553c3.189-1.928 7.006.767 7.006 4.948v45.898Z"/></svg>