<?xml version="1.0" encoding="utf-8"?>
<!-- Generator: Adobe Illustrator 24.0.3, SVG Export Plug-In . SVG Version: 6.00 Build 0)  -->
<svg version="1.1" id="Layer_1" xmlns="http://www.w3.org/2000/svg" xmlns:xlink="http://www.w3.org/1999/xlink" x="0px" y="0px"
	 width="2500px" height="525.5px" viewBox="0 0 2500 525.5" style="enable-background:new 0 0 2500 525.5;" xml:space="preserve">
<style type="text/css">
	.st0{fill:#CCDFED;}
	.st1{fill:#FF644D;}
	.st2{fill:#4C5366;}
</style>
<g>
	<g>
		<polygon class="st0" points="0,260.3 231.9,471 463.9,260.3 463.9,525.5 0,525.5 		"/>
		<polygon class="st1" points="0,187.3 231.9,398 463.9,187.3 		"/>
		<polygon class="st1" points="316.5,133.8 463.9,133.8 463.9,0 		"/>
		<polygon class="st1" points="0,0 0,133.8 147.3,133.8 		"/>
	</g>
	<g>
		<path class="st2" d="M768.4,237.6c-48.4-19.3-78-33.8-78-66.4c0-29.8,30.5-54.8,67.3-54.8c35.9,0,58.3,20.5,68.9,44l37.4-13.5
			c-14.7-40.8-57.5-68.2-106.4-68.2c-52.5,0-110.2,35.9-110.2,92.6c0,62.7,59,85.8,105.5,104.3c49.3,19.6,79.2,36.8,79.2,69.9
			c0,38.1-27.1,64.1-69,64.1c-45.6,0-75.5-30.3-85-62.4l-39.3,10.3c11.8,44.6,58.2,89.8,124.3,89.8c65.3,0,112-43,112-104.7
			C875,278.7,815.4,256.4,768.4,237.6z"/>
		<path class="st2" d="M1656.3,210.8c-18-21.3-43.2-34-75-34c-67.3,0-117.3,56.9-117.3,135.2c0,78.4,49.9,135.2,117.3,135.2
			c33.7,0,60.1-14.2,78.2-37.9v34.4h39.8V81.3h-43V210.8z M1582.3,409.5c-43.7,0-75.3-42.6-75.3-97.5s31.6-97.5,75.3-97.5
			c44.2,0,75,44.3,75,97.5S1626.6,409.5,1582.3,409.5z"/>
		<polygon class="st2" points="1780.2,443.7 1824.2,443.7 1824.2,285 1958.6,285 1958.6,246.2 1824.2,246.2 1824.2,126.4 
			1984.2,126.4 1984.2,87.6 1780.2,87.6 		"/>
		<path class="st2" d="M1326.7,176.8c-28.3,0-63.9,12.9-92.5,50.8v-47.3h-40.5v263.3h43V295.1c17.1-59.6,61.8-80.7,87.9-80.7
			c29,0,45.8,22.2,45.8,57.7v171.6h43V272.1C1413.4,201.7,1368.1,176.8,1326.7,176.8z"/>
		<path class="st2" d="M2122.2,176.8c-67.3,0-117.3,56.9-117.3,135.2c0,78.4,49.9,135.2,117.3,135.2c67.3,0,117.3-56.9,117.3-135.2
			S2189.6,176.8,2122.2,176.8z M2122.2,409.5c-43.7,0-74.3-42.6-74.3-97.5s30.5-97.5,74.3-97.5c43.7,0,74.3,42.6,74.3,97.5
			S2166,409.5,2122.2,409.5z"/>
		<path class="st2" d="M1135.4,257.4c0-39.6-35.8-80.6-94.1-80.6c-59.9,0-123,50.6-123,135.2c0,88.8,64.2,135.2,126.5,135.2
			c21.6,0,54.2-4.5,87.1-26.2l-21-32.4c-24.2,15.9-50.2,20.8-66.1,20.8c-36.6,0-68.7-23.4-79-61.9
			C1044,345.3,1135.4,332.3,1135.4,257.4z M961.3,311.3c0-58.5,42-96.7,79.9-96.7c32,0,51.1,23.9,51.1,42.9
			C1092.4,288.9,1048.3,309.1,961.3,311.3z"/>
		<polygon class="st2" points="2500,443.7 2404.8,309.8 2494.8,180.4 2443,180.4 2379.9,273.9 2316.9,180.4 2265,180.4 2355,309.8 
			2259.8,443.7 2311.7,443.7 2379.9,345.6 2448.2,443.7 		"/>
	</g>
</g>
</svg>
