<svg width="172" height="40" viewBox="0 0 172 40" fill="none" xmlns="http://www.w3.org/2000/svg">
<mask id="mask0_352_15" style="mask-type:luminance" maskUnits="userSpaceOnUse" x="0" y="0" width="29" height="40">
<path d="M28.7805 0H0V40H28.7805V0Z" fill="white"/>
</mask>
<g mask="url(#mask0_352_15)">
<path d="M4.63415 8.78049V8.53659H4.39024H1.95122H1.85019L1.77876 8.60801L0.803146 9.58362L0.731707 9.65508V9.7561V32.1951V32.2962L0.803146 32.3676L1.77876 33.3432L1.85019 33.4146H1.95122H4.39024H4.63415V33.1707V29.2683V29.0244H4.39024H3.02786L1.70732 27.7039V14.2474L3.02786 12.9268H4.39024H4.63415V12.6829V8.78049Z" fill="black" stroke="black"/>
<path d="M24.6341 33.1707V33.4146H24.8781H27.3171H27.4181L27.4896 33.3432L28.4652 32.3676L28.5366 32.2962V32.1951V9.7561V9.65508L28.4652 9.58362L27.4896 8.60801L27.4181 8.53659H27.3171H24.8781H24.6341V8.78049V12.6829V12.9268H24.8781H26.2404L27.561 14.2474V27.7039L26.2404 29.0244H24.8781H24.6341V29.2683V33.1707Z" fill="black" stroke="black"/>
<path fill-rule="evenodd" clip-rule="evenodd" d="M5.85366 7.31707L6.82927 6.34146H22.1951H22.439L23.4146 7.31707V34.588L22.9268 35.1219L22.439 35.6098H20.4878V39.0244L17.561 35.6098H6.82927L5.85366 34.6341V7.31707ZM11.7073 33.6585V33.1707V32.6829H17.561V34.588H14.6341H11.7073V33.6585ZM6.82927 12.1951V12.439V29.7561L7.80488 30.7317H8.29268H21.4634L22.439 29.7561V29.2105V12.6829L20.9756 11.2195H7.80488L6.82927 12.1951ZM11.7073 8.78049V7.80488H17.561V9.7561H11.7073V8.78049Z" fill="#1E97DB"/>
<path d="M6.82927 6.34147V6.09756H6.72824L6.65678 6.16898L6.82927 6.34147ZM5.85366 7.31708L5.68117 7.14459L5.60976 7.21605V7.31708H5.85366ZM22.439 6.34147L22.6115 6.16898L22.54 6.09756H22.439V6.34147ZM23.4146 7.31708H23.6585V7.21605L23.5871 7.14459L23.4146 7.31708ZM23.4146 34.588L23.5947 34.7525L23.6585 34.6826V34.588H23.4146ZM22.9268 35.122L23.0993 35.2944L23.1032 35.2905L23.1069 35.2864L22.9268 35.122ZM22.439 35.6098V35.8537H22.54L22.6115 35.7822L22.439 35.6098ZM20.4878 35.6098V35.3659H20.2439V35.6098H20.4878ZM20.4878 39.0244L20.3026 39.1831L20.7317 39.6837V39.0244H20.4878ZM17.561 35.6098L17.7461 35.451L17.6732 35.3659H17.561V35.6098ZM6.82927 35.6098L6.65678 35.7822L6.72824 35.8537H6.82927V35.6098ZM5.85366 34.6342H5.60976V34.7352L5.68117 34.8066L5.85366 34.6342ZM11.7073 32.6829V32.439H11.4634V32.6829H11.7073ZM17.561 32.6829H17.8049V32.439H17.561V32.6829ZM17.561 34.588V34.8319H17.8049V34.588H17.561ZM11.7073 34.588H11.4634V34.8319H11.7073V34.588ZM6.82927 12.1951L6.65678 12.0226L6.58537 12.0941V12.1951H6.82927ZM6.82927 29.7561H6.58537V29.8571L6.65678 29.9286L6.82927 29.7561ZM7.80488 30.7317L7.63239 30.9042L7.70385 30.9756H7.80488V30.7317ZM21.4634 30.7317V30.9756H21.5644L21.6359 30.9042L21.4634 30.7317ZM22.439 29.7561L22.6115 29.9286L22.6829 29.8571V29.7561H22.439ZM22.439 12.6829H22.6829V12.5819L22.6115 12.5104L22.439 12.6829ZM20.9756 11.2195L21.1481 11.047L21.0766 10.9756H20.9756V11.2195ZM7.80488 11.2195V10.9756H7.70385L7.63239 11.047L7.80488 11.2195ZM11.7073 7.80488V7.56098H11.4634V7.80488H11.7073ZM17.561 7.80488H17.8049V7.56098H17.561V7.80488ZM17.561 9.7561V10H17.8049V9.7561H17.561ZM11.7073 9.7561H11.4634V10H11.7073V9.7561ZM11.7073 7.80488V7.56098H11.4634V7.80488H11.7073ZM6.82927 12.1951L6.65678 12.0226L6.58537 12.0941V12.1951H6.82927ZM7.80488 11.2195V10.9756H7.70385L7.63239 11.047L7.80488 11.2195ZM6.82927 29.7561H6.58537V29.8571L6.65678 29.9286L6.82927 29.7561ZM11.7073 32.6829V32.439H11.4634V32.6829H11.7073ZM6.65678 6.16898L5.68117 7.14459L6.02615 7.48956L7.00176 6.51395L6.65678 6.16898ZM22.1951 6.09756H6.82927V6.58537H22.1951V6.09756ZM22.439 6.09756H22.1951V6.58537H22.439V6.09756ZM23.5871 7.14459L22.6115 6.16898L22.2665 6.51395L23.2421 7.48956L23.5871 7.14459ZM23.6585 34.588V7.31708H23.1707V34.588H23.6585ZM23.1069 35.2864L23.5947 34.7525L23.2345 34.4235L22.7467 34.9575L23.1069 35.2864ZM22.6115 35.7822L23.0993 35.2944L22.7543 34.9495L22.2665 35.4373L22.6115 35.7822ZM20.4878 35.8537H22.439V35.3659H20.4878V35.8537ZM20.7317 39.0244V35.6098H20.2439V39.0244H20.7317ZM17.3758 35.7685L20.3026 39.1831L20.673 38.8657L17.7461 35.451L17.3758 35.7685ZM6.82927 35.8537H17.561V35.3659H6.82927V35.8537ZM5.68117 34.8066L6.65678 35.7822L7.00176 35.4373L6.02615 34.4617L5.68117 34.8066ZM5.60976 7.31708V34.6342H6.09756V7.31708H5.60976ZM11.4634 33.1707V33.6585H11.9512V33.1707H11.4634ZM11.4634 32.6829V33.1707H11.9512V32.6829H11.4634ZM17.561 32.439H11.7073V32.9268H17.561V32.439ZM17.8049 34.588V32.6829H17.3171V34.588H17.8049ZM14.6341 34.8319H17.561V34.3441H14.6341V34.8319ZM11.7073 34.8319H14.6341V34.3441H11.7073V34.8319ZM11.4634 33.6585V34.588H11.9512V33.6585H11.4634ZM7.07317 12.439V12.1951H6.58537V12.439H7.07317ZM7.07317 29.7561V12.439H6.58537V29.7561H7.07317ZM7.97737 30.5592L7.00176 29.5836L6.65678 29.9286L7.63239 30.9042L7.97737 30.5592ZM8.29268 30.4878H7.80488V30.9756H8.29268V30.4878ZM21.4634 30.4878H8.29268V30.9756H21.4634V30.4878ZM22.2665 29.5836L21.2909 30.5592L21.6359 30.9042L22.6115 29.9286L22.2665 29.5836ZM22.1951 29.2105V29.7561H22.6829V29.2105H22.1951ZM22.1951 12.6829V29.2105H22.6829V12.6829H22.1951ZM20.8031 11.392L22.2665 12.8554L22.6115 12.5104L21.1481 11.047L20.8031 11.392ZM7.80488 11.4634H20.9756V10.9756H7.80488V11.4634ZM7.00176 12.3676L7.97737 11.392L7.63239 11.047L6.65678 12.0226L7.00176 12.3676ZM11.4634 7.80488V8.78049H11.9512V7.80488H11.4634ZM17.561 7.56098H11.7073V8.04878H17.561V7.56098ZM17.8049 9.7561V7.80488H17.3171V9.7561H17.8049ZM11.7073 10H17.561V9.5122H11.7073V10ZM11.4634 8.78049V9.7561H11.9512V8.78049H11.4634ZM11.9512 8.78049V7.80488H11.4634V8.78049H11.9512ZM11.7073 8.04878H17.561V7.56098H11.7073V8.04878ZM11.9512 9.7561V8.78049H11.4634V9.7561H11.9512ZM7.07317 12.439V12.1951H6.58537V12.439H7.07317ZM7.00176 12.3676L7.97737 11.392L7.63239 11.047L6.65678 12.0226L7.00176 12.3676ZM7.80488 11.4634H20.9756V10.9756H7.80488V11.4634ZM7.97737 30.5592L7.00176 29.5836L6.65678 29.9286L7.63239 30.9042L7.97737 30.5592ZM7.07317 29.7561V12.439H6.58537V29.7561H7.07317ZM11.9512 33.6585V33.1707H11.4634V33.6585H11.9512ZM11.9512 33.1707V32.6829H11.4634V33.1707H11.9512ZM11.7073 32.9268H17.561V32.439H11.7073V32.9268ZM11.9512 34.588V33.6585H11.4634V34.588H11.9512Z" fill="#1E97DB"/>
<path d="M4.39024 6.34146H0.487804V6.58536V6.82927H4.39024V6.34146Z" stroke="#1E97DB"/>
<path d="M1.95122 2.29618L4.71066 5.05561L4.88312 4.88318L5.05561 4.71069L2.29615 1.95125L1.95122 2.29618Z" stroke="#1E97DB"/>
<path d="M6.34146 0.487808V4.39025H6.58537H6.82927V0.487808H6.34146Z" stroke="#1E97DB"/>
</g>
<path d="M44.7045 29H38.517V11.5455H44.7557C46.5114 11.5455 48.0227 11.8949 49.2898 12.5938C50.5568 13.2869 51.5313 14.2841 52.2131 15.5852C52.9006 16.8864 53.2443 18.4432 53.2443 20.2557C53.2443 22.0739 52.9006 23.6364 52.2131 24.9432C51.5313 26.25 50.5511 27.2528 49.2727 27.9517C48 28.6506 46.4773 29 44.7045 29ZM42.2074 25.8381H44.5511C45.642 25.8381 46.5597 25.6449 47.304 25.2585C48.054 24.8665 48.6165 24.2614 48.9915 23.4432C49.3722 22.6193 49.5625 21.5568 49.5625 20.2557C49.5625 18.9659 49.3722 17.9119 48.9915 17.0938C48.6165 16.2756 48.0568 15.6733 47.3125 15.2869C46.5682 14.9006 45.6506 14.7074 44.5597 14.7074H42.2074V25.8381ZM55.4298 29V15.9091H59.0605V29H55.4298ZM57.2537 14.2216C56.7139 14.2216 56.2508 14.0426 55.8645 13.6847C55.4838 13.321 55.2934 12.8864 55.2934 12.3807C55.2934 11.8807 55.4838 11.4517 55.8645 11.0938C56.2508 10.7301 56.7139 10.5483 57.2537 10.5483C57.7934 10.5483 58.2537 10.7301 58.6343 11.0938C59.0207 11.4517 59.2139 11.8807 59.2139 12.3807C59.2139 12.8864 59.0207 13.321 58.6343 13.6847C58.2537 14.0426 57.7934 14.2216 57.2537 14.2216ZM65.2218 29.2472C64.3866 29.2472 63.6423 29.1023 62.9889 28.8125C62.3355 28.517 61.8184 28.0824 61.4377 27.5085C61.0627 26.929 60.8752 26.2074 60.8752 25.3438C60.8752 24.6165 61.0088 24.0057 61.2758 23.5114C61.5428 23.017 61.9065 22.6193 62.3667 22.3182C62.8269 22.017 63.3497 21.7898 63.9349 21.6364C64.5258 21.483 65.1451 21.375 65.7928 21.3125C66.5542 21.233 67.1678 21.1591 67.6338 21.0909C68.0997 21.017 68.4377 20.9091 68.648 20.767C68.8582 20.625 68.9633 20.4148 68.9633 20.1364V20.0852C68.9633 19.5455 68.7928 19.1278 68.4519 18.8324C68.1167 18.5369 67.6394 18.3892 67.0201 18.3892C66.3667 18.3892 65.8468 18.5341 65.4605 18.8239C65.0741 19.108 64.8184 19.4659 64.6934 19.8977L61.3355 19.625C61.5059 18.8295 61.8411 18.142 62.3411 17.5625C62.8411 16.9773 63.486 16.5284 64.2758 16.2159C65.0713 15.8977 65.9917 15.7386 67.0372 15.7386C67.7644 15.7386 68.4605 15.8239 69.1252 15.9943C69.7957 16.1648 70.3894 16.429 70.9065 16.7869C71.4292 17.1449 71.8411 17.6051 72.1423 18.1676C72.4434 18.7244 72.594 19.392 72.594 20.1705V29H69.1508V27.1847H69.0485C68.8383 27.5938 68.557 27.9545 68.2048 28.267C67.8525 28.5739 67.4292 28.8153 66.9349 28.9915C66.4406 29.1619 65.8695 29.2472 65.2218 29.2472ZM66.2616 26.7415C66.7957 26.7415 67.2673 26.6364 67.6764 26.4261C68.0855 26.2102 68.4065 25.9205 68.6394 25.5568C68.8724 25.1932 68.9889 24.7812 68.9889 24.321V22.9318C68.8752 23.0057 68.719 23.0739 68.5201 23.1364C68.3269 23.1932 68.1082 23.2472 67.8639 23.2983C67.6195 23.3437 67.3752 23.3864 67.1309 23.4261C66.8866 23.4602 66.665 23.4915 66.4661 23.5199C66.04 23.5824 65.6678 23.6818 65.3497 23.8182C65.0315 23.9545 64.7843 24.1392 64.6082 24.3722C64.432 24.5994 64.344 24.8835 64.344 25.2244C64.344 25.7188 64.523 26.0966 64.8809 26.358C65.2445 26.6136 65.7048 26.7415 66.2616 26.7415ZM78.5614 11.5455V29H74.9307V11.5455H78.5614ZM131.522 17.6562H127.789C127.721 17.1733 127.582 16.7443 127.371 16.3693C127.161 15.9886 126.891 15.6648 126.562 15.3977C126.232 15.1307 125.852 14.9261 125.42 14.7841C124.994 14.642 124.531 14.571 124.031 14.571C123.127 14.571 122.34 14.7955 121.67 15.2443C120.999 15.6875 120.479 16.3352 120.11 17.1875C119.741 18.0341 119.556 19.0625 119.556 20.2727C119.556 21.517 119.741 22.5625 120.11 23.4091C120.485 24.2557 121.008 24.8949 121.678 25.3267C122.349 25.7585 123.124 25.9744 124.005 25.9744C124.499 25.9744 124.957 25.9091 125.377 25.7784C125.803 25.6477 126.181 25.4574 126.511 25.2074C126.84 24.9517 127.113 24.642 127.329 24.2784C127.55 23.9148 127.704 23.5 127.789 23.0341L131.522 23.0511C131.425 23.8523 131.184 24.625 130.798 25.3693C130.417 26.108 129.903 26.7699 129.255 27.3551C128.613 27.9347 127.846 28.3949 126.954 28.7358C126.067 29.071 125.065 29.2386 123.945 29.2386C122.388 29.2386 120.996 28.8864 119.769 28.1818C118.548 27.4773 117.582 26.4574 116.871 25.1222C116.167 23.7869 115.815 22.1705 115.815 20.2727C115.815 18.3693 116.173 16.75 116.888 15.4148C117.604 14.0795 118.576 13.0625 119.803 12.3636C121.031 11.6591 122.411 11.3068 123.945 11.3068C124.957 11.3068 125.894 11.4489 126.758 11.733C127.627 12.017 128.397 12.4318 129.067 12.9773C129.738 13.517 130.283 14.179 130.704 14.9631C131.13 15.7472 131.403 16.6449 131.522 17.6562ZM137.353 29.2472C136.518 29.2472 135.774 29.1023 135.12 28.8125C134.467 28.517 133.95 28.0824 133.569 27.5085C133.194 26.929 133.006 26.2074 133.006 25.3438C133.006 24.6165 133.14 24.0057 133.407 23.5114C133.674 23.017 134.038 22.6193 134.498 22.3182C134.958 22.017 135.481 21.7898 136.066 21.6364C136.657 21.483 137.276 21.375 137.924 21.3125C138.685 21.233 139.299 21.1591 139.765 21.0909C140.231 21.017 140.569 20.9091 140.779 20.767C140.989 20.625 141.095 20.4148 141.095 20.1364V20.0852C141.095 19.5455 140.924 19.1278 140.583 18.8324C140.248 18.5369 139.771 18.3892 139.151 18.3892C138.498 18.3892 137.978 18.5341 137.592 18.8239C137.205 19.108 136.95 19.4659 136.825 19.8977L133.467 19.625C133.637 18.8295 133.972 18.142 134.472 17.5625C134.972 16.9773 135.617 16.5284 136.407 16.2159C137.202 15.8977 138.123 15.7386 139.168 15.7386C139.896 15.7386 140.592 15.8239 141.256 15.9943C141.927 16.1648 142.521 16.429 143.038 16.7869C143.56 17.1449 143.972 17.6051 144.274 18.1676C144.575 18.7244 144.725 19.392 144.725 20.1705V29H141.282V27.1847H141.18C140.97 27.5938 140.688 27.9545 140.336 28.267C139.984 28.5739 139.56 28.8153 139.066 28.9915C138.572 29.1619 138.001 29.2472 137.353 29.2472ZM138.393 26.7415C138.927 26.7415 139.399 26.6364 139.808 26.4261C140.217 26.2102 140.538 25.9205 140.771 25.5568C141.004 25.1932 141.12 24.7812 141.12 24.321V22.9318C141.006 23.0057 140.85 23.0739 140.651 23.1364C140.458 23.1932 140.239 23.2472 139.995 23.2983C139.751 23.3437 139.506 23.3864 139.262 23.4261C139.018 23.4602 138.796 23.4915 138.597 23.5199C138.171 23.5824 137.799 23.6818 137.481 23.8182C137.163 23.9545 136.916 24.1392 136.739 24.3722C136.563 24.5994 136.475 24.8835 136.475 25.2244C136.475 25.7188 136.654 26.0966 137.012 26.358C137.376 26.6136 137.836 26.7415 138.393 26.7415ZM150.693 11.5455V29H147.062V11.5455H150.693ZM156.752 11.5455V29H153.121V11.5455H156.752ZM170.072 19.642L166.748 19.8466C166.691 19.5625 166.569 19.3068 166.382 19.0795C166.194 18.8466 165.947 18.6619 165.64 18.5256C165.339 18.3835 164.978 18.3125 164.558 18.3125C163.995 18.3125 163.521 18.4318 163.135 18.6705C162.748 18.9034 162.555 19.2159 162.555 19.608C162.555 19.9205 162.68 20.1847 162.93 20.4006C163.18 20.6165 163.609 20.7898 164.217 20.9205L166.586 21.3977C167.859 21.6591 168.808 22.0795 169.433 22.6591C170.058 23.2386 170.37 24 170.37 24.9432C170.37 25.8011 170.118 26.554 169.612 27.2017C169.112 27.8494 168.424 28.3551 167.549 28.7188C166.68 29.0767 165.677 29.2557 164.541 29.2557C162.808 29.2557 161.427 28.8949 160.399 28.1733C159.376 27.446 158.777 26.4574 158.601 25.2074L162.172 25.0199C162.28 25.5483 162.541 25.9517 162.956 26.2301C163.37 26.5028 163.902 26.6392 164.549 26.6392C165.186 26.6392 165.697 26.517 166.084 26.2727C166.476 26.0227 166.674 25.7017 166.68 25.3097C166.674 24.9801 166.535 24.7102 166.262 24.5C165.99 24.2841 165.569 24.1193 165.001 24.0057L162.734 23.554C161.456 23.2983 160.504 22.8551 159.879 22.2244C159.26 21.5937 158.95 20.7898 158.95 19.8125C158.95 18.9716 159.177 18.2472 159.632 17.6392C160.092 17.0312 160.737 16.5625 161.566 16.233C162.402 15.9034 163.379 15.7386 164.498 15.7386C166.152 15.7386 167.453 16.0881 168.402 16.7869C169.356 17.4858 169.913 18.4375 170.072 19.642Z" fill="black"/>
<path d="M81.058 11.5455H85.6091L90.4159 23.2727H90.6205L95.4273 11.5455H99.9784V29H96.3989V17.6392H96.254L91.737 28.9148H89.2995L84.7824 17.5966H84.6375V29H81.058V11.5455ZM104.712 33.9091C104.252 33.9091 103.82 33.8722 103.417 33.7983C103.019 33.7301 102.689 33.642 102.428 33.5341L103.246 30.8239C103.672 30.9545 104.056 31.0256 104.397 31.0369C104.743 31.0483 105.042 30.9688 105.292 30.7983C105.547 30.6278 105.755 30.3381 105.914 29.929L106.127 29.375L101.431 15.9091H105.249L107.959 25.5227H108.096L110.832 15.9091H114.675L109.587 30.4148C109.343 31.1193 109.011 31.733 108.59 32.2557C108.175 32.7841 107.65 33.1903 107.013 33.4744C106.377 33.7642 105.61 33.9091 104.712 33.9091Z" fill="#1E97DB"/>
</svg>
