<svg width="361" height="84" viewBox="0 0 361 84" fill="none" xmlns="http://www.w3.org/2000/svg">
<path d="M103.407 74.0445H121.896V51.1069H126.246L139.387 74.0445H158.963L143.465 47.5229C150.263 44.9245 155.157 39.8173 155.157 30.6781V30.3197C155.157 16.7901 145.731 9.98048 128.783 9.98048H103.407V74.0445ZM121.896 39.1901V23.7789H127.968C133.949 23.7789 137.212 25.8397 137.212 31.0365V31.3949C137.212 36.5917 134.131 39.1901 127.877 39.1901H121.896Z" fill="#000257"/>
<path d="M178.03 75.1197C185.643 75.1197 189.812 71.9837 192.077 68.5789V74.0445H207.847V43.6701C207.847 31.2157 199.509 25.9293 186.458 25.9293C173.498 25.9293 164.526 31.4845 163.801 42.7741H179.027C179.389 39.8173 181.021 37.2189 185.461 37.2189C190.627 37.2189 191.715 40.1757 191.715 44.6557V45.7309H187.183C171.414 45.7309 161.988 50.0317 161.988 61.0525C161.988 70.9981 169.511 75.1197 178.03 75.1197ZM183.649 64.2781C179.842 64.2781 178.03 62.5757 178.03 59.8877C178.03 56.0349 180.93 54.7805 187.455 54.7805H191.715V57.6477C191.715 61.6797 188.271 64.2781 183.649 64.2781Z" fill="#000257"/>
<path d="M234.685 75.1197C241.844 75.1197 247.101 71.2669 249.457 66.4285V74.0445H265.68V6.57568H249.457V33.8141C246.738 29.0653 242.297 25.9293 234.866 25.9293C223.628 25.9293 214.746 34.4413 214.746 50.3901V51.1069C214.746 67.3245 223.718 75.1197 234.685 75.1197ZM240.394 62.8445C234.775 62.8445 231.241 58.8125 231.241 50.9277V50.2109C231.241 42.0573 234.503 38.0253 240.575 38.0253C246.557 38.0253 249.91 42.2365 249.91 50.1213V50.8381C249.91 58.8125 246.285 62.8445 240.394 62.8445Z" fill="#000257"/>
<path d="M288.573 75.1197C296.186 75.1197 300.355 71.9837 302.62 68.5789V74.0445H318.39V43.6701C318.39 31.2157 310.052 25.9293 297.001 25.9293C284.041 25.9293 275.069 31.4845 274.344 42.7741H289.57C289.932 39.8173 291.564 37.2189 296.005 37.2189C301.17 37.2189 302.258 40.1757 302.258 44.6557V45.7309H297.726C281.957 45.7309 272.532 50.0317 272.532 61.0525C272.532 70.9981 280.054 75.1197 288.573 75.1197ZM294.192 64.2781C290.386 64.2781 288.573 62.5757 288.573 59.8877C288.573 56.0349 291.473 54.7805 297.998 54.7805H302.258V57.6477C302.258 61.6797 298.814 64.2781 294.192 64.2781Z" fill="#000257"/>
<path d="M327.645 74.0445H343.868V51.8237C343.868 44.2973 349.306 41.2509 359.185 41.5197V26.5565C351.844 26.4669 346.859 29.5133 343.868 36.5021V27.1837H327.645V74.0445Z" fill="#000257"/>
<path d="M69.4615 84L34.8461 0L0.230713 84L34.8461 69.6889L69.4615 84Z" fill="#000257"/>
</svg>
