<svg version="1.1" id="Layer_1" xmlns="http://www.w3.org/2000/svg" xmlns:xlink="http://www.w3.org/1999/xlink" x="0px" y="0px" width="100%" viewBox="0 0 500 500" enable-background="new 0 0 500 500" xml:space="preserve">
	<path fill="#747EF6" opacity="1.000000" stroke="none" 
		d="
	M281.987061,462.037354 
		C227.641983,468.339569 176.604263,459.051605 129.514267,432.010956 
		C62.331078,393.432098 21.158209,335.715698 6.378690,259.545563 
		C3.918549,246.866577 0.854233,233.896591 4.089091,220.982315 
		C5.786692,214.205093 8.319109,206.999542 12.540708,201.604065 
		C29.417498,180.034378 54.396034,168.747406 82.686134,175.992661 
		C108.064865,182.492310 127.438911,207.128998 128.189819,233.353714 
		C128.611237,248.071335 124.859169,261.237274 116.450691,273.259308 
		C115.584045,274.498383 115.511185,277.076508 116.190269,278.498108 
		C132.576981,312.802063 158.193604,337.803894 193.261353,352.403595 
		C233.933319,369.336456 274.719818,368.527466 314.716248,349.944122 
		C346.841675,335.017883 370.219513,310.945038 385.894592,279.233948 
		C387.313416,276.363617 386.241364,274.724121 384.716583,272.640381 
		C356.892670,234.616653 381.253845,179.289062 428.080811,174.094208 
		C468.099854,169.654587 501.109344,202.976318 497.646454,243.085831 
		C490.481812,326.071991 432.005096,412.200165 341.225037,447.022095 
		C322.200836,454.319489 302.665527,459.495636 281.987061,462.037354 
	z"/>
	<path fill="#747EF6" opacity="1.000000" stroke="none" 
		d="
	M374.606873,150.704010 
		C350.993317,162.085785 328.393707,161.099411 307.459961,145.642227 
		C287.446625,130.864685 279.621918,110.161049 283.245758,85.907906 
		C286.640594,63.187645 299.700928,46.818111 321.045502,38.110863 
		C359.504272,22.422087 401.795898,46.838215 406.608063,88.065041 
		C409.779419,115.234566 398.459869,136.277359 374.606873,150.704010 
	z"/>
	<path fill="#747EF6" opacity="1.000000" stroke="none" 
		d="
		M190.823212,43.121002 
		C226.373749,66.099083 228.962479,115.855827 198.832306,142.256729 
		C180.584915,158.245605 159.272354,162.615662 136.444336,154.471893 
		C112.388618,145.890121 98.088913,128.022110 95.346077,102.726852 
		C92.540344,76.851501 102.643547,55.844219 125.220856,42.359428 
		C146.744476,29.503979 168.855515,30.148035 190.823212,43.121002 
	z"/>
</svg>
